<svg width="430" height="213" viewBox="0 0 430 213" fill="none" xmlns="http://www.w3.org/2000/svg">
<path d="M0 0H430V213H0V0Z" fill="#0EB58F"/>
<path d="M128.315 131.036C129.355 131.036 130.155 131.516 130.715 132.476C131.355 133.436 131.675 134.756 131.675 136.436C131.675 139.636 130.915 142.116 129.395 143.876C126.115 147.876 122.515 151.316 118.595 154.196C114.675 156.996 110.795 158.396 106.955 158.396C100.875 158.396 96.2345 154.836 93.0345 147.716C89.6745 151.956 86.7145 154.796 84.1545 156.236C81.6745 157.676 78.7545 158.396 75.3945 158.396C70.5145 158.396 66.4745 156.596 63.2745 152.996C60.1545 149.316 58.5945 144.556 58.5945 138.716C58.5945 132.316 59.9545 126.396 62.6745 120.956C65.3945 115.436 69.1145 110.956 73.8345 107.516C78.6345 103.996 83.9945 101.916 89.9145 101.276C91.4345 85.7559 94.3145 72.5159 98.5545 61.5559C102.875 50.5159 108.515 44.9959 115.475 44.9959C118.915 44.9959 121.755 46.5559 123.995 49.6759C126.315 52.7959 127.475 57.5159 127.475 63.8359C127.475 72.7959 125.275 83.2759 120.875 95.2759C116.475 107.276 110.595 119.596 103.235 132.236C103.555 136.876 104.235 140.196 105.275 142.196C106.395 144.196 107.795 145.196 109.475 145.196C111.635 145.196 113.835 144.236 116.075 142.316C118.315 140.396 121.315 137.196 125.075 132.716C126.035 131.596 127.115 131.036 128.315 131.036ZM114.155 56.7559C112.635 56.7559 111.115 59.4759 109.595 64.9159C108.075 70.2759 106.755 77.3159 105.635 86.0359C104.595 94.7559 103.835 103.876 103.355 113.396C112.315 93.8759 116.795 78.1959 116.795 66.3559C116.795 63.3159 116.515 60.9559 115.955 59.2759C115.475 57.5959 114.875 56.7559 114.155 56.7559ZM79.5945 146.276C81.1145 146.276 82.6345 145.676 84.1545 144.476C85.6745 143.196 87.5945 140.876 89.9145 137.516C89.1145 133.196 88.7145 128.356 88.7145 122.996C88.7145 121.076 88.7945 117.956 88.9545 113.636C84.5545 114.996 80.8745 117.956 77.9145 122.516C75.0345 126.996 73.5945 131.996 73.5945 137.516C73.5945 143.356 75.5945 146.276 79.5945 146.276ZM137.632 93.9559C134.272 93.9559 131.752 93.1959 130.072 91.6759C128.392 90.0759 127.552 87.8759 127.552 85.0759C127.552 82.2759 128.632 79.9559 130.792 78.1159C133.032 76.1959 135.792 75.2359 139.072 75.2359C142.032 75.2359 144.432 75.9559 146.272 77.3959C148.112 78.8359 149.032 80.8759 149.032 83.5159C149.032 86.7159 147.992 89.2759 145.912 91.1959C143.832 93.0359 141.072 93.9559 137.632 93.9559ZM136.672 158.396C131.472 158.396 127.672 156.556 125.272 152.876C122.952 149.196 121.792 144.316 121.792 138.236C121.792 134.636 122.232 130.036 123.112 124.436C124.072 118.756 125.272 113.476 126.712 108.596C127.432 106.036 128.392 104.276 129.592 103.316C130.792 102.356 132.712 101.876 135.352 101.876C139.432 101.876 141.472 103.236 141.472 105.956C141.472 107.956 140.712 112.596 139.192 119.876C137.272 128.676 136.312 134.636 136.312 137.756C136.312 140.156 136.632 141.996 137.272 143.276C137.912 144.556 138.992 145.196 140.512 145.196C141.952 145.196 143.752 144.196 145.912 142.196C148.072 140.196 150.952 137.036 154.552 132.716C155.512 131.596 156.592 131.036 157.792 131.036C158.832 131.036 159.632 131.516 160.192 132.476C160.832 133.436 161.152 134.756 161.152 136.436C161.152 139.636 160.392 142.116 158.872 143.876C150.952 153.556 143.552 158.396 136.672 158.396ZM249.364 105.956C251.204 105.956 252.524 106.356 253.324 107.156C254.204 107.956 254.644 108.996 254.644 110.276C254.644 112.356 254.004 114.196 252.724 115.796C251.524 117.396 249.604 118.236 246.964 118.316C240.564 118.476 234.884 117.996 229.924 116.876C224.244 128.796 217.364 138.716 209.284 146.636C201.284 154.476 193.244 158.396 185.164 158.396C176.844 158.396 170.644 153.556 166.564 143.876C162.484 134.196 160.444 121.116 160.444 104.636C160.444 90.5559 161.444 77.9159 163.444 66.7159C164.164 62.5559 165.164 59.7559 166.444 58.3159C167.804 56.7959 170.084 56.0359 173.284 56.0359C178.564 56.0359 181.204 58.3159 181.204 62.8759C181.204 63.3559 181.124 64.2359 180.964 65.5159C178.564 79.9159 177.364 92.9559 177.364 104.636C177.364 116.876 178.364 126.196 180.364 132.596C182.444 138.916 185.524 142.076 189.604 142.076C193.764 142.076 198.284 139.196 203.164 133.436C208.044 127.676 212.524 120.436 216.604 111.716C211.724 108.676 208.044 104.756 205.564 99.9559C203.084 95.0759 201.844 89.4759 201.844 83.1559C201.844 76.8359 202.804 71.5159 204.724 67.1959C206.724 62.7959 209.404 59.5159 212.764 57.3559C216.204 55.1959 220.004 54.1159 224.164 54.1159C229.284 54.1159 233.324 55.9559 236.284 59.6359C239.324 63.3159 240.844 68.3559 240.844 74.7559C240.844 83.9559 238.844 93.9959 234.844 104.876C239.084 105.596 243.924 105.956 249.364 105.956ZM213.964 82.3159C213.964 90.1559 216.484 95.9559 221.524 99.7159C224.644 90.7559 226.204 83.3559 226.204 77.5159C226.204 74.1559 225.764 71.7159 224.884 70.1959C224.004 68.5959 222.804 67.7959 221.284 67.7959C219.124 67.7959 217.364 69.0759 216.004 71.6359C214.644 74.1159 213.964 77.6759 213.964 82.3159ZM258.687 93.9559C255.327 93.9559 252.807 93.1959 251.127 91.6759C249.447 90.0759 248.607 87.8759 248.607 85.0759C248.607 82.2759 249.687 79.9559 251.847 78.1159C254.087 76.1959 256.847 75.2359 260.127 75.2359C263.087 75.2359 265.487 75.9559 267.327 77.3959C269.167 78.8359 270.087 80.8759 270.087 83.5159C270.087 86.7159 269.047 89.2759 266.967 91.1959C264.887 93.0359 262.127 93.9559 258.687 93.9559ZM257.727 158.396C252.527 158.396 248.727 156.556 246.327 152.876C244.007 149.196 242.847 144.316 242.847 138.236C242.847 134.636 243.287 130.036 244.167 124.436C245.127 118.756 246.327 113.476 247.767 108.596C248.487 106.036 249.447 104.276 250.647 103.316C251.847 102.356 253.767 101.876 256.407 101.876C260.487 101.876 262.527 103.236 262.527 105.956C262.527 107.956 261.767 112.596 260.247 119.876C258.327 128.676 257.367 134.636 257.367 137.756C257.367 140.156 257.687 141.996 258.327 143.276C258.967 144.556 260.047 145.196 261.567 145.196C263.007 145.196 264.807 144.196 266.967 142.196C269.127 140.196 272.007 137.036 275.607 132.716C276.567 131.596 277.647 131.036 278.847 131.036C279.887 131.036 280.687 131.516 281.247 132.476C281.887 133.436 282.207 134.756 282.207 136.436C282.207 139.636 281.447 142.116 279.927 143.876C272.007 153.556 264.607 158.396 257.727 158.396ZM281.018 158.396C277.978 158.396 275.818 156.796 274.538 153.596C273.338 150.396 272.738 145.276 272.738 138.236C272.738 127.836 274.218 117.956 277.178 108.596C277.898 106.276 279.058 104.596 280.658 103.556C282.338 102.436 284.658 101.876 287.618 101.876C289.218 101.876 290.338 102.076 290.978 102.476C291.618 102.876 291.938 103.636 291.938 104.756C291.938 106.036 291.338 108.916 290.138 113.396C289.338 116.596 288.698 119.396 288.218 121.796C287.738 124.196 287.338 127.156 287.018 130.676C289.658 123.796 292.618 118.196 295.898 113.876C299.178 109.556 302.378 106.476 305.498 104.636C308.698 102.796 311.618 101.876 314.258 101.876C319.458 101.876 322.058 104.476 322.058 109.676C322.058 112.796 321.178 118.436 319.418 126.596C317.898 133.556 317.138 138.156 317.138 140.396C317.138 143.596 318.298 145.196 320.618 145.196C322.218 145.196 324.098 144.236 326.258 142.316C328.498 140.316 331.458 137.116 335.138 132.716C336.098 131.596 337.178 131.036 338.378 131.036C339.418 131.036 340.218 131.516 340.778 132.476C341.418 133.436 341.738 134.756 341.738 136.436C341.738 139.636 340.978 142.116 339.458 143.876C336.018 148.116 332.298 151.596 328.298 154.316C324.378 157.036 319.898 158.396 314.858 158.396C310.778 158.396 307.698 157.236 305.618 154.916C303.538 152.516 302.498 149.076 302.498 144.596C302.498 142.356 303.058 138.356 304.178 132.596C305.218 127.556 305.738 124.076 305.738 122.156C305.738 120.876 305.298 120.236 304.418 120.236C303.378 120.236 301.898 121.596 299.978 124.316C298.138 126.956 296.218 130.476 294.218 134.876C292.298 139.276 290.738 143.916 289.538 148.796C288.658 152.556 287.618 155.116 286.418 156.476C285.298 157.756 283.498 158.396 281.018 158.396ZM374.99 134.636C376.03 134.636 376.83 135.116 377.39 136.076C378.03 137.036 378.35 138.356 378.35 140.036C378.35 142.916 377.67 145.396 376.31 147.476C374.07 150.916 371.11 153.596 367.43 155.516C363.83 157.436 359.51 158.396 354.47 158.396C346.79 158.396 340.83 156.116 336.59 151.556C332.35 146.916 330.23 140.676 330.23 132.836C330.23 127.316 331.39 122.196 333.71 117.476C336.03 112.676 339.23 108.876 343.31 106.076C347.47 103.276 352.15 101.876 357.35 101.876C361.99 101.876 365.71 103.276 368.51 106.076C371.31 108.796 372.71 112.516 372.71 117.236C372.71 122.756 370.71 127.516 366.71 131.516C362.79 135.436 356.07 138.556 346.55 140.876C348.47 144.556 351.71 146.396 356.27 146.396C359.55 146.396 362.23 145.636 364.31 144.116C366.47 142.596 368.95 140.036 371.75 136.436C372.71 135.236 373.79 134.636 374.99 134.636ZM355.31 113.636C352.35 113.636 349.83 115.356 347.75 118.796C345.75 122.236 344.75 126.396 344.75 131.276V131.516C349.47 130.396 353.19 128.716 355.91 126.476C358.63 124.236 359.99 121.636 359.99 118.676C359.99 117.156 359.55 115.956 358.67 115.076C357.87 114.116 356.75 113.636 355.31 113.636Z" fill="#F5F6EA"/>
</svg>
