<?xml version='1.0' encoding='utf-8'?><svg xmlns:ns0="http://www.w3.org/2000/svg" xmlns="http://www.w3.org/2000/svg" width="500" height="500"><g id="load__frame1" visibility="visible"><ns0:g transform="translate(0.000000,512.000000) scale(0.100000,-0.100000)" fill="#ffffff" stroke="none"><ns0:path d="M2295 4080 c-149 -9 -255 -23 -373 -50 -147 -35 -217 -88 -217 -165 0 -57 27 -93 95 -127 147 -73 598 -116 934 -89 281 23 446 64 515 127 33 30 36 37 36 89 0 52 -3 59 -36 89 -69 64 -279 110 -574 126 -185 10 -189 10 -380 0z m585 -180 c120 -17 175 -31 158 -41 -68 -38 -593 -63 -833 -40 -132 13 -236 30 -248 41 -15 14 99 34 308 54 75 7 540 -3 615 -14z"/><ns0:path d="M687 3538 c-97 -101 -155 -275 -142 -423 8 -82 44 -198 86 -273 l30 -54 -45 31 c-61 43 -94 48 -128 21 -35 -27 -48 -75 -48 -182 0 -219 75 -413 223 -573 38 -42 89 -89 114 -106 41 -28 43 -32 29 -48 -24 -27 -46 -87 -46 -128 0 -62 43 -139 123 -218 155 -154 364 -203 565 -132 51 18 74 22 77 14 2 -7 8 -39 14 -72 24 -127 96 -218 224 -283 131 -66 113 -65 739 -64 402 0 579 4 605 12 160 50 274 160 374 361 l42 86 56 -24 c141 -63 289 -78 402 -43 156 48 313 185 354 310 19 58 14 94 -22 160 -23 43 -23 46 -6 55 47 25 210 205 250 276 78 139 122 326 110 471 -12 142 -65 177 -168 113 -21 -14 -41 -25 -44 -25 -3 0 6 20 20 44 70 120 101 294 76 431 -24 130 -135 305 -193 305 -28 0 -51 -23 -98 -100 -65 -106 -138 -196 -251 -314 -111 -116 -297 -279 -392 -344 l-47 -33 -9 23 c-98 258 -217 394 -473 541 -69 40 -210 84 -318 99 -64 8 -209 13 -445 13 -300 0 -360 -2 -418 -17 -130 -34 -222 -95 -293 -193 -65 -91 -92 -172 -106 -316 l-12 -119 -26 17 c-67 44 -258 214 -375 335 -123 127 -169 185 -268 338 -55 85 -81 90 -140 28z m1725 -686 c20 -9 105 -78 188 -152 84 -74 164 -143 180 -155 72 -52 258 -216 283 -248 41 -54 37 -96 -15 -154 -50 -54 -438 -347 -536 -404 -110 -64 -195 -50 -304 50 -48 44 -52 52 -59 107 -12 100 -10 812 2 855 16 50 53 84 114 102 66 20 102 20 147 -1z"/></ns0:g></g><g id="load__frame2" visibility="hidden"><ns0:g transform="translate(0.000000,512.000000) scale(0.100000,-0.100000)" fill="#ffffff" stroke="none"><ns0:path d="M2053 4099 c-205 -17 -303 -52 -338 -120 -19 -35 -13 -80 16 -121 60 -85 403 -164 826 -190 281 -18 555 6 649 55 43 22 84 73 84 103 0 38 -25 88 -55 112 -90 71 -420 139 -775 162 -185 11 -259 11 -407 -1z m657 -188 c157 -21 283 -46 308 -60 50 -28 -506 -25 -718 4 -129 18 -308 53 -324 63 -43 28 517 23 734 -7z"/><ns0:path d="M494 3515 c-58 -58 -104 -199 -104 -320 0 -136 43 -259 135 -384 l44 -60 -45 20 c-55 23 -82 24 -111 4 -37 -26 -46 -84 -28 -179 32 -173 102 -318 209 -433 67 -72 204 -173 263 -193 l29 -11 -19 -59 c-24 -73 -18 -112 27 -177 105 -154 379 -251 560 -199 32 10 60 16 61 14 2 -2 10 -42 18 -89 27 -158 97 -252 237 -321 120 -59 109 -58 724 -58 614 0 630 1 725 56 103 60 212 200 287 368 16 36 34 66 39 66 6 0 35 -10 65 -21 76 -29 206 -36 287 -16 183 47 353 193 353 302 0 24 -7 62 -15 85 -8 24 -14 44 -13 45 2 2 22 12 45 24 79 39 171 111 246 191 58 61 87 103 126 182 88 180 117 375 62 419 -30 24 -58 24 -115 -1 -25 -10 -46 -17 -46 -14 0 3 18 28 39 57 86 114 141 266 141 391 0 130 -92 336 -149 336 -10 0 -45 -28 -77 -62 -156 -163 -267 -254 -454 -372 -113 -72 -283 -163 -410 -220 -36 -17 -67 -31 -70 -33 -3 -2 -15 23 -28 55 -81 199 -247 367 -481 484 -147 74 -347 100 -756 100 -293 -1 -389 -13 -503 -67 -117 -55 -214 -169 -255 -300 -14 -42 -37 -189 -37 -232 0 -17 -132 40 -262 112 -244 136 -422 267 -578 427 -58 59 -114 108 -123 108 -10 0 -29 -11 -43 -25z m1912 -640 c20 -8 106 -77 192 -152 85 -76 168 -147 183 -158 71 -53 260 -218 283 -248 40 -53 36 -97 -16 -154 -46 -50 -422 -333 -528 -398 -57 -35 -73 -40 -125 -40 -75 0 -123 23 -191 90 -49 49 -51 53 -57 120 -12 123 -8 799 4 836 31 93 158 145 255 104z"/></ns0:g></g><g id="load__frame3" visibility="hidden"><ns0:g transform="translate(0.000000,512.000000) scale(0.100000,-0.100000)" fill="#ffffff" stroke="none"><ns0:path d="M1915 4124 c-144 -16 -194 -45 -202 -117 -7 -56 14 -88 77 -121 287 -150 1278 -263 1437 -165 66 41 76 100 27 166 -75 100 -672 224 -1139 237 -88 2 -178 2 -200 0z m555 -195 c181 -22 378 -58 400 -71 49 -30 -579 47 -740 92 -55 15 159 2 340 -21z"/><ns0:path d="M2080 3510 c-202 -14 -313 -54 -409 -149 -102 -99 -142 -192 -162 -367 -8 -72 -15 -101 -21 -90 -5 9 -55 30 -111 47 -366 111 -673 267 -887 449 -63 54 -88 64 -112 47 -42 -32 -88 -177 -88 -277 0 -141 64 -291 175 -408 l75 -80 -60 15 c-55 14 -62 14 -85 -1 -42 -28 -51 -58 -36 -129 28 -137 119 -303 222 -406 86 -85 207 -161 324 -201 32 -12 49 -23 46 -31 -2 -8 -6 -40 -9 -71 -4 -49 0 -64 22 -103 45 -75 146 -139 283 -176 64 -18 95 -21 175 -16 l96 5 12 -85 c27 -188 130 -305 327 -369 l75 -24 576 3 c367 2 593 7 620 14 64 16 177 98 239 173 30 36 81 119 115 188 54 109 63 122 82 116 177 -57 401 -7 530 119 75 74 86 115 59 225 -4 17 -1 22 14 22 38 0 219 97 293 158 119 96 205 218 259 368 64 176 26 259 -102 220 -26 -8 -47 -13 -47 -11 0 2 25 29 55 60 172 179 225 378 160 601 -18 63 -65 117 -92 107 -10 -4 -52 -34 -94 -68 -95 -78 -147 -113 -255 -176 -156 -89 -426 -206 -569 -244 -133 -36 -150 -45 -176 -91 -13 -24 -25 -41 -27 -39 -2 2 -19 39 -36 82 -107 265 -367 486 -649 553 -151 36 -570 57 -807 40z m338 -619 c20 -11 105 -80 188 -153 83 -73 210 -182 283 -242 166 -137 201 -177 201 -228 0 -31 -8 -47 -42 -85 -46 -50 -384 -305 -512 -387 -74 -47 -84 -51 -140 -51 -77 1 -125 24 -192 90 -49 49 -51 53 -57 120 -11 111 -8 796 3 836 26 94 173 149 268 100z"/></ns0:g></g><g id="load__frame4" visibility="hidden"><ns0:g transform="translate(0.000000,512.000000) scale(0.100000,-0.100000)" fill="#ffffff" stroke="none"><ns0:path d="M1805 4143 c-55 -12 -95 -54 -95 -102 0 -36 46 -76 119 -105 260 -102 1133 -253 1333 -230 103 12 148 83 98 154 -14 20 -45 38 -98 59 -287 110 -1192 260 -1357 224z"/><ns0:path d="M2058 3530 c-192 -16 -298 -57 -393 -154 -105 -107 -146 -212 -161 -413 l-7 -92 -28 39 c-26 35 -34 40 -106 54 -384 79 -693 194 -912 340 -53 35 -106 66 -117 70 -73 22 -123 -225 -78 -382 36 -125 124 -250 239 -339 l40 -31 -54 10 c-93 17 -142 -25 -126 -109 17 -95 119 -268 209 -359 98 -97 261 -187 395 -218 l54 -12 -2 -66 c-3 -80 12 -112 72 -162 89 -73 262 -125 377 -113 l57 6 13 -90 c21 -157 78 -243 216 -327 107 -66 109 -66 739 -70 362 -2 583 1 605 7 19 6 51 15 70 21 55 16 168 108 222 179 27 36 74 117 105 179 49 99 59 113 77 108 148 -41 358 11 471 115 53 49 70 93 61 165 -6 53 -6 54 19 54 65 0 244 80 342 154 110 83 215 221 268 353 35 88 35 140 0 171 -24 20 -33 22 -88 16 l-62 -7 60 50 c107 89 176 191 214 317 32 105 24 252 -19 337 -32 62 -46 61 -155 -16 -200 -141 -540 -272 -876 -339 -133 -27 -146 -34 -190 -111 -24 -42 -29 -46 -35 -30 -66 187 -142 314 -246 411 -73 67 -199 152 -290 194 -87 41 -196 67 -330 79 -157 15 -533 21 -650 11z m360 -619 c20 -11 105 -79 189 -153 166 -145 218 -190 339 -288 156 -127 178 -181 107 -262 -41 -45 -415 -328 -528 -399 -63 -40 -76 -44 -130 -43 -74 0 -130 27 -195 94 -44 45 -47 52 -53 117 -11 109 -8 794 3 834 26 94 173 149 268 100z"/></ns0:g></g><g id="load__frame5" visibility="hidden"><ns0:g transform="translate(0.000000,512.000000) scale(0.100000,-0.100000)" fill="#ffffff" stroke="none"><ns0:path d="M1757 4159 c-9 -5 -24 -23 -32 -38 -21 -42 -7 -82 41 -108 77 -42 1268 -283 1411 -286 77 -1 119 50 93 114 -7 16 -25 36 -39 43 -77 40 -1309 287 -1424 286 -17 0 -40 -5 -50 -11z"/><ns0:path d="M2037 3549 c-181 -18 -279 -58 -372 -153 -108 -110 -149 -217 -161 -423 l-7 -111 -38 48 c-21 27 -42 51 -47 54 -5 3 -51 10 -103 16 -327 37 -699 151 -919 282 -100 59 -105 60 -133 38 -34 -27 -47 -83 -47 -198 0 -111 20 -183 75 -278 37 -63 123 -153 191 -200 30 -21 54 -38 54 -38 0 -1 -27 1 -60 2 -52 3 -62 1 -85 -22 -35 -35 -32 -76 11 -166 85 -178 220 -314 387 -390 65 -29 177 -65 238 -75 l37 -6 4 -74 c3 -69 6 -77 38 -110 70 -72 214 -124 346 -125 l71 0 12 -89 c15 -110 52 -191 112 -248 55 -52 123 -97 175 -113 21 -7 57 -19 80 -26 55 -19 1165 -15 1232 4 136 39 269 179 367 385 l43 90 124 1 c111 2 130 4 197 31 52 21 92 46 130 81 l56 52 0 70 0 70 44 7 c257 39 497 218 621 465 65 128 39 195 -72 188 -32 -2 -58 -1 -58 2 0 3 15 14 32 25 53 31 158 136 200 200 21 32 50 97 65 143 22 72 25 95 21 175 -6 99 -25 159 -56 176 -16 8 -29 5 -63 -14 -305 -171 -603 -268 -954 -311 -118 -14 -120 -15 -155 -52 -19 -20 -47 -53 -61 -71 l-25 -34 -28 79 c-70 200 -181 342 -360 463 -116 78 -225 126 -341 150 -172 35 -604 50 -818 30z m377 -614 c18 -9 100 -75 182 -148 83 -73 214 -185 292 -249 79 -64 154 -131 168 -147 54 -65 47 -116 -28 -187 -70 -68 -473 -360 -542 -394 -57 -28 -71 -31 -115 -25 -62 8 -153 65 -196 121 l-30 39 -3 421 c-3 277 0 434 7 460 26 96 168 155 265 109z"/></ns0:g></g><g id="load__frame6" visibility="hidden"><ns0:g transform="translate(0.000000,512.000000) scale(0.100000,-0.100000)" fill="#ffffff" stroke="none"><ns0:path d="M1754 4173 c-45 -38 -51 -85 -16 -125 23 -27 110 -56 292 -98 402 -94 931 -189 1090 -197 97 -5 107 -4 127 16 49 46 38 107 -23 143 -96 56 -1102 259 -1359 274 -77 4 -93 3 -111 -13z"/><ns0:path d="M2025 3569 c-170 -17 -266 -58 -361 -153 -108 -108 -149 -218 -160 -435 -7 -119 -8 -124 -23 -100 -9 13 -32 41 -51 62 l-35 39 -113 9 c-334 27 -641 105 -891 227 -145 70 -153 71 -180 16 -19 -39 -26 -174 -12 -248 26 -139 129 -283 269 -376 l76 -52 -49 2 c-77 3 -83 1 -105 -22 -30 -32 -25 -76 19 -164 71 -141 186 -258 333 -338 75 -41 210 -84 291 -93 l57 -6 0 -49 c0 -92 39 -146 139 -194 60 -28 177 -54 245 -54 l43 0 12 -87 c23 -164 100 -272 241 -340 137 -65 112 -63 729 -63 486 0 569 2 614 16 83 26 115 45 193 117 78 73 136 156 195 281 l36 78 109 2 c121 3 189 22 275 76 65 42 92 88 94 159 l2 56 59 7 c134 17 295 85 406 173 124 97 268 315 254 383 -12 50 -37 65 -108 63 -35 -1 -58 2 -53 6 6 5 36 26 67 47 112 74 200 186 248 313 41 106 27 316 -22 347 -12 7 -47 -6 -139 -51 -152 -75 -256 -112 -441 -157 -166 -40 -301 -63 -458 -75 -125 -10 -138 -18 -201 -108 -17 -24 -33 -43 -37 -43 -4 0 -20 38 -36 85 -81 239 -247 421 -501 549 -85 42 -197 72 -325 86 -134 14 -598 21 -705 9z m388 -613 c18 -7 97 -71 177 -142 80 -71 206 -178 280 -239 158 -129 207 -179 218 -220 19 -70 -16 -106 -297 -315 -270 -200 -326 -233 -395 -233 -69 0 -133 31 -195 94 -45 46 -48 52 -54 116 -11 109 -8 794 3 832 27 94 163 150 263 107z"/></ns0:g></g><g id="load__frame7" visibility="hidden"><ns0:g transform="translate(0.000000,512.000000) scale(0.100000,-0.100000)" fill="#ffffff" stroke="none"><ns0:path d="M1800 4201 c-75 -18 -113 -94 -74 -149 48 -68 380 -163 814 -231 326 -52 620 -67 680 -36 65 34 80 104 33 154 -50 52 -217 106 -508 166 -395 81 -830 125 -945 96z"/><ns0:path d="M2016 3589 c-161 -17 -275 -68 -362 -162 -102 -110 -139 -214 -151 -433 l-8 -128 -43 58 c-50 65 -71 76 -150 76 -86 0 -311 28 -457 57 -163 32 -370 99 -488 158 -50 25 -98 45 -107 45 -47 0 -75 -88 -66 -207 10 -129 58 -240 148 -338 47 -52 173 -145 196 -145 6 0 13 -3 15 -7 3 -5 -18 -7 -46 -5 -39 2 -60 -2 -85 -17 -28 -18 -32 -26 -32 -64 0 -44 18 -85 77 -175 78 -118 222 -235 356 -289 67 -27 215 -62 263 -63 31 0 32 -1 36 -57 2 -32 11 -71 19 -87 33 -66 155 -122 297 -136 47 -5 85 -10 87 -12 1 -2 8 -41 15 -88 27 -192 130 -308 333 -375 l78 -25 569 0 c313 0 571 4 574 9 3 4 24 11 47 15 53 9 131 60 201 134 67 70 118 148 169 257 l37 82 91 1 c187 1 335 76 361 181 6 27 10 60 8 73 -3 21 1 23 57 30 248 27 458 157 604 371 105 154 86 245 -49 235 -27 -1 -48 -2 -47 -1 1 0 36 24 78 52 105 70 179 152 231 258 l43 86 0 127 c0 136 -13 180 -55 180 -11 0 -62 -21 -112 -46 -222 -111 -553 -189 -907 -212 l-124 -9 -31 -35 c-17 -19 -45 -52 -63 -73 -23 -27 -34 -34 -37 -24 -3 8 -17 48 -32 89 -75 213 -197 362 -395 485 -168 104 -283 137 -549 155 -170 11 -481 11 -594 -1z m411 -618 c17 -11 94 -75 170 -143 77 -68 205 -176 284 -242 201 -165 226 -199 205 -266 -14 -42 -54 -77 -281 -247 -288 -216 -336 -244 -410 -244 -71 0 -131 28 -194 92 -47 48 -48 51 -55 125 -10 125 -7 785 4 824 14 47 52 88 97 105 57 21 142 19 180 -4z"/></ns0:g></g><g id="load__frame8" visibility="hidden"><ns0:g transform="translate(0.000000,512.000000) scale(0.100000,-0.100000)" fill="#ffffff" stroke="none"><ns0:path d="M1866 4220 c-107 -17 -171 -77 -156 -146 5 -20 18 -46 30 -59 79 -84 487 -180 918 -216 168 -14 470 -7 522 12 155 56 139 188 -30 254 -137 54 -345 100 -615 136 -170 22 -573 34 -669 19z m566 -176 c221 -22 551 -82 504 -92 -26 -6 -328 16 -465 33 -156 20 -394 65 -406 77 -12 11 151 4 367 -18z"/><ns0:path d="M2005 3609 c-163 -19 -271 -71 -361 -173 -95 -107 -129 -208 -140 -420 l-7 -128 -56 62 -56 62 -160 9 c-335 17 -642 85 -875 195 -54 25 -106 44 -116 42 -29 -5 -48 -55 -52 -136 -6 -100 12 -183 60 -274 58 -112 119 -171 284 -275 16 -10 10 -12 -39 -12 -48 -1 -62 -5 -82 -26 -32 -31 -32 -64 1 -128 104 -207 289 -354 522 -413 52 -13 116 -24 143 -24 l49 0 0 -36 c0 -77 20 -124 69 -160 62 -45 149 -74 247 -81 l81 -6 12 -89 c14 -107 45 -181 102 -243 49 -53 158 -121 209 -131 19 -4 47 -13 62 -20 43 -22 1129 -20 1201 2 85 25 138 56 204 118 74 68 127 146 188 272 l44 91 108 5 c120 6 191 27 262 78 50 37 70 75 74 142 l3 53 70 6 c130 12 249 53 356 122 141 90 297 282 306 377 6 69 -17 90 -100 90 l-63 0 46 28 c135 81 219 168 275 287 56 117 67 268 27 352 -19 41 -37 42 -113 3 -224 -113 -564 -192 -900 -209 l-165 -9 -66 -72 c-36 -40 -68 -69 -71 -64 -3 5 -15 40 -27 78 -65 203 -194 368 -383 491 -149 96 -253 133 -433 156 -112 14 -644 20 -740 8z m424 -620 c19 -11 91 -71 160 -133 69 -62 151 -132 182 -157 124 -97 265 -220 291 -253 47 -59 38 -115 -29 -177 -54 -52 -446 -340 -522 -384 -59 -35 -68 -37 -130 -33 -58 3 -73 8 -121 42 -79 56 -103 89 -111 155 -12 90 -10 801 1 841 22 76 89 118 190 119 39 1 65 -5 89 -20z"/></ns0:g></g><g id="load__frame9" visibility="hidden"><ns0:g transform="translate(0.000000,512.000000) scale(0.100000,-0.100000)" fill="#ffffff" stroke="none"><ns0:path d="M2040 4244 c-250 -32 -335 -74 -335 -169 0 -87 72 -136 270 -185 243 -59 515 -85 810 -77 299 8 418 35 480 109 23 28 26 38 22 78 -10 87 -101 138 -338 189 -183 39 -334 53 -609 56 -146 2 -281 1 -300 -1z m640 -180 c149 -17 330 -51 344 -64 29 -29 -453 -33 -684 -6 -154 18 -345 52 -369 66 -15 8 19 14 139 24 88 8 437 -4 570 -20z"/><ns0:path d="M2000 3630 c-160 -20 -258 -67 -352 -169 -98 -106 -134 -212 -145 -429 l-6 -133 -61 66 -61 66 -180 9 c-350 18 -599 76 -903 211 -62 27 -80 21 -99 -32 -15 -42 -16 -149 -3 -220 29 -156 159 -317 325 -402 46 -23 48 -25 20 -24 -117 4 -150 -17 -143 -92 8 -85 132 -250 252 -336 122 -86 300 -151 436 -158 l45 -2 3 -49 c2 -27 9 -64 17 -82 29 -69 156 -128 300 -141 l72 -6 11 -81 c27 -206 121 -317 330 -387 l87 -29 553 0 c594 0 593 0 702 53 105 51 234 212 314 392 l27 60 92 1 c109 0 184 20 253 66 67 46 85 74 91 147 6 60 7 63 30 58 40 -7 204 29 286 63 131 55 255 154 342 275 86 120 103 181 65 223 -19 20 -42 25 -117 26 -13 0 -23 4 -23 8 0 4 5 8 11 8 25 0 150 94 207 155 131 139 185 352 127 492 -18 42 -32 42 -124 -2 -226 -109 -528 -177 -864 -195 -169 -9 -179 -11 -212 -36 -19 -14 -35 -29 -35 -33 0 -3 -18 -25 -39 -48 l-40 -42 -26 81 c-70 216 -181 364 -367 489 -154 104 -269 147 -446 170 -106 13 -660 20 -752 9z m422 -616 c17 -9 95 -73 172 -141 78 -69 162 -142 188 -162 106 -83 255 -212 280 -245 47 -59 36 -117 -34 -182 -43 -40 -437 -330 -508 -374 -78 -48 -158 -53 -228 -15 -27 15 -69 47 -93 71 -37 38 -44 51 -50 101 -11 91 -10 803 1 843 13 44 50 87 92 105 45 19 142 19 180 -1z"/></ns0:g></g><g id="load__frame10" visibility="hidden"><ns0:g transform="translate(0.000000,512.000000) scale(0.100000,-0.100000)" fill="#ffffff" stroke="none"><ns0:path d="M2170 4259 c-116 -12 -278 -45 -343 -69 -29 -11 -68 -36 -87 -55 -30 -31 -34 -41 -34 -87 0 -48 3 -54 42 -88 160 -142 1004 -177 1386 -58 51 16 81 33 114 64 44 43 45 44 39 96 -5 44 -12 58 -42 84 -44 39 -132 68 -288 95 -101 18 -173 22 -412 24 -159 2 -328 -1 -375 -6z m690 -169 c111 -14 190 -31 185 -40 -4 -7 -52 -17 -170 -36 -100 -16 -391 -23 -554 -14 -176 10 -348 33 -364 49 -14 14 146 40 338 55 87 7 477 -3 565 -14z"/><ns0:path d="M1992 3650 c-156 -22 -246 -65 -335 -160 -107 -113 -143 -216 -154 -438 l-6 -133 -61 66 -61 65 -135 5 c-356 14 -707 91 -929 205 -88 44 -122 16 -129 -108 -5 -95 16 -191 60 -276 42 -80 163 -200 248 -246 l65 -35 -60 -3 c-107 -6 -132 -60 -75 -166 73 -140 198 -259 345 -332 96 -46 235 -83 318 -84 l47 0 1 -47 c0 -27 5 -63 12 -82 24 -68 156 -132 304 -146 l71 -7 10 -82 c14 -110 44 -185 97 -244 53 -59 148 -118 221 -137 29 -7 62 -18 73 -24 13 -8 198 -11 578 -10 598 0 591 0 703 53 24 11 79 55 121 97 76 75 130 158 191 293 l26 60 94 2 c115 2 204 29 273 82 52 40 73 81 74 153 l1 36 78 6 c150 10 306 76 435 182 113 93 222 248 222 316 0 57 -25 78 -97 81 l-61 3 74 47 c174 110 268 248 289 425 8 67 7 101 -2 142 -21 87 -31 89 -178 26 -250 -108 -535 -167 -865 -180 l-140 -5 -71 -76 -72 -76 -27 82 c-70 217 -187 373 -369 495 -147 98 -262 142 -431 165 -102 14 -690 22 -773 10z m432 -617 c16 -9 102 -79 191 -157 89 -77 209 -179 266 -226 57 -47 128 -109 157 -138 65 -67 70 -105 20 -171 -37 -48 -454 -362 -552 -417 -113 -61 -213 -39 -313 69 -40 44 -41 46 -48 138 -3 52 -5 254 -3 450 l3 356 29 41 c50 73 164 98 250 55z"/></ns0:g></g><g id="load__frame11" visibility="hidden"><ns0:g transform="translate(0.000000,512.000000) scale(0.100000,-0.100000)" fill="#ffffff" stroke="none"><ns0:path d="M2320 4275 c-287 -33 -504 -91 -569 -153 -66 -63 -63 -141 6 -190 155 -107 839 -108 1263 -1 139 35 209 68 245 115 23 30 27 43 22 80 -2 25 -13 54 -22 64 -27 30 -94 59 -176 76 -106 23 -598 28 -769 9z m690 -163 c24 -9 24 -10 -15 -20 -163 -45 -429 -72 -698 -73 -212 0 -327 7 -327 21 0 18 266 63 474 80 128 11 533 5 566 -8z"/><ns0:path d="M1965 3665 c-163 -26 -273 -90 -355 -207 -76 -109 -110 -244 -110 -442 l0 -80 -62 67 -63 67 -135 6 c-359 13 -706 90 -929 204 -84 42 -120 16 -128 -94 -11 -133 41 -291 129 -391 49 -56 136 -123 203 -158 l50 -26 -66 -1 c-55 0 -69 -4 -87 -23 -40 -42 -25 -104 52 -211 86 -120 204 -219 324 -273 75 -33 235 -73 295 -73 l47 0 0 -45 c0 -25 6 -60 14 -79 31 -75 153 -135 296 -145 l75 -6 12 -82 c14 -98 27 -143 60 -200 49 -85 157 -156 304 -203 63 -19 87 -20 610 -19 527 1 546 1 617 22 146 43 261 158 363 362 l61 120 106 6 c212 12 332 97 332 237 0 32 0 32 49 32 74 0 232 44 319 90 44 22 109 66 145 98 125 107 236 273 222 331 -12 48 -33 61 -97 61 -32 0 -58 4 -58 10 0 6 5 10 10 10 21 0 125 73 182 128 112 106 169 234 170 381 1 155 -30 188 -130 137 -221 -111 -572 -187 -927 -201 l-130 -5 -72 -76 -71 -77 -21 69 c-47 160 -155 334 -264 427 -63 53 -170 123 -254 166 -89 46 -227 77 -389 90 -187 15 -597 12 -699 -4z m460 -612 c19 -10 98 -75 177 -145 79 -70 160 -139 180 -155 94 -72 257 -215 281 -247 66 -86 29 -137 -257 -350 -272 -203 -344 -246 -411 -246 -67 0 -139 36 -198 99 l-45 48 -7 94 c-3 52 -5 254 -3 449 3 385 4 392 60 433 35 26 115 48 156 42 19 -2 49 -12 67 -22z"/></ns0:g></g><g id="load__frame12" visibility="hidden"><ns0:g transform="translate(0.000000,512.000000) scale(0.100000,-0.100000)" fill="#ffffff" stroke="none"><ns0:path d="M2700 4310 c-266 -17 -595 -70 -774 -127 -161 -50 -216 -95 -216 -173 0 -51 37 -93 96 -109 174 -49 590 -34 974 35 334 60 492 130 506 224 6 43 -22 92 -64 114 -65 34 -299 49 -522 36z m241 -171 c-33 -13 -260 -54 -411 -74 -124 -16 -500 -33 -490 -22 17 18 395 78 600 96 139 12 331 12 301 0z"/><ns0:path d="M2000 3693 c-183 -24 -301 -89 -389 -214 -77 -110 -111 -244 -111 -443 l0 -80 -62 68 -63 68 -180 9 c-376 18 -581 66 -923 215 -30 14 -34 13 -56 -9 -54 -54 -44 -242 19 -371 20 -40 59 -99 86 -129 49 -55 188 -157 214 -157 8 0 16 -3 18 -7 3 -5 -23 -9 -56 -11 -47 -2 -68 -8 -85 -25 -55 -51 4 -175 153 -323 79 -79 105 -98 195 -143 107 -52 243 -90 326 -91 l42 0 4 -60 c3 -39 11 -70 25 -88 47 -64 156 -110 280 -119 81 -6 83 -7 83 -32 1 -62 31 -187 57 -238 33 -66 100 -127 186 -171 132 -66 113 -65 739 -64 404 0 578 4 605 12 165 51 275 160 382 380 l52 105 107 6 c128 8 200 32 266 90 46 41 66 84 66 145 l0 31 68 6 c269 24 528 198 647 435 40 80 17 141 -54 143 -20 1 -47 4 -60 8 -22 6 -22 7 13 24 143 67 284 238 316 381 14 65 14 188 0 231 -19 57 -35 59 -135 13 -239 -107 -609 -188 -860 -188 -44 0 -103 -3 -132 -6 -54 -7 -68 -17 -162 -123 l-30 -34 -17 58 c-63 219 -188 395 -364 511 -111 74 -157 99 -240 128 -131 47 -233 58 -600 61 -184 2 -351 1 -370 -2z m412 -611 c20 -9 105 -78 188 -152 84 -74 164 -143 180 -155 72 -52 258 -216 283 -248 41 -54 37 -96 -15 -154 -50 -54 -438 -347 -536 -404 -110 -64 -195 -50 -304 50 -48 44 -52 52 -59 107 -12 100 -10 812 2 855 16 50 53 84 114 102 66 20 102 20 147 -1z"/></ns0:g></g><g id="load__frame13" visibility="hidden"><ns0:g transform="translate(0.000000,512.000000) scale(0.100000,-0.100000)" fill="#ffffff" stroke="none"><ns0:path d="M2820 4303 c-510 -51 -988 -162 -1076 -250 -65 -65 -32 -151 67 -172 281 -61 1336 123 1444 250 53 64 24 145 -61 168 -35 10 -289 13 -374 4z"/><ns0:path d="M1995 3689 c-161 -21 -253 -66 -347 -168 -98 -106 -134 -212 -144 -428 l-7 -132 -36 51 c-40 57 -50 61 -176 78 -93 13 -278 58 -412 101 -151 49 -297 114 -423 189 -64 38 -124 70 -133 70 -44 0 -77 -97 -77 -229 0 -146 59 -278 173 -388 40 -38 85 -78 100 -89 l29 -20 -65 4 c-56 4 -68 1 -86 -17 -32 -32 -28 -92 14 -179 116 -243 318 -404 570 -456 l59 -13 -3 -51 c-1 -29 3 -68 9 -86 33 -102 239 -193 412 -184 l66 4 11 -72 c29 -197 126 -306 331 -375 l85 -29 553 0 c594 0 593 0 702 53 104 51 239 218 310 385 20 45 26 53 44 47 96 -27 256 -12 355 35 124 59 181 139 166 237 -6 42 -6 43 23 43 43 0 156 37 233 76 167 83 324 258 389 431 25 68 25 94 -1 127 -20 26 -26 27 -85 24 -35 -2 -64 -1 -64 2 0 3 13 13 29 23 63 37 166 152 204 227 63 127 77 211 56 339 -11 72 -32 119 -56 128 -17 7 -24 3 -177 -86 -215 -126 -487 -215 -866 -283 -78 -14 -87 -21 -151 -118 -16 -24 -16 -24 -43 59 -71 219 -181 367 -368 492 -153 104 -269 147 -446 170 -107 14 -672 20 -757 8z m427 -615 c17 -9 95 -73 172 -141 78 -69 162 -142 188 -162 101 -78 225 -186 265 -230 55 -60 58 -100 11 -162 -33 -42 -417 -335 -533 -406 -84 -51 -161 -57 -233 -18 -27 15 -69 47 -93 71 -37 38 -44 51 -50 101 -11 91 -10 803 1 843 13 44 50 87 92 105 45 19 142 19 180 -1z"/></ns0:g></g><g id="load__frame14" visibility="hidden"><ns0:g transform="translate(0.000000,512.000000) scale(0.100000,-0.100000)" fill="#ffffff" stroke="none"><ns0:path d="M3060 4304 c-19 -2 -80 -9 -135 -15 -336 -36 -950 -163 -1111 -230 -56 -23 -75 -37 -89 -63 -34 -62 3 -120 84 -132 165 -26 1085 135 1356 237 67 25 115 69 115 105 0 34 -19 70 -44 82 -24 12 -125 21 -176 16z"/><ns0:path d="M1945 3675 c-199 -37 -350 -166 -408 -350 -19 -59 -37 -195 -37 -278 l0 -59 -27 29 c-17 18 -47 34 -78 42 -196 50 -389 123 -576 217 -146 74 -217 119 -314 197 -81 66 -108 77 -134 52 -55 -49 -88 -225 -65 -345 26 -136 66 -210 169 -317 39 -40 65 -71 58 -69 -7 3 -35 8 -61 12 -42 5 -52 3 -77 -18 -23 -20 -27 -32 -27 -70 3 -137 143 -377 285 -486 68 -53 211 -128 273 -143 33 -9 43 -16 40 -28 -26 -91 -17 -137 40 -199 52 -59 133 -104 239 -133 66 -18 97 -21 178 -16 53 3 97 4 97 4 1 -1 7 -37 15 -81 26 -146 93 -236 228 -304 131 -66 113 -65 740 -64 399 1 578 4 605 12 160 50 271 158 376 368 25 50 48 92 51 92 2 0 30 -7 62 -15 159 -41 353 4 473 112 71 64 84 92 77 174 l-6 66 42 13 c126 37 306 159 387 261 85 108 158 262 167 356 5 46 3 54 -21 78 -24 24 -33 27 -72 21 -24 -3 -54 -8 -67 -11 -17 -5 -2 16 54 74 137 142 196 302 171 471 -11 81 -43 170 -68 191 -22 18 -56 3 -126 -54 -191 -156 -532 -321 -836 -403 -53 -14 -104 -28 -113 -31 -9 -3 -28 -26 -42 -51 -25 -45 -26 -46 -35 -22 -5 14 -24 63 -42 110 -81 212 -214 357 -450 492 -70 40 -186 78 -290 95 -140 22 -745 28 -855 8z m467 -603 c20 -9 105 -78 188 -152 84 -74 164 -143 180 -155 72 -52 258 -216 283 -248 41 -54 37 -96 -15 -154 -50 -54 -438 -347 -536 -404 -110 -64 -195 -50 -304 50 -48 44 -52 52 -59 107 -12 100 -11 817 2 855 20 60 56 89 134 109 49 13 88 10 127 -8z"/></ns0:g></g><g id="load__frame15" visibility="hidden"><ns0:g transform="translate(0.000000,512.000000) scale(0.100000,-0.100000)" fill="#ffffff" stroke="none"><ns0:path d="M3040 4278 c-625 -110 -1194 -230 -1271 -269 -92 -46 -59 -159 46 -159 109 0 1157 204 1364 265 94 29 129 98 76 150 -21 22 -32 25 -92 24 -37 -1 -93 -6 -123 -11z"/><ns0:path d="M1985 3669 c-204 -30 -336 -119 -419 -285 -34 -67 -54 -157 -62 -277 -5 -65 -11 -97 -18 -94 -6 2 -58 21 -116 42 -150 55 -425 197 -565 292 -66 45 -162 120 -213 167 -53 50 -101 86 -113 86 -29 0 -65 -44 -89 -107 -79 -210 -30 -431 133 -610 28 -31 35 -44 22 -39 -11 4 -39 12 -62 19 -38 10 -46 9 -70 -9 -37 -28 -43 -60 -28 -146 27 -155 117 -324 230 -433 64 -62 195 -147 262 -170 31 -11 37 -18 35 -37 -18 -148 -14 -161 53 -230 119 -121 355 -189 500 -144 56 17 65 12 65 -40 0 -43 28 -132 57 -181 14 -24 45 -61 70 -83 48 -42 173 -110 203 -110 10 0 34 -7 54 -15 31 -13 113 -15 598 -11 629 4 620 3 725 74 101 69 168 153 247 310 25 50 47 92 49 92 1 0 30 -10 62 -21 93 -33 207 -37 296 -9 134 40 223 98 284 185 39 54 43 85 21 158 l-14 47 34 9 c41 11 139 70 217 129 121 92 235 267 276 426 45 173 11 238 -105 202 -72 -22 -73 -21 -28 27 147 155 203 329 164 516 -26 126 -67 201 -112 201 -11 0 -47 -26 -81 -58 -155 -146 -301 -245 -531 -362 -135 -69 -194 -94 -359 -154 -30 -12 -52 -27 -61 -44 -11 -20 -16 -23 -19 -12 -76 243 -195 405 -392 533 -170 109 -291 148 -521 166 -162 13 -591 13 -679 0z m431 -609 c12 -5 78 -58 145 -117 66 -59 151 -133 188 -163 310 -254 341 -285 341 -343 0 -56 -58 -113 -281 -279 -275 -205 -347 -248 -414 -248 -65 0 -135 34 -195 95 -58 59 -58 64 -59 545 -1 357 1 388 18 427 38 83 156 121 257 83z"/></ns0:g></g><g id="load__frame16" visibility="hidden"><ns0:g transform="translate(0.000000,512.000000) scale(0.100000,-0.100000)" fill="#ffffff" stroke="none"><ns0:path d="M2900 4235 c-129 -24 -390 -76 -580 -114 -557 -114 -588 -124 -601 -187 -6 -33 13 -79 36 -88 9 -3 40 -6 70 -6 116 0 1309 238 1394 279 65 30 78 95 29 141 -31 29 -76 25 -348 -25z"/><ns0:path d="M2033 3660 c-174 -17 -274 -59 -368 -154 -106 -107 -147 -214 -161 -412 l-7 -101 -87 37 c-154 66 -402 215 -555 334 -33 25 -113 99 -177 162 -103 103 -119 116 -142 110 -55 -14 -124 -169 -133 -296 -9 -138 31 -268 123 -396 l52 -73 -54 21 c-98 38 -142 -5 -131 -130 15 -165 94 -344 206 -464 72 -76 214 -181 264 -193 15 -4 27 -8 27 -10 0 -1 -7 -19 -15 -38 -21 -51 -21 -116 0 -160 46 -97 205 -202 355 -233 85 -18 177 -13 241 13 22 8 42 13 45 10 4 -3 12 -39 19 -79 24 -140 97 -236 229 -301 142 -70 118 -68 751 -65 417 3 582 7 614 16 132 38 271 184 368 387 19 41 37 75 40 75 2 0 22 -9 43 -20 179 -91 422 -44 582 114 29 28 62 71 72 95 20 43 18 73 -10 169 -5 16 -2 22 9 22 31 0 195 120 264 193 110 116 179 255 209 419 19 103 12 151 -28 181 -25 18 -32 19 -65 8 -102 -33 -97 -35 -53 20 88 111 125 199 140 328 8 74 7 98 -10 169 -31 130 -85 222 -130 222 -13 0 -56 -37 -113 -97 -193 -202 -475 -392 -797 -537 -36 -17 -68 -31 -71 -33 -3 -2 -18 30 -33 70 -75 206 -214 361 -441 494 -104 60 -219 95 -375 112 -130 15 -584 22 -697 11z m381 -615 c18 -9 100 -75 183 -148 82 -73 214 -185 292 -249 153 -127 188 -162 200 -205 19 -67 -23 -111 -314 -325 -269 -199 -311 -223 -388 -221 -71 1 -149 44 -205 113 l-37 44 -3 410 c-2 225 -1 429 3 453 12 82 92 142 188 143 27 0 63 -7 81 -15z"/></ns0:g></g><g id="load__frame17" visibility="hidden"><ns0:g transform="translate(0.000000,512.000000) scale(0.100000,-0.100000)" fill="#ffffff" stroke="none"><ns0:path d="M2940 4244 c-161 -22 -497 -81 -680 -120 -316 -67 -484 -117 -519 -156 -39 -41 -32 -103 14 -134 53 -35 346 -2 825 92 440 86 650 147 685 200 28 42 12 103 -32 123 -32 15 -163 12 -293 -5z"/><ns0:path d="M550 3623 c-61 -69 -110 -209 -110 -313 1 -124 55 -280 134 -383 l36 -47 -50 25 c-64 32 -100 32 -131 -1 -22 -24 -24 -33 -22 -112 3 -177 82 -375 200 -502 73 -78 156 -146 220 -178 l41 -22 -17 -37 c-10 -21 -21 -55 -24 -75 -8 -53 39 -144 104 -202 62 -56 188 -120 266 -136 80 -17 216 -8 275 18 l47 21 5 -27 c3 -15 8 -47 12 -72 10 -67 47 -143 95 -195 49 -53 158 -121 209 -131 19 -4 47 -13 62 -20 43 -22 1129 -20 1201 2 84 24 133 53 202 116 73 67 128 146 186 266 22 45 42 82 45 82 3 0 17 -6 32 -14 147 -76 334 -74 483 5 114 61 229 191 229 260 0 24 -17 89 -35 132 -5 11 -3 17 7 17 24 0 128 77 201 148 80 78 137 158 178 248 66 145 91 354 48 408 -23 30 -64 34 -107 12 -15 -7 -37 -17 -50 -21 -21 -6 -20 -2 13 41 49 64 90 148 109 221 20 78 20 208 0 286 -29 112 -96 217 -137 217 -29 -1 -41 -11 -111 -98 -150 -186 -445 -412 -728 -559 l-96 -51 -17 51 c-61 186 -196 354 -377 472 -210 135 -324 161 -763 172 -479 11 -625 -22 -767 -176 -92 -100 -131 -206 -144 -397 l-7 -101 -86 44 c-258 134 -545 360 -713 561 -81 96 -99 102 -148 45z m1871 -599 c17 -8 90 -68 162 -133 73 -64 157 -137 188 -162 124 -97 265 -220 291 -252 42 -54 39 -106 -11 -161 -35 -38 -437 -338 -527 -393 -63 -38 -79 -43 -130 -43 -69 0 -134 33 -198 99 -34 35 -41 50 -47 98 -11 91 -10 803 1 843 14 47 54 90 98 106 51 18 137 17 173 -2z"/></ns0:g></g><g id="load__frame18" visibility="hidden"><ns0:g transform="translate(0.000000,512.000000) scale(0.100000,-0.100000)" fill="#ffffff" stroke="none"><ns0:path d="M2860 4229 c-381 -43 -860 -141 -1026 -210 -83 -35 -124 -74 -124 -121 0 -44 45 -85 105 -94 234 -35 1158 121 1379 233 59 30 85 59 86 95 1 87 -42 108 -217 107 -70 -1 -162 -5 -203 -10z"/><ns0:path d="M613 3655 c-32 -23 -82 -108 -110 -187 -29 -84 -35 -217 -13 -308 16 -69 60 -167 100 -225 l30 -44 -45 25 c-59 33 -110 30 -139 -9 -18 -24 -21 -41 -19 -116 4 -219 98 -430 256 -576 63 -59 143 -118 170 -128 9 -3 9 -7 0 -18 -6 -8 -19 -37 -28 -65 -22 -67 -10 -111 50 -193 56 -76 167 -152 269 -184 99 -31 237 -30 320 2 67 27 70 24 79 -48 20 -167 130 -286 325 -352 l87 -29 553 0 c593 0 594 0 700 52 58 29 162 126 208 195 20 31 57 96 81 145 25 48 46 88 48 88 1 0 27 -11 56 -25 121 -55 223 -67 338 -40 183 43 372 215 371 336 -1 30 -11 65 -34 120 -5 12 4 23 36 42 58 34 181 148 228 212 94 127 148 281 156 440 5 84 2 106 -13 135 -24 47 -74 53 -138 16 -25 -13 -45 -23 -45 -20 0 2 15 27 34 56 105 166 133 341 81 505 -38 121 -103 213 -150 213 -19 0 -38 -18 -86 -82 -158 -209 -465 -471 -715 -609 -73 -40 -94 -43 -94 -12 0 25 -74 176 -119 242 -60 87 -136 160 -243 232 -231 156 -360 183 -868 184 -341 0 -403 -6 -518 -52 -53 -21 -82 -43 -142 -103 -113 -113 -151 -207 -166 -413 -8 -114 2 -111 -122 -34 -237 148 -499 377 -634 554 -74 98 -92 108 -135 78z m1809 -651 c17 -9 95 -73 172 -141 78 -69 162 -142 188 -162 106 -83 255 -212 280 -245 47 -59 36 -117 -34 -182 -44 -41 -438 -331 -508 -374 -78 -48 -158 -53 -228 -15 -27 15 -69 47 -93 71 -37 38 -44 51 -50 101 -11 91 -10 803 1 843 13 44 50 87 92 105 45 19 142 19 180 -1z"/></ns0:g></g><g id="load__frame19" visibility="hidden"><ns0:g transform="translate(0.000000,512.000000) scale(0.100000,-0.100000)" fill="#ffffff" stroke="none"><ns0:path d="M2745 4209 c-358 -34 -814 -131 -956 -205 -68 -35 -98 -112 -63 -162 36 -52 62 -57 299 -56 148 0 261 6 345 17 480 65 809 151 882 231 32 34 38 59 24 101 -13 40 -42 62 -99 74 -55 13 -300 12 -432 0z m-30 -179 c-20 -9 -297 -53 -405 -64 -113 -12 -11 12 160 37 96 15 186 28 200 30 14 3 34 5 45 5 l20 1 -20 -9z"/><ns0:path d="M628 3633 c-85 -89 -133 -235 -125 -383 6 -116 37 -212 105 -322 l21 -34 -60 29 c-50 25 -63 28 -84 19 -47 -22 -60 -57 -59 -162 3 -168 56 -335 148 -464 51 -72 181 -198 228 -222 18 -9 34 -17 35 -18 1 -1 -9 -24 -22 -51 -33 -64 -32 -116 2 -183 59 -117 219 -226 376 -258 91 -19 150 -14 252 21 45 15 72 19 76 13 4 -6 9 -34 13 -64 8 -73 46 -153 97 -209 49 -53 158 -121 209 -131 19 -4 47 -13 62 -20 43 -22 1129 -20 1201 2 84 24 133 53 202 116 73 67 128 146 185 264 l39 81 83 -33 c122 -49 206 -60 301 -41 105 21 197 70 281 148 117 109 147 201 98 296 -12 23 -22 45 -22 47 0 3 14 13 31 21 48 25 187 163 240 239 143 203 190 571 78 610 -22 7 -37 4 -78 -17 -28 -15 -53 -27 -55 -27 -3 0 15 37 39 83 62 118 79 183 78 302 0 75 -6 116 -23 165 -41 121 -113 221 -158 220 -26 -1 -43 -18 -102 -103 -131 -192 -449 -476 -688 -616 -54 -32 -72 -33 -72 -4 0 25 -74 176 -118 239 -57 84 -163 183 -264 249 -210 135 -322 160 -768 172 -475 11 -627 -24 -766 -181 -90 -100 -127 -202 -140 -389 l-7 -97 -46 27 c-200 116 -537 419 -656 588 -92 132 -108 139 -167 78z m1793 -649 c17 -8 90 -68 162 -133 73 -64 157 -137 188 -162 124 -97 265 -220 291 -252 42 -54 39 -106 -11 -161 -35 -39 -438 -338 -529 -394 -70 -43 -76 -44 -140 -40 -59 3 -74 8 -122 42 -79 56 -103 89 -111 155 -12 90 -10 801 1 841 14 47 54 90 98 106 51 18 137 17 173 -2z"/></ns0:g></g><g id="load__frame20" visibility="hidden"><ns0:g transform="translate(0.000000,512.000000) scale(0.100000,-0.100000)" fill="#ffffff" stroke="none"><ns0:path d="M2615 4185 c-463 -46 -821 -139 -887 -229 -36 -50 -21 -120 34 -154 101 -63 543 -56 953 14 368 64 547 135 570 226 10 39 -22 98 -65 120 -77 39 -343 49 -605 23z m310 -154 c-11 -9 -120 -32 -260 -55 -210 -35 -618 -68 -585 -48 45 28 463 89 695 101 77 5 144 9 150 10 5 0 5 -2 0 -8z"/><ns0:path d="M694 3660 c-53 -20 -143 -168 -165 -272 -7 -29 -9 -98 -7 -157 4 -90 10 -118 37 -186 18 -44 43 -97 57 -117 13 -21 22 -38 20 -38 -2 0 -24 11 -47 25 -134 76 -188 -34 -144 -290 37 -212 168 -422 330 -530 l54 -35 -26 -56 c-14 -30 -25 -71 -25 -90 0 -86 114 -226 242 -296 133 -74 292 -87 432 -35 76 28 71 31 83 -58 10 -74 57 -165 112 -217 63 -59 122 -92 216 -123 l78 -25 569 0 c313 0 571 4 574 9 3 4 24 11 47 15 117 19 306 221 375 402 9 24 20 44 25 44 4 0 29 -10 56 -21 79 -35 182 -59 256 -59 130 0 280 69 383 177 99 104 121 191 74 288 -17 36 -20 50 -11 53 20 7 122 95 169 145 118 129 193 301 212 484 22 208 -36 290 -151 217 -23 -14 -43 -23 -46 -21 -2 3 6 22 20 44 34 54 76 163 88 231 16 80 4 208 -25 286 -40 105 -99 190 -145 207 -31 12 -47 -2 -124 -114 -115 -169 -316 -367 -540 -534 -55 -41 -117 -83 -139 -94 -36 -19 -39 -19 -45 -2 -80 232 -212 394 -424 520 -110 66 -209 103 -324 122 -176 29 -585 40 -776 21 -185 -19 -277 -57 -375 -154 -103 -103 -146 -213 -160 -408 -8 -115 7 -116 -162 12 -237 179 -407 349 -532 531 -66 96 -84 111 -116 99z m1719 -694 c18 -7 95 -69 172 -137 77 -69 208 -180 290 -248 171 -141 214 -186 216 -227 4 -71 -24 -99 -301 -304 -275 -204 -325 -233 -395 -232 -71 1 -132 30 -194 93 -45 46 -48 52 -54 116 -11 109 -8 794 3 832 27 94 163 150 263 107z"/></ns0:g></g><g id="load__frame21" visibility="hidden"><ns0:g transform="translate(0.000000,512.000000) scale(0.100000,-0.100000)" fill="#ffffff" stroke="none"><ns0:path d="M2565 4169 c-272 -22 -558 -77 -711 -134 -192 -72 -202 -222 -17 -270 288 -75 1093 4 1348 132 46 23 93 73 100 104 17 75 -37 129 -151 155 -85 19 -413 26 -569 13z m418 -169 c-39 -16 -273 -58 -413 -75 -166 -20 -580 -32 -565 -17 19 20 317 72 520 91 124 12 486 12 458 1z"/><ns0:path d="M715 3650 c-37 -14 -97 -92 -139 -179 l-41 -86 1 -135 c0 -123 2 -141 27 -204 15 -38 40 -93 56 -122 l28 -52 -47 29 c-59 36 -99 37 -131 3 -22 -23 -24 -35 -27 -141 -6 -204 52 -380 178 -538 48 -61 138 -143 185 -171 18 -10 17 -13 -8 -64 -15 -30 -27 -70 -27 -89 0 -51 41 -133 97 -192 153 -164 376 -224 572 -156 41 14 77 24 81 22 4 -3 10 -31 14 -63 8 -74 55 -173 103 -218 51 -48 131 -99 179 -114 21 -7 57 -19 80 -26 56 -20 1164 -15 1234 4 145 41 300 217 395 449 1 2 32 -10 71 -26 96 -41 215 -64 286 -56 123 13 244 74 340 171 111 112 135 195 85 296 -16 31 -22 54 -16 57 26 8 134 108 185 169 136 164 203 362 192 567 -3 65 -9 92 -25 113 -28 38 -72 40 -128 8 -24 -14 -46 -26 -49 -26 -4 0 7 24 24 53 60 107 83 191 83 307 1 58 -5 125 -12 150 -31 107 -116 241 -165 260 -33 12 -51 -4 -120 -108 -82 -124 -213 -271 -352 -394 -117 -104 -276 -228 -325 -253 -27 -15 -30 -14 -35 2 -23 67 -76 177 -109 228 -129 194 -371 357 -600 404 -149 31 -557 49 -758 33 -237 -19 -330 -52 -431 -155 -106 -109 -148 -214 -162 -409 l-7 -97 -44 30 c-241 166 -530 456 -647 647 -41 68 -61 84 -91 72z m1699 -705 c18 -9 100 -75 182 -148 83 -73 214 -185 292 -249 79 -64 154 -131 168 -147 54 -65 47 -116 -28 -187 -70 -68 -473 -360 -542 -394 -57 -28 -71 -31 -115 -25 -62 8 -153 65 -196 121 l-30 39 -3 421 c-3 277 0 434 7 460 26 96 168 155 265 109z"/></ns0:g></g><g id="load__frame22" visibility="hidden"><ns0:g transform="translate(0.000000,512.000000) scale(0.100000,-0.100000)" fill="#ffffff" stroke="none"><ns0:path d="M2490 4149 c-261 -19 -573 -80 -677 -133 -74 -37 -106 -76 -107 -130 -2 -106 114 -152 439 -171 297 -18 834 52 1014 132 183 80 170 229 -24 277 -132 33 -392 43 -645 25z m515 -168 c62 -15 -232 -69 -490 -91 -207 -17 -583 -8 -535 13 46 20 355 69 510 80 86 7 485 5 515 -2z"/><ns0:path d="M674 3595 c-24 -24 -62 -84 -86 -132 l-43 -88 0 -135 c0 -149 11 -196 70 -314 l32 -64 -47 29 c-53 32 -85 36 -117 14 -31 -21 -43 -74 -43 -182 0 -158 43 -306 127 -441 51 -82 171 -210 222 -236 18 -10 31 -20 29 -24 -37 -69 -52 -113 -51 -148 2 -79 74 -185 176 -260 155 -114 330 -142 504 -81 40 14 74 23 77 19 2 -4 7 -33 10 -65 20 -157 143 -287 329 -345 45 -14 131 -17 622 -20 361 -2 583 1 605 7 19 6 51 15 70 21 56 16 168 108 221 179 36 49 133 222 145 258 0 2 18 -6 40 -16 98 -47 176 -66 279 -66 120 0 174 16 277 84 125 81 218 206 218 291 0 19 -12 60 -26 90 l-25 55 33 24 c104 77 226 229 277 346 60 136 87 346 57 448 -25 85 -65 98 -148 47 -26 -16 -50 -30 -52 -30 -2 0 14 33 36 74 97 186 102 379 14 554 -48 95 -105 155 -143 150 -23 -2 -40 -22 -103 -115 -88 -133 -200 -262 -325 -377 -159 -146 -353 -294 -365 -279 -4 5 -19 41 -35 82 -37 98 -130 235 -207 307 -121 112 -290 207 -429 243 -216 55 -825 65 -1008 17 -91 -25 -163 -66 -226 -130 -105 -107 -146 -212 -161 -413 l-7 -92 -36 27 c-258 190 -484 416 -618 619 -88 135 -101 140 -169 68z m1744 -674 c20 -11 105 -79 189 -153 166 -145 218 -190 339 -288 44 -36 95 -83 113 -105 29 -35 32 -45 28 -83 -3 -32 -14 -53 -38 -79 -40 -42 -427 -333 -526 -395 -61 -39 -74 -43 -128 -42 -74 0 -130 27 -195 94 -44 45 -47 52 -53 117 -11 109 -8 794 3 834 26 94 173 149 268 100z"/></ns0:g></g><g id="load__frame23" visibility="hidden"><ns0:g transform="translate(0.000000,512.000000) scale(0.100000,-0.100000)" fill="#ffffff" stroke="none"><ns0:path d="M2400 4130 c-233 -21 -472 -66 -571 -108 -103 -44 -146 -113 -115 -185 19 -46 59 -73 147 -96 318 -85 1031 -45 1311 73 158 67 155 215 -5 272 -116 41 -525 65 -767 44z m620 -177 c25 -10 24 -11 -15 -21 -60 -16 -197 -40 -315 -54 -125 -15 -624 -16 -690 -1 -44 10 -44 10 -19 21 33 13 246 49 364 61 119 12 642 7 675 -6z"/><ns0:path d="M725 3621 c-46 -20 -111 -114 -153 -220 -22 -57 -25 -81 -26 -186 0 -105 3 -130 27 -200 16 -44 41 -101 57 -127 l28 -47 -48 30 c-63 39 -113 37 -144 -4 -17 -23 -21 -46 -24 -131 -6 -165 32 -315 116 -461 33 -57 203 -237 247 -261 19 -11 19 -12 3 -31 -19 -21 -48 -95 -48 -124 0 -45 43 -129 98 -189 148 -165 357 -227 558 -167 44 13 85 26 93 28 10 3 17 -15 26 -67 29 -167 142 -284 328 -342 45 -14 131 -17 622 -20 361 -2 583 1 605 7 19 6 51 15 70 21 56 16 168 108 221 179 27 36 71 108 97 159 34 67 51 91 62 88 8 -3 56 -20 105 -37 121 -43 235 -50 332 -21 161 49 321 191 359 318 11 37 11 52 -1 92 -8 26 -21 56 -29 67 -9 11 -16 23 -16 26 0 3 29 29 65 58 132 106 241 275 286 446 30 114 32 294 4 350 -17 35 -25 40 -58 43 -27 2 -51 -4 -82 -22 -24 -14 -46 -26 -48 -26 -3 0 8 24 24 53 52 93 81 201 81 302 0 107 -13 168 -52 250 -41 86 -85 143 -125 162 -44 21 -47 19 -140 -121 -136 -206 -406 -474 -628 -625 -43 -29 -48 -30 -53 -14 -23 67 -76 177 -109 228 -129 194 -371 357 -600 404 -149 31 -555 48 -756 33 -238 -18 -331 -52 -434 -156 -104 -106 -146 -212 -161 -404 -3 -51 -10 -91 -15 -90 -23 8 -237 187 -329 276 -134 128 -216 224 -310 364 -41 62 -82 114 -90 115 -8 1 -24 -2 -35 -6z m1688 -716 c18 -8 100 -75 183 -148 83 -72 215 -185 293 -249 78 -64 153 -131 167 -147 54 -65 47 -116 -28 -187 -70 -68 -472 -360 -542 -394 -57 -28 -71 -31 -115 -25 -62 8 -153 65 -196 121 l-30 39 -3 421 c-3 277 0 434 7 460 26 96 169 155 264 109z"/></ns0:g></g><g id="load__frame24" visibility="hidden"><ns0:g transform="translate(0.000000,512.000000) scale(0.100000,-0.100000)" fill="#ffffff" stroke="none"><ns0:path d="M2300 4109 c-247 -23 -463 -75 -537 -128 -108 -78 -67 -202 80 -246 128 -38 256 -50 557 -50 301 0 386 7 580 46 153 31 216 56 267 105 45 42 46 44 41 94 -8 84 -65 123 -223 154 -179 35 -529 46 -765 25z m644 -170 c44 -6 86 -14 94 -18 18 -10 -101 -36 -265 -57 -230 -30 -780 -20 -816 15 -9 9 110 35 233 52 217 28 561 32 754 8z"/><ns0:path d="M688 3573 c-49 -51 -92 -124 -119 -203 -34 -99 -32 -257 5 -365 15 -44 38 -99 51 -122 13 -24 21 -43 17 -43 -4 0 -25 12 -47 25 -111 69 -162 -2 -152 -210 11 -223 81 -386 236 -549 36 -38 82 -79 102 -92 l37 -23 -29 -57 c-16 -31 -29 -73 -29 -93 0 -83 99 -218 215 -293 32 -21 96 -50 142 -65 107 -33 220 -30 331 10 81 28 77 30 87 -47 9 -70 46 -147 96 -201 49 -53 158 -121 209 -131 19 -4 47 -13 62 -20 22 -11 138 -14 602 -14 316 0 577 4 580 9 3 4 23 11 44 15 55 8 147 72 218 149 54 59 152 218 168 274 l7 22 55 -25 c200 -88 373 -84 531 13 78 49 108 75 166 146 80 99 91 179 35 274 -18 30 -20 37 -8 41 26 9 171 155 216 219 85 118 136 262 149 424 8 101 -7 193 -38 227 -21 22 -74 30 -92 14 -6 -5 -28 -19 -49 -32 l-39 -23 26 44 c14 24 40 85 56 135 34 100 41 209 21 314 -23 123 -133 290 -190 290 -32 0 -41 -10 -130 -147 -118 -181 -376 -438 -596 -596 -55 -40 -74 -45 -74 -22 0 23 -74 178 -111 232 -60 89 -162 184 -269 255 -178 116 -291 149 -580 169 -217 14 -576 6 -675 -15 -157 -35 -287 -132 -354 -265 -39 -76 -51 -125 -65 -259 l-11 -113 -110 87 c-215 169 -437 411 -569 619 -42 67 -76 72 -128 18z m1741 -694 c19 -11 91 -71 160 -133 69 -62 151 -133 182 -157 108 -84 254 -211 285 -248 49 -56 47 -108 -5 -165 -33 -37 -434 -336 -526 -393 -61 -38 -76 -43 -129 -43 -76 0 -127 24 -192 90 -44 45 -50 56 -55 107 -11 98 -10 805 1 843 22 76 89 118 190 119 39 1 65 -5 89 -20z"/></ns0:g></g><g id="load__frame25" visibility="hidden"><ns0:g transform="translate(0.000000,512.000000) scale(0.100000,-0.100000)" fill="#ffffff" stroke="none"><ns0:path d="M2390 4104 c-236 -16 -481 -57 -570 -95 -26 -11 -62 -36 -80 -54 -28 -29 -34 -42 -34 -84 -1 -39 4 -55 24 -76 80 -86 320 -129 715 -129 264 0 443 18 605 58 128 33 160 48 204 97 35 38 38 45 33 86 -11 96 -90 138 -330 173 -124 19 -447 32 -567 24z m555 -184 c108 -16 117 -21 74 -35 -19 -7 -89 -21 -155 -31 -220 -34 -841 -23 -904 16 -9 6 -2 11 26 19 41 11 234 38 319 45 93 7 570 -3 640 -14z"/><ns0:path d="M686 3557 c-96 -100 -154 -274 -141 -422 8 -82 44 -198 86 -273 l30 -54 -45 31 c-61 43 -94 48 -128 21 -35 -27 -48 -75 -48 -183 0 -100 20 -211 56 -306 50 -131 169 -291 272 -361 l49 -34 -29 -54 c-36 -68 -36 -116 -1 -190 52 -110 187 -219 333 -268 87 -29 224 -25 323 10 43 15 80 26 81 24 1 -1 7 -32 13 -68 20 -126 84 -216 205 -288 112 -66 103 -66 733 -70 671 -4 662 -5 788 86 71 51 145 146 207 264 29 57 54 104 55 106 1 1 28 -9 60 -23 94 -42 220 -68 295 -62 131 11 265 80 361 185 104 113 127 205 75 297 l-27 49 28 20 c100 69 235 240 286 361 76 183 86 437 20 503 -29 29 -61 26 -123 -13 -22 -14 -42 -25 -45 -25 -3 0 6 20 20 44 69 118 101 296 76 431 -23 127 -137 305 -194 305 -29 0 -50 -24 -110 -120 -117 -191 -386 -464 -624 -634 -48 -34 -54 -36 -59 -19 -74 209 -194 366 -370 482 -206 136 -309 163 -697 181 -369 18 -617 -8 -731 -75 -156 -91 -236 -233 -258 -455 -14 -139 -1 -138 -145 -19 -210 172 -413 391 -510 549 -26 41 -53 83 -61 93 -26 29 -62 21 -106 -26z m1731 -685 c17 -9 100 -78 184 -152 84 -74 165 -144 180 -155 71 -52 260 -218 283 -248 40 -53 36 -97 -16 -154 -46 -50 -422 -333 -528 -398 -57 -35 -73 -40 -125 -40 -75 0 -123 23 -191 90 -49 49 -51 53 -57 120 -11 111 -8 796 3 836 26 93 176 150 267 101z"/></ns0:g></g><g id="load__frame26" visibility="hidden"><ns0:g transform="translate(0.000000,512.000000) scale(0.100000,-0.100000)" fill="#ffffff" stroke="none"><ns0:path d="M2325 4090 c-160 -10 -360 -40 -456 -69 -120 -38 -181 -104 -164 -180 19 -85 135 -134 415 -173 144 -20 593 -16 745 6 244 35 336 66 393 131 63 71 31 159 -74 206 -134 61 -534 97 -859 79z m470 -170 c136 -12 243 -29 250 -39 5 -9 -61 -25 -170 -42 -108 -16 -562 -23 -697 -10 -136 13 -229 31 -223 41 7 11 171 39 285 49 139 12 428 12 555 1z"/><ns0:path d="M684 3546 c-23 -25 -61 -82 -83 -128 -86 -176 -74 -383 34 -575 l24 -43 -44 30 c-60 42 -94 47 -127 20 -36 -28 -48 -75 -48 -185 1 -262 129 -522 331 -671 45 -33 49 -38 35 -53 -24 -27 -46 -87 -46 -128 0 -120 163 -291 335 -355 92 -33 254 -32 353 4 52 19 74 24 76 15 2 -7 8 -39 15 -72 24 -127 96 -218 224 -283 132 -67 113 -65 738 -65 414 1 577 4 605 13 161 50 275 159 374 361 l43 86 61 -25 c264 -108 455 -74 642 113 64 64 86 94 103 140 26 68 23 98 -14 171 l-25 49 22 14 c45 29 185 177 226 241 105 162 159 425 117 568 -26 87 -70 100 -156 47 -21 -14 -41 -25 -44 -25 -3 0 6 20 20 44 70 120 101 294 76 431 -14 79 -83 217 -132 266 -62 62 -93 51 -155 -55 -107 -186 -427 -515 -647 -665 l-47 -32 -9 23 c-97 254 -208 384 -452 529 -176 104 -387 135 -867 126 -210 -3 -292 -8 -340 -21 -123 -31 -220 -96 -289 -193 -64 -89 -91 -170 -105 -313 -14 -139 -1 -138 -145 -19 -210 172 -413 391 -510 549 -26 41 -53 83 -61 93 -26 30 -62 21 -108 -27z m1728 -684 c20 -9 105 -78 188 -152 84 -74 164 -143 180 -155 72 -52 258 -216 283 -248 43 -57 38 -97 -23 -161 -55 -58 -428 -339 -530 -398 -108 -63 -193 -49 -302 51 -48 44 -52 52 -59 107 -12 100 -10 812 2 855 16 50 53 84 114 102 66 20 102 20 147 -1z"/></ns0:g></g><g id="load__frame27" visibility="hidden"><ns0:g transform="translate(0.000000,512.000000) scale(0.100000,-0.100000)" fill="#ffffff" stroke="none"><ns0:path d="M2295 4084 c-171 -12 -393 -50 -477 -83 -42 -16 -106 -79 -113 -112 -9 -42 12 -95 49 -124 74 -56 279 -98 567 -116 206 -13 457 -1 645 31 174 30 221 47 278 102 47 45 49 48 44 93 -12 105 -111 152 -398 191 -105 14 -481 25 -595 18z m515 -174 c121 -12 230 -31 236 -41 5 -9 -57 -23 -181 -41 -122 -17 -618 -17 -745 0 -125 18 -179 32 -160 42 21 11 132 30 230 39 123 12 509 12 620 1z"/><ns0:path d="M735 3580 c-37 -14 -96 -91 -136 -174 -45 -93 -64 -204 -54 -300 8 -72 46 -193 81 -255 13 -24 24 -45 24 -47 0 -2 -21 10 -47 26 -58 37 -96 38 -127 5 -29 -32 -36 -64 -36 -177 0 -101 20 -212 56 -307 50 -131 169 -291 272 -361 l49 -34 -29 -54 c-18 -35 -28 -69 -28 -96 0 -101 124 -253 260 -319 153 -75 271 -84 423 -33 43 14 79 26 81 26 2 0 6 -27 10 -60 14 -122 83 -219 212 -298 107 -66 109 -66 739 -70 362 -2 583 1 605 7 19 6 51 15 70 21 56 16 168 108 221 179 27 36 71 108 97 159 26 50 52 90 57 88 199 -89 330 -105 470 -56 146 51 294 189 334 313 15 46 2 113 -31 160 l-21 30 29 21 c100 72 211 205 269 323 91 187 112 484 38 543 -35 27 -56 25 -121 -11 l-55 -32 26 44 c102 178 114 403 30 575 -58 121 -129 188 -172 165 -9 -5 -40 -48 -69 -95 -74 -120 -158 -224 -291 -357 -148 -147 -368 -329 -397 -329 -5 0 -22 34 -37 76 -37 98 -131 237 -209 310 -122 112 -290 207 -430 243 -212 54 -828 65 -1007 17 -133 -36 -255 -132 -318 -251 -39 -75 -51 -122 -66 -264 l-12 -112 -105 84 c-217 172 -408 373 -520 547 -96 147 -96 147 -135 130z m1683 -729 c20 -11 105 -79 189 -153 168 -147 221 -192 339 -288 153 -124 177 -183 107 -262 -41 -45 -415 -328 -528 -399 -63 -40 -76 -44 -130 -43 -74 0 -130 27 -195 94 -44 45 -47 52 -53 117 -11 109 -8 794 3 834 26 94 173 149 268 100z"/></ns0:g></g><animate href="#load__frame1" attributeName="visibility" values="visible;hidden;hidden;hidden;hidden;hidden;hidden;hidden;hidden;hidden;hidden;hidden;hidden;hidden;hidden;hidden;hidden;hidden;hidden;hidden;hidden;hidden;hidden;hidden;hidden;hidden;hidden;hidden" keyTimes="0.0;0.037037037037037035;0.07407407407407407;0.1111111111111111;0.14814814814814814;0.18518518518518517;0.2222222222222222;0.25925925925925924;0.2962962962962963;0.3333333333333333;0.37037037037037035;0.4074074074074074;0.4444444444444444;0.48148148148148145;0.5185185185185185;0.5555555555555556;0.5925925925925926;0.6296296296296297;0.6666666666666666;0.7037037037037037;0.7407407407407407;0.7777777777777778;0.8148148148148148;0.8518518518518519;0.8888888888888888;0.9259259259259259;0.9629629629629629;1" dur="0.9s" repeatCount="indefinite"/><animate href="#load__frame2" attributeName="visibility" values="hidden;visible;hidden;hidden;hidden;hidden;hidden;hidden;hidden;hidden;hidden;hidden;hidden;hidden;hidden;hidden;hidden;hidden;hidden;hidden;hidden;hidden;hidden;hidden;hidden;hidden;hidden;hidden" keyTimes="0.0;0.037037037037037035;0.07407407407407407;0.1111111111111111;0.14814814814814814;0.18518518518518517;0.2222222222222222;0.25925925925925924;0.2962962962962963;0.3333333333333333;0.37037037037037035;0.4074074074074074;0.4444444444444444;0.48148148148148145;0.5185185185185185;0.5555555555555556;0.5925925925925926;0.6296296296296297;0.6666666666666666;0.7037037037037037;0.7407407407407407;0.7777777777777778;0.8148148148148148;0.8518518518518519;0.8888888888888888;0.9259259259259259;0.9629629629629629;1" dur="0.9s" repeatCount="indefinite"/><animate href="#load__frame3" attributeName="visibility" values="hidden;hidden;visible;hidden;hidden;hidden;hidden;hidden;hidden;hidden;hidden;hidden;hidden;hidden;hidden;hidden;hidden;hidden;hidden;hidden;hidden;hidden;hidden;hidden;hidden;hidden;hidden;hidden" keyTimes="0.0;0.037037037037037035;0.07407407407407407;0.1111111111111111;0.14814814814814814;0.18518518518518517;0.2222222222222222;0.25925925925925924;0.2962962962962963;0.3333333333333333;0.37037037037037035;0.4074074074074074;0.4444444444444444;0.48148148148148145;0.5185185185185185;0.5555555555555556;0.5925925925925926;0.6296296296296297;0.6666666666666666;0.7037037037037037;0.7407407407407407;0.7777777777777778;0.8148148148148148;0.8518518518518519;0.8888888888888888;0.9259259259259259;0.9629629629629629;1" dur="0.9s" repeatCount="indefinite"/><animate href="#load__frame4" attributeName="visibility" values="hidden;hidden;hidden;visible;hidden;hidden;hidden;hidden;hidden;hidden;hidden;hidden;hidden;hidden;hidden;hidden;hidden;hidden;hidden;hidden;hidden;hidden;hidden;hidden;hidden;hidden;hidden;hidden" keyTimes="0.0;0.037037037037037035;0.07407407407407407;0.1111111111111111;0.14814814814814814;0.18518518518518517;0.2222222222222222;0.25925925925925924;0.2962962962962963;0.3333333333333333;0.37037037037037035;0.4074074074074074;0.4444444444444444;0.48148148148148145;0.5185185185185185;0.5555555555555556;0.5925925925925926;0.6296296296296297;0.6666666666666666;0.7037037037037037;0.7407407407407407;0.7777777777777778;0.8148148148148148;0.8518518518518519;0.8888888888888888;0.9259259259259259;0.9629629629629629;1" dur="0.9s" repeatCount="indefinite"/><animate href="#load__frame5" attributeName="visibility" values="hidden;hidden;hidden;hidden;visible;hidden;hidden;hidden;hidden;hidden;hidden;hidden;hidden;hidden;hidden;hidden;hidden;hidden;hidden;hidden;hidden;hidden;hidden;hidden;hidden;hidden;hidden;hidden" keyTimes="0.0;0.037037037037037035;0.07407407407407407;0.1111111111111111;0.14814814814814814;0.18518518518518517;0.2222222222222222;0.25925925925925924;0.2962962962962963;0.3333333333333333;0.37037037037037035;0.4074074074074074;0.4444444444444444;0.48148148148148145;0.5185185185185185;0.5555555555555556;0.5925925925925926;0.6296296296296297;0.6666666666666666;0.7037037037037037;0.7407407407407407;0.7777777777777778;0.8148148148148148;0.8518518518518519;0.8888888888888888;0.9259259259259259;0.9629629629629629;1" dur="0.9s" repeatCount="indefinite"/><animate href="#load__frame6" attributeName="visibility" values="hidden;hidden;hidden;hidden;hidden;visible;hidden;hidden;hidden;hidden;hidden;hidden;hidden;hidden;hidden;hidden;hidden;hidden;hidden;hidden;hidden;hidden;hidden;hidden;hidden;hidden;hidden;hidden" keyTimes="0.0;0.037037037037037035;0.07407407407407407;0.1111111111111111;0.14814814814814814;0.18518518518518517;0.2222222222222222;0.25925925925925924;0.2962962962962963;0.3333333333333333;0.37037037037037035;0.4074074074074074;0.4444444444444444;0.48148148148148145;0.5185185185185185;0.5555555555555556;0.5925925925925926;0.6296296296296297;0.6666666666666666;0.7037037037037037;0.7407407407407407;0.7777777777777778;0.8148148148148148;0.8518518518518519;0.8888888888888888;0.9259259259259259;0.9629629629629629;1" dur="0.9s" repeatCount="indefinite"/><animate href="#load__frame7" attributeName="visibility" values="hidden;hidden;hidden;hidden;hidden;hidden;visible;hidden;hidden;hidden;hidden;hidden;hidden;hidden;hidden;hidden;hidden;hidden;hidden;hidden;hidden;hidden;hidden;hidden;hidden;hidden;hidden;hidden" keyTimes="0.0;0.037037037037037035;0.07407407407407407;0.1111111111111111;0.14814814814814814;0.18518518518518517;0.2222222222222222;0.25925925925925924;0.2962962962962963;0.3333333333333333;0.37037037037037035;0.4074074074074074;0.4444444444444444;0.48148148148148145;0.5185185185185185;0.5555555555555556;0.5925925925925926;0.6296296296296297;0.6666666666666666;0.7037037037037037;0.7407407407407407;0.7777777777777778;0.8148148148148148;0.8518518518518519;0.8888888888888888;0.9259259259259259;0.9629629629629629;1" dur="0.9s" repeatCount="indefinite"/><animate href="#load__frame8" attributeName="visibility" values="hidden;hidden;hidden;hidden;hidden;hidden;hidden;visible;hidden;hidden;hidden;hidden;hidden;hidden;hidden;hidden;hidden;hidden;hidden;hidden;hidden;hidden;hidden;hidden;hidden;hidden;hidden;hidden" keyTimes="0.0;0.037037037037037035;0.07407407407407407;0.1111111111111111;0.14814814814814814;0.18518518518518517;0.2222222222222222;0.25925925925925924;0.2962962962962963;0.3333333333333333;0.37037037037037035;0.4074074074074074;0.4444444444444444;0.48148148148148145;0.5185185185185185;0.5555555555555556;0.5925925925925926;0.6296296296296297;0.6666666666666666;0.7037037037037037;0.7407407407407407;0.7777777777777778;0.8148148148148148;0.8518518518518519;0.8888888888888888;0.9259259259259259;0.9629629629629629;1" dur="0.9s" repeatCount="indefinite"/><animate href="#load__frame9" attributeName="visibility" values="hidden;hidden;hidden;hidden;hidden;hidden;hidden;hidden;visible;hidden;hidden;hidden;hidden;hidden;hidden;hidden;hidden;hidden;hidden;hidden;hidden;hidden;hidden;hidden;hidden;hidden;hidden;hidden" keyTimes="0.0;0.037037037037037035;0.07407407407407407;0.1111111111111111;0.14814814814814814;0.18518518518518517;0.2222222222222222;0.25925925925925924;0.2962962962962963;0.3333333333333333;0.37037037037037035;0.4074074074074074;0.4444444444444444;0.48148148148148145;0.5185185185185185;0.5555555555555556;0.5925925925925926;0.6296296296296297;0.6666666666666666;0.7037037037037037;0.7407407407407407;0.7777777777777778;0.8148148148148148;0.8518518518518519;0.8888888888888888;0.9259259259259259;0.9629629629629629;1" dur="0.9s" repeatCount="indefinite"/><animate href="#load__frame10" attributeName="visibility" values="hidden;hidden;hidden;hidden;hidden;hidden;hidden;hidden;hidden;visible;hidden;hidden;hidden;hidden;hidden;hidden;hidden;hidden;hidden;hidden;hidden;hidden;hidden;hidden;hidden;hidden;hidden;hidden" keyTimes="0.0;0.037037037037037035;0.07407407407407407;0.1111111111111111;0.14814814814814814;0.18518518518518517;0.2222222222222222;0.25925925925925924;0.2962962962962963;0.3333333333333333;0.37037037037037035;0.4074074074074074;0.4444444444444444;0.48148148148148145;0.5185185185185185;0.5555555555555556;0.5925925925925926;0.6296296296296297;0.6666666666666666;0.7037037037037037;0.7407407407407407;0.7777777777777778;0.8148148148148148;0.8518518518518519;0.8888888888888888;0.9259259259259259;0.9629629629629629;1" dur="0.9s" repeatCount="indefinite"/><animate href="#load__frame11" attributeName="visibility" values="hidden;hidden;hidden;hidden;hidden;hidden;hidden;hidden;hidden;hidden;visible;hidden;hidden;hidden;hidden;hidden;hidden;hidden;hidden;hidden;hidden;hidden;hidden;hidden;hidden;hidden;hidden;hidden" keyTimes="0.0;0.037037037037037035;0.07407407407407407;0.1111111111111111;0.14814814814814814;0.18518518518518517;0.2222222222222222;0.25925925925925924;0.2962962962962963;0.3333333333333333;0.37037037037037035;0.4074074074074074;0.4444444444444444;0.48148148148148145;0.5185185185185185;0.5555555555555556;0.5925925925925926;0.6296296296296297;0.6666666666666666;0.7037037037037037;0.7407407407407407;0.7777777777777778;0.8148148148148148;0.8518518518518519;0.8888888888888888;0.9259259259259259;0.9629629629629629;1" dur="0.9s" repeatCount="indefinite"/><animate href="#load__frame12" attributeName="visibility" values="hidden;hidden;hidden;hidden;hidden;hidden;hidden;hidden;hidden;hidden;hidden;visible;hidden;hidden;hidden;hidden;hidden;hidden;hidden;hidden;hidden;hidden;hidden;hidden;hidden;hidden;hidden;hidden" keyTimes="0.0;0.037037037037037035;0.07407407407407407;0.1111111111111111;0.14814814814814814;0.18518518518518517;0.2222222222222222;0.25925925925925924;0.2962962962962963;0.3333333333333333;0.37037037037037035;0.4074074074074074;0.4444444444444444;0.48148148148148145;0.5185185185185185;0.5555555555555556;0.5925925925925926;0.6296296296296297;0.6666666666666666;0.7037037037037037;0.7407407407407407;0.7777777777777778;0.8148148148148148;0.8518518518518519;0.8888888888888888;0.9259259259259259;0.9629629629629629;1" dur="0.9s" repeatCount="indefinite"/><animate href="#load__frame13" attributeName="visibility" values="hidden;hidden;hidden;hidden;hidden;hidden;hidden;hidden;hidden;hidden;hidden;hidden;visible;hidden;hidden;hidden;hidden;hidden;hidden;hidden;hidden;hidden;hidden;hidden;hidden;hidden;hidden;hidden" keyTimes="0.0;0.037037037037037035;0.07407407407407407;0.1111111111111111;0.14814814814814814;0.18518518518518517;0.2222222222222222;0.25925925925925924;0.2962962962962963;0.3333333333333333;0.37037037037037035;0.4074074074074074;0.4444444444444444;0.48148148148148145;0.5185185185185185;0.5555555555555556;0.5925925925925926;0.6296296296296297;0.6666666666666666;0.7037037037037037;0.7407407407407407;0.7777777777777778;0.8148148148148148;0.8518518518518519;0.8888888888888888;0.9259259259259259;0.9629629629629629;1" dur="0.9s" repeatCount="indefinite"/><animate href="#load__frame14" attributeName="visibility" values="hidden;hidden;hidden;hidden;hidden;hidden;hidden;hidden;hidden;hidden;hidden;hidden;hidden;visible;hidden;hidden;hidden;hidden;hidden;hidden;hidden;hidden;hidden;hidden;hidden;hidden;hidden;hidden" keyTimes="0.0;0.037037037037037035;0.07407407407407407;0.1111111111111111;0.14814814814814814;0.18518518518518517;0.2222222222222222;0.25925925925925924;0.2962962962962963;0.3333333333333333;0.37037037037037035;0.4074074074074074;0.4444444444444444;0.48148148148148145;0.5185185185185185;0.5555555555555556;0.5925925925925926;0.6296296296296297;0.6666666666666666;0.7037037037037037;0.7407407407407407;0.7777777777777778;0.8148148148148148;0.8518518518518519;0.8888888888888888;0.9259259259259259;0.9629629629629629;1" dur="0.9s" repeatCount="indefinite"/><animate href="#load__frame15" attributeName="visibility" values="hidden;hidden;hidden;hidden;hidden;hidden;hidden;hidden;hidden;hidden;hidden;hidden;hidden;hidden;visible;hidden;hidden;hidden;hidden;hidden;hidden;hidden;hidden;hidden;hidden;hidden;hidden;hidden" keyTimes="0.0;0.037037037037037035;0.07407407407407407;0.1111111111111111;0.14814814814814814;0.18518518518518517;0.2222222222222222;0.25925925925925924;0.2962962962962963;0.3333333333333333;0.37037037037037035;0.4074074074074074;0.4444444444444444;0.48148148148148145;0.5185185185185185;0.5555555555555556;0.5925925925925926;0.6296296296296297;0.6666666666666666;0.7037037037037037;0.7407407407407407;0.7777777777777778;0.8148148148148148;0.8518518518518519;0.8888888888888888;0.9259259259259259;0.9629629629629629;1" dur="0.9s" repeatCount="indefinite"/><animate href="#load__frame16" attributeName="visibility" values="hidden;hidden;hidden;hidden;hidden;hidden;hidden;hidden;hidden;hidden;hidden;hidden;hidden;hidden;hidden;visible;hidden;hidden;hidden;hidden;hidden;hidden;hidden;hidden;hidden;hidden;hidden;hidden" keyTimes="0.0;0.037037037037037035;0.07407407407407407;0.1111111111111111;0.14814814814814814;0.18518518518518517;0.2222222222222222;0.25925925925925924;0.2962962962962963;0.3333333333333333;0.37037037037037035;0.4074074074074074;0.4444444444444444;0.48148148148148145;0.5185185185185185;0.5555555555555556;0.5925925925925926;0.6296296296296297;0.6666666666666666;0.7037037037037037;0.7407407407407407;0.7777777777777778;0.8148148148148148;0.8518518518518519;0.8888888888888888;0.9259259259259259;0.9629629629629629;1" dur="0.9s" repeatCount="indefinite"/><animate href="#load__frame17" attributeName="visibility" values="hidden;hidden;hidden;hidden;hidden;hidden;hidden;hidden;hidden;hidden;hidden;hidden;hidden;hidden;hidden;hidden;visible;hidden;hidden;hidden;hidden;hidden;hidden;hidden;hidden;hidden;hidden;hidden" keyTimes="0.0;0.037037037037037035;0.07407407407407407;0.1111111111111111;0.14814814814814814;0.18518518518518517;0.2222222222222222;0.25925925925925924;0.2962962962962963;0.3333333333333333;0.37037037037037035;0.4074074074074074;0.4444444444444444;0.48148148148148145;0.5185185185185185;0.5555555555555556;0.5925925925925926;0.6296296296296297;0.6666666666666666;0.7037037037037037;0.7407407407407407;0.7777777777777778;0.8148148148148148;0.8518518518518519;0.8888888888888888;0.9259259259259259;0.9629629629629629;1" dur="0.9s" repeatCount="indefinite"/><animate href="#load__frame18" attributeName="visibility" values="hidden;hidden;hidden;hidden;hidden;hidden;hidden;hidden;hidden;hidden;hidden;hidden;hidden;hidden;hidden;hidden;hidden;visible;hidden;hidden;hidden;hidden;hidden;hidden;hidden;hidden;hidden;hidden" keyTimes="0.0;0.037037037037037035;0.07407407407407407;0.1111111111111111;0.14814814814814814;0.18518518518518517;0.2222222222222222;0.25925925925925924;0.2962962962962963;0.3333333333333333;0.37037037037037035;0.4074074074074074;0.4444444444444444;0.48148148148148145;0.5185185185185185;0.5555555555555556;0.5925925925925926;0.6296296296296297;0.6666666666666666;0.7037037037037037;0.7407407407407407;0.7777777777777778;0.8148148148148148;0.8518518518518519;0.8888888888888888;0.9259259259259259;0.9629629629629629;1" dur="0.9s" repeatCount="indefinite"/><animate href="#load__frame19" attributeName="visibility" values="hidden;hidden;hidden;hidden;hidden;hidden;hidden;hidden;hidden;hidden;hidden;hidden;hidden;hidden;hidden;hidden;hidden;hidden;visible;hidden;hidden;hidden;hidden;hidden;hidden;hidden;hidden;hidden" keyTimes="0.0;0.037037037037037035;0.07407407407407407;0.1111111111111111;0.14814814814814814;0.18518518518518517;0.2222222222222222;0.25925925925925924;0.2962962962962963;0.3333333333333333;0.37037037037037035;0.4074074074074074;0.4444444444444444;0.48148148148148145;0.5185185185185185;0.5555555555555556;0.5925925925925926;0.6296296296296297;0.6666666666666666;0.7037037037037037;0.7407407407407407;0.7777777777777778;0.8148148148148148;0.8518518518518519;0.8888888888888888;0.9259259259259259;0.9629629629629629;1" dur="0.9s" repeatCount="indefinite"/><animate href="#load__frame20" attributeName="visibility" values="hidden;hidden;hidden;hidden;hidden;hidden;hidden;hidden;hidden;hidden;hidden;hidden;hidden;hidden;hidden;hidden;hidden;hidden;hidden;visible;hidden;hidden;hidden;hidden;hidden;hidden;hidden;hidden" keyTimes="0.0;0.037037037037037035;0.07407407407407407;0.1111111111111111;0.14814814814814814;0.18518518518518517;0.2222222222222222;0.25925925925925924;0.2962962962962963;0.3333333333333333;0.37037037037037035;0.4074074074074074;0.4444444444444444;0.48148148148148145;0.5185185185185185;0.5555555555555556;0.5925925925925926;0.6296296296296297;0.6666666666666666;0.7037037037037037;0.7407407407407407;0.7777777777777778;0.8148148148148148;0.8518518518518519;0.8888888888888888;0.9259259259259259;0.9629629629629629;1" dur="0.9s" repeatCount="indefinite"/><animate href="#load__frame21" attributeName="visibility" values="hidden;hidden;hidden;hidden;hidden;hidden;hidden;hidden;hidden;hidden;hidden;hidden;hidden;hidden;hidden;hidden;hidden;hidden;hidden;hidden;visible;hidden;hidden;hidden;hidden;hidden;hidden;hidden" keyTimes="0.0;0.037037037037037035;0.07407407407407407;0.1111111111111111;0.14814814814814814;0.18518518518518517;0.2222222222222222;0.25925925925925924;0.2962962962962963;0.3333333333333333;0.37037037037037035;0.4074074074074074;0.4444444444444444;0.48148148148148145;0.5185185185185185;0.5555555555555556;0.5925925925925926;0.6296296296296297;0.6666666666666666;0.7037037037037037;0.7407407407407407;0.7777777777777778;0.8148148148148148;0.8518518518518519;0.8888888888888888;0.9259259259259259;0.9629629629629629;1" dur="0.9s" repeatCount="indefinite"/><animate href="#load__frame22" attributeName="visibility" values="hidden;hidden;hidden;hidden;hidden;hidden;hidden;hidden;hidden;hidden;hidden;hidden;hidden;hidden;hidden;hidden;hidden;hidden;hidden;hidden;hidden;visible;hidden;hidden;hidden;hidden;hidden;hidden" keyTimes="0.0;0.037037037037037035;0.07407407407407407;0.1111111111111111;0.14814814814814814;0.18518518518518517;0.2222222222222222;0.25925925925925924;0.2962962962962963;0.3333333333333333;0.37037037037037035;0.4074074074074074;0.4444444444444444;0.48148148148148145;0.5185185185185185;0.5555555555555556;0.5925925925925926;0.6296296296296297;0.6666666666666666;0.7037037037037037;0.7407407407407407;0.7777777777777778;0.8148148148148148;0.8518518518518519;0.8888888888888888;0.9259259259259259;0.9629629629629629;1" dur="0.9s" repeatCount="indefinite"/><animate href="#load__frame23" attributeName="visibility" values="hidden;hidden;hidden;hidden;hidden;hidden;hidden;hidden;hidden;hidden;hidden;hidden;hidden;hidden;hidden;hidden;hidden;hidden;hidden;hidden;hidden;hidden;visible;hidden;hidden;hidden;hidden;hidden" keyTimes="0.0;0.037037037037037035;0.07407407407407407;0.1111111111111111;0.14814814814814814;0.18518518518518517;0.2222222222222222;0.25925925925925924;0.2962962962962963;0.3333333333333333;0.37037037037037035;0.4074074074074074;0.4444444444444444;0.48148148148148145;0.5185185185185185;0.5555555555555556;0.5925925925925926;0.6296296296296297;0.6666666666666666;0.7037037037037037;0.7407407407407407;0.7777777777777778;0.8148148148148148;0.8518518518518519;0.8888888888888888;0.9259259259259259;0.9629629629629629;1" dur="0.9s" repeatCount="indefinite"/><animate href="#load__frame24" attributeName="visibility" values="hidden;hidden;hidden;hidden;hidden;hidden;hidden;hidden;hidden;hidden;hidden;hidden;hidden;hidden;hidden;hidden;hidden;hidden;hidden;hidden;hidden;hidden;hidden;visible;hidden;hidden;hidden;hidden" keyTimes="0.0;0.037037037037037035;0.07407407407407407;0.1111111111111111;0.14814814814814814;0.18518518518518517;0.2222222222222222;0.25925925925925924;0.2962962962962963;0.3333333333333333;0.37037037037037035;0.4074074074074074;0.4444444444444444;0.48148148148148145;0.5185185185185185;0.5555555555555556;0.5925925925925926;0.6296296296296297;0.6666666666666666;0.7037037037037037;0.7407407407407407;0.7777777777777778;0.8148148148148148;0.8518518518518519;0.8888888888888888;0.9259259259259259;0.9629629629629629;1" dur="0.9s" repeatCount="indefinite"/><animate href="#load__frame25" attributeName="visibility" values="hidden;hidden;hidden;hidden;hidden;hidden;hidden;hidden;hidden;hidden;hidden;hidden;hidden;hidden;hidden;hidden;hidden;hidden;hidden;hidden;hidden;hidden;hidden;hidden;visible;hidden;hidden;hidden" keyTimes="0.0;0.037037037037037035;0.07407407407407407;0.1111111111111111;0.14814814814814814;0.18518518518518517;0.2222222222222222;0.25925925925925924;0.2962962962962963;0.3333333333333333;0.37037037037037035;0.4074074074074074;0.4444444444444444;0.48148148148148145;0.5185185185185185;0.5555555555555556;0.5925925925925926;0.6296296296296297;0.6666666666666666;0.7037037037037037;0.7407407407407407;0.7777777777777778;0.8148148148148148;0.8518518518518519;0.8888888888888888;0.9259259259259259;0.9629629629629629;1" dur="0.9s" repeatCount="indefinite"/><animate href="#load__frame26" attributeName="visibility" values="hidden;hidden;hidden;hidden;hidden;hidden;hidden;hidden;hidden;hidden;hidden;hidden;hidden;hidden;hidden;hidden;hidden;hidden;hidden;hidden;hidden;hidden;hidden;hidden;hidden;visible;hidden;hidden" keyTimes="0.0;0.037037037037037035;0.07407407407407407;0.1111111111111111;0.14814814814814814;0.18518518518518517;0.2222222222222222;0.25925925925925924;0.2962962962962963;0.3333333333333333;0.37037037037037035;0.4074074074074074;0.4444444444444444;0.48148148148148145;0.5185185185185185;0.5555555555555556;0.5925925925925926;0.6296296296296297;0.6666666666666666;0.7037037037037037;0.7407407407407407;0.7777777777777778;0.8148148148148148;0.8518518518518519;0.8888888888888888;0.9259259259259259;0.9629629629629629;1" dur="0.9s" repeatCount="indefinite"/><animate href="#load__frame27" attributeName="visibility" values="hidden;hidden;hidden;hidden;hidden;hidden;hidden;hidden;hidden;hidden;hidden;hidden;hidden;hidden;hidden;hidden;hidden;hidden;hidden;hidden;hidden;hidden;hidden;hidden;hidden;hidden;visible;hidden" keyTimes="0.0;0.037037037037037035;0.07407407407407407;0.1111111111111111;0.14814814814814814;0.18518518518518517;0.2222222222222222;0.25925925925925924;0.2962962962962963;0.3333333333333333;0.37037037037037035;0.4074074074074074;0.4444444444444444;0.48148148148148145;0.5185185185185185;0.5555555555555556;0.5925925925925926;0.6296296296296297;0.6666666666666666;0.7037037037037037;0.7407407407407407;0.7777777777777778;0.8148148148148148;0.8518518518518519;0.8888888888888888;0.9259259259259259;0.9629629629629629;1" dur="0.9s" repeatCount="indefinite"/></svg>