<svg width="28" height="28" viewBox="0 0 28 28" fill="none" xmlns="http://www.w3.org/2000/svg">
<g clip-path="url(#clip0_1432_70006)">
<path d="M10.5 11.8125H17.5" stroke="white" stroke-width="3" stroke-linecap="round" stroke-linejoin="round"/>
<path d="M10.5 16.1875H17.5" stroke="white" stroke-width="3" stroke-linecap="round" stroke-linejoin="round"/>
<path d="M8.7433 23.0897C10.9489 24.3662 13.5434 24.797 16.0432 24.3018C18.543 23.8067 20.7773 22.4193 22.3297 20.3984C23.8821 18.3774 24.6466 15.8609 24.4806 13.318C24.3146 10.7751 23.2295 8.37929 21.4275 6.57734C19.6256 4.7754 17.2298 3.69026 14.6869 3.52427C12.1439 3.35827 9.62742 4.12273 7.60651 5.67513C5.58559 7.22753 4.19821 9.4619 3.70303 11.9617C3.20785 14.4614 3.63868 17.056 4.91518 19.2616L3.54689 23.3467C3.49548 23.5009 3.48802 23.6663 3.52535 23.8245C3.56267 23.9827 3.64332 24.1273 3.75823 24.2423C3.87315 24.3572 4.01781 24.4378 4.17598 24.4751C4.33415 24.5125 4.4996 24.505 4.65377 24.4536L8.7433 23.0897Z" fill="white" fill-opacity="0.25" stroke="white" stroke-width="3" stroke-linecap="round" stroke-linejoin="round"/>
</g>
<defs>
<clipPath id="clip0_1432_70006">
<rect width="28" height="28" fill="white"/>
</clipPath>
</defs>
</svg>
