<svg width="28" height="28" viewBox="0 0 28 28" fill="none" xmlns="http://www.w3.org/2000/svg">
<path d="M10 24H4V18L13 9L19 15L10 24Z" fill="white" fill-opacity="0.25"/>
<path d="M24.2688 9.31697L18.6825 3.73197C18.2137 3.26329 17.5779 3 16.915 3C16.2521 3 15.6163 3.26329 15.1475 3.73197L2.73251 16.1457C2.49957 16.3772 2.31488 16.6527 2.18914 16.9561C2.06341 17.2595 1.99912 17.5848 2.00001 17.9132L2.00001 23.4995C2.00001 24.1625 2.2634 24.7984 2.73224 25.2672C3.20108 25.7361 3.83697 25.9995 4.50001 25.9995L23.5 25.9995C23.8978 25.9995 24.2794 25.8414 24.5607 25.5601C24.842 25.2788 25 24.8973 25 24.4995C25 24.1016 24.842 23.7201 24.5607 23.4388C24.2794 23.1575 23.8978 22.9995 23.5 22.9995H14.125L24.2688 12.8532C24.501 12.6211 24.6853 12.3454 24.811 12.042C24.9367 11.7387 25.0014 11.4135 25.0014 11.0851C25.0014 10.7567 24.9367 10.4315 24.811 10.1281C24.6853 9.82477 24.501 9.54913 24.2688 9.31697ZM9.87501 22.9995H5.00001L5.00001 18.1245L12.5 10.6245L17.375 15.4995L9.87501 22.9995ZM19.5 13.3745L14.625 8.49947L16.9175 6.20697L21.7925 11.082L19.5 13.3745Z" fill="white" fill-opacity="0.95"/>
</svg>
