<svg width="32" height="32" viewBox="0 0 32 32" fill="none" xmlns="http://www.w3.org/2000/svg">
<g filter="url(#filter0_dd_109_897)">
<path d="M28.5 16C28.5 16.3978 28.342 16.7794 28.0607 17.0607C27.7794 17.342 27.3978 17.5 27 17.5H17.5V27C17.5 27.3978 17.342 27.7794 17.0607 28.0607C16.7794 28.342 16.3978 28.5 16 28.5C15.6022 28.5 15.2206 28.342 14.9393 28.0607C14.658 27.7794 14.5 27.3978 14.5 27V17.5H5C4.60218 17.5 4.22064 17.342 3.93934 17.0607C3.65804 16.7794 3.5 16.3978 3.5 16C3.5 15.6022 3.65804 15.2206 3.93934 14.9393C4.22064 14.658 4.60218 14.5 5 14.5H14.5V5C14.5 4.60218 14.658 4.22064 14.9393 3.93934C15.2206 3.65804 15.6022 3.5 16 3.5C16.3978 3.5 16.7794 3.65804 17.0607 3.93934C17.342 4.22064 17.5 4.60218 17.5 5V14.5H27C27.3978 14.5 27.7794 14.658 28.0607 14.9393C28.342 15.2206 28.5 15.6022 28.5 16Z" fill="white"/>
</g>
<defs>
<filter id="filter0_dd_109_897" x="-0.2" y="-0.2" width="34.2" height="34.2" filterUnits="userSpaceOnUse" color-interpolation-filters="sRGB">
<feFlood flood-opacity="0" result="BackgroundImageFix"/>
<feColorMatrix in="SourceAlpha" type="matrix" values="0 0 0 0 0 0 0 0 0 0 0 0 0 0 0 0 0 0 127 0" result="hardAlpha"/>
<feOffset dx="1" dy="1"/>
<feGaussianBlur stdDeviation="0.5"/>
<feColorMatrix type="matrix" values="0 0 0 0 0 0 0 0 0 0 0 0 0 0 0 0 0 0 0.1 0"/>
<feBlend mode="normal" in2="BackgroundImageFix" result="effect1_dropShadow_109_897"/>
<feColorMatrix in="SourceAlpha" type="matrix" values="0 0 0 0 0 0 0 0 0 0 0 0 0 0 0 0 0 0 127 0" result="hardAlpha"/>
<feOffset dx="0.4" dy="0.4"/>
<feGaussianBlur stdDeviation="0.3"/>
<feComposite in2="hardAlpha" operator="out"/>
<feColorMatrix type="matrix" values="0 0 0 0 0 0 0 0 0 0 0 0 0 0 0 0 0 0 0.1 0"/>
<feBlend mode="normal" in2="effect1_dropShadow_109_897" result="effect2_dropShadow_109_897"/>
<feBlend mode="normal" in="SourceGraphic" in2="effect2_dropShadow_109_897" result="shape"/>
</filter>
</defs>
</svg>
