<svg width="24" height="24" viewBox="0 0 24 24" fill="none" xmlns="http://www.w3.org/2000/svg">
<path d="M16.875 13.875C16.875 14.1716 16.787 14.4616 16.6222 14.7083C16.4574 14.955 16.2231 15.1472 15.949 15.2608C15.6749 15.3743 15.3733 15.404 15.0824 15.3461C14.7914 15.2883 14.5241 15.1454 14.3143 14.9356C14.1046 14.7258 13.9617 14.4586 13.9038 14.1676C13.846 13.8766 13.8757 13.575 13.9892 13.3009C14.1027 13.0268 14.295 12.7926 14.5416 12.6278C14.7883 12.4629 15.0783 12.375 15.375 12.375C15.7728 12.375 16.1544 12.533 16.4357 12.8143C16.717 13.0956 16.875 13.4771 16.875 13.875ZM8.62501 12.375C8.32833 12.375 8.03832 12.4629 7.79165 12.6278C7.54498 12.7926 7.35272 13.0268 7.23919 13.3009C7.12565 13.575 7.09595 13.8766 7.15383 14.1676C7.21171 14.4586 7.35457 14.7258 7.56435 14.9356C7.77412 15.1454 8.0414 15.2883 8.33237 15.3461C8.62334 15.404 8.92494 15.3743 9.19903 15.2608C9.47312 15.1472 9.70739 14.955 9.87221 14.7083C10.037 14.4616 10.125 14.1716 10.125 13.875C10.125 13.4771 9.96697 13.0956 9.68567 12.8143C9.40436 12.533 9.02283 12.375 8.62501 12.375ZM22.875 15V17.25C22.875 17.7472 22.6775 18.2242 22.3258 18.5758C21.9742 18.9274 21.4973 19.125 21 19.125H3.00001C2.50272 19.125 2.02581 18.9274 1.67418 18.5758C1.32255 18.2242 1.12501 17.7472 1.12501 17.25V15.1059C1.12212 12.2143 2.25776 9.43785 4.28626 7.37715L2.20407 5.2959C1.99272 5.08455 1.87399 4.79791 1.87399 4.49902C1.87399 4.35103 1.90314 4.20448 1.95978 4.06776C2.01641 3.93103 2.09942 3.80679 2.20407 3.70215C2.30872 3.5975 2.43295 3.51449 2.56968 3.45785C2.70641 3.40122 2.85295 3.37207 3.00094 3.37207C3.29983 3.37207 3.58647 3.4908 3.79782 3.70215L6.02813 5.93715C7.7841 4.76148 9.84837 4.13102 11.9616 4.12496H12C14.1299 4.11912 16.2139 4.74344 17.9897 5.91933L20.2041 3.70402C20.3087 3.59937 20.4329 3.51636 20.5697 3.45973C20.7064 3.40309 20.8529 3.37395 21.0009 3.37395C21.1489 3.37395 21.2955 3.40309 21.4322 3.45973C21.5689 3.51636 21.6932 3.59937 21.7978 3.70402C21.9025 3.80867 21.9855 3.9329 22.0421 4.06963C22.0987 4.20636 22.1279 4.3529 22.1279 4.5009C22.1279 4.64889 22.0987 4.79543 22.0421 4.93216C21.9855 5.06889 21.9025 5.19312 21.7978 5.29777L19.7353 7.36027C21.753 9.39012 22.8822 12.1379 22.875 15ZM20.625 15C20.625 13.8647 20.4009 12.7406 19.9655 11.6922C19.5301 10.6437 18.8921 9.69151 18.0879 8.8902C17.2837 8.08889 16.3292 7.45422 15.2792 7.0226C14.2292 6.59097 13.1043 6.37089 11.9691 6.37496C7.23001 6.39183 3.37501 10.3125 3.37501 15.1059V16.875H20.625V15Z" fill="white" fill-opacity="0.5"/>
</svg>
