<svg width="24" height="24" viewBox="0 0 24 24" fill="none" xmlns="http://www.w3.org/2000/svg">
<path d="M21.2813 15.7495C21.1969 15.5567 21.0602 15.3914 20.8866 15.2724C19.4297 14.2702 19.125 12.532 19.125 11.2495C19.125 9.73361 20.3138 8.38079 21.0234 7.70954C21.1345 7.60441 21.223 7.47773 21.2834 7.33726C21.3439 7.19678 21.3751 7.04545 21.3751 6.89251C21.3751 6.73958 21.3439 6.58825 21.2834 6.44777C21.223 6.30729 21.1345 6.18061 21.0234 6.07548C19.7709 4.89048 17.7009 4.12454 15.75 4.12454C14.4254 4.12575 13.1272 4.49477 12 5.19048C10.6369 4.34368 9.02682 3.98457 7.4331 4.17191C5.83938 4.35924 4.35643 5.08193 3.22688 6.22173C2.53528 6.92811 1.9928 7.76636 1.63171 8.68663C1.27062 9.6069 1.09831 10.5904 1.125 11.5786C1.1641 13.2094 1.52769 14.8161 2.19457 16.3049C2.86144 17.7936 3.81823 19.1346 5.00907 20.2495C5.77299 20.973 6.7854 21.3757 7.8375 21.3745H16.0584C16.6215 21.3753 17.1787 21.2605 17.6955 21.0371C18.2124 20.8138 18.6778 20.4867 19.0631 20.0761C19.7338 19.3566 20.3132 18.5571 20.7881 17.6958C20.9353 17.4258 21.0694 17.1605 21.1763 16.9074C21.3253 16.5624 21.48 16.2061 21.2813 15.7495ZM17.4159 18.5452C17.2414 18.7295 17.0308 18.8761 16.7973 18.9757C16.5638 19.0754 16.3123 19.126 16.0584 19.1245H7.8375C7.36005 19.1262 6.90022 18.9443 6.55313 18.6164C5.57846 17.704 4.79541 16.6064 4.24973 15.3879C3.70405 14.1693 3.40669 12.8543 3.375 11.5195C3.35598 10.8349 3.47482 10.1535 3.72445 9.51569C3.97409 8.87791 4.34942 8.29685 4.82813 7.80704C5.27386 7.35175 5.80631 6.99041 6.39404 6.74437C6.98177 6.49833 7.61285 6.37258 8.25 6.37454H8.3175C9.40186 6.3863 10.4507 6.76277 11.295 7.44329C11.4945 7.60305 11.7425 7.69009 11.9981 7.69009C12.2537 7.69009 12.5017 7.60305 12.7013 7.44329C13.5643 6.74691 14.6411 6.36944 15.75 6.37454C16.7248 6.38607 17.6837 6.62354 18.5513 7.06829C17.4619 8.40517 16.875 9.85548 16.875 11.2495C16.875 13.4367 17.5753 15.2705 18.8672 16.5174C18.4725 17.2527 17.9844 17.934 17.415 18.5442L17.4159 18.5452ZM12.0703 1.21829C12.4122 0.777556 12.8403 0.41105 13.3284 0.141105C13.5895 -0.00360345 13.8974 -0.0386747 14.1843 0.0436069C14.4712 0.125889 14.7137 0.318783 14.8584 0.579855C15.0032 0.840928 15.0382 1.14879 14.9559 1.43572C14.8737 1.72265 14.6808 1.96515 14.4197 2.10986C14.1972 2.23275 14.0022 2.39994 13.8469 2.60111C13.7561 2.71776 13.6432 2.81538 13.5147 2.88841C13.3861 2.96143 13.2445 3.00843 13.0978 3.02671C12.8016 3.06363 12.5028 2.98135 12.2672 2.79798C12.0316 2.61461 11.8785 2.34516 11.8416 2.04891C11.8047 1.75266 11.8869 1.45388 12.0703 1.21829Z" fill="white" fill-opacity="0.5"/>
</svg>
