<svg width="32" height="32" viewBox="0 0 32 32" fill="none" xmlns="http://www.w3.org/2000/svg">
<g transform="translate(2.4987, 2.4988)">
<path id="Vector" d="M26.8874 12.9263C26.7739 12.652 26.5816 12.4177 26.3348 12.2528C26.0881 12.0879 25.798 11.9999 25.5012 12H21.0012V11.5C21.0012 11.1022 20.8431 10.7206 20.5618 10.4393C20.2805 10.158 19.899 10 19.5012 10H7.50118C7.10336 10 6.72183 10.158 6.44052 10.4393C6.15922 10.7206 6.00118 11.1022 6.00118 11.5V12H1.50118C1.20434 11.9998 0.914099 12.0876 0.667208 12.2524C0.420317 12.4172 0.227876 12.6516 0.114247 12.9258C0.000618741 13.2001 -0.0290882 13.5018 0.0288874 13.793C0.086863 14.0841 0.229914 14.3515 0.439931 14.5613L12.4399 26.5613C12.5793 26.7011 12.7449 26.812 12.9272 26.8878C13.1095 26.9635 13.305 27.0024 13.5024 27.0024C13.6999 27.0024 13.8953 26.9635 14.0777 26.8878C14.26 26.812 14.4256 26.7011 14.5649 26.5613L26.5649 14.5613C26.7743 14.3511 26.9167 14.0837 26.9741 13.7927C27.0315 13.5016 27.0014 13.2001 26.8874 12.9263ZM13.5012 23.375L5.12618 15H7.50118C7.89901 15 8.28054 14.842 8.56184 14.5607C8.84315 14.2794 9.00118 13.8978 9.00118 13.5V13H18.0012V13.5C18.0012 13.8978 18.1592 14.2794 18.4405 14.5607C18.7218 14.842 19.1034 15 19.5012 15H21.8762L13.5012 23.375ZM6.00118 1.5C6.00118 1.10218 6.15922 0.720644 6.44052 0.43934C6.72183 0.158035 7.10336 0 7.50118 0H19.5012C19.899 0 20.2805 0.158035 20.5618 0.43934C20.8431 0.720644 21.0012 1.10218 21.0012 1.5C21.0012 1.89782 20.8431 2.27936 20.5618 2.56066C20.2805 2.84196 19.899 3 19.5012 3H7.50118C7.10336 3 6.72183 2.84196 6.44052 2.56066C6.15922 2.27936 6.00118 1.89782 6.00118 1.5ZM6.00118 6.5C6.00118 6.10218 6.15922 5.72064 6.44052 5.43934C6.72183 5.15804 7.10336 5 7.50118 5H19.5012C19.899 5 20.2805 5.15804 20.5618 5.43934C20.8431 5.72064 21.0012 6.10218 21.0012 6.5C21.0012 6.89782 20.8431 7.27936 20.5618 7.56066C20.2805 7.84196 19.899 8 19.5012 8H7.50118C7.10336 8 6.72183 7.84196 6.44052 7.56066C6.15922 7.27936 6.00118 6.89782 6.00118 6.5Z" fill="white" fill-opacity="0.95"/>
</g>
</svg>
