<svg width="32" height="32" viewBox="0 0 32 32" fill="none" xmlns="http://www.w3.org/2000/svg">
<g transform="translate(3.5000, 3.7424)">
<path id="Vector" d="M25 2.25754V8.25754C25 8.65536 24.842 9.03689 24.5607 9.3182C24.2794 9.5995 23.8978 9.75754 23.5 9.75754H17.5C17.1022 9.75754 16.7206 9.5995 16.4393 9.3182C16.158 9.03689 16 8.65536 16 8.25754C16 7.85971 16.158 7.47818 16.4393 7.19688C16.7206 6.91557 17.1022 6.75754 17.5 6.75754H19.875L18.9 5.78254C17.1348 4.00856 14.7376 3.00778 12.235 3.00004H12.1812C9.701 2.99461 7.31834 3.96591 5.54875 5.70379C5.26431 5.98193 4.88102 6.13569 4.48321 6.13124C4.08539 6.12678 3.70565 5.96448 3.4275 5.68004C3.14935 5.39559 2.9956 5.0123 3.00005 4.61449C3.0045 4.21668 3.16681 3.83693 3.45125 3.55879C5.78152 1.2706 8.91914 -0.00788326 12.185 3.65772e-05H12.25C15.5447 0.00901952 18.701 1.32594 21.025 3.66129L22 4.63254V2.25754C22 1.85971 22.158 1.47818 22.4393 1.19688C22.7206 0.915572 23.1022 0.757537 23.5 0.757537C23.8978 0.757537 24.2794 0.915572 24.5607 1.19688C24.842 1.47818 25 1.85971 25 2.25754ZM19.4513 18.8113C17.6807 20.5501 15.2965 21.5214 12.815 21.515H12.7612C10.2587 21.5073 7.86147 20.5065 6.09625 18.7325L5.125 17.7575H7.5C7.89782 17.7575 8.27936 17.5995 8.56066 17.3182C8.84196 17.0369 9 16.6554 9 16.2575C9 15.8597 8.84196 15.4782 8.56066 15.1969C8.27936 14.9156 7.89782 14.7575 7.5 14.7575H1.5C1.10218 14.7575 0.720644 14.9156 0.43934 15.1969C0.158035 15.4782 0 15.8597 0 16.2575V22.2575C0 22.6554 0.158035 23.0369 0.43934 23.3182C0.720644 23.5995 1.10218 23.7575 1.5 23.7575C1.89782 23.7575 2.27936 23.5995 2.56066 23.3182C2.84196 23.0369 3 22.6554 3 22.2575V19.8825L3.975 20.8575C6.29965 23.1915 9.45586 24.507 12.75 24.515H12.82C16.0859 24.523 19.2235 23.2445 21.5537 20.9563C21.6946 20.8186 21.8069 20.6544 21.8843 20.4733C21.9618 20.2922 22.0027 20.0976 22.0049 19.9006C22.0072 19.7036 21.9705 19.5081 21.8972 19.3253C21.8239 19.1425 21.7152 18.9759 21.5775 18.835C21.4398 18.6942 21.2757 18.5819 21.0945 18.5044C20.9134 18.427 20.7188 18.386 20.5218 18.3838C20.3248 18.3816 20.1293 18.4182 19.9465 18.4916C19.7637 18.5649 19.5971 18.6736 19.4562 18.8113H19.4513Z" fill="white" fill-opacity="0.95"/>
</g>
</svg>
