<svg width="32" height="32" viewBox="0 0 32 32" fill="none" xmlns="http://www.w3.org/2000/svg">
<g transform="translate(2.5000, 3.4976)">
<path id="Vector" d="M27 12.5049C27.0003 15.7913 25.7064 18.9456 23.3983 21.285C21.0902 23.6245 17.9536 24.9609 14.6675 25.0049H14.5C11.3088 25.0116 8.23745 23.7901 5.9225 21.5937C5.63325 21.3205 5.46436 20.9436 5.45299 20.5459C5.44162 20.1482 5.5887 19.7623 5.86188 19.473C6.13505 19.1838 6.51194 19.0149 6.90963 19.0035C7.30733 18.9921 7.69325 19.1392 7.9825 19.4124C9.3403 20.6943 11.0458 21.5476 12.8858 21.8657C14.7258 22.1838 16.6188 21.9526 18.3281 21.2009C20.0375 20.4493 21.4874 19.2105 22.4968 17.6395C23.5061 16.0685 24.03 14.2349 24.0031 12.3677C23.9762 10.5006 23.3997 8.68282 22.3455 7.14151C21.2914 5.60021 19.8064 4.40375 18.0761 3.70165C16.3458 2.99955 14.447 2.82294 12.6169 3.1939C10.7868 3.56486 9.10657 4.46694 7.78625 5.7874C7.77 5.80365 7.755 5.81865 7.7375 5.83365L5.36125 8.0049H7.5C7.89782 8.0049 8.27936 8.16294 8.56066 8.44424C8.84196 8.72555 9 9.10708 9 9.5049C9 9.90273 8.84196 10.2843 8.56066 10.5656C8.27936 10.8469 7.89782 11.0049 7.5 11.0049H1.5C1.10218 11.0049 0.720644 10.8469 0.43934 10.5656C0.158035 10.2843 0 9.90273 0 9.5049V3.5049C0 3.10708 0.158035 2.72555 0.43934 2.44424C0.720644 2.16294 1.10218 2.0049 1.5 2.0049C1.89782 2.0049 2.27936 2.16294 2.56066 2.44424C2.84196 2.72555 3 3.10708 3 3.5049V6.0949L5.685 3.6374C7.43612 1.89569 9.66396 0.71176 12.0873 0.235053C14.5107 -0.241653 17.021 0.0102267 19.3013 0.958903C21.5817 1.90758 23.5299 3.51053 24.9001 5.56543C26.2703 7.62033 27.001 10.0351 27 12.5049Z" fill="white" fill-opacity="0.95"/>
</g>
</svg>
