<svg width="32" height="32" viewBox="0 0 32 32" fill="none" xmlns="http://www.w3.org/2000/svg">
<g transform="translate(5.4969, 3.4976)">
<path id="Vector" d="M20.5651 11.5662C20.4257 11.706 20.2602 11.817 20.0778 11.8927C19.8955 11.9684 19.7 12.0074 19.5026 12.0074C19.3052 12.0074 19.1097 11.9684 18.9274 11.8927C18.745 11.817 18.5795 11.706 18.4401 11.5662L12.0039 5.12993V23.5049C12.0039 23.9028 11.8458 24.2843 11.5645 24.5656C11.2832 24.8469 10.9017 25.0049 10.5039 25.0049C10.106 25.0049 9.7245 24.8469 9.44319 24.5656C9.16189 24.2843 9.00385 23.9028 9.00385 23.5049V5.12993L2.5651 11.5662C2.28331 11.848 1.90112 12.0063 1.5026 12.0063C1.10409 12.0063 0.721895 11.848 0.440102 11.5662C0.15831 11.2844 0 10.9022 0 10.5037C0 10.1052 0.15831 9.72298 0.440102 9.44118L9.4401 0.441183C9.57946 0.301343 9.74505 0.190388 9.92737 0.11468C10.1097 0.0389715 10.3052 0 10.5026 0C10.7 0 10.8955 0.0389715 11.0778 0.11468C11.2602 0.190388 11.4257 0.301343 11.5651 0.441183L20.5651 9.44118C20.7049 9.58054 20.8159 9.74613 20.8916 9.92846C20.9673 10.1108 21.0063 10.3063 21.0063 10.5037C21.0063 10.7011 20.9673 10.8966 20.8916 11.0789C20.8159 11.2612 20.7049 11.4268 20.5651 11.5662Z" fill="white" fill-opacity="0.95"/>
</g>
</svg>
