<svg width="32" height="32" viewBox="0 0 32 32" fill="none" xmlns="http://www.w3.org/2000/svg">
<g transform="translate(2.4991, 5.4993)">
<path id="Vector" d="M26.5613 14.5613L20.5613 20.5613C20.2795 20.843 19.8973 21.0014 19.4988 21.0014C19.1002 21.0014 18.718 20.843 18.4363 20.5613C18.1545 20.2795 17.9961 19.8973 17.9961 19.4988C17.9961 19.1002 18.1545 18.718 18.4363 18.4363L21.875 15H13.5C9.9208 14.996 6.48932 13.5724 3.95844 11.0416C1.42756 8.51068 0.00397028 5.0792 0 1.5C0 1.10218 0.158035 0.720644 0.43934 0.43934C0.720644 0.158035 1.10218 0 1.5 0C1.89782 0 2.27936 0.158035 2.56066 0.43934C2.84196 0.720644 3 1.10218 3 1.5C3.00298 4.28386 4.11018 6.95285 6.07867 8.92133C8.04715 10.8898 10.7161 11.997 13.5 12H21.875L18.435 8.56125C18.1532 8.27946 17.9949 7.89726 17.9949 7.49875C17.9949 7.10023 18.1532 6.71804 18.435 6.43625C18.7168 6.15446 19.099 5.99615 19.4975 5.99615C19.896 5.99615 20.2782 6.15446 20.56 6.43625L26.56 12.4363C26.6999 12.5755 26.811 12.741 26.8868 12.9233C26.9626 13.1056 27.0017 13.3011 27.0018 13.4985C27.0019 13.6959 26.9631 13.8914 26.8875 14.0738C26.8119 14.2562 26.701 14.4218 26.5613 14.5613Z" fill="white" fill-opacity="0.95"/>
</g>
</svg>
