<svg width="32" height="32" viewBox="0 0 32 32" fill="none" xmlns="http://www.w3.org/2000/svg">
<g transform="translate(2.0000, 8.4997)">
<path id="Vector" d="M28 1.50062V9.50062C28 9.89845 27.842 10.28 27.5607 10.5613C27.2794 10.8426 26.8978 11.0006 26.5 11.0006H18.5C18.1022 11.0006 17.7206 10.8426 17.4393 10.5613C17.158 10.28 17 9.89845 17 9.50062C17 9.1028 17.158 8.72127 17.4393 8.43996C17.7206 8.15866 18.1022 8.00062 18.5 8.00062H22.8625L20.9275 6.07937C19.4594 4.61014 17.5885 3.60931 15.5516 3.20349C13.5146 2.79767 11.403 3.00509 9.48393 3.79951C7.56485 4.59393 5.92449 5.93966 4.77034 7.66648C3.61619 9.39329 3.0001 11.4236 3 13.5006C3 13.8984 2.84196 14.28 2.56066 14.5613C2.27936 14.8426 1.89782 15.0006 1.5 15.0006C1.10218 15.0006 0.720644 14.8426 0.43934 14.5613C0.158035 14.28 1.4103e-08 13.8984 1.4103e-08 13.5006C-0.000122008 10.8305 0.791573 8.22028 2.27496 6.0001C3.75835 3.77993 5.86681 2.0495 8.33369 1.02767C10.8006 0.00583316 13.5151 -0.261513 16.1339 0.259439C18.7527 0.78039 21.1582 2.06624 23.0462 3.95437L25 5.89562V1.50062C25 1.1028 25.158 0.721267 25.4393 0.439962C25.7206 0.158658 26.1022 0.000622739 26.5 0.000622739C26.8978 0.000622739 27.2794 0.158658 27.5607 0.439962C27.842 0.721267 28 1.1028 28 1.50062Z" fill="white" fill-opacity="0.95"/>
</g>
</svg>
