<svg width="32" height="32" viewBox="0 0 32 32" fill="none" xmlns="http://www.w3.org/2000/svg">
<g transform="translate(3.5000, 3.7424)">
<path id="Vector" d="M7.5 9.75754H1.5C1.10218 9.75754 0.720644 9.5995 0.43934 9.3182C0.158035 9.03689 0 8.65536 0 8.25754V2.25754C0 1.85971 0.158035 1.47818 0.43934 1.19688C0.720644 0.915572 1.10218 0.757537 1.5 0.757537C1.89782 0.757537 2.27936 0.915572 2.56066 1.19688C2.84196 1.47818 3 1.85971 3 2.25754V4.63254L3.975 3.65754C6.29965 1.32356 9.45586 0.00802588 12.75 3.65772e-05H12.82C16.0859 -0.00788326 19.2235 1.2706 21.5537 3.55879C21.6946 3.69651 21.8069 3.86063 21.8843 4.04176C21.9618 4.2229 22.0027 4.41752 22.0049 4.61449C22.0072 4.81147 21.9705 5.00695 21.8972 5.18978C21.8239 5.3726 21.7152 5.53919 21.5775 5.68004C21.4398 5.82088 21.2757 5.93322 21.0945 6.01063C20.9134 6.08805 20.7188 6.12903 20.5218 6.13124C20.3248 6.13344 20.1293 6.09683 19.9465 6.02349C19.7637 5.95014 19.5971 5.84151 19.4562 5.70379C17.6677 3.95699 15.2626 2.98564 12.7626 3.00039C10.2626 3.01513 7.86911 4.01477 6.10125 5.78254L5.125 6.75754H7.5C7.89782 6.75754 8.27936 6.91557 8.56066 7.19688C8.84196 7.47818 9 7.85971 9 8.25754C9 8.65536 8.84196 9.03689 8.56066 9.3182C8.27936 9.5995 7.89782 9.75754 7.5 9.75754ZM23.5 14.7575H17.5C17.1022 14.7575 16.7206 14.9156 16.4393 15.1969C16.158 15.4782 16 15.8597 16 16.2575C16 16.6554 16.158 17.0369 16.4393 17.3182C16.7206 17.5995 17.1022 17.7575 17.5 17.7575H19.875L18.9 18.7325C17.1348 20.5065 14.7376 21.5073 12.235 21.515H12.1812C9.6997 21.5214 7.31551 20.5501 5.545 18.8113C5.26056 18.5331 4.87727 18.3794 4.47946 18.3838C4.08164 18.3883 3.7019 18.5506 3.42375 18.835C3.1456 19.1195 2.99185 19.5028 2.9963 19.9006C3.00075 20.2984 3.16306 20.6781 3.4475 20.9563C5.77777 23.2445 8.91539 24.523 12.1812 24.515H12.25C15.5429 24.5047 18.6972 23.1879 21.02 20.8538L22 19.8825V22.2575C22 22.6554 22.158 23.0369 22.4393 23.3182C22.7206 23.5995 23.1022 23.7575 23.5 23.7575C23.8978 23.7575 24.2794 23.5995 24.5607 23.3182C24.842 23.0369 25 22.6554 25 22.2575V16.2575C25 15.8597 24.842 15.4782 24.5607 15.1969C24.2794 14.9156 23.8978 14.7575 23.5 14.7575Z" fill="white" fill-opacity="0.95"/>
</g>
</svg>
