<svg width="32" height="32" viewBox="0 0 32 32" fill="none" xmlns="http://www.w3.org/2000/svg">
<path d="M3.5 16C3.4997 19.2864 4.79365 22.4407 7.10175 24.7802C9.40985 27.1196 12.5464 28.456 15.8325 28.5H16C19.1912 28.5067 22.2626 27.2853 24.5775 25.0888C24.8668 24.8156 25.0356 24.4387 25.047 24.041C25.0584 23.6433 24.9113 23.2574 24.6381 22.9681C24.365 22.6789 23.9881 22.51 23.5904 22.4986C23.1927 22.4873 22.8068 22.6343 22.5175 22.9075C21.1597 24.1894 19.4542 25.0427 17.6142 25.3608C15.7742 25.6789 13.8812 25.4477 12.1719 24.696C10.4625 23.9444 9.01257 22.7057 8.00325 21.1346C6.99392 19.5636 6.46997 17.73 6.49686 15.8628C6.52375 13.9957 7.1003 12.1779 8.15446 10.6366C9.20861 9.09533 10.6936 7.89887 12.4239 7.19676C14.1542 6.49466 16.053 6.31806 17.8831 6.68902C19.7132 7.05998 21.3934 7.96206 22.7137 9.28252C22.73 9.29877 22.745 9.31377 22.7625 9.32877L25.1388 11.5H23C22.6022 11.5 22.2206 11.6581 21.9393 11.9394C21.658 12.2207 21.5 12.6022 21.5 13C21.5 13.3978 21.658 13.7794 21.9393 14.0607C22.2206 14.342 22.6022 14.5 23 14.5H29C29.3978 14.5 29.7794 14.342 30.0607 14.0607C30.342 13.7794 30.5 13.3978 30.5 13V7.00002C30.5 6.60219 30.342 6.22066 30.0607 5.93936C29.7794 5.65805 29.3978 5.50002 29 5.50002C28.6022 5.50002 28.2206 5.65805 27.9393 5.93936C27.658 6.22066 27.5 6.60219 27.5 7.00002V9.59002L24.815 7.13252C23.0639 5.3908 20.836 4.20688 18.4127 3.73017C15.9893 3.25346 13.479 3.50534 11.1987 4.45402C8.9183 5.4027 6.97009 7.00565 5.59992 9.06055C4.22975 11.1155 3.49903 13.5302 3.5 16Z" fill="white" fill-opacity="0.95"/>
</svg>
