<svg width="32" height="32" viewBox="0 0 32 32" fill="none" xmlns="http://www.w3.org/2000/svg">
<g transform="translate(2.0000, 8.5000)">
<path id="Vector" d="M28 13.5C28 13.8978 27.842 14.2794 27.5607 14.5607C27.2794 14.842 26.8978 15 26.5 15C26.1022 15 25.7206 14.842 25.4393 14.5607C25.158 14.2794 25 13.8978 25 13.5C25.0001 11.4232 24.3844 9.39297 23.2307 7.66612C22.0769 5.93926 20.437 4.59333 18.5183 3.79855C16.5996 3.00377 14.4882 2.79583 12.4513 3.20104C10.4144 3.60625 8.54345 4.6064 7.075 6.075L5.13875 8H9.5C9.89782 8 10.2794 8.15804 10.5607 8.43934C10.842 8.72065 11 9.10218 11 9.5C11 9.89782 10.842 10.2794 10.5607 10.5607C10.2794 10.842 9.89782 11 9.5 11H1.5C1.10218 11 0.720644 10.842 0.43934 10.5607C0.158035 10.2794 0 9.89782 0 9.5V1.5C0 1.10218 0.158035 0.720644 0.43934 0.43934C0.720644 0.158035 1.10218 0 1.5 0C1.89782 0 2.27936 0.158035 2.56066 0.43934C2.84196 0.720644 3 1.10218 3 1.5V5.895L4.9575 3.95125C6.84586 2.06425 9.25129 0.779482 11.8697 0.25935C14.4881 -0.260782 17.202 0.00707829 19.6682 1.02907C22.1344 2.05106 24.2422 3.7813 25.7253 6.00105C27.2083 8.22081 27.9999 10.8304 28 13.5Z" fill="white" fill-opacity="0.95"/>
</g>
</svg>
