<svg width="32" height="32" viewBox="0 0 32 32" fill="none" xmlns="http://www.w3.org/2000/svg">
<g transform="translate(6.4993, 6.4975)">
<path id="Vector" d="M19.0014 4.5051V17.5051C19.0014 17.9029 18.8433 18.2845 18.562 18.5658C18.2807 18.8471 17.8992 19.0051 17.5014 19.0051H4.50135C4.10353 19.0051 3.722 18.8471 3.44069 18.5658C3.15939 18.2845 3.00135 17.9029 3.00135 17.5051C3.00135 17.1073 3.15939 16.7257 3.44069 16.4444C3.722 16.1631 4.10353 16.0051 4.50135 16.0051H13.8764L0.440102 2.5651C0.300572 2.42557 0.189891 2.25993 0.114378 2.07762C0.0388656 1.89532 0 1.69993 0 1.5026C0 1.10409 0.158309 0.721894 0.440102 0.440102C0.721894 0.158309 1.10409 0 1.5026 0C1.90112 0 2.28331 0.158309 2.5651 0.440102L16.0014 13.8801V4.5051C16.0014 4.10728 16.1594 3.72575 16.4407 3.44444C16.722 3.16314 17.1035 3.0051 17.5014 3.0051C17.8992 3.0051 18.2807 3.16314 18.562 3.44444C18.8433 3.72575 19.0014 4.10728 19.0014 4.5051Z" fill="white" fill-opacity="0.95"/>
</g>
</svg>
