<svg width="32" height="32" viewBox="0 0 32 32" fill="none" xmlns="http://www.w3.org/2000/svg">
<g transform="translate(2.4976, 2.4988)">
<path id="Vector" d="M26.5649 12.4412L14.5649 0.441183C14.4256 0.301343 14.26 0.190388 14.0777 0.114679C13.8953 0.0389714 13.6999 0 13.5024 0C13.305 0 13.1095 0.0389714 12.9272 0.114679C12.7449 0.190388 12.5793 0.301343 12.4399 0.441183L0.439935 12.4412C0.229766 12.6511 0.0866627 12.9187 0.0287661 13.2101C-0.0291305 13.5014 0.000787011 13.8034 0.114726 14.0778C0.228665 14.3521 0.421495 14.5864 0.66877 14.7511C0.916044 14.9157 1.20663 15.0032 1.50369 15.0024H6.00368V15.5024C6.00368 15.9003 6.16172 16.2818 6.44302 16.5631C6.72433 16.8444 7.10586 17.0024 7.50368 17.0024H19.5037C19.9015 17.0024 20.283 16.8444 20.5643 16.5631C20.8456 16.2818 21.0037 15.9003 21.0037 15.5024V15.0024H25.5037C25.8005 15.0027 26.0908 14.9148 26.3377 14.75C26.5845 14.5852 26.777 14.3509 26.8906 14.0766C27.0042 13.8024 27.034 13.5006 26.976 13.2095C26.918 12.9183 26.775 12.651 26.5649 12.4412ZM19.5037 12.0024C19.1059 12.0024 18.7243 12.1605 18.443 12.4418C18.1617 12.7231 18.0037 13.1046 18.0037 13.5024V14.0024H9.00368V13.5024C9.00368 13.1046 8.84565 12.7231 8.56435 12.4418C8.28304 12.1605 7.90151 12.0024 7.50368 12.0024H5.12868L13.5037 3.62743L21.8787 12.0024H19.5037ZM21.0037 25.5024C21.0037 25.9003 20.8456 26.2818 20.5643 26.5631C20.283 26.8444 19.9015 27.0024 19.5037 27.0024H7.50368C7.10586 27.0024 6.72433 26.8444 6.44302 26.5631C6.16172 26.2818 6.00368 25.9003 6.00368 25.5024C6.00368 25.1046 6.16172 24.7231 6.44302 24.4418C6.72433 24.1605 7.10586 24.0024 7.50368 24.0024H19.5037C19.9015 24.0024 20.283 24.1605 20.5643 24.4418C20.8456 24.7231 21.0037 25.1046 21.0037 25.5024ZM21.0037 20.5024C21.0037 20.9003 20.8456 21.2818 20.5643 21.5631C20.283 21.8444 19.9015 22.0024 19.5037 22.0024H7.50368C7.10586 22.0024 6.72433 21.8444 6.44302 21.5631C6.16172 21.2818 6.00368 20.9003 6.00368 20.5024C6.00368 20.1046 6.16172 19.7231 6.44302 19.4418C6.72433 19.1605 7.10586 19.0024 7.50368 19.0024H19.5037C19.9015 19.0024 20.283 19.1605 20.5643 19.4418C20.8456 19.7231 21.0037 20.1046 21.0037 20.5024Z" fill="white" fill-opacity="0.95"/>
</g>
</svg>
