<svg width="32" height="32" viewBox="0 0 32 32" fill="none" xmlns="http://www.w3.org/2000/svg">
<g transform="translate(3.4978, 5.4968)">
<path id="Vector" d="M24.5613 11.5664L15.5613 20.5664C15.2795 20.8481 14.8973 21.0065 14.4988 21.0065C14.1002 21.0065 13.718 20.8481 13.4363 20.5664C13.1545 20.2846 12.9961 19.9024 12.9961 19.5039C12.9961 19.1053 13.1545 18.7231 13.4363 18.4414L19.875 12.0051H1.5C1.10218 12.0051 0.720644 11.8471 0.43934 11.5658C0.158035 11.2845 0 10.9029 0 10.5051C0 10.1073 0.158035 9.72575 0.43934 9.44444C0.720644 9.16314 1.10218 9.0051 1.5 9.0051H19.875L13.4387 2.5651C13.157 2.28331 12.9986 1.90112 12.9986 1.5026C12.9986 1.10409 13.157 0.721894 13.4387 0.440102C13.7205 0.158309 14.1027 4.19903e-09 14.5012 0C14.8998 -4.19904e-09 15.282 0.158309 15.5637 0.440102L24.5637 9.4401C24.7036 9.57964 24.8145 9.74544 24.8901 9.92797C24.9657 10.1105 25.0045 10.3062 25.0043 10.5037C25.0041 10.7013 24.9648 10.8969 24.8888 11.0792C24.8128 11.2616 24.7014 11.4271 24.5613 11.5664Z" fill="white" fill-opacity="0.95"/>
</g>
</svg>
