<svg width="32" height="32" viewBox="0 0 32 32" fill="none" xmlns="http://www.w3.org/2000/svg">
<g transform="translate(2.4978, 5.4975)">
<path id="Vector" d="M26.5613 8.56635L20.5613 14.5664C20.2795 14.8481 19.8973 15.0065 19.4988 15.0065C19.1002 15.0065 18.718 14.8481 18.4363 14.5664C18.1545 14.2846 17.9962 13.9024 17.9962 13.5039C17.9962 13.1053 18.1545 12.7231 18.4363 12.4414L21.875 9.0051H13.5C10.7161 9.00808 8.04716 10.1153 6.07867 12.0838C4.11018 14.0523 3.00298 16.7212 3 19.5051C3 19.9029 2.84197 20.2845 2.56066 20.5658C2.27936 20.8471 1.89782 21.0051 1.5 21.0051C1.10218 21.0051 0.720645 20.8471 0.43934 20.5658C0.158035 20.2845 0 19.9029 0 19.5051C0.00397028 15.9259 1.42756 12.4944 3.95844 9.96354C6.48933 7.43266 9.9208 6.00907 13.5 6.0051H21.875L18.4388 2.5651C18.157 2.28331 17.9986 1.90112 17.9986 1.5026C17.9986 1.10409 18.157 0.721894 18.4388 0.440102C18.7205 0.158309 19.1027 4.19903e-09 19.5013 0C19.8998 -4.19904e-09 20.282 0.158309 20.5638 0.440102L26.5638 6.4401C26.7036 6.57964 26.8145 6.74544 26.8901 6.92797C26.9657 7.11051 27.0045 7.30618 27.0043 7.50375C27.0041 7.70132 26.9648 7.89689 26.8888 8.07925C26.8128 8.2616 26.7014 8.42714 26.5613 8.56635Z" fill="white" fill-opacity="0.95"/>
</g>
</svg>
