<svg width="32" height="32" viewBox="0 0 32 32" fill="none" xmlns="http://www.w3.org/2000/svg">
<g transform="translate(2.4994, 5.4980)">
<path id="Vector" d="M27.0012 1.5C26.9972 5.0792 25.5736 8.51068 23.0427 11.0416C20.5119 13.5724 17.0804 14.996 13.5012 15H5.12618L8.56618 18.4387C8.84797 18.7205 9.00628 19.1027 9.00628 19.5012C9.00628 19.8998 8.84797 20.282 8.56618 20.5637C8.28439 20.8455 7.9022 21.0039 7.50368 21.0039C7.10517 21.0039 6.72297 20.8455 6.44118 20.5637L0.441183 14.5637C0.301343 14.4244 0.190387 14.2588 0.114679 14.0765C0.0389713 13.8941 0 13.6987 0 13.5012C0 13.3038 0.0389713 13.1083 0.114679 12.926C0.190387 12.7437 0.301343 12.5781 0.441183 12.4387L6.44118 6.43875C6.58071 6.29922 6.74636 6.18854 6.92866 6.11303C7.11097 6.03751 7.30636 5.99865 7.50368 5.99865C7.70101 5.99865 7.8964 6.03751 8.0787 6.11303C8.26101 6.18854 8.42665 6.29922 8.56618 6.43875C8.70571 6.57828 8.81639 6.74393 8.89191 6.92623C8.96742 7.10853 9.00628 7.30393 9.00628 7.50125C9.00628 7.69857 8.96742 7.89397 8.89191 8.07627C8.81639 8.25858 8.70571 8.42422 8.56618 8.56375L5.12618 12H13.5012C16.285 11.997 18.954 10.8898 20.9225 8.92133C22.891 6.95285 23.9982 4.28386 24.0012 1.5C24.0012 1.10218 24.1592 0.720644 24.4405 0.43934C24.7218 0.158035 25.1034 0 25.5012 0C25.899 0 26.2805 0.158035 26.5618 0.43934C26.8431 0.720644 27.0012 1.10218 27.0012 1.5Z" fill="white" fill-opacity="0.95"/>
</g>
</svg>
