<svg width="32" height="32" viewBox="0 0 32 32" fill="none" xmlns="http://www.w3.org/2000/svg">
<g transform="translate(2.4994, 5.4993)">
<path id="Vector" d="M27.0012 19.5014C27.0012 19.8992 26.8431 20.2807 26.5618 20.562C26.2805 20.8433 25.899 21.0014 25.5012 21.0014C25.1034 21.0014 24.7218 20.8433 24.4405 20.562C24.1592 20.2807 24.0012 19.8992 24.0012 19.5014C23.9982 16.7175 22.891 14.0485 20.9225 12.08C18.954 10.1115 16.285 9.00433 13.5012 9.00135H5.12618L8.56618 12.4401C8.84797 12.7219 9.00628 13.1041 9.00628 13.5026C9.00628 13.9011 8.84797 14.2833 8.56618 14.5651C8.28439 14.8469 7.9022 15.0052 7.50368 15.0052C7.10517 15.0052 6.72297 14.8469 6.44118 14.5651L0.441183 8.5651C0.301343 8.42575 0.190387 8.26016 0.114679 8.07783C0.0389713 7.8955 0 7.70002 0 7.5026C0 7.30518 0.0389713 7.1097 0.114679 6.92738C0.190387 6.74505 0.301343 6.57946 0.441183 6.4401L6.44118 0.440102C6.58071 0.300572 6.74636 0.189891 6.92866 0.114378C7.11096 0.0388656 7.30636 0 7.50368 0C7.70101 0 7.8964 0.0388656 8.0787 0.114378C8.26101 0.189891 8.42665 0.300572 8.56618 0.440102C8.70571 0.579631 8.81639 0.745277 8.89191 0.927581C8.96742 1.10989 9.00628 1.30528 9.00628 1.5026C9.00628 1.69993 8.96742 1.89532 8.89191 2.07762C8.81639 2.25993 8.70571 2.42557 8.56618 2.5651L5.12618 6.00135H13.5012C17.0804 6.00532 20.5119 7.42891 23.0427 9.9598C25.5736 12.4907 26.9972 15.9222 27.0012 19.5014Z" fill="white" fill-opacity="0.95"/>
</g>
</svg>
