<svg width="32" height="32" viewBox="0 0 32 32" fill="none" xmlns="http://www.w3.org/2000/svg">
<g transform="translate(6.4980, 6.4993)">
<path id="Vector" d="M18.5613 2.56135L5.125 16.0014H14.5C14.8978 16.0014 15.2794 16.1594 15.5607 16.4407C15.842 16.722 16 17.1035 16 17.5014C16 17.8992 15.842 18.2807 15.5607 18.562C15.2794 18.8433 14.8978 19.0014 14.5 19.0014H1.5C1.10218 19.0014 0.720644 18.8433 0.43934 18.562C0.158035 18.2807 0 17.8992 0 17.5014V4.50135C0 4.10353 0.158035 3.722 0.43934 3.44069C0.720644 3.15939 1.10218 3.00135 1.5 3.00135C1.89782 3.00135 2.27936 3.15939 2.56066 3.44069C2.84197 3.722 3 4.10353 3 4.50135V13.8764L16.4388 0.440102C16.5783 0.300572 16.7439 0.189891 16.9262 0.114378C17.1085 0.0388656 17.3039 0 17.5013 0C17.6986 0 17.894 0.0388656 18.0763 0.114378C18.2586 0.189891 18.4242 0.300572 18.5638 0.440102C18.7033 0.579631 18.814 0.745277 18.8895 0.927581C18.965 1.10989 19.0039 1.30528 19.0039 1.5026C19.0039 1.69993 18.965 1.89532 18.8895 2.07762C18.814 2.25993 18.7033 2.42557 18.5638 2.5651L18.5613 2.56135Z" fill="white" fill-opacity="0.95"/>
</g>
</svg>
