<svg width="32" height="32" viewBox="0 0 32 32" fill="none" xmlns="http://www.w3.org/2000/svg">
<g transform="translate(2.4976, 2.4988)">
<path id="Vector" d="M26.5649 12.4412L14.5649 0.441183C14.4256 0.301343 14.26 0.190388 14.0777 0.114679C13.8953 0.0389714 13.6999 0 13.5024 0C13.305 0 13.1095 0.0389714 12.9272 0.114679C12.7449 0.190388 12.5793 0.301343 12.4399 0.441183L0.439939 12.4412C0.229693 12.6512 0.0865631 12.9189 0.0287058 13.2104C-0.0291515 13.5019 0.0008713 13.804 0.114966 14.0784C0.22906 14.3527 0.422084 14.5871 0.669551 14.7516C0.917018 14.9161 1.20778 15.0034 1.50494 15.0024H6.00494V24.5024C6.00494 25.1655 6.26833 25.8014 6.73717 26.2702C7.20601 26.739 7.8419 27.0024 8.50494 27.0024H18.5049C19.168 27.0024 19.8039 26.739 20.2727 26.2702C20.7415 25.8014 21.0049 25.1655 21.0049 24.5024V15.0024H25.5049C25.8017 15.0024 26.0917 14.9144 26.3384 14.7495C26.5851 14.5846 26.7774 14.3502 26.8909 14.076C27.0043 13.8019 27.0339 13.5002 26.9759 13.2092C26.9179 12.9182 26.7749 12.6509 26.5649 12.4412ZM19.5049 12.0024C19.1071 12.0024 18.7256 12.1605 18.4443 12.4418C18.163 12.7231 18.0049 13.1046 18.0049 13.5024V24.0024H9.00494V13.5024C9.00494 13.1046 8.8469 12.7231 8.5656 12.4418C8.28429 12.1605 7.90276 12.0024 7.50494 12.0024H5.12994L13.5049 3.62743L21.8799 12.0024H19.5049Z" fill="white" fill-opacity="0.95"/>
</g>
</svg>
