<svg width="32" height="32" viewBox="0 0 32 32" fill="none" xmlns="http://www.w3.org/2000/svg">
<g transform="translate(6.4994, 6.4988)">
<path id="Vector" d="M18.5612 18.5612C18.4219 18.7011 18.2563 18.812 18.074 18.8878C17.8916 18.9635 17.6962 19.0024 17.4987 19.0024C17.3013 19.0024 17.1058 18.9635 16.9235 18.8878C16.7412 18.812 16.5756 18.7011 16.4362 18.5612L3 5.125V14.5C3 14.8978 2.84196 15.2794 2.56066 15.5607C2.27936 15.842 1.89782 16 1.5 16C1.10218 16 0.720644 15.842 0.43934 15.5607C0.158035 15.2794 0 14.8978 0 14.5V1.5C0 1.10218 0.158035 0.720644 0.43934 0.43934C0.720644 0.158035 1.10218 0 1.5 0H14.5C14.8978 0 15.2794 0.158035 15.5607 0.43934C15.842 0.720644 16 1.10218 16 1.5C16 1.89782 15.842 2.27936 15.5607 2.56066C15.2794 2.84196 14.8978 3 14.5 3H5.125L18.5612 16.4387C18.7007 16.5781 18.8114 16.7435 18.8868 16.9256C18.9623 17.1077 19.0012 17.3029 19.0012 17.5C19.0012 17.6971 18.9623 17.8923 18.8868 18.0744C18.8114 18.2565 18.7007 18.4219 18.5612 18.5612Z" fill="white" fill-opacity="0.95"/>
</g>
</svg>
