<svg width="32" height="32" viewBox="0 0 32 32" fill="none" xmlns="http://www.w3.org/2000/svg">
<g transform="translate(6.4980, 6.4993)">
<path id="Vector" d="M19.0039 1.5V14.5C19.0039 14.8978 18.8458 15.2794 18.5645 15.5607C18.2832 15.842 17.9017 16 17.5039 16C17.106 16 16.7245 15.842 16.4432 15.5607C16.1619 15.2794 16.0039 14.8978 16.0039 14.5V5.125L2.5651 18.5613C2.28331 18.843 1.90112 19.0014 1.5026 19.0014C1.10409 19.0014 0.721895 18.843 0.440102 18.5613C0.15831 18.2795 0 17.8973 0 17.4988C0 17.1002 0.15831 16.718 0.440102 16.4363L13.8789 3H4.50385C4.10603 3 3.7245 2.84197 3.44319 2.56066C3.16189 2.27936 3.00385 1.89782 3.00385 1.5C3.00385 1.10218 3.16189 0.720644 3.44319 0.43934C3.7245 0.158035 4.10603 0 4.50385 0H17.5039C17.9017 0 18.2832 0.158035 18.5645 0.43934C18.8458 0.720644 19.0039 1.10218 19.0039 1.5Z" fill="white" fill-opacity="0.95"/>
</g>
</svg>
