<svg width="32" height="32" viewBox="0 0 32 32" fill="none" xmlns="http://www.w3.org/2000/svg">
<g transform="translate(5.4962, 3.4988)">
<path id="Vector" d="M20.5651 15.5612L11.5651 24.5612C11.4257 24.7011 11.2602 24.812 11.0778 24.8878C10.8955 24.9635 10.7 25.0024 10.5026 25.0024C10.3052 25.0024 10.1097 24.9635 9.92737 24.8878C9.74505 24.812 9.57946 24.7011 9.4401 24.5612L0.440102 15.5612C0.15831 15.2795 -4.19904e-09 14.8973 0 14.4987C4.19904e-09 14.1002 0.15831 13.718 0.440102 13.4362C0.721895 13.1545 1.10409 12.9961 1.5026 12.9961C1.90112 12.9961 2.28331 13.1545 2.5651 13.4362L9.00385 19.875V1.5C9.00385 1.10218 9.16189 0.720644 9.44319 0.43934C9.7245 0.158035 10.106 0 10.5039 0C10.9017 0 11.2832 0.158035 11.5645 0.43934C11.8458 0.720644 12.0039 1.10218 12.0039 1.5V19.875L18.4426 13.435C18.7244 13.1532 19.1066 12.9949 19.5051 12.9949C19.9036 12.9949 20.2858 13.1532 20.5676 13.435C20.8494 13.7168 21.0077 14.099 21.0077 14.4975C21.0077 14.896 20.8494 15.2782 20.5676 15.56L20.5651 15.5612Z" fill="white" fill-opacity="0.95"/>
</g>
</svg>
