<svg width="32" height="32" viewBox="0 0 32 32" fill="none" xmlns="http://www.w3.org/2000/svg">
<g transform="translate(2.4992, 2.4988)">
<path id="Vector" d="M26.8862 12.9263C26.7727 12.652 26.5804 12.4177 26.3336 12.2528C26.0868 12.0879 25.7967 11.9999 25.4999 12H20.9999V2.5C20.9999 1.83696 20.7365 1.20107 20.2677 0.732233C19.7989 0.263392 19.163 0 18.4999 0H8.49993C7.83689 0 7.201 0.263392 6.73216 0.732233C6.26332 1.20107 5.99993 1.83696 5.99993 2.5V12H1.49993C1.20319 12 0.913127 12.088 0.666428 12.2529C0.419729 12.4178 0.227482 12.6522 0.114008 12.9264C0.000534765 13.2006 -0.029067 13.5023 0.0289484 13.7933C0.0869637 14.0843 0.229989 14.3515 0.439931 14.5613L12.4399 26.5613C12.5793 26.7011 12.7449 26.812 12.9272 26.8878C13.1095 26.9635 13.305 27.0024 13.5024 27.0024C13.6999 27.0024 13.8953 26.9635 14.0777 26.8878C14.26 26.812 14.4256 26.7011 14.5649 26.5613L26.5649 14.5613C26.7741 14.351 26.9163 14.0835 26.9735 13.7925C27.0306 13.5014 27.0003 13.2 26.8862 12.9263ZM13.4999 23.375L5.12493 15H7.49993C7.89776 15 8.27929 14.842 8.56059 14.5607C8.8419 14.2794 8.99993 13.8978 8.99993 13.5V3H17.9999V13.5C17.9999 13.8978 18.158 14.2794 18.4393 14.5607C18.7206 14.842 19.1021 15 19.4999 15H21.8749L13.4999 23.375Z" fill="white" fill-opacity="0.95"/>
</g>
</svg>
