<svg width="32" height="32" viewBox="0 0 32 32" fill="none" xmlns="http://www.w3.org/2000/svg">
<g transform="translate(3.5013, 2.5000)">
<path id="Vector" d="M24.6603 18.2412C23.5753 16.375 22.9991 13.6962 22.9991 10.5C22.9991 7.71523 21.8928 5.04451 19.9237 3.07538C17.9545 1.10625 15.2838 0 12.4991 0C9.71429 0 7.04357 1.10625 5.07444 3.07538C3.1053 5.04451 1.99906 7.71523 1.99906 10.5C1.99906 13.6975 1.42531 16.375 0.340308 18.2412C0.11891 18.6219 0.00155113 19.0541 1.52708e-05 19.4945C-0.00152059 19.9348 0.112821 20.3678 0.331558 20.75C0.548912 21.1324 0.864388 21.4498 1.24542 21.6696C1.62645 21.8893 2.05922 22.0034 2.49906 22H22.4991C22.9383 22.0027 23.3703 21.8883 23.7506 21.6686C24.1309 21.4489 24.4458 21.1318 24.6628 20.75C24.8825 20.3684 24.9979 19.9356 24.9975 19.4953C24.997 19.0549 24.8808 18.6224 24.6603 18.2412ZM3.33156 19C4.43781 16.75 4.99906 13.8925 4.99906 10.5C4.99906 8.51088 5.78923 6.60322 7.19576 5.1967C8.60228 3.79018 10.5099 3 12.4991 3C14.4882 3 16.3958 3.79018 17.8024 5.1967C19.2089 6.60322 19.9991 8.51088 19.9991 10.5C19.9991 13.8912 20.5591 16.75 21.6653 19H3.33156ZM17.9991 25.5C17.9991 25.8978 17.841 26.2794 17.5597 26.5607C17.2784 26.842 16.8969 27 16.4991 27H8.49906C8.10123 27 7.7197 26.842 7.4384 26.5607C7.15709 26.2794 6.99906 25.8978 6.99906 25.5C6.99906 25.1022 7.15709 24.7206 7.4384 24.4393C7.7197 24.158 8.10123 24 8.49906 24H16.4991C16.8969 24 17.2784 24.158 17.5597 24.4393C17.841 24.7206 17.9991 25.1022 17.9991 25.5Z" fill="white" fill-opacity="0.95"/>
</g>
</svg>
