<svg width="430" height="213" viewBox="0 0 430 213" fill="none" xmlns="http://www.w3.org/2000/svg">
<path d="M0 0H430V213H0V0Z" fill="white"/>
<path d="M128.315 131.24C129.355 131.24 130.155 131.72 130.715 132.68C131.355 133.64 131.675 134.96 131.675 136.64C131.675 139.84 130.915 142.32 129.395 144.08C126.115 148.08 122.515 151.52 118.595 154.4C114.675 157.2 110.795 158.6 106.955 158.6C100.875 158.6 96.2345 155.04 93.0345 147.92C89.6745 152.16 86.7145 155 84.1545 156.44C81.6745 157.88 78.7545 158.6 75.3945 158.6C70.5145 158.6 66.4745 156.8 63.2745 153.2C60.1545 149.52 58.5945 144.76 58.5945 138.92C58.5945 132.52 59.9545 126.6 62.6745 121.16C65.3945 115.64 69.1145 111.16 73.8345 107.72C78.6345 104.2 83.9945 102.12 89.9145 101.48C91.4345 85.96 94.3145 72.72 98.5545 61.76C102.875 50.72 108.515 45.2 115.475 45.2C118.915 45.2 121.755 46.76 123.995 49.88C126.315 53 127.475 57.72 127.475 64.04C127.475 73 125.275 83.48 120.875 95.48C116.475 107.48 110.595 119.8 103.235 132.44C103.555 137.08 104.235 140.4 105.275 142.4C106.395 144.4 107.795 145.4 109.475 145.4C111.635 145.4 113.835 144.44 116.075 142.52C118.315 140.6 121.315 137.4 125.075 132.92C126.035 131.8 127.115 131.24 128.315 131.24ZM114.155 56.96C112.635 56.96 111.115 59.68 109.595 65.12C108.075 70.48 106.755 77.52 105.635 86.24C104.595 94.96 103.835 104.08 103.355 113.6C112.315 94.08 116.795 78.4 116.795 66.56C116.795 63.52 116.515 61.16 115.955 59.48C115.475 57.8 114.875 56.96 114.155 56.96ZM79.5945 146.48C81.1145 146.48 82.6345 145.88 84.1545 144.68C85.6745 143.4 87.5945 141.08 89.9145 137.72C89.1145 133.4 88.7145 128.56 88.7145 123.2C88.7145 121.28 88.7945 118.16 88.9545 113.84C84.5545 115.2 80.8745 118.16 77.9145 122.72C75.0345 127.2 73.5945 132.2 73.5945 137.72C73.5945 143.56 75.5945 146.48 79.5945 146.48ZM137.632 94.16C134.272 94.16 131.752 93.4 130.072 91.88C128.392 90.28 127.552 88.08 127.552 85.28C127.552 82.48 128.632 80.16 130.792 78.32C133.032 76.4 135.792 75.44 139.072 75.44C142.032 75.44 144.432 76.16 146.272 77.6C148.112 79.04 149.032 81.08 149.032 83.72C149.032 86.92 147.992 89.48 145.912 91.4C143.832 93.24 141.072 94.16 137.632 94.16ZM136.672 158.6C131.472 158.6 127.672 156.76 125.272 153.08C122.952 149.4 121.792 144.52 121.792 138.44C121.792 134.84 122.232 130.24 123.112 124.64C124.072 118.96 125.272 113.68 126.712 108.8C127.432 106.24 128.392 104.48 129.592 103.52C130.792 102.56 132.712 102.08 135.352 102.08C139.432 102.08 141.472 103.44 141.472 106.16C141.472 108.16 140.712 112.8 139.192 120.08C137.272 128.88 136.312 134.84 136.312 137.96C136.312 140.36 136.632 142.2 137.272 143.48C137.912 144.76 138.992 145.4 140.512 145.4C141.952 145.4 143.752 144.4 145.912 142.4C148.072 140.4 150.952 137.24 154.552 132.92C155.512 131.8 156.592 131.24 157.792 131.24C158.832 131.24 159.632 131.72 160.192 132.68C160.832 133.64 161.152 134.96 161.152 136.64C161.152 139.84 160.392 142.32 158.872 144.08C150.952 153.76 143.552 158.6 136.672 158.6ZM249.364 106.16C251.204 106.16 252.524 106.56 253.324 107.36C254.204 108.16 254.644 109.2 254.644 110.48C254.644 112.56 254.004 114.4 252.724 116C251.524 117.6 249.604 118.44 246.964 118.52C240.564 118.68 234.884 118.2 229.924 117.08C224.244 129 217.364 138.92 209.284 146.84C201.284 154.68 193.244 158.6 185.164 158.6C176.844 158.6 170.644 153.76 166.564 144.08C162.484 134.4 160.444 121.32 160.444 104.84C160.444 90.76 161.444 78.12 163.444 66.92C164.164 62.76 165.164 59.96 166.444 58.52C167.804 57 170.084 56.24 173.284 56.24C178.564 56.24 181.204 58.52 181.204 63.08C181.204 63.56 181.124 64.44 180.964 65.72C178.564 80.12 177.364 93.16 177.364 104.84C177.364 117.08 178.364 126.4 180.364 132.8C182.444 139.12 185.524 142.28 189.604 142.28C193.764 142.28 198.284 139.4 203.164 133.64C208.044 127.88 212.524 120.64 216.604 111.92C211.724 108.88 208.044 104.96 205.564 100.16C203.084 95.28 201.844 89.68 201.844 83.36C201.844 77.04 202.804 71.72 204.724 67.4C206.724 63 209.404 59.72 212.764 57.56C216.204 55.4 220.004 54.32 224.164 54.32C229.284 54.32 233.324 56.16 236.284 59.84C239.324 63.52 240.844 68.56 240.844 74.96C240.844 84.16 238.844 94.2 234.844 105.08C239.084 105.8 243.924 106.16 249.364 106.16ZM213.964 82.52C213.964 90.36 216.484 96.16 221.524 99.92C224.644 90.96 226.204 83.56 226.204 77.72C226.204 74.36 225.764 71.92 224.884 70.4C224.004 68.8 222.804 68 221.284 68C219.124 68 217.364 69.28 216.004 71.84C214.644 74.32 213.964 77.88 213.964 82.52ZM258.687 94.16C255.327 94.16 252.807 93.4 251.127 91.88C249.447 90.28 248.607 88.08 248.607 85.28C248.607 82.48 249.687 80.16 251.847 78.32C254.087 76.4 256.847 75.44 260.127 75.44C263.087 75.44 265.487 76.16 267.327 77.6C269.167 79.04 270.087 81.08 270.087 83.72C270.087 86.92 269.047 89.48 266.967 91.4C264.887 93.24 262.127 94.16 258.687 94.16ZM257.727 158.6C252.527 158.6 248.727 156.76 246.327 153.08C244.007 149.4 242.847 144.52 242.847 138.44C242.847 134.84 243.287 130.24 244.167 124.64C245.127 118.96 246.327 113.68 247.767 108.8C248.487 106.24 249.447 104.48 250.647 103.52C251.847 102.56 253.767 102.08 256.407 102.08C260.487 102.08 262.527 103.44 262.527 106.16C262.527 108.16 261.767 112.8 260.247 120.08C258.327 128.88 257.367 134.84 257.367 137.96C257.367 140.36 257.687 142.2 258.327 143.48C258.967 144.76 260.047 145.4 261.567 145.4C263.007 145.4 264.807 144.4 266.967 142.4C269.127 140.4 272.007 137.24 275.607 132.92C276.567 131.8 277.647 131.24 278.847 131.24C279.887 131.24 280.687 131.72 281.247 132.68C281.887 133.64 282.207 134.96 282.207 136.64C282.207 139.84 281.447 142.32 279.927 144.08C272.007 153.76 264.607 158.6 257.727 158.6ZM281.018 158.6C277.978 158.6 275.818 157 274.538 153.8C273.338 150.6 272.738 145.48 272.738 138.44C272.738 128.04 274.218 118.16 277.178 108.8C277.898 106.48 279.058 104.8 280.658 103.76C282.338 102.64 284.658 102.08 287.618 102.08C289.218 102.08 290.338 102.28 290.978 102.68C291.618 103.08 291.938 103.84 291.938 104.96C291.938 106.24 291.338 109.12 290.138 113.6C289.338 116.8 288.698 119.6 288.218 122C287.738 124.4 287.338 127.36 287.018 130.88C289.658 124 292.618 118.4 295.898 114.08C299.178 109.76 302.378 106.68 305.498 104.84C308.698 103 311.618 102.08 314.258 102.08C319.458 102.08 322.058 104.68 322.058 109.88C322.058 113 321.178 118.64 319.418 126.8C317.898 133.76 317.138 138.36 317.138 140.6C317.138 143.8 318.298 145.4 320.618 145.4C322.218 145.4 324.098 144.44 326.258 142.52C328.498 140.52 331.458 137.32 335.138 132.92C336.098 131.8 337.178 131.24 338.378 131.24C339.418 131.24 340.218 131.72 340.778 132.68C341.418 133.64 341.738 134.96 341.738 136.64C341.738 139.84 340.978 142.32 339.458 144.08C336.018 148.32 332.298 151.8 328.298 154.52C324.378 157.24 319.898 158.6 314.858 158.6C310.778 158.6 307.698 157.44 305.618 155.12C303.538 152.72 302.498 149.28 302.498 144.8C302.498 142.56 303.058 138.56 304.178 132.8C305.218 127.76 305.738 124.28 305.738 122.36C305.738 121.08 305.298 120.44 304.418 120.44C303.378 120.44 301.898 121.8 299.978 124.52C298.138 127.16 296.218 130.68 294.218 135.08C292.298 139.48 290.738 144.12 289.538 149C288.658 152.76 287.618 155.32 286.418 156.68C285.298 157.96 283.498 158.6 281.018 158.6ZM374.99 134.84C376.03 134.84 376.83 135.32 377.39 136.28C378.03 137.24 378.35 138.56 378.35 140.24C378.35 143.12 377.67 145.6 376.31 147.68C374.07 151.12 371.11 153.8 367.43 155.72C363.83 157.64 359.51 158.6 354.47 158.6C346.79 158.6 340.83 156.32 336.59 151.76C332.35 147.12 330.23 140.88 330.23 133.04C330.23 127.52 331.39 122.4 333.71 117.68C336.03 112.88 339.23 109.08 343.31 106.28C347.47 103.48 352.15 102.08 357.35 102.08C361.99 102.08 365.71 103.48 368.51 106.28C371.31 109 372.71 112.72 372.71 117.44C372.71 122.96 370.71 127.72 366.71 131.72C362.79 135.64 356.07 138.76 346.55 141.08C348.47 144.76 351.71 146.6 356.27 146.6C359.55 146.6 362.23 145.84 364.31 144.32C366.47 142.8 368.95 140.24 371.75 136.64C372.71 135.44 373.79 134.84 374.99 134.84ZM355.31 113.84C352.35 113.84 349.83 115.56 347.75 119C345.75 122.44 344.75 126.6 344.75 131.48V131.72C349.47 130.6 353.19 128.92 355.91 126.68C358.63 124.44 359.99 121.84 359.99 118.88C359.99 117.36 359.55 116.16 358.67 115.28C357.87 114.32 356.75 113.84 355.31 113.84Z" fill="#252525"/>
</svg>
