<svg width="32" height="32" viewBox="0 0 32 32" fill="none" xmlns="http://www.w3.org/2000/svg">
<g transform="translate(6.5000, 2.9998)">
<path id="Vector" d="M16.5 0H2.5C1.83696 0 1.20107 0.263392 0.732233 0.732233C0.263392 1.20107 8.45606e-08 1.83696 8.45606e-08 2.5V24.5C-8.98232e-05 24.7678 0.0715166 25.0307 0.207383 25.2615C0.343249 25.4923 0.53842 25.6825 0.772628 25.8123C1.00684 25.9422 1.27154 26.007 1.53925 26C1.80696 25.993 2.06791 25.9144 2.295 25.7725L9.49875 21.2725L16.705 25.7725C16.9321 25.9144 17.193 25.993 17.4608 26C17.7285 26.007 17.9932 25.9422 18.2274 25.8123C18.4616 25.6825 18.6568 25.4923 18.7926 25.2615C18.9285 25.0307 19.0001 24.7678 19 24.5V2.5C19 1.83696 18.7366 1.20107 18.2678 0.732233C17.7989 0.263392 17.163 0 16.5 0ZM16 21.7938L10.2938 18.2275C10.0554 18.0785 9.77988 17.9995 9.49875 17.9995C9.21762 17.9995 8.94215 18.0785 8.70375 18.2275L3 21.7938V3H16V21.7938Z" fill="white" fill-opacity="0.95"/>
</g>
</svg>
