<svg width="32" height="32" viewBox="0 0 32 32" fill="none" xmlns="http://www.w3.org/2000/svg">
<g transform="translate(1.5007, 3.4647)">
<path id="Vector" d="M9.76431 2.34029L3.27681 12.5353L9.76431 22.7303C9.87663 22.8964 9.95451 23.0833 9.99335 23.28C10.0322 23.4767 10.0312 23.6792 9.99044 23.8755C9.94968 24.0718 9.86998 24.258 9.75604 24.423C9.6421 24.588 9.49624 24.7284 9.32708 24.8361C9.15792 24.9437 8.9689 25.0164 8.77119 25.0497C8.57348 25.083 8.37109 25.0764 8.17598 25.0302C7.98088 24.984 7.79702 24.8991 7.63528 24.7806C7.47354 24.6621 7.33719 24.5124 7.23431 24.3403L0.234308 13.3403C0.0812781 13.0997 0 12.8204 0 12.5353C0 12.2501 0.0812781 11.9709 0.234308 11.7303L7.23431 0.730293C7.45311 0.406751 7.78948 0.181313 8.17191 0.10191C8.55433 0.0225063 8.95264 0.0954004 9.28216 0.305094C9.61168 0.514787 9.84641 0.84474 9.93645 1.2248C10.0265 1.60486 9.96473 2.00505 9.76431 2.34029ZM28.7643 11.7303L21.7643 0.730293C21.6614 0.5582 21.5251 0.408479 21.3633 0.289983C21.2016 0.171487 21.0177 0.0866204 20.8226 0.0403996C20.6275 -0.00582108 20.4251 -0.0124575 20.2274 0.0208825C20.0297 0.0542224 19.8407 0.126862 19.6715 0.234508C19.5024 0.342153 19.3565 0.48262 19.2426 0.647603C19.1286 0.812587 19.0489 0.99874 19.0082 1.19506C18.9674 1.39137 18.9664 1.59387 19.0053 1.79058C19.0441 1.98728 19.122 2.1742 19.2343 2.34029L25.7218 12.5353L19.2343 22.7303C19.122 22.8964 19.0441 23.0833 19.0053 23.28C18.9664 23.4767 18.9674 23.6792 19.0082 23.8755C19.0489 24.0718 19.1286 24.258 19.2426 24.423C19.3565 24.588 19.5024 24.7284 19.6715 24.8361C19.8407 24.9437 20.0297 25.0164 20.2274 25.0497C20.4251 25.083 20.6275 25.0764 20.8226 25.0302C21.0177 24.984 21.2016 24.8991 21.3633 24.7806C21.5251 24.6621 21.6614 24.5124 21.7643 24.3403L28.7643 13.3403C28.9173 13.0997 28.9986 12.8204 28.9986 12.5353C28.9986 12.2501 28.9173 11.9709 28.7643 11.7303Z" fill="white" fill-opacity="0.95"/>
</g>
</svg>
