<svg width="32" height="32" viewBox="0 0 32 32" fill="none" xmlns="http://www.w3.org/2000/svg">
<g transform="translate(2.5000, 4.0000)">
<path id="Vector" d="M19 13.5C19 13.8978 18.842 14.2794 18.5607 14.5607C18.2794 14.842 17.8978 15 17.5 15H15V17.5C15 17.8978 14.842 18.2794 14.5607 18.5607C14.2794 18.842 13.8978 19 13.5 19C13.1022 19 12.7206 18.842 12.4393 18.5607C12.158 18.2794 12 17.8978 12 17.5V15H9.5C9.10218 15 8.72064 14.842 8.43934 14.5607C8.15804 14.2794 8 13.8978 8 13.5C8 13.1022 8.15804 12.7206 8.43934 12.4393C8.72064 12.158 9.10218 12 9.5 12H12V9.5C12 9.10218 12.158 8.72064 12.4393 8.43934C12.7206 8.15804 13.1022 8 13.5 8C13.8978 8 14.2794 8.15804 14.5607 8.43934C14.842 8.72064 15 9.10218 15 9.5V12H17.5C17.8978 12 18.2794 12.158 18.5607 12.4393C18.842 12.7206 19 13.1022 19 13.5ZM27 6.5V20.5C27 20.9596 26.9095 21.4148 26.7336 21.8394C26.5577 22.264 26.2999 22.6499 25.9749 22.9749C25.6499 23.2999 25.264 23.5577 24.8394 23.7336C24.4148 23.9095 23.9596 24 23.5 24H3.5C2.57174 24 1.6815 23.6313 1.02513 22.9749C0.368749 22.3185 0 21.4283 0 20.5V6.5C0 5.57174 0.368749 4.6815 1.02513 4.02513C1.6815 3.36875 2.57174 3 3.5 3H6.6975L7.955 1.11375C8.18323 0.771228 8.4925 0.490355 8.85535 0.296064C9.2182 0.101773 9.62341 7.56242e-05 10.035 0H16.965C17.3766 7.56242e-05 17.7818 0.101773 18.1447 0.296064C18.5075 0.490355 18.8168 0.771228 19.045 1.11375L20.3025 3H23.5C23.9596 3 24.4148 3.09053 24.8394 3.26642C25.264 3.44231 25.6499 3.70012 25.9749 4.02513C26.2999 4.35013 26.5577 4.73597 26.7336 5.16061C26.9095 5.58525 27 6.04037 27 6.5ZM24 6.5C24 6.36739 23.9473 6.24021 23.8536 6.14645C23.7598 6.05268 23.6326 6 23.5 6H19.5C19.2528 6.00037 19.0093 5.93962 18.7912 5.82316C18.5731 5.70671 18.3872 5.53816 18.25 5.3325L16.6975 3H10.3025L8.75 5.3325C8.61279 5.53816 8.42687 5.70671 8.20879 5.82316C7.99071 5.93962 7.74723 6.00037 7.5 6H3.5C3.36739 6 3.24021 6.05268 3.14645 6.14645C3.05268 6.24021 3 6.36739 3 6.5V20.5C3 20.6326 3.05268 20.7598 3.14645 20.8536C3.24021 20.9473 3.36739 21 3.5 21H23.5C23.6326 21 23.7598 20.9473 23.8536 20.8536C23.9473 20.7598 24 20.6326 24 20.5V6.5Z" fill="white" fill-opacity="0.95"/>
</g>
</svg>
