<svg width="32" height="32" viewBox="0 0 32 32" fill="none" xmlns="http://www.w3.org/2000/svg">
<g transform="translate(2.5000, 4.0000)">
<path id="Vector" d="M23.5 3H20.3025L18.75 0.667502C18.6128 0.461846 18.4269 0.293292 18.2088 0.176837C17.9907 0.0603816 17.7472 -0.000364805 17.5 1.64818e-06H9.5C9.25277 -0.000364805 9.00929 0.0603816 8.79121 0.176837C8.57313 0.293292 8.38721 0.461846 8.25 0.667502L6.69625 3H3.5C2.57174 3 1.6815 3.36875 1.02513 4.02513C0.368749 4.68151 0 5.57174 0 6.5V20.5C0 21.4283 0.368749 22.3185 1.02513 22.9749C1.6815 23.6313 2.57174 24 3.5 24H23.5C23.9596 24 24.4148 23.9095 24.8394 23.7336C25.264 23.5577 25.6499 23.2999 25.9749 22.9749C26.2999 22.6499 26.5577 22.264 26.7336 21.8394C26.9095 21.4148 27 20.9596 27 20.5V6.5C27 6.04037 26.9095 5.58525 26.7336 5.16061C26.5577 4.73597 26.2999 4.35013 25.9749 4.02513C25.6499 3.70012 25.264 3.44231 24.8394 3.26642C24.4148 3.09053 23.9596 3 23.5 3ZM24 20.5C24 20.6326 23.9473 20.7598 23.8536 20.8536C23.7598 20.9473 23.6326 21 23.5 21H3.5C3.36739 21 3.24021 20.9473 3.14645 20.8536C3.05268 20.7598 3 20.6326 3 20.5V6.5C3 6.36739 3.05268 6.24022 3.14645 6.14645C3.24021 6.05268 3.36739 6 3.5 6H7.5C7.74723 6.00037 7.99071 5.93962 8.20879 5.82317C8.42687 5.70671 8.61279 5.53816 8.75 5.3325L10.3025 3H16.6963L18.25 5.3325C18.3872 5.53816 18.5731 5.70671 18.7912 5.82317C19.0093 5.93962 19.2528 6.00037 19.5 6H23.5C23.6326 6 23.7598 6.05268 23.8536 6.14645C23.9473 6.24022 24 6.36739 24 6.5V20.5ZM20 9V11.5C20 11.8978 19.842 12.2794 19.5607 12.5607C19.2794 12.842 18.8978 13 18.5 13H16C15.6932 12.9996 15.3939 12.9051 15.1425 12.7293C14.891 12.5536 14.6995 12.3049 14.5938 12.0169C14.4881 11.7289 14.4732 11.4154 14.5512 11.1187C14.6292 10.822 14.7963 10.5563 15.03 10.3575C14.4524 10.0773 13.8089 9.96096 13.1698 10.0211C12.5306 10.0813 11.9202 10.3157 11.405 10.6988C11.0869 10.9383 10.6867 11.0416 10.2924 10.9861C9.8981 10.9305 9.54202 10.7206 9.3025 10.4025C9.06298 10.0844 8.95963 9.68419 9.01518 9.2899C9.07074 8.8956 9.28066 8.53953 9.59875 8.3C10.6995 7.48128 12.03 7.02972 13.4016 7.0093C14.7733 6.98889 16.1166 7.40065 17.2412 8.18625C17.4171 7.91485 17.6761 7.70756 17.9794 7.59531C18.2827 7.48305 18.6142 7.47184 18.9244 7.56335C19.2346 7.65485 19.5069 7.84416 19.7008 8.10306C19.8946 8.36196 19.9996 8.67658 20 9ZM17.6987 15.6C17.9377 15.918 18.0406 16.3178 17.9848 16.7116C17.929 17.1054 17.7191 17.4609 17.4013 17.7C16.2788 18.5417 14.913 18.9954 13.51 18.9925C12.1685 18.9932 10.8593 18.5813 9.76 17.8125C9.58438 18.0844 9.32552 18.2922 9.02208 18.4048C8.71864 18.5175 8.3869 18.529 8.0764 18.4376C7.76589 18.3462 7.49329 18.1568 7.29929 17.8977C7.10529 17.6386 7.0003 17.3237 7 17V14.5C7 14.1022 7.15804 13.7206 7.43934 13.4393C7.72064 13.158 8.10218 13 8.5 13H11C11.3068 13.0004 11.6061 13.0949 11.8575 13.2707C12.109 13.4464 12.3005 13.6951 12.4062 13.9831C12.5119 14.2711 12.5268 14.5846 12.4488 14.8813C12.3708 15.178 12.2037 15.4437 11.97 15.6425C12.5476 15.9227 13.1911 16.039 13.8302 15.9789C14.4694 15.9187 15.0798 15.6843 15.595 15.3013C15.7526 15.1824 15.9322 15.0959 16.1233 15.0465C16.3145 14.9972 16.5135 14.9861 16.7089 15.0139C16.9043 15.0417 17.0924 15.1077 17.2622 15.2083C17.4321 15.3089 17.5804 15.442 17.6987 15.6Z" fill="white" fill-opacity="0.95"/>
</g>
</svg>
