<svg width="32" height="32" viewBox="0 0 32 32" fill="none" xmlns="http://www.w3.org/2000/svg">
<g transform="translate(2.5000, 4.0000)">
<path id="Vector" d="M23.5 3H20.3025L18.75 0.667502C18.6128 0.461846 18.4269 0.293292 18.2088 0.176837C17.9907 0.0603816 17.7472 -0.000364805 17.5 1.64818e-06H9.5C9.25277 -0.000364805 9.00929 0.0603816 8.79121 0.176837C8.57313 0.293292 8.38721 0.461846 8.25 0.667502L6.69625 3H3.5C2.57174 3 1.6815 3.36875 1.02513 4.02513C0.368749 4.68151 0 5.57174 0 6.5V20.5C0 21.4283 0.368749 22.3185 1.02513 22.9749C1.6815 23.6313 2.57174 24 3.5 24H23.5C23.9596 24 24.4148 23.9095 24.8394 23.7336C25.264 23.5577 25.6499 23.2999 25.9749 22.9749C26.2999 22.6499 26.5577 22.264 26.7336 21.8394C26.9095 21.4148 27 20.9596 27 20.5V6.5C27 6.04037 26.9095 5.58525 26.7336 5.16061C26.5577 4.73597 26.2999 4.35013 25.9749 4.02513C25.6499 3.70012 25.264 3.44231 24.8394 3.26642C24.4148 3.09053 23.9596 3 23.5 3ZM24 20.5C24 20.6326 23.9473 20.7598 23.8536 20.8536C23.7598 20.9473 23.6326 21 23.5 21H3.5C3.36739 21 3.24021 20.9473 3.14645 20.8536C3.05268 20.7598 3 20.6326 3 20.5V6.5C3 6.36739 3.05268 6.24022 3.14645 6.14645C3.24021 6.05268 3.36739 6 3.5 6H7.5C7.74723 6.00037 7.99071 5.93962 8.20879 5.82317C8.42687 5.70671 8.61279 5.53816 8.75 5.3325L10.3025 3H16.6963L18.25 5.3325C18.3872 5.53816 18.5731 5.70671 18.7912 5.82317C19.0093 5.93962 19.2528 6.00037 19.5 6H23.5C23.6326 6 23.7598 6.05268 23.8536 6.14645C23.9473 6.24022 24 6.36739 24 6.5V20.5ZM13.5 7C12.3133 7 11.1533 7.3519 10.1666 8.01118C9.17988 8.67047 8.41085 9.60754 7.95672 10.7039C7.5026 11.8003 7.38378 13.0067 7.61529 14.1705C7.8468 15.3344 8.41824 16.4035 9.25736 17.2426C10.0965 18.0818 11.1656 18.6532 12.3295 18.8847C13.4933 19.1162 14.6997 18.9974 15.7961 18.5433C16.8925 18.0892 17.8295 17.3201 18.4888 16.3334C19.1481 15.3467 19.5 14.1867 19.5 13C19.4983 11.4092 18.8657 9.88405 17.7408 8.75919C16.616 7.63433 15.0908 7.00166 13.5 7ZM13.5 16C12.9067 16 12.3266 15.8241 11.8333 15.4944C11.3399 15.1648 10.9554 14.6962 10.7284 14.1481C10.5013 13.5999 10.4419 12.9967 10.5576 12.4147C10.6734 11.8328 10.9591 11.2982 11.3787 10.8787C11.7982 10.4591 12.3328 10.1734 12.9147 10.0576C13.4967 9.94189 14.0999 10.0013 14.6481 10.2284C15.1962 10.4554 15.6648 10.8399 15.9944 11.3333C16.3241 11.8266 16.5 12.4067 16.5 13C16.5 13.7957 16.1839 14.5587 15.6213 15.1213C15.0587 15.6839 14.2956 16 13.5 16Z" fill="white" fill-opacity="0.95"/>
</g>
</svg>
