<svg width="32" height="32" viewBox="0 0 32 32" fill="none" xmlns="http://www.w3.org/2000/svg">
<g transform="translate(2.5000, 3.5000)">
<path id="Vector" d="M4.61 0.50456C4.47827 0.356072 4.31838 0.235205 4.1396 0.148966C3.96082 0.0627267 3.76669 0.0128293 3.56849 0.00216605C3.37028 -0.00849723 3.17192 0.0202856 2.98492 0.0868464C2.79791 0.153407 2.62598 0.256422 2.47908 0.38992C2.33218 0.523419 2.21324 0.684745 2.12915 0.86455C2.04506 1.04435 1.9975 1.23906 1.98921 1.43738C1.98093 1.63571 2.01208 1.8337 2.08088 2.01989C2.14968 2.20609 2.25475 2.37677 2.39 2.52206L2.89 3.06831C2.08036 3.21161 1.34702 3.63538 0.818577 4.2653C0.290136 4.89523 0.00033664 5.69109 0 6.51331V20.5133C0 21.4416 0.368749 22.3318 1.02513 22.9882C1.6815 23.6446 2.57174 24.0133 3.5 24.0133H21.9275L22.39 24.5221C22.6589 24.811 23.0309 24.9822 23.4253 24.9987C23.8197 25.0152 24.2046 24.8755 24.4967 24.6101C24.7888 24.3446 24.9645 23.9747 24.9857 23.5806C25.0069 23.1864 24.8719 22.7998 24.61 22.5046L4.61 0.50456ZM10.7788 11.7546L14.5 15.8433C13.943 16.0406 13.3401 16.0689 12.767 15.9248C12.1939 15.7807 11.6762 15.4705 11.2787 15.0333C10.8812 14.596 10.6218 14.0511 10.5328 13.4669C10.4439 12.8827 10.5294 12.2853 10.7788 11.7496V11.7546ZM3.5 21.0133C3.36739 21.0133 3.24021 20.9606 3.14645 20.8669C3.05268 20.7731 3 20.6459 3 20.5133V6.51331C3 6.3807 3.05268 6.25352 3.14645 6.15976C3.24021 6.06599 3.36739 6.01331 3.5 6.01331H5.56375L8.67875 9.43956C7.85324 10.5558 7.44037 11.9237 7.51049 13.3103C7.58061 14.6968 8.1294 16.0161 9.06331 17.0434C9.99722 18.0706 11.2585 18.7422 12.6321 18.9437C14.0057 19.1452 15.4067 18.8641 16.5963 18.1483L19.2 21.0133H3.5ZM27 6.51331V18.2808C27 18.6786 26.842 19.0602 26.5607 19.3415C26.2794 19.6228 25.8978 19.7808 25.5 19.7808C25.1022 19.7808 24.7206 19.6228 24.4393 19.3415C24.158 19.0602 24 18.6786 24 18.2808V6.51331C24 6.3807 23.9473 6.25352 23.8536 6.15976C23.7598 6.06599 23.6326 6.01331 23.5 6.01331H19.5C19.2528 6.01368 19.0093 5.95293 18.7912 5.83647C18.5731 5.72002 18.3872 5.55147 18.25 5.34581L16.6963 3.01331H10.2575C9.85967 3.01331 9.47814 2.85527 9.19684 2.57397C8.91554 2.29267 8.7575 1.91113 8.7575 1.51331C8.7575 1.11548 8.91554 0.733954 9.19684 0.452649C9.47814 0.171345 9.85967 0.0133095 10.2575 0.0133095H17.5C17.7472 0.012943 17.9907 0.0736895 18.2088 0.190145C18.4269 0.3066 18.6128 0.475153 18.75 0.680809L20.3025 3.01331H23.5C23.9596 3.01331 24.4148 3.10384 24.8394 3.27973C25.264 3.45562 25.6499 3.71343 25.9749 4.03844C26.2999 4.36344 26.5577 4.74928 26.7336 5.17392C26.9095 5.59856 27 6.05368 27 6.51331Z" fill="white" fill-opacity="0.95"/>
</g>
</svg>
