<svg width="32" height="32" viewBox="0 0 32 32" fill="none" xmlns="http://www.w3.org/2000/svg">
<g transform="translate(4.9992, 9.9996)">
<path id="Vector" d="M21.7083 1.7075L11.7083 11.7075C11.6154 11.8005 11.5051 11.8742 11.3837 11.9246C11.2623 11.9749 11.1322 12.0008 11.0008 12.0008C10.8694 12.0008 10.7392 11.9749 10.6178 11.9246C10.4965 11.8742 10.3862 11.8005 10.2933 11.7075L0.293288 1.7075C0.153276 1.56765 0.0579087 1.38939 0.0192583 1.19531C-0.0193921 1.00122 0.000412495 0.800033 0.076165 0.61721C0.151917 0.434387 0.280212 0.278151 0.444805 0.16828C0.609399 0.0584092 0.802892 -0.000155428 1.00079 3.09801e-07H21.0008C21.1987 -0.000155428 21.3922 0.0584092 21.5568 0.16828C21.7214 0.278151 21.8497 0.434387 21.9254 0.61721C22.0012 0.800033 22.021 1.00122 21.9823 1.19531C21.9437 1.38939 21.8483 1.56765 21.7083 1.7075Z" fill="white" fill-opacity="0.95"/>
</g>
</svg>
