<svg width="32" height="32" viewBox="0 0 32 32" fill="none" xmlns="http://www.w3.org/2000/svg">
<g transform="translate(4.4969, 9.4963)">
<path id="Vector" d="M22.5651 12.5662C22.4257 12.706 22.2602 12.817 22.0778 12.8927C21.8955 12.9684 21.7 13.0074 21.5026 13.0074C21.3052 13.0074 21.1097 12.9684 20.9274 12.8927C20.745 12.817 20.5795 12.706 20.4401 12.5662L11.5039 3.62993L2.5651 12.5662C2.28331 12.848 1.90112 13.0063 1.5026 13.0063C1.10409 13.0063 0.721895 12.848 0.440102 12.5662C0.15831 12.2844 5.93833e-09 11.9022 0 11.5037C-5.93833e-09 11.1052 0.15831 10.723 0.440102 10.4412L10.4401 0.441182C10.5795 0.301342 10.745 0.190387 10.9274 0.114679C11.1097 0.0389713 11.3052 0 11.5026 0C11.7 0 11.8955 0.0389713 12.0778 0.114679C12.2602 0.190387 12.4257 0.301342 12.5651 0.441182L22.5651 10.4412C22.7049 10.5805 22.8159 10.7461 22.8916 10.9285C22.9673 11.1108 23.0063 11.3063 23.0063 11.5037C23.0063 11.7011 22.9673 11.8966 22.8916 12.0789C22.8159 12.2612 22.7049 12.4268 22.5651 12.5662Z" fill="white" fill-opacity="0.95"/>
</g>
</svg>
