<svg width="32" height="32" viewBox="0 0 32 32" fill="none" xmlns="http://www.w3.org/2000/svg">
<g transform="translate(9.4962, 4.4974)">
<path id="Vector" d="M12.5651 12.5651L2.5651 22.5651C2.28331 22.8469 1.90112 23.0052 1.5026 23.0052C1.10409 23.0052 0.721894 22.8469 0.440102 22.5651C0.158309 22.2833 2.96917e-09 21.9011 0 21.5026C-2.96917e-09 21.1041 0.158309 20.7219 0.440102 20.4401L9.37885 11.5039L0.442602 2.5651C0.303073 2.42557 0.192391 2.25993 0.116879 2.07762C0.0413657 1.89532 0.00249958 1.69993 0.00249958 1.5026C0.00249958 1.30528 0.0413657 1.10988 0.116879 0.927581C0.192391 0.745277 0.303073 0.579632 0.442602 0.440102C0.582132 0.300573 0.747777 0.189892 0.930081 0.114379C1.11239 0.0388661 1.30778 -1.47018e-09 1.5051 0C1.70243 1.47018e-09 1.89782 0.0388661 2.08012 0.114379C2.26243 0.189892 2.42807 0.300573 2.5676 0.440102L12.5676 10.4401C12.7073 10.5796 12.818 10.7453 12.8935 10.9278C12.969 11.1102 13.0078 11.3057 13.0075 11.5031C13.0073 11.7005 12.9681 11.896 12.8922 12.0782C12.8163 12.2605 12.7051 12.4259 12.5651 12.5651Z" fill="white" fill-opacity="0.95"/>
</g>
</svg>
