<svg width="32" height="32" viewBox="0 0 32 32" fill="none" xmlns="http://www.w3.org/2000/svg">
<g transform="translate(9.4969, 4.4974)">
<path id="Vector" d="M12.5662 20.4401C12.848 20.7219 13.0063 21.1041 13.0063 21.5026C13.0063 21.9011 12.848 22.2833 12.5662 22.5651C12.2844 22.8469 11.9022 23.0052 11.5037 23.0052C11.1052 23.0052 10.723 22.8469 10.4412 22.5651L0.441182 12.5651C0.301342 12.4257 0.190387 12.2602 0.114679 12.0778C0.0389713 11.8955 0 11.7 0 11.5026C0 11.3052 0.0389713 11.1097 0.114679 10.9274C0.190387 10.745 0.301342 10.5795 0.441182 10.4401L10.4412 0.440102C10.723 0.158309 11.1052 -5.93833e-09 11.5037 0C11.9022 5.93833e-09 12.2844 0.15831 12.5662 0.440102C12.848 0.721895 13.0063 1.10409 13.0063 1.5026C13.0063 1.90112 12.848 2.28331 12.5662 2.5651L3.62993 11.5014L12.5662 20.4401Z" fill="white" fill-opacity="0.95"/>
</g>
</svg>
