<svg width="32" height="32" viewBox="0 0 32 32" fill="none" xmlns="http://www.w3.org/2000/svg">
<g transform="translate(2.5047, 2.4970)">
<path id="Vector" d="M13.5059 3.05283e-07C11.1935 -0.000491412 8.91966 0.593029 6.90245 1.72367C4.88525 2.8543 3.19229 4.48415 1.98587 6.45696C0.779446 8.42977 0.100006 10.6794 0.0126831 12.9902C-0.0746399 15.301 0.433081 17.5955 1.48717 19.6537L0.130925 23.7075C-0.0178016 24.1488 -0.0403126 24.6229 0.0659294 25.0763C0.172171 25.5297 0.402942 25.9444 0.732233 26.2737C1.06152 26.603 1.47624 26.8338 1.92965 26.94C2.38306 27.0462 2.85713 27.0237 3.29842 26.875L7.35217 25.5238C9.16972 26.4516 11.174 26.9554 13.2142 26.9972C15.2545 27.0389 17.2777 26.6176 19.1317 25.7649C20.9857 24.9121 22.6222 23.6502 23.9183 22.0739C25.2143 20.4976 26.1362 18.648 26.6145 16.6642C27.0928 14.6803 27.1151 12.6138 26.6798 10.6201C26.2444 8.6264 25.3628 6.75731 24.1011 5.15339C22.8394 3.54947 21.2305 2.25245 19.3954 1.35986C17.5602 0.467269 15.5466 0.00232964 13.5059 3.05283e-07ZM13.5059 24C11.6601 24.0007 9.84663 23.5148 8.24843 22.5912C8.02055 22.4591 7.76187 22.3892 7.49843 22.3888C7.33697 22.3891 7.17661 22.4152 7.02342 22.4662L3.29967 23.7075L4.54092 19.9837C4.60814 19.7822 4.63175 19.5686 4.6102 19.3572C4.58865 19.1458 4.52243 18.9414 4.41592 18.7575C3.25841 16.7564 2.79362 14.4293 3.09368 12.1371C3.39374 9.84494 4.44187 7.71586 6.07546 6.08016C7.70904 4.44447 9.83678 3.3936 12.1286 3.09059C14.4204 2.78758 16.7481 3.24936 18.7506 4.4043C20.7532 5.55924 22.3186 7.34277 23.2041 9.47821C24.0896 11.6136 24.2455 13.9816 23.6478 16.2147C23.0502 18.4479 21.7322 20.4213 19.8985 21.829C18.0647 23.2366 15.8177 23.9998 13.5059 24Z" fill="white" fill-opacity="0.95"/>
</g>
</svg>
