<svg width="32" height="32" viewBox="0 0 32 32" fill="none" xmlns="http://www.w3.org/2000/svg">
<g transform="translate(1.5000, 2.5034)">
<path id="Vector" d="M20.0362 6.10571C19.0346 3.93197 17.3204 2.16567 15.1775 1.09945C13.0347 0.033229 10.592 -0.268924 8.25395 0.243051C5.91593 0.755026 3.82298 2.0504 2.32186 3.91456C0.820746 5.77873 0.00155058 8.09979 0 10.4932V18.4932C0 19.1563 0.263392 19.7921 0.732233 20.261C1.20107 20.7298 1.83696 20.9932 2.5 20.9932H9.0125C9.86629 22.7869 11.2104 24.3022 12.8893 25.364C14.5683 26.4258 16.5135 26.9907 18.5 26.9932H26.5C27.163 26.9932 27.7989 26.7298 28.2678 26.261C28.7366 25.7921 29 25.1563 29 24.4932V16.4932C29.0001 13.9745 28.0949 11.5397 26.4494 9.6329C24.8039 7.72605 22.5278 6.47422 20.0362 6.10571ZM3 10.4932C3 9.00985 3.43987 7.5598 4.26398 6.32643C5.08809 5.09306 6.25943 4.13177 7.62987 3.56411C9.00032 2.99646 10.5083 2.84793 11.9632 3.13732C13.418 3.42671 14.7544 4.14102 15.8033 5.18991C16.8522 6.2388 17.5665 7.57517 17.8559 9.03003C18.1453 10.4849 17.9968 11.9929 17.4291 13.3633C16.8614 14.7338 15.9001 15.9051 14.6668 16.7292C13.4334 17.5533 11.9834 17.9932 10.5 17.9932H3V10.4932ZM26 23.9932H18.5C17.3001 23.9918 16.1179 23.7032 15.0523 23.1515C13.9868 22.5998 13.0687 21.801 12.375 20.822C14.9811 20.3512 17.3127 18.9122 18.902 16.7939C20.4913 14.6755 21.2207 12.0345 20.9438 9.40071C22.42 9.90948 23.7006 10.8663 24.607 12.1377C25.5134 13.4092 26.0004 14.9318 26 16.4932V23.9932Z" fill="white" fill-opacity="0.95"/>
</g>
</svg>
