<svg width="32" height="32" viewBox="0 0 32 32" fill="none" xmlns="http://www.w3.org/2000/svg">
<g transform="translate(2.5000, 3.0003)">
<path id="Vector" d="M24.5 6H21V2.5C21 1.83696 20.7366 1.20107 20.2678 0.732233C19.7989 0.263392 19.163 0 18.5 0H2.5C1.83696 0 1.20107 0.263392 0.732233 0.732233C0.263392 1.20107 0 1.83696 0 2.5V18.5C0.000125733 18.7831 0.080357 19.0604 0.231421 19.2998C0.382485 19.5392 0.598214 19.731 0.853675 19.8529C1.10914 19.9749 1.3939 20.0221 1.67505 19.9891C1.95621 19.956 2.22227 19.8441 2.4425 19.6663L6 16.7913V19.5C6 20.163 6.26339 20.7989 6.73223 21.2678C7.20107 21.7366 7.83696 22 8.5 22H20.0212L24.5575 25.6663C24.7777 25.8441 25.0438 25.956 25.3249 25.9891C25.6061 26.0221 25.8909 25.9749 26.1463 25.8529C26.4018 25.731 26.6175 25.5392 26.7686 25.2998C26.9196 25.0604 26.9999 24.7831 27 24.5V8.5C27 7.83696 26.7366 7.20107 26.2678 6.73223C25.7989 6.26339 25.163 6 24.5 6ZM3 15.3587V3H18V13H6.4475C6.10269 12.999 5.76809 13.1169 5.5 13.3337L3 15.3587ZM24 21.3587L21.5 19.3337C21.2332 19.118 20.9006 19.0002 20.5575 19H9V16H18.5C19.163 16 19.7989 15.7366 20.2678 15.2678C20.7366 14.7989 21 14.163 21 13.5V9H24V21.3587Z" fill="white" fill-opacity="0.95"/>
</g>
</svg>
