<svg width="32" height="32" viewBox="0 0 32 32" fill="none" xmlns="http://www.w3.org/2000/svg">
<path d="M28 8V24C28 24.2652 27.8946 24.5196 27.7071 24.7071C27.5196 24.8946 27.2652 25 27 25H10L5.64375 28.7637C5.4981 28.8863 5.3205 28.9647 5.13183 28.9898C4.94315 29.0149 4.75124 28.9856 4.57862 28.9054C4.40601 28.8252 4.25987 28.6974 4.15738 28.537C4.05488 28.3766 4.00028 28.1903 4 28V8C4 7.73478 4.10536 7.48043 4.29289 7.29289C4.48043 7.10536 4.73478 7 5 7H27C27.2652 7 27.5196 7.10536 27.7071 7.29289C27.8946 7.48043 28 7.73478 28 8Z" fill="white" fill-opacity="0.25"/>
<path d="M27 5.5H5.00002C4.33698 5.5 3.7011 5.76339 3.23225 6.23223C2.76341 6.70107 2.50002 7.33696 2.50002 8V28C2.49802 28.4761 2.63325 28.9427 2.88952 29.3439C3.14578 29.7452 3.51223 30.0641 3.94502 30.2625C4.27724 30.418 4.63944 30.4991 5.00627 30.5C5.5933 30.4985 6.16091 30.2895 6.60877 29.91L6.62377 29.8962L10.5588 26.5H27C27.6631 26.5 28.2989 26.2366 28.7678 25.7678C29.2366 25.2989 29.5 24.663 29.5 24V8C29.5 7.33696 29.2366 6.70107 28.7678 6.23223C28.2989 5.76339 27.6631 5.5 27 5.5ZM26.5 23.5H10C9.64001 23.4994 9.29192 23.629 9.02002 23.865L5.50002 26.9037V8.5H26.5V23.5Z" fill="white" fill-opacity="0.95"/>
</svg>
