<svg width="32" height="32" viewBox="0 0 32 32" fill="none" xmlns="http://www.w3.org/2000/svg">
<g transform="translate(1.4992, 2.5338)">
<path id="Vector" d="M28.0416 20.8186C28.7227 19.3371 29.0495 17.7173 28.996 16.0876C28.9425 14.4579 28.5101 12.863 27.7332 11.4294C26.9563 9.99579 25.8562 8.76282 24.52 7.8282C23.1839 6.89358 21.6484 6.28299 20.0353 6.04482C18.8592 3.53495 16.7385 1.5919 14.1355 0.639424C11.5326 -0.31305 8.65858 -0.197676 6.14035 0.960384C3.62212 2.11844 1.66394 4.22524 0.692849 6.82131C-0.278238 9.41738 -0.183446 12.2921 0.956553 14.8186L0.101553 17.7261C-0.0251492 18.1569 -0.0334471 18.614 0.0775316 19.0492C0.18851 19.4843 0.414667 19.8816 0.732233 20.1991C1.0498 20.5167 1.44705 20.7429 1.88222 20.8538C2.3174 20.9648 2.77444 20.9565 3.2053 20.8298L6.1128 19.9748C7.01644 20.389 7.97435 20.6727 8.9578 20.8173C10.122 23.3471 12.2427 25.3113 14.8542 26.2783C17.4657 27.2454 20.3543 27.1362 22.8853 25.9748L25.7928 26.8298C26.2237 26.9565 26.6807 26.9648 27.1159 26.8538C27.5511 26.7429 27.9483 26.5167 28.2659 26.1991C28.5834 25.8816 28.8096 25.4843 28.9206 25.0492C29.0316 24.614 29.0233 24.1569 28.8966 23.7261L28.0416 20.8186ZM6.24905 16.8698C6.10559 16.8697 5.96285 16.8903 5.8253 16.9311L3.2353 17.6923L3.99905 15.1011C4.10858 14.7253 4.06686 14.3215 3.8828 13.9761C3.03236 12.3911 2.77984 10.5533 3.17128 8.79777C3.56273 7.04219 4.57206 5.48575 6.01527 4.41224C7.45847 3.33872 9.23942 2.81962 11.0334 2.94957C12.8274 3.07953 14.5149 3.8499 15.7884 5.12021C17.0618 6.39052 17.8362 8.07618 17.9706 9.86984C18.1049 11.6635 17.5902 13.4457 16.5202 14.8915C15.4502 16.3374 13.8962 17.3505 12.1416 17.7462C10.387 18.1419 8.54856 17.8939 6.96155 17.0473C6.74243 16.93 6.49759 16.869 6.24905 16.8698ZM25.1103 19.9698C24.9262 20.3153 24.8845 20.719 24.9941 21.0948L25.7553 23.6861L23.1691 22.9323C22.7909 22.8207 22.3841 22.8625 22.0366 23.0486C20.424 23.9107 18.552 24.1541 16.7725 23.7328C14.9931 23.3116 13.4289 22.2547 12.3741 20.7611C14.9801 20.2903 17.3118 18.8514 18.9011 16.733C20.4904 14.6146 21.2197 11.9736 20.9428 9.33982C21.9689 9.6933 22.9061 10.2653 23.6896 11.0162C24.4731 11.7672 25.0844 12.6792 25.4811 13.6894C25.8778 14.6996 26.0505 15.7838 25.9874 16.8673C25.9242 17.9507 25.6267 19.0076 25.1153 19.9648L25.1103 19.9698Z" fill="white" fill-opacity="0.95"/>
</g>
</svg>
