<svg width="32" height="32" viewBox="0 0 32 32" fill="none" xmlns="http://www.w3.org/2000/svg">
<g transform="translate(3.0000, 3.0000)">
<path id="Vector" d="M13 0C9.5533 0.00363977 6.24882 1.37445 3.81163 3.81163C1.37445 6.24882 0.00363977 9.5533 0 13V23.5C0 24.163 0.263392 24.7989 0.732233 25.2678C1.20107 25.7366 1.83696 26 2.5 26H13C16.4478 26 19.7544 24.6304 22.1924 22.1924C24.6304 19.7544 26 16.4478 26 13C26 9.55219 24.6304 6.24558 22.1924 3.80761C19.7544 1.36964 16.4478 0 13 0ZM13 23H3V13C3 11.0222 3.58649 9.08879 4.6853 7.4443C5.78412 5.79981 7.3459 4.51808 9.17317 3.7612C11.0004 3.00433 13.0111 2.8063 14.9509 3.19215C16.8907 3.578 18.6725 4.53041 20.0711 5.92893C21.4696 7.32746 22.422 9.10929 22.8079 11.0491C23.1937 12.9889 22.9957 14.9996 22.2388 16.8268C21.4819 18.6541 20.2002 20.2159 18.5557 21.3147C16.9112 22.4135 14.9778 23 13 23Z" fill="white" fill-opacity="0.95"/>
</g>
</svg>
