<svg width="24" height="72" viewBox="0 0 24 72" fill="none" xmlns="http://www.w3.org/2000/svg">
<g clip-path="url(#clip0_5351_28797)">
<path d="M0 12C0 7.1847 0 4.77705 1.15564 3.04752C1.65592 2.29879 2.29879 1.65592 3.04752 1.15564C4.77705 0 7.1847 0 12 0C16.8153 0 19.2229 0 20.9525 1.15564C21.7012 1.65592 22.3441 2.29879 22.8444 3.04752C24 4.77705 24 7.1847 24 12C24 16.8153 24 19.2229 22.8444 20.9525C22.3441 21.7012 21.7012 22.3441 20.9525 22.8444C19.2229 24 16.8153 24 12 24C7.1847 24 4.77705 24 3.04752 22.8444C2.29879 22.3441 1.65592 21.7012 1.15564 20.9525C0 19.2229 0 16.8153 0 12Z" fill="#07241B"/>
<mask id="mask0_5351_28797" style="mask-type:luminance" maskUnits="userSpaceOnUse" x="0" y="0" width="24" height="24">
<path d="M0 12C0 7.1847 0 4.77705 1.15564 3.04752C1.65592 2.29879 2.29879 1.65592 3.04752 1.15564C4.77705 0 7.1847 0 12 0C16.8153 0 19.2229 0 20.9525 1.15564C21.7012 1.65592 22.3441 2.29879 22.8444 3.04752C24 4.77705 24 7.1847 24 12C24 16.8153 24 19.2229 22.8444 20.9525C22.3441 21.7012 21.7012 22.3441 20.9525 22.8444C19.2229 24 16.8153 24 12 24C7.1847 24 4.77705 24 3.04752 22.8444C2.29879 22.3441 1.65592 21.7012 1.15564 20.9525C0 19.2229 0 16.8153 0 12Z" fill="white"/>
</mask>
<g mask="url(#mask0_5351_28797)">
<path d="M12 24V21.4286C9.53885 21.4286 7.88653 21.4255 6.62686 21.2973C5.41016 21.1735 4.84798 20.9547 4.47615 20.7063L3.04754 22.8444L1.61893 24.9824C2.97663 25.8896 4.48304 26.2486 6.10638 26.4138C7.68673 26.5745 9.64589 26.5714 12 26.5714V24ZM2.31266e-05 12H-2.57141C-2.57141 14.3541 -2.57452 16.3133 -2.41375 17.8936C-2.24861 19.517 -1.88959 21.0234 -0.982405 22.3811L1.15566 20.9525L3.29372 19.5239C3.04527 19.152 2.82647 18.5899 2.7027 17.3732C2.57456 16.1135 2.57145 14.4612 2.57145 12H2.31266e-05ZM3.04754 22.8444L4.47615 20.7063C4.00819 20.3936 3.6064 19.9918 3.29372 19.5239L1.15566 20.9525L-0.982405 22.3811C-0.29451 23.4106 0.589425 24.2945 1.61893 24.9824L3.04754 22.8444ZM24 12H21.4286C21.4286 14.4612 21.4255 16.1135 21.2973 17.3732C21.1735 18.5899 20.9547 19.152 20.7063 19.5239L22.8444 20.9525L24.9824 22.3811C25.8896 21.0234 26.2486 19.517 26.4138 17.8936C26.5745 16.3133 26.5714 14.3541 26.5714 12H24ZM12 24V26.5714C14.3541 26.5714 16.3133 26.5745 17.8936 26.4138C19.517 26.2486 21.0234 25.8896 22.3811 24.9824L20.9525 22.8444L19.5239 20.7063C19.152 20.9547 18.5899 21.1735 17.3732 21.2973C16.1135 21.4255 14.4612 21.4286 12 21.4286V24ZM22.8444 20.9525L20.7063 19.5239C20.3936 19.9918 19.9918 20.3936 19.5239 20.7063L20.9525 22.8444L22.3811 24.9824C23.4106 24.2945 24.2945 23.4106 24.9824 22.3811L22.8444 20.9525ZM12 -7.39098e-06V2.57142C14.4612 2.57142 16.1135 2.57453 17.3732 2.70267C18.5899 2.82644 19.152 3.04524 19.5239 3.29369L20.9525 1.15563L22.3811 -0.982435C21.0234 -1.88962 19.517 -2.24864 17.8936 -2.41378C16.3133 -2.57455 14.3541 -2.57144 12 -2.57144V-7.39098e-06ZM24 12H26.5714C26.5714 9.64586 26.5745 7.6867 26.4138 6.10635C26.2486 4.48301 25.8896 2.9766 24.9824 1.6189L22.8444 3.04751L20.7063 4.47612C20.9547 4.84795 21.1735 5.41013 21.2973 6.62683C21.4255 7.8865 21.4286 9.53882 21.4286 12H24ZM20.9525 1.15563L19.5239 3.29369C19.9918 3.60637 20.3936 4.00816 20.7063 4.47612L22.8444 3.04751L24.9824 1.6189C24.2945 0.589395 23.4106 -0.29454 22.3811 -0.982435L20.9525 1.15563ZM12 -7.39098e-06V-2.57144C9.64589 -2.57144 7.68673 -2.57455 6.10638 -2.41378C4.48304 -2.24864 2.97663 -1.88962 1.61893 -0.982435L3.04754 1.15563L4.47615 3.29369C4.84798 3.04524 5.41016 2.82644 6.62686 2.70267C7.88653 2.57453 9.53885 2.57142 12 2.57142V-7.39098e-06ZM2.31266e-05 12H2.57145C2.57145 9.53882 2.57456 7.8865 2.7027 6.62683C2.82647 5.41013 3.04527 4.84795 3.29372 4.47612L1.15566 3.04751L-0.982405 1.6189C-1.88959 2.9766 -2.24861 4.48301 -2.41375 6.10635C-2.57452 7.6867 -2.57141 9.64586 -2.57141 12H2.31266e-05ZM3.04754 1.15563L1.61893 -0.982435C0.589425 -0.29454 -0.29451 0.589395 -0.982405 1.6189L1.15566 3.04751L3.29372 4.47612C3.6064 4.00816 4.00819 3.60637 4.47615 3.29369L3.04754 1.15563Z" fill="#27C58B"/>
</g>
</g>
<g clip-path="url(#clip1_5351_28797)">
<path d="M0 36C0 31.1847 0 28.777 1.15564 27.0475C1.65592 26.2988 2.29879 25.6559 3.04752 25.1556C4.77705 24 7.1847 24 12 24C16.8153 24 19.2229 24 20.9525 25.1556C21.7012 25.6559 22.3441 26.2988 22.8444 27.0475C24 28.777 24 31.1847 24 36C24 40.8153 24 43.2229 22.8444 44.9525C22.3441 45.7012 21.7012 46.3441 20.9525 46.8444C19.2229 48 16.8153 48 12 48C7.1847 48 4.77705 48 3.04752 46.8444C2.29879 46.3441 1.65592 45.7012 1.15564 44.9525C0 43.2229 0 40.8153 0 36Z" fill="#27C58B"/>
<mask id="mask1_5351_28797" style="mask-type:luminance" maskUnits="userSpaceOnUse" x="3" y="27" width="18" height="18">
<path d="M20.5715 27.4286H3.42859V44.5715H20.5715V27.4286Z" fill="white"/>
</mask>
<g mask="url(#mask1_5351_28797)">
<path d="M19.7217 33.5163L11.1235 42.1145C10.9225 42.3153 10.6501 42.4281 10.3661 42.4281C10.0821 42.4281 9.80964 42.3153 9.60873 42.1145L4.81274 37.2931C4.61217 37.0922 4.49951 36.8199 4.49951 36.536C4.49951 36.2522 4.61217 35.9799 4.81274 35.779L6.15203 34.4397C6.35283 34.2398 6.62467 34.1275 6.90806 34.1275C7.19144 34.1275 7.46328 34.2398 7.66408 34.4397L10.3929 37.0861L16.8723 30.6864C17.0732 30.4862 17.3452 30.3738 17.6287 30.3738C17.9122 30.3738 18.1842 30.4862 18.3851 30.6864L19.721 31.9949C19.8215 32.0944 19.9012 32.2129 19.9557 32.3434C20.0101 32.474 20.0382 32.614 20.0383 32.7554C20.0383 32.8969 20.0104 33.0369 19.956 33.1675C19.9017 33.2981 19.8221 33.4166 19.7217 33.5163Z" fill="#07241B"/>
</g>
</g>
<g clip-path="url(#clip2_5351_28797)">
<path d="M0 60C0 55.1847 0 52.777 1.15564 51.0475C1.65592 50.2988 2.29879 49.6559 3.04752 49.1556C4.77705 48 7.1847 48 12 48C16.8153 48 19.2229 48 20.9525 49.1556C21.7012 49.6559 22.3441 50.2988 22.8444 51.0475C24 52.777 24 55.1847 24 60C24 64.8153 24 67.2229 22.8444 68.9525C22.3441 69.7012 21.7012 70.3441 20.9525 70.8444C19.2229 72 16.8153 72 12 72C7.1847 72 4.77705 72 3.04752 70.8444C2.29879 70.3441 1.65592 69.7012 1.15564 68.9525C0 67.2229 0 64.8153 0 60Z" fill="#27C58B"/>
<path d="M4.28564 60.4286V59.5714C4.28564 59.1168 4.44819 58.6807 4.73753 58.3592C5.02688 58.0378 5.41931 57.8571 5.8285 57.8571H18.1714C18.5806 57.8571 18.973 58.0378 19.2623 58.3592C19.5517 58.6807 19.7142 59.1168 19.7142 59.5714V60.4286C19.7142 60.8832 19.5517 61.3193 19.2623 61.6408C18.973 61.9622 18.5806 62.1429 18.1714 62.1429H5.8285C5.41931 62.1429 5.02688 61.9622 4.73753 61.6408C4.44819 61.3193 4.28564 60.8832 4.28564 60.4286Z" fill="#07241B"/>
</g>
<defs>
<clipPath id="clip0_5351_28797">
<rect width="24" height="24" fill="white"/>
</clipPath>
<clipPath id="clip1_5351_28797">
<rect width="24" height="24" fill="white" transform="translate(0 24)"/>
</clipPath>
<clipPath id="clip2_5351_28797">
<rect width="24" height="24" fill="white" transform="translate(0 48)"/>
</clipPath>
</defs>
</svg>
