<svg width="32" height="32" viewBox="0 0 32 32" fill="none" xmlns="http://www.w3.org/2000/svg">
<g transform="translate(2.5000, 2.5000)">
<path id="Vector" d="M19.5613 9.43875C19.7011 9.57811 19.8121 9.74369 19.8878 9.92602C19.9635 10.1084 20.0024 10.3038 20.0024 10.5013C20.0024 10.6987 19.9635 10.8942 19.8878 11.0765C19.8121 11.2588 19.7011 11.4244 19.5613 11.5638L12.5613 18.5637C12.4219 18.7036 12.2563 18.8145 12.074 18.8903C11.8917 18.966 11.6962 19.0049 11.4988 19.0049C11.3013 19.0049 11.1059 18.966 10.9235 18.8903C10.7412 18.8145 10.5756 18.7036 10.4363 18.5637L7.43626 15.5637C7.29673 15.4242 7.18605 15.2586 7.11053 15.0763C7.03502 14.894 6.99615 14.6986 6.99615 14.5012C6.99615 14.3039 7.03502 14.1085 7.11053 13.9262C7.18605 13.7439 7.29673 13.5783 7.43626 13.4388C7.57579 13.2992 7.74143 13.1885 7.92374 13.113C8.10604 13.0375 8.30143 12.9986 8.49876 12.9986C8.69608 12.9986 8.89147 13.0375 9.07378 13.113C9.25608 13.1885 9.42173 13.2992 9.56126 13.4388L11.5 15.375L17.4388 9.435C17.5783 9.29578 17.7439 9.18543 17.9262 9.11027C18.1084 9.0351 18.3037 8.9966 18.5008 8.99694C18.6979 8.99729 18.893 9.03649 19.075 9.1123C19.257 9.18811 19.4222 9.29904 19.5613 9.43875ZM27 13.5C27 16.17 26.2082 18.7801 24.7248 21.0002C23.2414 23.2203 21.133 24.9506 18.6662 25.9724C16.1994 26.9942 13.485 27.2615 10.8663 26.7406C8.24754 26.2197 5.84207 24.934 3.95406 23.0459C2.06606 21.1579 0.780305 18.7525 0.259405 16.1337C-0.261496 13.515 0.00584937 10.8006 1.02763 8.33377C2.04942 5.86697 3.77974 3.75856 5.99981 2.27516C8.21987 0.791761 10.83 0 13.5 0C17.0792 0.00397028 20.5107 1.42756 23.0416 3.95844C25.5724 6.48932 26.996 9.9208 27 13.5ZM24 13.5C24 11.4233 23.3842 9.39323 22.2304 7.66651C21.0767 5.9398 19.4368 4.59399 17.5182 3.79926C15.5996 3.00454 13.4884 2.79661 11.4516 3.20175C9.41476 3.6069 7.54384 4.60693 6.07538 6.07538C4.60693 7.54383 3.60691 9.41475 3.20176 11.4516C2.79662 13.4884 3.00455 15.5996 3.79927 17.5182C4.59399 19.4368 5.9398 21.0767 7.66652 22.2304C9.39323 23.3842 11.4233 24 13.5 24C16.2839 23.997 18.9529 22.8898 20.9213 20.9213C22.8898 18.9528 23.997 16.2839 24 13.5Z" fill="white" fill-opacity="0.95"/>
</g>
</svg>
