<svg width="32" height="32" viewBox="0 0 32 32" fill="none" xmlns="http://www.w3.org/2000/svg">
<g transform="translate(0.4998, 8.9972)">
<path id="Vector" d="M18.5517 2.57564L7.35171 13.5756C7.0712 13.8512 6.69369 14.0057 6.30046 14.0057C5.90722 14.0057 5.52971 13.8512 5.24921 13.5756L0.449205 8.86189C0.308608 8.72384 0.19658 8.55945 0.119516 8.3781C0.0424521 8.19675 0.00186177 8.002 6.26321e-05 7.80497C-0.00357089 7.40704 0.151021 7.02396 0.42983 6.74002C0.567882 6.59942 0.732275 6.48739 0.913622 6.41033C1.09497 6.33326 1.28972 6.29267 1.48675 6.29087C1.88468 6.28724 2.26776 6.44183 2.5517 6.72064L6.3017 10.4031L16.4505 0.435641C16.7342 0.156832 17.1172 0.00217353 17.515 0.00568984C17.9128 0.00920615 18.2929 0.170608 18.5717 0.45439C18.8505 0.738171 19.0052 1.12109 19.0017 1.5189C18.9981 1.91671 18.8367 2.29683 18.553 2.57564H18.5517ZM30.5705 0.45064C30.4323 0.309563 30.2677 0.197141 30.0861 0.11982C29.9044 0.0424986 29.7093 0.00180036 29.5118 5.83926e-05C29.3144 -0.00168358 29.1186 0.0355653 28.9356 0.109669C28.7526 0.183773 28.586 0.293273 28.4455 0.431891L18.3005 10.4031L17.3155 9.43564C17.0317 9.15683 16.6488 9.00217 16.2509 9.00569C15.8531 9.00921 15.473 9.17061 15.1942 9.45439C14.9154 9.73817 14.7607 10.1211 14.7643 10.5189C14.7678 10.9167 14.9292 11.2968 15.213 11.5756L17.2492 13.5756C17.5297 13.8512 17.9072 14.0057 18.3005 14.0057C18.6937 14.0057 19.0712 13.8512 19.3517 13.5756L30.5517 2.57564C30.6922 2.43759 30.8042 2.27321 30.8812 2.0919C30.9581 1.91058 30.9987 1.71587 31.0004 1.5189C31.0021 1.32192 30.9651 1.12653 30.8913 0.943882C30.8175 0.761234 30.7085 0.594904 30.5705 0.45439V0.45064Z" fill="white" fill-opacity="0.95"/>
</g>
</svg>
