<svg width="32" height="32" viewBox="0 0 32 32" fill="none" xmlns="http://www.w3.org/2000/svg">
<g transform="translate(4.5000, 2.0001)">
<path id="Vector" d="M20.5 1.99972H16.1838C15.5784 1.36758 14.8513 0.86452 14.0464 0.520847C13.2414 0.177173 12.3752 0 11.5 0C10.6248 0 9.75856 0.177173 8.95361 0.520847C8.14866 0.86452 7.42161 1.36758 6.81625 1.99972H2.5C1.83696 1.99972 1.20107 2.26312 0.732233 2.73196C0.263392 3.2008 0 3.83668 0 4.49972V25.4997C0 26.1628 0.263392 26.7986 0.732233 27.2675C1.20107 27.7363 1.83696 27.9997 2.5 27.9997H20.5C21.163 27.9997 21.7989 27.7363 22.2678 27.2675C22.7366 26.7986 23 26.1628 23 25.4997V4.49972C23 3.83668 22.7366 3.2008 22.2678 2.73196C21.7989 2.26312 21.163 1.99972 20.5 1.99972ZM14.9638 5.99972H8.03625C8.15701 5.16723 8.57355 4.40607 9.20964 3.8556C9.84573 3.30512 10.6588 3.00215 11.5 3.00215C12.3412 3.00215 13.1543 3.30512 13.7904 3.8556C14.4264 4.40607 14.843 5.16723 14.9638 5.99972ZM20 24.9997H3V4.99972H5.17625C5.05956 5.4912 5.00041 5.99458 5 6.49972V7.49972C5 7.89755 5.15804 8.27908 5.43934 8.56038C5.72064 8.84169 6.10218 8.99972 6.5 8.99972H16.5C16.8978 8.99972 17.2794 8.84169 17.5607 8.56038C17.842 8.27908 18 7.89755 18 7.49972V6.49972C17.9996 5.99458 17.9404 5.4912 17.8237 4.99972H20V24.9997Z" fill="white" fill-opacity="0.95"/>
</g>
</svg>
