<svg width="32" height="32" viewBox="0 0 32 32" fill="none" xmlns="http://www.w3.org/2000/svg">
<g transform="translate(2.5060, 2.5060)">
<path id="Vector" d="M26.9828 14.6302C26.7621 17.1953 25.8134 19.644 24.2484 21.6882C22.6833 23.7325 20.5669 25.2872 18.1483 26.1695C15.7296 27.0518 13.1093 27.225 10.5956 26.6686C8.08186 26.1123 5.7793 24.8496 3.95882 23.0291C2.13834 21.2087 0.875656 18.9061 0.319332 16.3924C-0.236992 13.8787 -0.0638152 11.2583 0.818488 8.83967C1.70079 6.42103 3.25552 4.30467 5.29975 2.73961C7.34398 1.17454 9.79268 0.22587 12.3578 0.00520312C12.7556 -0.0279489 13.1503 0.0982921 13.455 0.356155C13.7598 0.614017 13.9496 0.982378 13.9828 1.3802C14.0159 1.77803 13.8897 2.17273 13.6318 2.47747C13.3739 2.78222 13.0056 2.97205 12.6078 3.0052C10.612 3.17636 8.70659 3.91403 7.11584 5.1314C5.52509 6.34878 4.31516 7.9952 3.62844 9.87692C2.94172 11.7587 2.80677 13.7974 3.23949 15.7532C3.6722 17.709 4.65457 19.5006 6.07099 20.917C7.48741 22.3334 9.27894 23.3158 11.2348 23.7485C13.1906 24.1812 15.2293 24.0462 17.111 23.3595C18.9928 22.6728 20.6392 21.4629 21.8566 19.8721C23.0739 18.2814 23.8116 16.376 23.9828 14.3802C23.9992 14.1832 24.0542 13.9914 24.1448 13.8157C24.2353 13.64 24.3596 13.4838 24.5105 13.3562C24.6614 13.2285 24.836 13.1318 25.0242 13.0715C25.2125 13.0113 25.4108 12.9888 25.6078 13.0052C25.8047 13.0216 25.9966 13.0767 26.1723 13.1672C26.348 13.2578 26.5041 13.382 26.6318 13.5329C26.7595 13.6838 26.8562 13.8584 26.9164 14.0467C26.9766 14.2349 26.9992 14.4332 26.9828 14.6302ZM11.9828 7.0052V13.5052C11.9828 13.903 12.1408 14.2846 12.4221 14.5659C12.7034 14.8472 13.0849 15.0052 13.4828 15.0052H19.9828C20.3806 15.0052 20.7621 14.8472 21.0434 14.5659C21.3247 14.2846 21.4828 13.903 21.4828 13.5052C21.4828 13.1074 21.3247 12.7258 21.0434 12.4445C20.7621 12.1632 20.3806 12.0052 19.9828 12.0052H14.9828V7.0052C14.9828 6.60738 14.8247 6.22585 14.5434 5.94454C14.2621 5.66324 13.8806 5.5052 13.4828 5.5052C13.0849 5.5052 12.7034 5.66324 12.4221 5.94454C12.1408 6.22585 11.9828 6.60738 11.9828 7.0052ZM23.4828 9.5052C23.8783 9.5052 24.265 9.38791 24.5939 9.16814C24.9228 8.94838 25.1791 8.63602 25.3305 8.27057C25.4819 7.90512 25.5215 7.50298 25.4443 7.11502C25.3672 6.72706 25.1767 6.3707 24.897 6.09099C24.6173 5.81129 24.2609 5.6208 23.8729 5.54363C23.485 5.46646 23.0828 5.50607 22.7174 5.65744C22.3519 5.80882 22.0396 6.06516 21.8198 6.39406C21.6001 6.72296 21.4828 7.10964 21.4828 7.5052C21.4828 8.03564 21.6935 8.54434 22.0686 8.91942C22.4436 9.29449 22.9523 9.5052 23.4828 9.5052ZM19.4828 5.5052C19.8783 5.5052 20.265 5.38791 20.5939 5.16814C20.9228 4.94838 21.1791 4.63602 21.3305 4.27057C21.4819 3.90512 21.5215 3.50298 21.4443 3.11502C21.3672 2.72706 21.1767 2.37069 20.897 2.09099C20.6173 1.81128 20.2609 1.6208 19.8729 1.54363C19.485 1.46646 19.0828 1.50607 18.7174 1.65744C18.3519 1.80882 18.0396 2.06516 17.8198 2.39406C17.6001 2.72296 17.4828 3.10964 17.4828 3.5052C17.4828 4.03564 17.6935 4.54434 18.0686 4.91942C18.4436 5.29449 18.9523 5.5052 19.4828 5.5052Z" fill="white" fill-opacity="0.95"/>
</g>
</svg>
