<svg width="32" height="32" viewBox="0 0 32 32" fill="none" xmlns="http://www.w3.org/2000/svg">
<g transform="translate(5.4962, 5.4955)">
<path id="Vector" d="M20.5651 18.4439C20.8469 18.7256 21.0052 19.1078 21.0052 19.5064C21.0052 19.9049 20.8469 20.2871 20.5651 20.5689C20.2833 20.8506 19.9011 21.009 19.5026 21.009C19.1041 21.009 18.7219 20.8506 18.4401 20.5689L10.5039 12.6301L2.5651 20.5664C2.28331 20.8481 1.90112 21.0065 1.5026 21.0065C1.10409 21.0065 0.721895 20.8481 0.440102 20.5664C0.15831 20.2846 5.93833e-09 19.9024 0 19.5039C-5.93833e-09 19.1053 0.15831 18.7231 0.440102 18.4414L8.37885 10.5051L0.442602 2.56635C0.160809 2.28456 0.00250005 1.90237 0.00250006 1.50385C0.00250006 1.10534 0.160809 0.723144 0.442602 0.441352C0.724394 0.159559 1.10659 0.00124979 1.5051 0.00124979C1.90362 0.00124979 2.28581 0.159559 2.5676 0.441352L10.5039 8.3801L18.4426 0.440102C18.7244 0.158309 19.1066 -6.63926e-09 19.5051 0C19.9036 6.63926e-09 20.2858 0.158309 20.5676 0.440102C20.8494 0.721894 21.0077 1.10409 21.0077 1.5026C21.0077 1.90112 20.8494 2.28331 20.5676 2.5651L12.6289 10.5051L20.5651 18.4439Z" fill="white" fill-opacity="0.95"/>
</g>
</svg>
