<svg width="32" height="32" viewBox="0 0 32 32" fill="none" xmlns="http://www.w3.org/2000/svg">
<g transform="translate(2.5000, 2.5000)">
<path id="Vector" d="M13.5 0C10.83 0 8.21987 0.791761 5.99981 2.27516C3.77974 3.75856 2.04942 5.86697 1.02763 8.33377C0.00584937 10.8006 -0.261496 13.515 0.259405 16.1337C0.780305 18.7525 2.06606 21.1579 3.95406 23.0459C5.84207 24.934 8.24754 26.2197 10.8663 26.7406C13.485 27.2615 16.1994 26.9942 18.6662 25.9724C21.133 24.9506 23.2414 23.2203 24.7248 21.0002C26.2082 18.7801 27 16.17 27 13.5C26.996 9.9208 25.5724 6.48932 23.0416 3.95844C20.5107 1.42756 17.0792 0.00397028 13.5 0ZM13.5 24C11.4233 24 9.39323 23.3842 7.66652 22.2304C5.9398 21.0767 4.59399 19.4368 3.79927 17.5182C3.00455 15.5996 2.79662 13.4884 3.20176 11.4516C3.60691 9.41475 4.60693 7.54383 6.07538 6.07538C7.54384 4.60693 9.41476 3.6069 11.4516 3.20175C13.4884 2.79661 15.5996 3.00454 17.5182 3.79926C19.4368 4.59399 21.0767 5.9398 22.2304 7.66651C23.3842 9.39323 24 11.4233 24 13.5C23.997 16.2839 22.8898 18.9528 20.9213 20.9213C18.9529 22.8898 16.2839 23.997 13.5 24ZM17.9088 7.125L10.9088 10.125C10.5549 10.2767 10.273 10.5587 10.1213 10.9125L7.12126 17.9125C7.00527 18.1878 6.97412 18.4914 7.03179 18.7845C7.08945 19.0776 7.23331 19.3468 7.44493 19.5576C7.65656 19.7684 7.9263 19.9112 8.21961 19.9678C8.51292 20.0243 8.81643 19.992 9.09126 19.875L16.0913 16.875C16.4451 16.7233 16.727 16.4413 16.8788 16.0875L19.8788 9.0875C19.9947 8.81223 20.0259 8.50859 19.9682 8.2155C19.9106 7.92241 19.7667 7.65322 19.5551 7.4424C19.3435 7.23158 19.0737 7.08875 18.7804 7.0322C18.4871 6.97566 18.1836 7.00797 17.9088 7.125ZM14.3575 14.3612L11.3575 15.6475L12.6438 12.6475L15.6438 11.3612L14.3575 14.3612Z" fill="white" fill-opacity="0.95"/>
</g>
</svg>
