<svg width="32" height="32" viewBox="0 0 32 32" fill="none" xmlns="http://www.w3.org/2000/svg">
<g transform="translate(1.1431, 4.1729)">
<g id="Union">
<path d="M17.2041 20.5635C17.2042 20.9151 17.2593 21.2045 17.3691 21.4316C17.4791 21.659 17.6477 21.8285 17.875 21.9385C18.1023 22.0411 18.3922 22.0918 18.7441 22.0918C19.0961 22.0918 19.386 22.0411 19.6133 21.9385C19.8406 21.8285 20.0091 21.659 20.1191 21.4316C20.229 21.2045 20.2841 20.9151 20.2842 20.5635V16.2402H22.0547V20.6182C22.0547 21.5787 21.7804 22.327 21.2305 22.8623C20.6878 23.3903 19.8622 23.6543 18.7549 23.6543C18.2931 23.6543 17.8827 23.606 17.5234 23.5107C17.1641 23.4227 16.8519 23.2912 16.5879 23.1152C16.3239 22.9392 16.1037 22.7259 15.9277 22.4766C15.7592 22.2273 15.6309 21.9484 15.543 21.6406C15.4624 21.3254 15.4219 20.9846 15.4219 20.6182V16.2402H17.2041V20.5635Z" fill="white"/>
<path d="M5.41211 21.1133H5.54395L5.43359 16.2402H7.16113V23.5H5.08203L1.74902 18.3516H1.62793L1.72656 23.5H0V16.2402H2.29883L5.41211 21.1133Z" fill="white"/>
<path fill-rule="evenodd" clip-rule="evenodd" d="M11.5264 16.2402C11.9956 16.2402 12.4171 16.2953 12.791 16.4053C13.1723 16.5153 13.4992 16.6804 13.7705 16.9004C14.0416 17.113 14.2474 17.3875 14.3867 17.7246C14.5333 18.0545 14.6064 18.4434 14.6064 18.8906C14.6064 19.4626 14.474 19.9434 14.21 20.332C13.9534 20.7205 13.5687 21.0139 13.0557 21.2119C12.5497 21.4099 11.915 21.5088 11.1523 21.5088H10.2617V23.5H8.49023V16.2402H11.5264ZM10.2617 20.1445H11.4053C11.8819 20.1445 12.238 20.0457 12.4727 19.8477C12.707 19.6496 12.8242 19.3157 12.8242 18.8467C12.8242 18.4362 12.7141 18.1247 12.4941 17.9121C12.2815 17.6995 11.9408 17.5928 11.4717 17.5928H10.2617V20.1445Z" fill="white"/>
<path fill-rule="evenodd" clip-rule="evenodd" d="M26.4688 16.2402C26.9233 16.2402 27.3302 16.2807 27.6895 16.3613C28.0559 16.4346 28.3674 16.5517 28.624 16.7129C28.8807 16.8669 29.075 17.069 29.207 17.3184C29.3463 17.5602 29.416 17.8494 29.416 18.1865C29.416 18.4724 29.354 18.722 29.2295 18.9346C29.1122 19.1472 28.9255 19.3202 28.6689 19.4521C28.4123 19.5841 28.0708 19.6718 27.6455 19.7158V19.9033C28.3494 19.9473 28.8697 20.1159 29.207 20.4092C29.5443 20.7025 29.7138 21.0982 29.7139 21.5967C29.7139 22.022 29.5994 22.3747 29.3721 22.6533C29.1447 22.9318 28.8109 23.1444 28.3711 23.291C27.9312 23.4303 27.3883 23.5 26.7432 23.5H23.334V16.2402H26.4688ZM25.0273 22.0918H26.6777C27.1249 22.0918 27.4553 22.0299 27.668 21.9053C27.8805 21.7733 27.9863 21.5676 27.9863 21.2891C27.9863 20.9811 27.8582 20.7497 27.6016 20.5957C27.3449 20.4418 26.9526 20.3653 26.4248 20.3652H25.0273V22.0918ZM25.0273 19.2871H26.1826C26.703 19.2871 27.0842 19.2173 27.3262 19.0781C27.5682 18.9315 27.6895 18.7147 27.6895 18.4287C27.6894 18.1503 27.5758 17.9489 27.3486 17.8242C27.1287 17.6923 26.7914 17.626 26.3369 17.626H25.0273V19.2871Z" fill="white"/>
<path fill-rule="evenodd" clip-rule="evenodd" d="M17.2158 4.58342e-07C17.4129 -0.000154484 17.6079 0.0389762 17.79 0.114258C17.9721 0.189539 18.138 0.299255 18.2773 0.438477L25.2773 7.43848C25.4166 7.57785 25.5263 7.74374 25.6016 7.92578C25.6768 8.10787 25.716 8.30296 25.7158 8.5V12C25.7158 12.3978 25.5577 12.7792 25.2764 13.0605C24.9951 13.3419 24.6136 13.5 24.2158 13.5C23.818 13.5 23.4366 13.3419 23.1553 13.0605C22.874 12.7792 22.7158 12.3978 22.7158 12V10.5H16.7158C16.318 10.5 15.9366 10.3419 15.6553 10.0605C15.374 9.77924 15.2158 9.39782 15.2158 9V3H5.71582V12C5.71582 12.3978 5.55767 12.7792 5.27637 13.0605C4.99506 13.3419 4.61365 13.5 4.21582 13.5C3.818 13.5 3.43658 13.3419 3.15527 13.0605C2.87397 12.7792 2.71582 12.3978 2.71582 12V2.5C2.71582 1.83696 2.9794 1.20126 3.44824 0.732422C3.91708 0.263582 4.55278 4.58342e-07 5.21582 4.58342e-07H17.2158ZM18.2158 7.5H21.0908L18.2158 4.625V7.5Z" fill="white"/>
</g>
</g>
</svg>
