<svg width="32" height="32" viewBox="0 0 32 32" fill="none" xmlns="http://www.w3.org/2000/svg">
<g transform="translate(3.5000, 3.5000)">
<path id="Vector" d="M19 4.5H1.5C1.10218 4.5 0.720644 4.65804 0.43934 4.93934C0.158035 5.22064 0 5.60218 0 6V23.5C0 23.8978 0.158035 24.2794 0.43934 24.5607C0.720644 24.842 1.10218 25 1.5 25H19C19.3978 25 19.7794 24.842 20.0607 24.5607C20.342 24.2794 20.5 23.8978 20.5 23.5V6C20.5 5.60218 20.342 5.22064 20.0607 4.93934C19.7794 4.65804 19.3978 4.5 19 4.5ZM25 1.5V19C25 19.3978 24.842 19.7794 24.5607 20.0607C24.2794 20.342 23.8978 20.5 23.5 20.5C23.1022 20.5 22.7206 20.342 22.4393 20.0607C22.158 19.7794 22 19.3978 22 19V3H6C5.60218 3 5.22064 2.84196 4.93934 2.56066C4.65804 2.27936 4.5 1.89782 4.5 1.5C4.5 1.10218 4.65804 0.720644 4.93934 0.43934C5.22064 0.158035 5.60218 0 6 0H23.5C23.8978 0 24.2794 0.158035 24.5607 0.43934C24.842 0.720644 25 1.10218 25 1.5Z" fill="white" fill-opacity="0.95"/>
</g>
</svg>
