<svg width="32" height="32" viewBox="0 0 32 32" fill="none" xmlns="http://www.w3.org/2000/svg">
<g filter="url(#filter0_dd_141_1706)">
<path d="M23.5 6.5H9.5C8.83696 6.5 8.20107 6.76339 7.73223 7.23223C7.26339 7.70107 7 8.33696 7 9V23C7 23.663 7.26339 24.2989 7.73223 24.7678C8.20107 25.2366 8.83696 25.5 9.5 25.5H23.5C24.163 25.5 24.7989 25.2366 25.2678 24.7678C25.7366 24.2989 26 23.663 26 23V9C26 8.33696 25.7366 7.70107 25.2678 7.23223C24.7989 6.76339 24.163 6.5 23.5 6.5ZM23 22.5H10V9.5H23V22.5Z" fill="white"/>
</g>
<defs>
<filter id="filter0_dd_141_1706" x="-0.2" y="-0.2" width="34.2" height="34.2" filterUnits="userSpaceOnUse" color-interpolation-filters="sRGB">
<feFlood flood-opacity="0" result="BackgroundImageFix"/>
<feColorMatrix in="SourceAlpha" type="matrix" values="0 0 0 0 0 0 0 0 0 0 0 0 0 0 0 0 0 0 127 0" result="hardAlpha"/>
<feOffset dx="1" dy="1"/>
<feGaussianBlur stdDeviation="0.5"/>
<feColorMatrix type="matrix" values="0 0 0 0 0 0 0 0 0 0 0 0 0 0 0 0 0 0 0.1 0"/>
<feBlend mode="normal" in2="BackgroundImageFix" result="effect1_dropShadow_141_1706"/>
<feColorMatrix in="SourceAlpha" type="matrix" values="0 0 0 0 0 0 0 0 0 0 0 0 0 0 0 0 0 0 127 0" result="hardAlpha"/>
<feOffset dx="0.4" dy="0.4"/>
<feGaussianBlur stdDeviation="0.3"/>
<feComposite in2="hardAlpha" operator="out"/>
<feColorMatrix type="matrix" values="0 0 0 0 0 0 0 0 0 0 0 0 0 0 0 0 0 0 0.1 0"/>
<feBlend mode="normal" in2="effect1_dropShadow_141_1706" result="effect2_dropShadow_141_1706"/>
<feBlend mode="normal" in="SourceGraphic" in2="effect2_dropShadow_141_1706" result="shape"/>
</filter>
</defs>
</svg>
