<svg width="32" height="32" viewBox="0 0 32 32" fill="none" xmlns="http://www.w3.org/2000/svg">
<g transform="translate(5.5000, 14.0000)">
<path id="Vector" d="M12.5 2C12.5 2.39556 12.3827 2.78224 12.1629 3.11114C11.9432 3.44004 11.6308 3.69638 11.2654 3.84776C10.8999 3.99913 10.4978 4.03874 10.1098 3.96157C9.72186 3.8844 9.36549 3.69392 9.08579 3.41421C8.80608 3.13451 8.6156 2.77814 8.53843 2.39018C8.46126 2.00222 8.50087 1.60009 8.65224 1.23463C8.80362 0.869181 9.05996 0.556824 9.38886 0.337061C9.71776 0.117298 10.1044 0 10.5 0C11.0304 0 11.5391 0.210714 11.9142 0.585787C12.2893 0.96086 12.5 1.46957 12.5 2ZM2 0C1.60444 0 1.21776 0.117298 0.888861 0.337061C0.559963 0.556824 0.303617 0.869181 0.152242 1.23463C0.000866564 1.60009 -0.0387401 2.00222 0.0384303 2.39018C0.115601 2.77814 0.306082 3.13451 0.585787 3.41421C0.865492 3.69392 1.22186 3.8844 1.60982 3.96157C1.99778 4.03874 2.39992 3.99913 2.76537 3.84776C3.13082 3.69638 3.44318 3.44004 3.66294 3.11114C3.8827 2.78224 4 2.39556 4 2C4 1.46957 3.78929 0.96086 3.41421 0.585787C3.03914 0.210714 2.53043 0 2 0ZM19 0C18.6044 0 18.2178 0.117298 17.8889 0.337061C17.56 0.556824 17.3036 0.869181 17.1522 1.23463C17.0009 1.60009 16.9613 2.00222 17.0384 2.39018C17.1156 2.77814 17.3061 3.13451 17.5858 3.41421C17.8655 3.69392 18.2219 3.8844 18.6098 3.96157C18.9978 4.03874 19.3999 3.99913 19.7654 3.84776C20.1308 3.69638 20.4432 3.44004 20.6629 3.11114C20.8827 2.78224 21 2.39556 21 2C21 1.46957 20.7893 0.96086 20.4142 0.585787C20.0391 0.210714 19.5304 0 19 0Z" fill="white" fill-opacity="0.95"/>
</g>
</svg>
