<svg width="32" height="32" viewBox="0 0 32 32" fill="none" xmlns="http://www.w3.org/2000/svg">
<g transform="translate(3.5000, 3.5000)">
<path id="Vector" d="M25 15.5V23.5C25 23.8978 24.842 24.2794 24.5607 24.5607C24.2794 24.842 23.8978 25 23.5 25H1.5C1.10218 25 0.720644 24.842 0.43934 24.5607C0.158035 24.2794 0 23.8978 0 23.5V15.5C0 15.1022 0.158035 14.7206 0.43934 14.4393C0.720644 14.158 1.10218 14 1.5 14C1.89782 14 2.27936 14.158 2.56066 14.4393C2.84196 14.7206 3 15.1022 3 15.5V22H22V15.5C22 15.1022 22.158 14.7206 22.4393 14.4393C22.7206 14.158 23.1022 14 23.5 14C23.8978 14 24.2794 14.158 24.5607 14.4393C24.842 14.7206 25 15.1022 25 15.5ZM11.4388 16.5613C11.5781 16.7011 11.7437 16.812 11.926 16.8878C12.1084 16.9635 12.3038 17.0024 12.5012 17.0024C12.6987 17.0024 12.8941 16.9635 13.0765 16.8878C13.2588 16.812 13.4244 16.7011 13.5637 16.5613L18.5637 11.5612C18.8455 11.2795 19.0039 10.8973 19.0039 10.4987C19.0039 10.1002 18.8455 9.71804 18.5637 9.43625C18.282 9.15446 17.8998 8.99615 17.5012 8.99615C17.1027 8.99615 16.7205 9.15446 16.4387 9.43625L14 11.875V1.5C14 1.10218 13.842 0.720644 13.5607 0.43934C13.2794 0.158035 12.8978 0 12.5 0C12.1022 0 11.7206 0.158035 11.4393 0.43934C11.158 0.720644 11 1.10218 11 1.5V11.875L8.56125 9.43875C8.42172 9.29922 8.25607 9.18854 8.07377 9.11303C7.89147 9.03751 7.69607 8.99865 7.49875 8.99865C7.10023 8.99865 6.71804 9.15696 6.43625 9.43875C6.29672 9.57828 6.18604 9.74393 6.11053 9.92623C6.03501 10.1085 5.99615 10.3039 5.99615 10.5013C5.99615 10.8998 6.15446 11.282 6.43625 11.5638L11.4388 16.5613Z" fill="white" fill-opacity="0.95"/>
</g>
</svg>
