<svg width="24" height="24" viewBox="0 0 24 24" fill="none" xmlns="http://www.w3.org/2000/svg">
<path d="M19.547 18.0456C19.4546 18.1379 19.3813 18.2475 19.3313 18.3682C19.2813 18.4888 19.2555 18.6181 19.2555 18.7487C19.2555 18.8793 19.2813 19.0087 19.3313 19.1293C19.3813 19.25 19.4546 19.3596 19.547 19.4519C19.7584 19.6632 19.8771 19.9499 19.8771 20.2487C19.8771 20.5476 19.7584 20.8343 19.547 21.0456C19.3357 21.257 19.0491 21.3757 18.7502 21.3757C18.4513 21.3757 18.1646 21.257 17.9533 21.0456C17.6513 20.7442 17.4118 20.3861 17.2484 19.992C17.0849 19.5979 17.0008 19.1754 17.0008 18.7487C17.0008 18.3221 17.0849 17.8996 17.2484 17.5055C17.4118 17.1113 17.6513 16.7533 17.9533 16.4519L18.8317 15.5734C18.9983 15.3832 19.0863 15.1367 19.0779 14.884C19.0695 14.6312 18.9654 14.3912 18.7865 14.2124C18.6077 14.0336 18.3677 13.9294 18.1149 13.921C17.8622 13.9126 17.6157 14.0006 17.4255 14.1672L11.1667 20.425C10.5576 21.0342 9.73135 21.3764 8.86985 21.3764C8.00836 21.3764 7.18215 21.0342 6.57298 20.425C5.96381 19.8158 5.62158 18.9896 5.62158 18.1281C5.62158 17.2666 5.96381 16.4404 6.57298 15.8312L15.8317 6.57343C15.9983 6.38316 16.0863 6.1367 16.0779 5.88397C16.0695 5.63125 15.9654 5.39116 15.7865 5.21236C15.6077 5.03355 15.3677 4.92941 15.1149 4.92102C14.8622 4.91263 14.6157 5.00063 14.4255 5.16718L8.16673 11.4241C7.55756 12.0332 6.73135 12.3754 5.86985 12.3754C5.00836 12.3754 4.18215 12.0332 3.57298 11.4241C2.96381 10.8149 2.62158 9.98867 2.62158 9.12718C2.62158 8.26568 2.96381 7.43947 3.57298 6.8303L7.45423 2.95374C7.66557 2.7424 7.95222 2.62366 8.2511 2.62366C8.54999 2.62366 8.83663 2.7424 9.04798 2.95374C9.25932 3.16508 9.37805 3.45173 9.37805 3.75062C9.37805 4.0495 9.25932 4.33615 9.04798 4.54749L5.16579 8.42405C4.99924 8.61432 4.91124 8.86078 4.91963 9.11351C4.92802 9.36624 5.03217 9.60632 5.21097 9.78512C5.38977 9.96393 5.62986 10.0681 5.88258 10.0765C6.13531 10.0849 6.38177 9.99685 6.57204 9.8303L12.8308 3.57249C13.44 2.96332 14.2662 2.62109 15.1277 2.62109C15.9892 2.62109 16.8154 2.96332 17.4245 3.57249C18.0337 4.18166 18.3759 5.00787 18.3759 5.86937C18.3759 6.73086 18.0337 7.55707 17.4245 8.16624L8.16673 17.4241C8.00018 17.6143 7.91218 17.8608 7.92057 18.1135C7.92896 18.3662 8.0331 18.6063 8.21191 18.7851C8.39071 18.9639 8.6308 19.0681 8.88352 19.0765C9.13625 19.0849 9.38271 18.9969 9.57298 18.8303L15.8308 12.5725C16.1324 12.2709 16.4905 12.0316 16.8846 11.8684C17.2787 11.7051 17.7011 11.6211 18.1277 11.6211C18.5542 11.6211 18.9766 11.7051 19.3707 11.8684C19.7648 12.0316 20.1229 12.2709 20.4245 12.5725C20.7262 12.8741 20.9654 13.2322 21.1287 13.6263C21.2919 14.0204 21.3759 14.4428 21.3759 14.8694C21.3759 15.2959 21.2919 15.7183 21.1287 16.1124C20.9654 16.5065 20.7262 16.8646 20.4245 17.1662L19.547 18.0456Z" fill="#27C58B"/>
</svg>
