<svg width="32" height="32" viewBox="0 0 32 32" fill="none" xmlns="http://www.w3.org/2000/svg">
<g transform="translate(2.5000, 5.5000)">
<path id="Vector" d="M25.5 0H1.5C1.10218 0 0.720644 0.158035 0.43934 0.43934C0.158035 0.720644 0 1.10218 0 1.5V18.5C0 19.163 0.263392 19.7989 0.732233 20.2678C1.20107 20.7366 1.83696 21 2.5 21H24.5C25.163 21 25.7989 20.7366 26.2678 20.2678C26.7366 19.7989 27 19.163 27 18.5V1.5C27 1.10218 26.842 0.720644 26.5607 0.43934C26.2794 0.158035 25.8978 0 25.5 0ZM13.5 10.465L5.35625 3H21.6437L13.5 10.465ZM9.09875 10.5L3 16.09V4.91L9.09875 10.5ZM11.3188 12.535L12.4862 13.6063C12.7629 13.8599 13.1246 14.0007 13.5 14.0007C13.8754 14.0007 14.2371 13.8599 14.5138 13.6063L15.6812 12.535L21.6437 18H5.35625L11.3188 12.535ZM17.9013 10.5L24 4.91V16.09L17.9013 10.5Z" fill="white" fill-opacity="0.95"/>
</g>
</svg>
