<svg width="32" height="32" viewBox="0 0 32 32" fill="none" xmlns="http://www.w3.org/2000/svg">
<g transform="translate(2.5000, 5.0000)">
<path id="Union" d="M22.5 13C22.8978 13 23.2792 13.1581 23.5605 13.4395C23.8419 13.7208 24 14.1022 24 14.5V16H25.5C25.8978 16 26.2792 16.1581 26.5605 16.4395C26.8419 16.7208 27 17.1022 27 17.5C27 17.8978 26.8419 18.2792 26.5605 18.5605C26.2792 18.8419 25.8978 19 25.5 19H24V20.5C24 20.8978 23.8419 21.2792 23.5605 21.5605C23.2792 21.8419 22.8978 22 22.5 22C22.1022 22 21.7208 21.8419 21.4395 21.5605C21.1581 21.2792 21 20.8978 21 20.5V19H19.5C19.1022 19 18.7208 18.8419 18.4395 18.5605C18.1581 18.2792 18 17.8978 18 17.5C18 17.1022 18.1581 16.7208 18.4395 16.4395C18.7208 16.1581 19.1022 16 19.5 16H21V14.5C21 14.1022 21.1581 13.7208 21.4395 13.4395C21.7208 13.1581 22.1022 13 22.5 13ZM22 0C23.1046 0 24 0.895428 24 2V9.5C24 10.3284 23.3284 11 22.5 11C21.6716 11 21 10.3284 21 9.5V4.49707L13.3379 11.3936C12.5773 12.078 11.4227 12.0781 10.6621 11.3936L3 4.49707V16H14.5C15.3284 16 16 16.6716 16 17.5C16 18.3284 15.3284 19 14.5 19H2C0.895432 19 0 18.1046 0 17V2C0 0.89543 0.895431 0 2 0H22ZM12 8.56152L18.0918 3.08008H5.9082L12 8.56152Z" fill="white" fill-opacity="0.95"/>
</g>
</svg>
