<svg width="32" height="32" viewBox="0 0 32 32" fill="none" xmlns="http://www.w3.org/2000/svg">
<g transform="translate(0.4975, 5.5000)">
<path id="Vector" d="M30.8784 9.89125C30.8322 9.79 29.7372 7.35875 27.3184 4.94C24.0822 1.70875 20.0034 0 15.5034 0C11.0034 0 6.92467 1.70875 3.69217 4.94C1.27342 7.35875 0.17842 9.79 0.12842 9.89125C0.0437368 10.0832 0 10.2908 0 10.5006C0 10.7105 0.0437368 10.918 0.12842 11.11C0.17467 11.2125 1.26967 13.6425 3.68967 16.0613C6.92467 19.2925 11.0034 21 15.5034 21C20.0034 21 24.0822 19.2925 27.3134 16.0613C29.7334 13.6425 30.8284 11.2125 30.8747 11.11C30.9599 10.9183 31.0043 10.7109 31.005 10.501C31.0056 10.2912 30.9625 10.0835 30.8784 9.89125ZM25.1209 14.0163C22.4372 16.6588 19.2022 18 15.5034 18C11.8047 18 8.56967 16.6587 5.88967 14.015C4.8351 12.9715 3.92797 11.7889 3.19342 10.5C3.92818 9.21158 4.8353 8.02942 5.88967 6.98625C8.57092 4.34125 11.8047 3 15.5034 3C19.2022 3 22.4359 4.34125 25.1172 6.98625C26.1716 8.02933 27.0788 9.2115 27.8134 10.5C27.0788 11.7889 26.1716 12.9714 25.1172 14.015L25.1209 14.0163ZM15.5034 5C14.4156 5 13.3523 5.32257 12.4478 5.92692C11.5433 6.53126 10.8384 7.39025 10.4221 8.39524C10.0058 9.40023 9.89688 10.5061 10.1091 11.573C10.3213 12.6399 10.8451 13.6199 11.6143 14.3891C12.3835 15.1583 13.3635 15.6821 14.4304 15.8943C15.4973 16.1065 16.6032 15.9976 17.6082 15.5813C18.6132 15.1651 19.4722 14.4601 20.0765 13.5556C20.6808 12.6512 21.0034 11.5878 21.0034 10.5C21.0018 9.04182 20.4218 7.64383 19.3907 6.61274C18.3596 5.58165 16.9616 5.00165 15.5034 5ZM15.5034 13C15.009 13 14.5256 12.8534 14.1145 12.5787C13.7034 12.304 13.3829 11.9135 13.1937 11.4567C13.0045 10.9999 12.955 10.4972 13.0515 10.0123C13.1479 9.52732 13.386 9.08186 13.7357 8.73223C14.0853 8.3826 14.5307 8.1445 15.0157 8.04804C15.5006 7.95157 16.0033 8.00108 16.4601 8.1903C16.9169 8.37952 17.3074 8.69995 17.5821 9.11107C17.8568 9.5222 18.0034 10.0055 18.0034 10.5C18.0034 11.163 17.74 11.7989 17.2712 12.2678C16.8023 12.7366 16.1665 13 15.5034 13Z" fill="white" fill-opacity="0.95"/>
</g>
</svg>
