<svg width="32" height="32" viewBox="0 0 32 32" fill="none" xmlns="http://www.w3.org/2000/svg">
<g transform="translate(0.4975, 3.4981)">
<path id="Vector" d="M6.61342 0.50456C6.48169 0.356072 6.3218 0.235205 6.14302 0.148966C5.96424 0.0627267 5.77012 0.0128293 5.57191 0.00216605C5.3737 -0.00849723 5.17534 0.0202856 4.98834 0.0868464C4.80133 0.153407 4.6294 0.256422 4.4825 0.38992C4.3356 0.523419 4.21666 0.684745 4.13257 0.86455C4.04848 1.04435 4.00092 1.23906 3.99263 1.43738C3.98435 1.63571 4.01551 1.8337 4.0843 2.01989C4.1531 2.20609 4.25817 2.37677 4.39342 2.52206L6.39342 4.72831C2.08717 7.59581 0.21842 11.7108 0.12842 11.9046C0.0437368 12.0966 0 12.3041 0 12.5139C0 12.7238 0.0437368 12.9313 0.12842 13.1233C0.17467 13.2258 1.26967 15.6558 3.68967 18.0746C6.92467 21.3058 11.0034 23.0133 15.5034 23.0133C17.6905 23.0254 19.8579 22.6004 21.8784 21.7633L24.3897 24.5258C24.6586 24.8147 25.0306 24.986 25.425 25.0024C25.8193 25.0189 26.2043 24.8793 26.4964 24.6138C26.7885 24.3484 26.9642 23.9785 26.9854 23.5843C27.0066 23.1902 26.8716 22.8036 26.6097 22.5083L6.61342 0.50456ZM15.5034 20.0133C11.8047 20.0133 8.56967 18.6721 5.88967 16.0283C4.83549 14.9845 3.9284 13.802 3.19342 12.5133C3.85217 11.3496 5.54217 8.77581 8.44342 6.97706L19.7047 19.3658C18.3466 19.7995 16.929 20.0179 15.5034 20.0133ZM30.8784 13.1233C30.8334 13.2246 29.7534 15.6233 27.3784 18.0183C27.2424 18.1693 27.0772 18.291 26.8927 18.3762C26.7082 18.4614 26.5084 18.5082 26.3052 18.5137C26.1021 18.5193 25.9 18.4836 25.7111 18.4087C25.5222 18.3338 25.3505 18.2214 25.2064 18.0781C25.0623 17.9349 24.9489 17.7638 24.8729 17.5754C24.7969 17.3869 24.7599 17.185 24.7643 16.9819C24.7687 16.7787 24.8143 16.5786 24.8984 16.3936C24.9825 16.2087 25.1033 16.0427 25.2534 15.9058C26.2511 14.8915 27.1117 13.751 27.8134 12.5133C27.0789 11.2244 26.1717 10.0418 25.1172 8.99831C22.4359 6.35456 19.2022 5.01331 15.5034 5.01331C15.0847 5.01331 14.6659 5.03081 14.2534 5.06581C14.0546 5.08711 13.8536 5.06845 13.6621 5.01094C13.4707 4.95343 13.2926 4.85822 13.1385 4.73092C12.9843 4.60361 12.8572 4.44678 12.7645 4.26963C12.6718 4.09249 12.6155 3.8986 12.5989 3.69938C12.5822 3.50015 12.6055 3.29961 12.6675 3.10953C12.7294 2.91945 12.8287 2.74367 12.9596 2.59253C13.0905 2.44138 13.2502 2.31792 13.4295 2.2294C13.6087 2.14088 13.8039 2.08908 14.0034 2.07706C14.4947 2.03456 15.0034 2.01331 15.5034 2.01331C20.0034 2.01331 24.0822 3.72206 27.3147 6.95331C29.7334 9.37206 30.8284 11.8033 30.8747 11.9046C30.9599 12.0963 31.0043 12.3037 31.005 12.5135C31.0056 12.7234 30.9625 12.9311 30.8784 13.1233Z" fill="white" fill-opacity="0.95"/>
</g>
</svg>
