<svg width="32" height="32" viewBox="0 0 32 32" fill="none" xmlns="http://www.w3.org/2000/svg">
<g transform="translate(2.5000, 3.5000)">
<path id="Vector" d="M15 12V23.5C15 23.8978 14.842 24.2794 14.5607 24.5607C14.2794 24.842 13.8978 25 13.5 25C13.1022 25 12.7206 24.842 12.4393 24.5607C12.158 24.2794 12 23.8978 12 23.5V12C12 11.6022 12.158 11.2206 12.4393 10.9393C12.7206 10.658 13.1022 10.5 13.5 10.5C13.8978 10.5 14.2794 10.658 14.5607 10.9393C14.842 11.2206 15 11.6022 15 12ZM22.5 20.5C22.1022 20.5 21.7206 20.658 21.4393 20.9393C21.158 21.2206 21 21.6022 21 22V23.5C21 23.8978 21.158 24.2794 21.4393 24.5607C21.7206 24.842 22.1022 25 22.5 25C22.8978 25 23.2794 24.842 23.5607 24.5607C23.842 24.2794 24 23.8978 24 23.5V22C24 21.6022 23.842 21.2206 23.5607 20.9393C23.2794 20.658 22.8978 20.5 22.5 20.5ZM25.5 15.5H24V1.5C24 1.10218 23.842 0.720644 23.5607 0.43934C23.2794 0.158035 22.8978 0 22.5 0C22.1022 0 21.7206 0.158035 21.4393 0.43934C21.158 0.720644 21 1.10218 21 1.5V15.5H19.5C19.1022 15.5 18.7206 15.658 18.4393 15.9393C18.158 16.2206 18 16.6022 18 17C18 17.3978 18.158 17.7794 18.4393 18.0607C18.7206 18.342 19.1022 18.5 19.5 18.5H25.5C25.8978 18.5 26.2794 18.342 26.5607 18.0607C26.842 17.7794 27 17.3978 27 17C27 16.6022 26.842 16.2206 26.5607 15.9393C26.2794 15.658 25.8978 15.5 25.5 15.5ZM4.5 16.5C4.10218 16.5 3.72064 16.658 3.43934 16.9393C3.15804 17.2206 3 17.6022 3 18V23.5C3 23.8978 3.15804 24.2794 3.43934 24.5607C3.72064 24.842 4.10218 25 4.5 25C4.89782 25 5.27936 24.842 5.56066 24.5607C5.84196 24.2794 6 23.8978 6 23.5V18C6 17.6022 5.84196 17.2206 5.56066 16.9393C5.27936 16.658 4.89782 16.5 4.5 16.5ZM7.5 11.5H6V1.5C6 1.10218 5.84196 0.720644 5.56066 0.43934C5.27936 0.158035 4.89782 0 4.5 0C4.10218 0 3.72064 0.158035 3.43934 0.43934C3.15804 0.720644 3 1.10218 3 1.5V11.5H1.5C1.10218 11.5 0.720644 11.658 0.43934 11.9393C0.158035 12.2206 0 12.6022 0 13C0 13.3978 0.158035 13.7794 0.43934 14.0607C0.720644 14.342 1.10218 14.5 1.5 14.5H7.5C7.89782 14.5 8.27936 14.342 8.56066 14.0607C8.84196 13.7794 9 13.3978 9 13C9 12.6022 8.84196 12.2206 8.56066 11.9393C8.27936 11.658 7.89782 11.5 7.5 11.5ZM16.5 5.5H15V1.5C15 1.10218 14.842 0.720644 14.5607 0.43934C14.2794 0.158035 13.8978 0 13.5 0C13.1022 0 12.7206 0.158035 12.4393 0.43934C12.158 0.720644 12 1.10218 12 1.5V5.5H10.5C10.1022 5.5 9.72064 5.65804 9.43934 5.93934C9.15804 6.22064 9 6.60218 9 7C9 7.39782 9.15804 7.77936 9.43934 8.06066C9.72064 8.34196 10.1022 8.5 10.5 8.5H16.5C16.8978 8.5 17.2794 8.34196 17.5607 8.06066C17.842 7.77936 18 7.39782 18 7C18 6.60218 17.842 6.22064 17.5607 5.93934C17.2794 5.65804 16.8978 5.5 16.5 5.5Z" fill="white" fill-opacity="0.95"/>
</g>
</svg>
