<svg width="32" height="32" viewBox="0 0 32 32" fill="none" xmlns="http://www.w3.org/2000/svg">
<g transform="translate(3.5000, 5.5000)">
<path id="Vector" d="M18.5 4.5C18.5 4.10218 18.658 3.72064 18.9393 3.43934C19.2206 3.15804 19.6022 3 20 3H23.5C23.8978 3 24.2794 3.15804 24.5607 3.43934C24.842 3.72064 25 4.10218 25 4.5C25 4.89782 24.842 5.27936 24.5607 5.56066C24.2794 5.84196 23.8978 6 23.5 6H20C19.6022 6 19.2206 5.84196 18.9393 5.56066C18.658 5.27936 18.5 4.89782 18.5 4.5ZM1.5 6H13.5V7.5C13.5 7.89782 13.658 8.27936 13.9393 8.56066C14.2206 8.84196 14.6022 9 15 9C15.3978 9 15.7794 8.84196 16.0607 8.56066C16.342 8.27936 16.5 7.89782 16.5 7.5V1.5C16.5 1.10218 16.342 0.720644 16.0607 0.43934C15.7794 0.158035 15.3978 0 15 0C14.6022 0 14.2206 0.158035 13.9393 0.43934C13.658 0.720644 13.5 1.10218 13.5 1.5V3H1.5C1.10218 3 0.720644 3.15804 0.43934 3.43934C0.158035 3.72064 0 4.10218 0 4.5C0 4.89782 0.158035 5.27936 0.43934 5.56066C0.720644 5.84196 1.10218 6 1.5 6ZM23.5 15H12C11.6022 15 11.2206 15.158 10.9393 15.4393C10.658 15.7206 10.5 16.1022 10.5 16.5C10.5 16.8978 10.658 17.2794 10.9393 17.5607C11.2206 17.842 11.6022 18 12 18H23.5C23.8978 18 24.2794 17.842 24.5607 17.5607C24.842 17.2794 25 16.8978 25 16.5C25 16.1022 24.842 15.7206 24.5607 15.4393C24.2794 15.158 23.8978 15 23.5 15ZM7 12C6.60218 12 6.22064 12.158 5.93934 12.4393C5.65804 12.7206 5.5 13.1022 5.5 13.5V15H1.5C1.10218 15 0.720644 15.158 0.43934 15.4393C0.158035 15.7206 0 16.1022 0 16.5C0 16.8978 0.158035 17.2794 0.43934 17.5607C0.720644 17.842 1.10218 18 1.5 18H5.5V19.5C5.5 19.8978 5.65804 20.2794 5.93934 20.5607C6.22064 20.842 6.60218 21 7 21C7.39782 21 7.77936 20.842 8.06066 20.5607C8.34196 20.2794 8.5 19.8978 8.5 19.5V13.5C8.5 13.1022 8.34196 12.7206 8.06066 12.4393C7.77936 12.158 7.39782 12 7 12Z" fill="white" fill-opacity="0.95"/>
</g>
</svg>
