<svg width="32" height="32" viewBox="0 0 32 32" fill="none" xmlns="http://www.w3.org/2000/svg">
<g transform="translate(2.9998, 3.5007)">
<path id="Vector" d="M24.5004 9.99869H14.1154L23.8829 7.41994C24.0742 7.36947 24.2538 7.28162 24.411 7.16145C24.5683 7.04129 24.7002 6.89119 24.7992 6.7198C24.8982 6.54841 24.9623 6.35912 24.9878 6.16285C25.0134 5.96657 24.9998 5.76719 24.9479 5.57619L23.9279 1.82619C23.7526 1.19449 23.3356 0.65726 22.767 0.330878C22.1985 0.00449535 21.5242 -0.0847623 20.8904 0.0824389L1.84912 5.10744C1.53188 5.19009 1.2343 5.33513 0.973746 5.53409C0.713195 5.73304 0.494901 5.98192 0.331615 6.26619C0.168021 6.54668 0.0621792 6.85706 0.0203187 7.17906C-0.0215418 7.50107 0.00142421 7.82819 0.0878655 8.14119L1.00037 11.4987V22.4987C1.00037 23.1617 1.26376 23.7976 1.7326 24.2665C2.20144 24.7353 2.83732 24.9987 3.50037 24.9987H23.5004C24.1634 24.9987 24.7993 24.7353 25.2681 24.2665C25.737 23.7976 26.0004 23.1617 26.0004 22.4987V11.4987C26.0004 11.1009 25.8423 10.7193 25.561 10.438C25.2797 10.1567 24.8982 9.99869 24.5004 9.99869ZM13.1116 5.23744L15.3979 6.55744L12.1541 7.41369L9.86787 6.09369L13.1116 5.23744ZM21.1679 3.11244L21.6566 4.90619L19.5154 5.47119L17.2291 4.14994L21.1679 3.11244ZM5.75037 7.18119L8.03662 8.49869L3.61162 9.66744L3.12537 7.87369L5.75037 7.18119ZM23.0004 21.9987H4.00037V12.9987H23.0004V21.9987Z" fill="white" fill-opacity="0.95"/>
</g>
</svg>
