<svg width="32" height="32" viewBox="0 0 32 32" fill="none" xmlns="http://www.w3.org/2000/svg">
<g transform="translate(1.6388, 1.9983)">
<path id="Vector" d="M18.7224 14C18.7219 18.6012 17.5899 23.1318 15.4261 27.1925C15.3348 27.369 15.2093 27.5257 15.057 27.6533C14.9046 27.7809 14.7284 27.877 14.5387 27.9359C14.3489 27.9949 14.1492 28.0155 13.9514 27.9967C13.7535 27.9778 13.5614 27.9198 13.3862 27.8261C13.2109 27.7323 13.0561 27.6047 12.9306 27.4506C12.8051 27.2965 12.7115 27.1189 12.6552 26.9283C12.5989 26.7377 12.581 26.5378 12.6026 26.3403C12.6243 26.1427 12.6849 25.9514 12.7811 25.7775C14.7126 22.1523 15.7227 18.1076 15.7224 14C15.7224 13.7348 15.617 13.4804 15.4295 13.2929C15.2419 13.1054 14.9876 13 14.7224 13C14.4571 13 14.2028 13.1054 14.0152 13.2929C13.8277 13.4804 13.7224 13.7348 13.7224 14C13.7224 14.3978 13.5643 14.7794 13.283 15.0607C13.0017 15.342 12.6202 15.5 12.2224 15.5C11.8245 15.5 11.443 15.342 11.1617 15.0607C10.8804 14.7794 10.7224 14.3978 10.7224 14C10.7224 12.9391 11.1438 11.9217 11.8939 11.1716C12.6441 10.4214 13.6615 10 14.7224 10C15.7832 10 16.8006 10.4214 17.5508 11.1716C18.3009 11.9217 18.7224 12.9391 18.7224 14ZM14.7224 5C14.3245 5 13.943 5.15803 13.6617 5.43934C13.3804 5.72064 13.2224 6.10217 13.2224 6.5C13.2224 6.89782 13.3804 7.27936 13.6617 7.56066C13.943 7.84196 14.3245 8 14.7224 8C16.3131 8.00165 17.8383 8.63433 18.9632 9.75919C20.088 10.884 20.7207 12.4092 20.7224 14C20.7224 14.9525 20.6774 15.915 20.5886 16.8587C20.5691 17.0553 20.5887 17.2538 20.6461 17.4428C20.7035 17.6318 20.7977 17.8076 20.9233 17.9601C21.0488 18.1126 21.2033 18.2388 21.3777 18.3314C21.5522 18.4241 21.7432 18.4814 21.9399 18.5C21.9874 18.5 22.0349 18.5 22.0824 18.5C22.4554 18.4995 22.8148 18.36 23.0905 18.1088C23.3663 17.8575 23.5385 17.5126 23.5736 17.1412C23.6724 16.1037 23.7211 15.0462 23.7211 14C23.7185 11.6141 22.7696 9.32662 21.0826 7.6394C19.3956 5.95218 17.1083 5.00298 14.7224 5ZM10.7224 9.52875C11.0083 9.2608 11.178 8.8916 11.1952 8.50014C11.2124 8.10868 11.0757 7.72602 10.8144 7.43402C10.5531 7.14203 10.1879 6.96386 9.79696 6.93765C9.406 6.91144 9.0203 7.03925 8.72236 7.29375C7.77939 8.13821 7.0249 9.17184 6.508 10.3273C5.99111 11.4828 5.72342 12.7342 5.72236 14C5.723 16.5532 5.0725 19.0644 3.83236 21.2962C3.63858 21.6443 3.59103 22.0552 3.70015 22.4383C3.80927 22.8215 4.06613 23.1456 4.41423 23.3394C4.76233 23.5331 5.17314 23.5807 5.5563 23.4716C5.93946 23.3625 6.26358 23.1056 6.45736 22.7575C7.94478 20.0784 8.72434 17.0643 8.72236 14C8.72311 13.1561 8.90159 12.3218 9.24618 11.5514C9.59077 10.781 10.0937 10.0918 10.7224 9.52875ZM11.9849 17.5412C11.7931 17.4955 11.5943 17.488 11.3996 17.5192C11.205 17.5503 11.0184 17.6196 10.8505 17.7229C10.6827 17.8262 10.5368 17.9616 10.4213 18.1213C10.3058 18.281 10.2229 18.462 10.1774 18.6537C9.69614 20.6765 8.89974 22.611 7.81736 24.3862C7.61049 24.7261 7.54708 25.1341 7.64108 25.5207C7.73508 25.9072 7.9788 26.2406 8.31861 26.4475C8.65841 26.6544 9.06648 26.7178 9.45304 26.6238C9.8396 26.5298 10.173 26.2861 10.3799 25.9462C11.6255 23.9029 12.5425 21.6766 13.0974 19.3487C13.1431 19.157 13.1506 18.9581 13.1194 18.7635C13.0883 18.5689 13.019 18.3823 12.9157 18.2144C12.8124 18.0466 12.677 17.9007 12.5173 17.7852C12.3576 17.6697 12.1766 17.5868 11.9849 17.5412ZM21.5761 20.55C21.3854 20.5003 21.1867 20.4887 20.9915 20.5159C20.7962 20.543 20.6083 20.6084 20.4383 20.7082C20.2684 20.8081 20.1197 20.9404 20.001 21.0977C19.8822 21.255 19.7956 21.4342 19.7461 21.625C19.4691 22.6785 19.1353 23.7163 18.7461 24.7337C18.6041 25.1051 18.6153 25.5176 18.7773 25.8806C18.9392 26.2437 19.2387 26.5276 19.6099 26.67C19.7808 26.7365 19.9627 26.7704 20.1461 26.77C20.4498 26.7701 20.7463 26.678 20.9965 26.5059C21.2467 26.3338 21.4388 26.0898 21.5474 25.8062C21.9764 24.6869 22.3432 23.5448 22.6461 22.385C22.6966 22.1942 22.709 21.9954 22.6825 21.7999C22.6561 21.6043 22.5913 21.4159 22.4919 21.2455C22.3925 21.075 22.2604 20.9258 22.1033 20.8065C21.9461 20.6872 21.767 20.6 21.5761 20.55ZM14.7224 0C11.0226 0.00389172 7.47452 1.47054 4.85186 4.08008C2.22921 6.68963 0.744793 10.2303 0.722356 13.93C0.722356 13.9537 0.722356 13.9775 0.722356 14.0012C0.722584 15.1884 0.510932 16.366 0.0973561 17.4787C0.0272373 17.6638 -0.00558623 17.8608 0.000775673 18.0586C0.00713758 18.2563 0.0525592 18.4509 0.134425 18.631C0.21629 18.8111 0.332982 18.9733 0.47778 19.1081C0.622577 19.2429 0.792619 19.3478 0.978112 19.4166C1.16361 19.4855 1.36089 19.5169 1.55859 19.5092C1.75629 19.5015 1.95052 19.4547 2.13007 19.3716C2.30962 19.2885 2.47096 19.1707 2.60479 19.025C2.73862 18.8792 2.8423 18.7085 2.90986 18.5225C3.4397 17.0983 3.71472 15.592 3.72236 14.0725C3.72236 14.0487 3.72236 14.025 3.72236 14.0012C3.71407 11.0839 4.86504 8.28268 6.92208 6.21392C8.97912 4.14516 11.7737 2.97829 14.6911 2.97C17.6085 2.96171 20.4097 4.11269 22.4784 6.16973C24.5472 8.22677 25.7141 11.0214 25.7224 13.9387C25.7224 13.9587 25.7224 13.98 25.7224 14.0012C25.7231 16.5819 25.4406 19.1548 24.8799 21.6737C24.793 22.062 24.8639 22.4688 25.077 22.8047C25.2901 23.1406 25.6279 23.3781 26.0161 23.465C26.1249 23.4891 26.236 23.5008 26.3474 23.5C26.688 23.4997 27.0185 23.3834 27.2843 23.1703C27.5501 22.9572 27.7355 22.66 27.8099 22.3275C28.4131 19.6159 28.7191 16.8466 28.7224 14.0687C28.7224 14.0462 28.7224 14.0237 28.7224 14.0012C28.7184 10.2893 27.2422 6.73054 24.6175 4.1057C21.9929 1.48085 18.4343 0.00430137 14.7224 0Z" fill="white" fill-opacity="0.95"/>
</g>
</svg>
