<svg width="32" height="32" viewBox="0 0 32 32" fill="none" xmlns="http://www.w3.org/2000/svg">
<g transform="translate(3.5000, 3.0003)">
<path id="Vector" d="M0.517514 2.35936C0.354234 2.5009 0.223461 2.67603 0.134143 2.87279C0.0448249 3.06955 -0.000928461 3.28328 1.42778e-05 3.49936V24.4994C1.42778e-05 24.8972 0.158049 25.2787 0.439354 25.56C0.720658 25.8413 1.10219 25.9994 1.50001 25.9994C1.89784 25.9994 2.27937 25.8413 2.56067 25.56C2.84198 25.2787 3.00001 24.8972 3.00001 24.4994V19.2144C5.85501 17.0744 8.26251 18.0744 11.835 19.8394C13.8638 20.8394 16.1775 21.9894 18.685 21.9894C20.525 21.9894 22.47 21.3719 24.4825 19.6294C24.6445 19.4889 24.7745 19.3154 24.8638 19.1205C24.9531 18.9256 24.9995 18.7138 25 18.4994V3.49936C25.0001 3.21176 24.9174 2.9302 24.762 2.68823C24.6065 2.44627 24.3848 2.25409 24.1231 2.13462C23.8615 2.01514 23.5711 1.97339 23.2864 2.01434C23.0017 2.0553 22.7348 2.17723 22.5175 2.36561C19.4288 5.04186 16.9513 4.02936 13.165 2.15561C9.64877 0.408114 5.27126 -1.75814 0.517514 2.35936ZM22 17.7819C19.145 19.9231 16.7375 18.9206 13.165 17.1569C10.27 15.7194 6.79126 13.9994 3.00001 15.7331V4.21061C5.85501 2.07061 8.26251 3.07061 11.835 4.83561C13.8638 5.83561 16.1775 6.98561 18.685 6.98561C19.8297 6.98733 20.9609 6.73949 22 6.25936V17.7819Z" fill="white" fill-opacity="0.95"/>
</g>
</svg>
