<svg width="32" height="32" viewBox="0 0 32 32" fill="none" xmlns="http://www.w3.org/2000/svg">
<path d="M7.10989 3.99122C6.97816 3.84273 6.81827 3.72187 6.63949 3.63563C6.46071 3.54939 6.26658 3.49949 6.06837 3.48883C5.87016 3.47816 5.67181 3.50695 5.48481 3.57351C5.2978 3.64007 5.12587 3.74308 4.97897 3.87658C4.83207 4.01008 4.71313 4.17141 4.62904 4.35121C4.54495 4.53102 4.49739 4.72572 4.4891 4.92404C4.48081 5.12237 4.51197 5.32036 4.58077 5.50656C4.64957 5.69275 4.75464 5.86343 4.88989 6.00872L9.48739 11.065L4.90364 15.9762C4.73722 16.1544 4.61676 16.3705 4.55269 16.6058C4.48862 16.8411 4.48287 17.0884 4.53593 17.3264C4.589 17.5644 4.69928 17.7859 4.85723 17.9716C5.01517 18.1574 5.21603 18.3018 5.44239 18.3925L11.8399 20.9512L10.5161 29.7775C10.4675 30.0944 10.5218 30.4186 10.6709 30.7024C10.8201 30.9863 11.0562 31.2149 11.3448 31.3547C11.6333 31.4945 11.9591 31.5382 12.2743 31.4793C12.5895 31.4204 12.8775 31.262 13.0961 31.0275L20.4586 23.1387L24.8899 28.0137C25.1588 28.3026 25.5308 28.4739 25.9252 28.4904C26.3195 28.5068 26.7045 28.3672 26.9966 28.1017C27.2887 27.8363 27.4644 27.4664 27.4856 27.0722C27.5068 26.6781 27.3718 26.2915 27.1099 25.9962L7.10989 3.99122ZM14.1999 25.4437L14.9836 20.2225C15.0337 19.8883 14.9695 19.547 14.8014 19.2539C14.6333 18.9608 14.3711 18.733 14.0574 18.6075L8.59239 16.4212L11.5111 13.2962L18.4336 20.9112L14.1999 25.4437ZM13.9261 8.50747C13.7814 8.37303 13.6646 8.21132 13.5825 8.03161C13.5004 7.85191 13.4546 7.65775 13.4477 7.4603C13.4409 7.26284 13.4731 7.06598 13.5425 6.88101C13.612 6.69605 13.7173 6.52662 13.8524 6.38247L18.9036 0.976221C19.1223 0.741652 19.4103 0.58331 19.7255 0.524419C20.0407 0.465528 20.3664 0.509188 20.655 0.648995C20.9436 0.788802 21.1797 1.0174 21.3288 1.30125C21.478 1.58511 21.5322 1.90928 21.4836 2.22622L20.1599 11.0487L26.5574 13.6075C26.7838 13.6981 26.9846 13.8426 27.1426 14.0283C27.3005 14.2141 27.4108 14.4356 27.4638 14.6735C27.5169 14.9115 27.5112 15.1589 27.4471 15.3941C27.383 15.6294 27.2626 15.8455 27.0961 16.0237L24.9936 18.2737C24.7221 18.5646 24.3462 18.7358 23.9485 18.7495C23.5508 18.7632 23.1639 18.6184 22.873 18.3468C22.5821 18.0753 22.411 17.6994 22.3973 17.3017C22.3835 16.904 22.5284 16.5171 22.7999 16.2262L23.4074 15.575L17.9424 13.3887C17.6287 13.2632 17.3665 13.0354 17.1984 12.7423C17.0303 12.4492 16.9661 12.1079 17.0161 11.7737L17.7999 6.55247L16.0499 8.42747C15.9159 8.5725 15.7546 8.68964 15.5752 8.77218C15.3958 8.85472 15.2019 8.90104 15.0046 8.90847C14.8073 8.9159 14.6105 8.88431 14.4254 8.81549C14.2403 8.74668 14.0707 8.642 13.9261 8.50747Z" fill="white"/>
</svg>
