<svg width="32" height="32" viewBox="0 0 32 32" fill="none" xmlns="http://www.w3.org/2000/svg">
<g transform="translate(1.4992, 5.0000)">
<path id="Vector" d="M28.5288 8.53875C28.2971 8.21721 27.9924 7.95533 27.6396 7.77473C27.2869 7.59412 26.8963 7.49996 26.5 7.5H25V5.5C25 4.83696 24.7366 4.20107 24.2678 3.73223C23.7989 3.26339 23.163 3 22.5 3H14L10.6675 0.5C10.2343 0.176409 9.70825 0.0010747 9.1675 0H2.5C1.83696 0 1.20107 0.263392 0.732233 0.732233C0.263392 1.20107 0 1.83696 0 2.5V20.5C0 20.8978 0.158035 21.2794 0.43934 21.5607C0.720645 21.842 1.10218 22 1.5 22H23.8875C24.198 22.0004 24.5011 21.9045 24.7547 21.7253C25.0084 21.5462 25.2002 21.2928 25.3038 21L28.865 10.8162L28.8725 10.795C28.9984 10.4186 29.0329 10.0177 28.9731 9.62536C28.9133 9.23302 28.761 8.86055 28.5288 8.53875ZM9 3L12.6 5.7C12.8596 5.89473 13.1754 6 13.5 6H22V7.5H6.22125C5.69873 7.50004 5.18935 7.66381 4.7647 7.96828C4.34005 8.27275 4.02148 8.70263 3.85375 9.1975L3 11.6437V3H9ZM22.8238 19H3.61125L6.57625 10.5H25.7963L22.8238 19Z" fill="white" fill-opacity="0.95"/>
</g>
</svg>
