<svg width="32" height="32" viewBox="0 0 32 32" fill="none" xmlns="http://www.w3.org/2000/svg">
<g transform="translate(1.5000, 8.5000)">
<path id="Vector" d="M24 7.5C24 7.89782 23.842 8.27935 23.5607 8.56066C23.2794 8.84196 22.8978 9 22.5 9H6.5C6.10218 9 5.72064 8.84196 5.43934 8.56066C5.15804 8.27935 5 7.89782 5 7.5C5 7.10218 5.15804 6.72064 5.43934 6.43934C5.72064 6.15804 6.10218 6 6.5 6H22.5C22.8978 6 23.2794 6.15804 23.5607 6.43934C23.842 6.72064 24 7.10218 24 7.5ZM27.5 0H1.5C1.10218 1.18561e-08 0.720644 0.158035 0.43934 0.43934C0.158035 0.720644 0 1.10218 0 1.5C0 1.89782 0.158035 2.27936 0.43934 2.56066C0.720644 2.84196 1.10218 3 1.5 3H27.5C27.8978 3 28.2794 2.84196 28.5607 2.56066C28.842 2.27936 29 1.89782 29 1.5C29 1.10218 28.842 0.720644 28.5607 0.43934C28.2794 0.158035 27.8978 1.18561e-08 27.5 0ZM17.5 12H11.5C11.1022 12 10.7206 12.158 10.4393 12.4393C10.158 12.7206 10 13.1022 10 13.5C10 13.8978 10.158 14.2794 10.4393 14.5607C10.7206 14.842 11.1022 15 11.5 15H17.5C17.8978 15 18.2794 14.842 18.5607 14.5607C18.842 14.2794 19 13.8978 19 13.5C19 13.1022 18.842 12.7206 18.5607 12.4393C18.2794 12.158 17.8978 12 17.5 12Z" fill="white" fill-opacity="0.95"/>
</g>
</svg>
