<svg width="32" height="32" viewBox="0 0 32 32" fill="none" xmlns="http://www.w3.org/2000/svg">
<g transform="translate(2.4207, 2.4172)">
<path id="Vector" d="M13.5793 7.08278C12.2937 7.08278 11.037 7.464 9.96806 8.17823C8.89914 8.89246 8.06602 9.90762 7.57405 11.0953C7.08208 12.2831 6.95336 13.59 7.20416 14.8509C7.45497 16.1117 8.07403 17.2699 8.98307 18.179C9.89211 19.088 11.0503 19.7071 12.3112 19.9579C13.5721 20.2087 14.879 20.08 16.0667 19.588C17.2544 19.096 18.2696 18.2629 18.9838 17.194C19.698 16.1251 20.0793 14.8684 20.0793 13.5828C20.0773 11.8595 19.3918 10.2073 18.1733 8.98878C16.9547 7.77022 15.3026 7.08476 13.5793 7.08278ZM13.5793 17.0828C12.887 17.0828 12.2103 16.8775 11.6348 16.4929C11.0592 16.1083 10.6106 15.5617 10.3457 14.9222C10.0808 14.2826 10.0115 13.5789 10.1465 12.9C10.2816 12.221 10.6149 11.5974 11.1044 11.1079C11.5939 10.6184 12.2175 10.2851 12.8964 10.15C13.5754 10.015 14.2791 10.0843 14.9187 10.3492C15.5582 10.6141 16.1048 11.0627 16.4894 11.6383C16.874 12.2139 17.0793 12.8905 17.0793 13.5828C17.0793 14.511 16.7105 15.4013 16.0541 16.0577C15.3978 16.714 14.5075 17.0828 13.5793 17.0828ZM25.0793 13.6815V13.484L26.8293 11.2953C26.9762 11.1119 27.0779 10.8965 27.1263 10.6666C27.1748 10.4367 27.1685 10.1986 27.108 9.97153C26.7922 8.78041 26.3202 7.63631 25.7043 6.56903C25.5856 6.3655 25.4207 6.19279 25.2228 6.06488C25.025 5.93697 24.7998 5.85745 24.5655 5.83278L21.7805 5.52028L21.6418 5.38153L21.3293 2.59528C21.3044 2.36121 21.2248 2.13627 21.0969 1.93866C20.969 1.74105 20.7964 1.57632 20.593 1.45778C19.5256 0.839891 18.3811 0.366184 17.1893 0.04903C16.962 -0.0105469 16.7239 -0.0159084 16.4942 0.0333776C16.2645 0.0826635 16.0496 0.185219 15.8668 0.33278L13.678 2.08278H13.4805L11.2918 0.33278C11.1084 0.185882 10.893 0.0841228 10.6631 0.0357048C10.4332 -0.0127133 10.1951 -0.00643611 9.96802 0.0540301C8.77659 0.371794 7.63248 0.845914 6.56552 1.46403C6.36278 1.58208 6.19056 1.74603 6.0627 1.94271C5.93483 2.1394 5.85488 2.36334 5.82927 2.59653L5.51677 5.38153L5.37802 5.52028L2.59177 5.83278C2.35769 5.85764 2.13275 5.93724 1.93515 6.06515C1.73754 6.19305 1.5728 6.36566 1.45427 6.56903C0.838112 7.63666 0.366091 8.78119 0.0505153 9.97278C-0.00974447 10.1997 -0.0159156 10.4375 0.0324985 10.6672C0.0809126 10.8969 0.18256 11.112 0.329265 11.2953L2.07927 13.484V13.6815L0.329265 15.8703C0.182367 16.0537 0.0806081 16.269 0.03219 16.4989C-0.0162281 16.7289 -0.0099509 16.967 0.0505153 17.194C0.368674 18.3855 0.843215 19.5296 1.46177 20.5965C1.57969 20.7991 1.74345 20.9712 1.9399 21.0991C2.13636 21.2269 2.36004 21.307 2.59302 21.3328L5.37802 21.6428L5.51677 21.7815L5.82927 24.5703C5.85413 24.8044 5.93373 25.0293 6.06163 25.2269C6.18953 25.4245 6.36215 25.5892 6.56552 25.7078C7.63288 26.3257 8.77743 26.7994 9.96927 27.1165C10.1965 27.1761 10.4346 27.1815 10.6643 27.1322C10.894 27.0829 11.1089 26.9803 11.2918 26.8328L13.4805 25.0828H13.678L15.8668 26.8328C16.0502 26.9797 16.2655 27.0814 16.4954 27.1299C16.7254 27.1783 16.9635 27.172 17.1905 27.1115C18.3816 26.7957 19.5257 26.3237 20.593 25.7078C20.7962 25.59 20.9689 25.4262 21.0972 25.2295C21.2255 25.0328 21.3059 24.8087 21.3318 24.5753L21.6418 21.7903L21.7805 21.6515L24.5668 21.3328C24.8002 21.3069 25.0243 21.2266 25.221 21.0983C25.4177 20.9699 25.5815 20.7972 25.6993 20.594C26.3172 19.5267 26.7909 18.3821 27.108 17.1903C27.1679 16.9638 27.1738 16.7264 27.1254 16.4972C27.077 16.2679 26.9756 16.0532 26.8293 15.8703L25.0793 13.6815ZM22.0643 13.0703C22.0843 13.4117 22.0843 13.7539 22.0643 14.0953C22.0419 14.4664 22.1582 14.8325 22.3905 15.1228L23.9955 17.129C23.844 17.5775 23.6632 18.0155 23.4543 18.4403L20.9005 18.724C20.5308 18.7663 20.19 18.9445 19.9443 19.224C19.7172 19.4799 19.4751 19.722 19.2193 19.949C18.9397 20.1947 18.7615 20.5355 18.7193 20.9053L18.4368 23.4578C18.0121 23.6676 17.574 23.8492 17.1255 24.0015L15.1193 22.3953C14.853 22.1828 14.5224 22.0673 14.1818 22.0678C14.1518 22.0678 14.1218 22.0678 14.0918 22.0678C13.7504 22.0878 13.4081 22.0878 13.0668 22.0678C12.6959 22.0458 12.33 22.1615 12.0393 22.3928L10.033 23.999C9.58455 23.8475 9.14653 23.6667 8.72177 23.4578L8.43802 20.904C8.39574 20.5343 8.21753 20.1935 7.93802 19.9478C7.68219 19.7207 7.44009 19.4786 7.21302 19.2228C6.96733 18.9433 6.6265 18.7651 6.25676 18.7228L3.70427 18.4403C3.49448 18.0156 3.31284 17.5776 3.16052 17.129L4.76552 15.1228C4.99784 14.8325 5.1141 14.4664 5.09176 14.0953C5.07176 13.7539 5.07176 13.4117 5.09176 13.0703C5.1141 12.6992 4.99784 12.333 4.76552 12.0428L3.16302 10.0365C3.31452 9.58807 3.49533 9.15004 3.70427 8.72528L6.25802 8.44153C6.62775 8.39926 6.96858 8.22105 7.21427 7.94153C7.44134 7.6857 7.68344 7.44361 7.93926 7.21653C8.21878 6.97084 8.39699 6.63002 8.43927 6.26028L8.72177 3.70778C9.14646 3.49799 9.58449 3.31635 10.033 3.16403L12.0393 4.77028C12.33 5.00152 12.6959 5.11725 13.0668 5.09528C13.4081 5.07528 13.7504 5.07528 14.0918 5.09528C14.4627 5.11797 14.8289 5.00216 15.1193 4.77028L17.1255 3.16403C17.574 3.31635 18.0121 3.49799 18.4368 3.70778L18.7205 6.26153C18.7628 6.63127 18.941 6.97209 19.2205 7.21778C19.4763 7.44486 19.7184 7.68695 19.9455 7.94278C20.1912 8.2223 20.532 8.40051 20.9018 8.44278L23.4543 8.72528C23.6641 9.14998 23.8457 9.588 23.998 10.0365L22.393 12.0428C22.1598 12.3327 22.0426 12.6989 22.0643 13.0703Z" fill="white" fill-opacity="0.95"/>
</g>
</svg>
