<svg width="32" height="32" viewBox="0 0 32 32" fill="none" xmlns="http://www.w3.org/2000/svg">
<g transform="translate(1.5026, 2.5000)">
<path id="Vector" d="M14.4961 6.99999C13.2105 6.99999 11.9538 7.38121 10.8849 8.09544C9.81598 8.80967 8.98286 9.82483 8.49089 11.0125C7.99892 12.2003 7.8702 13.5072 8.121 14.7681C8.3718 16.029 8.99087 17.1871 9.89991 18.0962C10.809 19.0052 11.9671 19.6243 13.228 19.8751C14.4889 20.1259 15.7958 19.9972 16.9835 19.5052C18.1713 19.0132 19.1864 18.1801 19.9007 17.1112C20.6149 16.0423 20.9961 14.7856 20.9961 13.5C20.9941 11.7767 20.3087 10.1245 19.0901 8.90599C17.8715 7.68743 16.2194 7.00197 14.4961 6.99999ZM14.4961 17C13.8039 17 13.1272 16.7947 12.5516 16.4101C11.976 16.0255 11.5274 15.4789 11.2625 14.8394C10.9976 14.1998 10.9283 13.4961 11.0634 12.8172C11.1984 12.1382 11.5317 11.5146 12.0212 11.0251C12.5107 10.5356 13.1344 10.2023 13.8133 10.0672C14.4922 9.93219 15.196 10.0015 15.8355 10.2664C16.475 10.5313 17.0217 10.9799 17.4062 11.5555C17.7908 12.1311 17.9961 12.8078 17.9961 13.5C17.9961 14.4282 17.6274 15.3185 16.971 15.9749C16.3146 16.6312 15.4244 17 14.4961 17ZM28.7286 10.8037C28.6863 10.5925 28.599 10.3928 28.4726 10.2183C28.3462 10.0438 28.1837 9.89855 27.9961 9.79249L24.5224 7.81124L24.5086 3.89749C24.5078 3.68034 24.46 3.46595 24.3682 3.26912C24.2765 3.07229 24.1431 2.89773 23.9774 2.75749C22.5775 1.57308 20.9657 0.66495 19.2274 0.0812385C19.0291 0.0143518 18.819 -0.0103041 18.6106 0.00885557C18.4022 0.0280152 18.2001 0.0905666 18.0174 0.192489L14.4961 2.15874L10.9749 0.191239C10.7918 0.0887562 10.5894 0.0257932 10.3805 0.00641536C10.1717 -0.0129625 9.96109 0.0116754 9.76235 0.0787384C8.02354 0.664876 6.41171 1.57556 5.01235 2.76249C4.84711 2.90257 4.71417 3.07679 4.62268 3.27315C4.53119 3.46951 4.48332 3.68336 4.48235 3.89999L4.46485 7.81749L0.996103 9.79374C0.808491 9.9002 0.646047 10.0459 0.519852 10.2208C0.393657 10.3958 0.30668 10.5959 0.264853 10.8075C-0.0882843 12.5864 -0.0882843 14.4173 0.264853 16.1962C0.307011 16.4074 0.394142 16.607 0.520322 16.7815C0.646501 16.956 0.808772 17.1013 0.996103 17.2075L4.4736 19.1887L4.48735 23.1025C4.48811 23.3196 4.536 23.534 4.62773 23.7309C4.71945 23.9277 4.85281 24.1022 5.0186 24.2425C6.41847 25.4269 8.03029 26.335 9.7686 26.9187C9.96689 26.9856 10.177 27.0103 10.3854 26.9911C10.5938 26.972 10.7958 26.9094 10.9786 26.8075L14.4961 24.8412L18.0136 26.8087C18.1966 26.9112 18.3991 26.9742 18.6079 26.9936C18.8168 27.0129 19.0274 26.9883 19.2261 26.9212C20.9649 26.3351 22.5767 25.4244 23.9761 24.2375C24.1413 24.0974 24.2743 23.9232 24.3658 23.7268C24.4573 23.5305 24.5051 23.3166 24.5061 23.1L24.5236 19.1825L27.9999 17.2062C28.1875 17.0998 28.3499 16.9541 28.4761 16.7792C28.6023 16.6042 28.6893 16.4041 28.7311 16.1925C29.0834 14.4134 29.0826 12.5825 28.7286 10.8037ZM25.8999 14.9512L22.5399 16.8612C22.3011 16.9966 22.1043 17.1951 21.9711 17.435C21.9036 17.56 21.8324 17.6762 21.7586 17.795C21.6105 18.0315 21.5312 18.3047 21.5299 18.5837L21.5124 22.375C20.7037 22.9835 19.8181 23.4824 18.8786 23.8587L15.4849 21.96C15.2611 21.8347 15.0089 21.7688 14.7524 21.7687H14.7161C14.5736 21.7687 14.4286 21.7687 14.2861 21.7687C14.018 21.7624 13.7531 21.8275 13.5186 21.9575L10.1211 23.8525C9.18005 23.478 8.29241 22.9813 7.4811 22.375L7.46735 18.595C7.46619 18.3155 7.38697 18.0419 7.2386 17.805C7.1661 17.6875 7.0936 17.5662 7.0261 17.445C6.89277 17.2066 6.69645 17.0094 6.4586 16.875L3.0961 14.9537C2.96548 13.9898 2.96548 13.0127 3.0961 12.0487L6.4561 10.1387C6.69442 10.0034 6.89113 9.80544 7.02485 9.56624C7.09235 9.44124 7.1636 9.32374 7.23735 9.20499C7.38549 8.96847 7.46471 8.69532 7.4661 8.41624L7.47985 4.62499C8.2888 4.01821 9.17438 3.52099 10.1136 3.14624L13.5074 5.04499C13.7418 5.1765 14.0074 5.24216 14.2761 5.23499C14.4186 5.23499 14.5636 5.23499 14.7061 5.23499C14.9742 5.24133 15.2391 5.17618 15.4736 5.04624L18.8711 3.14749C19.8122 3.52194 20.6998 4.01871 21.5111 4.62499L21.5249 8.40499C21.526 8.68449 21.6052 8.95811 21.7536 9.19499C21.8261 9.31249 21.8986 9.43374 21.9661 9.55499C22.0994 9.79342 22.2958 9.9906 22.5336 10.125L25.8961 12.0412C26.0284 13.0066 26.0297 13.9855 25.8999 14.9512Z" fill="white" fill-opacity="0.95"/>
</g>
</svg>
