<svg width="32" height="32" viewBox="0 0 32 32" fill="none" xmlns="http://www.w3.org/2000/svg">
<g transform="translate(2.0000, 7.5000)">
<path id="Vector" d="M16 1.5V15.5C16 15.8978 15.842 16.2794 15.5607 16.5607C15.2794 16.842 14.8978 17 14.5 17C14.1022 17 13.7206 16.842 13.4393 16.5607C13.158 16.2794 13 15.8978 13 15.5V1.5C13 1.10218 13.158 0.720644 13.4393 0.43934C13.7206 0.158035 14.1022 0 14.5 0C14.8978 0 15.2794 0.158035 15.5607 0.43934C15.842 0.720644 16 1.10218 16 1.5ZM26.5 3C26.8978 3 27.2794 2.84196 27.5607 2.56066C27.842 2.27936 28 1.89782 28 1.5C28 1.10218 27.842 0.720644 27.5607 0.43934C27.2794 0.158035 26.8978 0 26.5 0H19.5C19.1022 0 18.7206 0.158035 18.4393 0.43934C18.158 0.720644 18 1.10218 18 1.5V15.5C18 15.8978 18.158 16.2794 18.4393 16.5607C18.7206 16.842 19.1022 17 19.5 17C19.8978 17 20.2794 16.842 20.5607 16.5607C20.842 16.2794 21 15.8978 21 15.5V10H25.5C25.8978 10 26.2794 9.84196 26.5607 9.56066C26.842 9.27935 27 8.89782 27 8.5C27 8.10218 26.842 7.72064 26.5607 7.43934C26.2794 7.15804 25.8978 7 25.5 7H21V3H26.5ZM9.5 7H6.5C6.10218 7 5.72064 7.15804 5.43934 7.43934C5.15804 7.72064 5 8.10218 5 8.5C5 8.89782 5.15804 9.27935 5.43934 9.56066C5.72064 9.84196 6.10218 10 6.5 10H8V11.5C8 12.163 7.73661 12.7989 7.26777 13.2678C6.79893 13.7366 6.16304 14 5.5 14C4.83696 14 4.20107 13.7366 3.73223 13.2678C3.26339 12.7989 3 12.163 3 11.5V5.5C3 4.83696 3.26339 4.20107 3.73223 3.73223C4.20107 3.26339 4.83696 3 5.5 3C6.6775 3 7.7725 3.80625 8.0475 4.875C8.14696 5.26023 8.39537 5.59017 8.73809 5.79224C9.08082 5.99431 9.48977 6.05196 9.875 5.9525C10.2602 5.85304 10.5902 5.60463 10.7922 5.26191C10.9943 4.91918 11.052 4.51023 10.9525 4.125C10.3375 1.735 8.04375 0 5.5 0C4.04182 0.00165421 2.64383 0.581648 1.61274 1.61274C0.581648 2.64383 0.00165421 4.04182 0 5.5V11.5C0 12.9587 0.579463 14.3576 1.61091 15.3891C2.64236 16.4205 4.04131 17 5.5 17C6.95869 17 8.35764 16.4205 9.38909 15.3891C10.4205 14.3576 11 12.9587 11 11.5V8.5C11 8.10218 10.842 7.72064 10.5607 7.43934C10.2794 7.15804 9.89782 7 9.5 7Z" fill="white" fill-opacity="0.95"/>
</g>
</svg>
