<svg width="24" height="24" viewBox="0 0 24 24" fill="none" xmlns="http://www.w3.org/2000/svg">
<path d="M12 1.875C9.99747 1.875 8.0399 2.46882 6.37486 3.58137C4.70981 4.69392 3.41206 6.27523 2.64572 8.12533C1.87939 9.97543 1.67888 12.0112 2.06955 13.9753C2.46023 15.9393 3.42454 17.7435 4.84055 19.1595C6.25656 20.5755 8.06066 21.5398 10.0247 21.9305C11.9888 22.3211 14.0246 22.1206 15.8747 21.3543C17.7248 20.5879 19.3061 19.2902 20.4186 17.6251C21.5312 15.9601 22.125 14.0025 22.125 12C22.122 9.3156 21.0543 6.74199 19.1562 4.84383C17.258 2.94567 14.6844 1.87798 12 1.875ZM12 19.4062C11.1711 18.4361 10.5235 17.3246 10.0884 16.125H13.9153C13.6677 16.8034 13.3537 17.4556 12.9778 18.0722C12.6886 18.5427 12.3616 18.9888 12 19.4062ZM9.51657 13.875C9.33094 12.6319 9.33094 11.3681 9.51657 10.125H14.4853C14.6709 11.3681 14.6709 12.6319 14.4853 13.875H9.51657ZM4.125 12C4.12498 11.3681 4.20147 10.7385 4.35282 10.125H7.24219C7.08595 11.3701 7.08595 12.6299 7.24219 13.875H4.35282C4.20147 13.2615 4.12498 12.6319 4.125 12ZM12 4.59375C12.829 5.56391 13.4765 6.67539 13.9116 7.875H10.0866C10.3342 7.19665 10.6482 6.54441 11.0241 5.92781C11.3127 5.45741 11.6391 5.01125 12 4.59375ZM16.7559 10.125H19.6453C19.9491 11.3565 19.9491 12.6435 19.6453 13.875H16.7578C16.9141 12.6299 16.9141 11.3701 16.7578 10.125H16.7559ZM18.7031 7.875H16.2853C15.9475 6.74098 15.4587 5.65753 14.8322 4.65375C16.4392 5.27759 17.7989 6.40852 18.705 7.875H18.7031ZM9.16782 4.65375C8.54127 5.65753 8.05252 6.74098 7.71469 7.875H5.295C6.20113 6.40852 7.56082 5.27759 9.16782 4.65375ZM5.295 16.125H7.71469C8.05252 17.259 8.54127 18.3425 9.16782 19.3463C7.56082 18.7224 6.20113 17.5915 5.295 16.125ZM14.8322 19.3463C15.4587 18.3425 15.9475 17.259 16.2853 16.125H18.705C17.7989 17.5915 16.4392 18.7224 14.8322 19.3463Z" fill="white" fill-opacity="0.5"/>
</svg>
