<svg width="32" height="32" viewBox="0 0 32 32" fill="none" xmlns="http://www.w3.org/2000/svg">
<g transform="translate(3.4927, 1.5000)">
<path id="Vector" d="M21.0146 9C20.5359 8.99858 20.0609 9.08326 19.6121 9.25C19.2087 8.41968 18.5305 7.75446 17.6925 7.36715C16.8546 6.97984 15.9085 6.89429 15.0146 7.125V4C15.0146 2.93913 14.5932 1.92172 13.8431 1.17157C13.0929 0.421427 12.0755 0 11.0146 0C9.95376 0 8.93634 0.421427 8.1862 1.17157C7.43605 1.92172 7.01462 2.93913 7.01462 4V12.3538C6.36021 11.6034 5.44947 11.124 4.46044 11.0094C3.47141 10.8948 2.47518 11.1532 1.66651 11.734C0.857843 12.3149 0.294861 13.1764 0.0876193 14.1503C-0.119622 15.1241 0.0437765 16.1402 0.545873 17L1.13087 18.03C5.40337 25.56 7.35462 29 13.5146 29C16.5636 28.9967 19.4867 27.784 21.6427 25.6281C23.7986 23.4721 25.0113 20.549 25.0146 17.5V13C25.0146 11.9391 24.5932 10.9217 23.8431 10.1716C23.0929 9.42143 22.0755 9 21.0146 9ZM22.0146 17.5C22.012 19.7535 21.1156 21.914 19.5221 23.5075C17.9286 25.101 15.7682 25.9974 13.5146 26C9.26462 26 8.07837 24.1938 3.73962 16.5438L3.15337 15.5088C3.15273 15.5059 3.15273 15.5029 3.15337 15.5C3.02077 15.2703 2.98485 14.9972 3.05354 14.741C3.12222 14.4848 3.28988 14.2664 3.51962 14.1337C3.74937 14.0011 4.02238 13.9652 4.2786 14.0339C4.53482 14.1026 4.75327 14.2703 4.88587 14.5C4.89337 14.515 4.90212 14.5288 4.91087 14.5438L7.24587 18.2938C7.41905 18.5683 7.67663 18.7793 7.97995 18.8951C8.28327 19.0108 8.61594 19.025 8.92801 18.9355C9.24008 18.8461 9.5147 18.6578 9.71064 18.3989C9.90657 18.1401 10.0132 17.8246 10.0146 17.5V4C10.0146 3.73478 10.12 3.48043 10.3075 3.29289C10.4951 3.10536 10.7494 3 11.0146 3C11.2798 3 11.5342 3.10536 11.7217 3.29289C11.9093 3.48043 12.0146 3.73478 12.0146 4V12.5C12.0146 12.8978 12.1727 13.2794 12.454 13.5607C12.7353 13.842 13.1168 14 13.5146 14C13.9124 14 14.294 13.842 14.5753 13.5607C14.8566 13.2794 15.0146 12.8978 15.0146 12.5V11C15.0146 10.7348 15.12 10.4804 15.3075 10.2929C15.4951 10.1054 15.7494 10 16.0146 10C16.2798 10 16.5342 10.1054 16.7217 10.2929C16.9093 10.4804 17.0146 10.7348 17.0146 11V13.5C17.0146 13.8978 17.1727 14.2794 17.454 14.5607C17.7353 14.842 18.1168 15 18.5146 15C18.9124 15 19.294 14.842 19.5753 14.5607C19.8566 14.2794 20.0146 13.8978 20.0146 13.5V13C20.0146 12.7348 20.12 12.4804 20.3075 12.2929C20.4951 12.1054 20.7494 12 21.0146 12C21.2798 12 21.5342 12.1054 21.7217 12.2929C21.9093 12.4804 22.0146 12.7348 22.0146 13V17.5Z" fill="white" fill-opacity="0.95"/>
</g>
</svg>
