<svg width="32" height="32" viewBox="0 0 32 32" fill="none" xmlns="http://www.w3.org/2000/svg">
<g transform="translate(2.5000, 3.9971)">
<path id="Vector" d="M23.0912 3.9871C21.2056 2.08943 18.799 0.79436 16.1765 0.266049C13.554 -0.262262 10.8337 -2.14589e-05 8.3604 1.01953C5.8871 2.03908 3.77222 3.77002 2.28383 5.99294C0.79544 8.21586 0.000576333 10.8307 0 13.5058V20.5058C0 21.4341 0.368749 22.3243 1.02513 22.9807C1.6815 23.6371 2.57174 24.0058 3.5 24.0058H5.5C6.42826 24.0058 7.3185 23.6371 7.97487 22.9807C8.63125 22.3243 9 21.4341 9 20.5058V15.5058C9 14.5776 8.63125 13.6873 7.97487 13.031C7.3185 12.3746 6.42826 12.0058 5.5 12.0058H3.105C3.467 9.50694 4.71685 7.22198 6.62578 5.56923C8.53471 3.91648 10.975 3.0065 13.5 3.00585H13.58C16.0937 3.01661 18.5196 3.93206 20.4137 5.58472C22.3078 7.23738 23.5436 9.51676 23.895 12.0058H21.5C20.5717 12.0058 19.6815 12.3746 19.0251 13.031C18.3687 13.6873 18 14.5776 18 15.5058V20.5058C18 21.4341 18.3687 22.3243 19.0251 22.9807C19.6815 23.6371 20.5717 24.0058 21.5 24.0058H23.5C23.9596 24.0058 24.4148 23.9153 24.8394 23.7394C25.264 23.5635 25.6499 23.3057 25.9749 22.9807C26.2999 22.6557 26.5577 22.2699 26.7336 21.8452C26.9095 21.4206 27 20.9655 27 20.5058V13.5058C27.0069 11.7401 26.6651 9.9903 25.9944 8.35687C25.3236 6.72344 24.3371 5.23847 23.0912 3.9871ZM5.5 15.0058C5.63261 15.0058 5.75979 15.0585 5.85355 15.1523C5.94732 15.2461 6 15.3732 6 15.5058V20.5058C6 20.6385 5.94732 20.7656 5.85355 20.8594C5.75979 20.9532 5.63261 21.0058 5.5 21.0058H3.5C3.36739 21.0058 3.24021 20.9532 3.14645 20.8594C3.05268 20.7656 3 20.6385 3 20.5058V15.0058H5.5ZM24 20.5058C24 20.6385 23.9473 20.7656 23.8536 20.8594C23.7598 20.9532 23.6326 21.0058 23.5 21.0058H21.5C21.3674 21.0058 21.2402 20.9532 21.1464 20.8594C21.0527 20.7656 21 20.6385 21 20.5058V15.5058C21 15.3732 21.0527 15.2461 21.1464 15.1523C21.2402 15.0585 21.3674 15.0058 21.5 15.0058H24V20.5058Z" fill="white" fill-opacity="0.95"/>
</g>
</svg>
