<svg width="32" height="32" viewBox="0 0 32 32" fill="none" xmlns="http://www.w3.org/2000/svg">
<g transform="translate(1.5000, 3.4997)">
<path id="Vector" d="M20.75 0C18.2387 0 16.01 0.99125 14.5 2.695C12.99 0.99125 10.7613 0 8.25 0C6.06278 0.00264637 3.96589 0.87269 2.41929 2.41929C0.87269 3.96589 0.00264637 6.06278 0 8.25C0 17.2925 13.2262 24.5175 13.7887 24.8213C14.0073 24.939 14.2517 25.0006 14.5 25.0006C14.7483 25.0006 14.9927 24.939 15.2113 24.8213C15.7738 24.5175 29 17.2925 29 8.25C28.9974 6.06278 28.1273 3.96589 26.5807 2.41929C25.0341 0.87269 22.9372 0.00264637 20.75 0ZM20.0637 17.795C18.3228 19.2723 16.4618 20.6019 14.5 21.77C12.5382 20.6019 10.6772 19.2723 8.93625 17.795C6.2275 15.4713 3 11.9275 3 8.25C3 6.85761 3.55312 5.52226 4.53769 4.53769C5.52226 3.55312 6.85761 3 8.25 3C10.475 3 12.3375 4.175 13.1112 6.0675C13.2239 6.34338 13.4161 6.57947 13.6634 6.74566C13.9108 6.91185 14.202 7.0006 14.5 7.0006C14.798 7.0006 15.0892 6.91185 15.3366 6.74566C15.5839 6.57947 15.7761 6.34338 15.8888 6.0675C16.6625 4.175 18.525 3 20.75 3C22.1424 3 23.4777 3.55312 24.4623 4.53769C25.4469 5.52226 26 6.85761 26 8.25C26 11.9275 22.7725 15.4713 20.0637 17.795Z" fill="white" fill-opacity="0.95"/>
</g>
</svg>
