<svg width="32" height="32" viewBox="0 0 32 32" fill="none" xmlns="http://www.w3.org/2000/svg">
<g transform="translate(3.5000, 2.9997)">
<path id="Vector" d="M24.2675 10.732L14.2675 0.731966C13.7987 0.263289 13.1629 0 12.5 0C11.8371 0 11.2013 0.263289 10.7325 0.731966L0.732513 10.732C0.499421 10.9636 0.314646 11.2393 0.188905 11.5429C0.0631631 11.8465 -0.00104209 12.1721 1.27906e-05 12.5007V24.5007C1.27906e-05 24.8985 0.158048 25.2801 0.439353 25.5614C0.720657 25.8427 1.10219 26.0007 1.50001 26.0007H9.50001C9.89784 26.0007 10.2794 25.8427 10.5607 25.5614C10.842 25.2801 11 24.8985 11 24.5007V18.0007H14V24.5007C14 24.8985 14.158 25.2801 14.4394 25.5614C14.7207 25.8427 15.1022 26.0007 15.5 26.0007H23.5C23.8978 26.0007 24.2794 25.8427 24.5607 25.5614C24.842 25.2801 25 24.8985 25 24.5007V12.5007C25.0011 12.1721 24.9369 11.8465 24.8111 11.5429C24.6854 11.2393 24.5006 10.9636 24.2675 10.732ZM22 23.0007H17V16.5007C17 16.1029 16.842 15.7214 16.5607 15.4401C16.2794 15.1588 15.8978 15.0007 15.5 15.0007H9.50001C9.10219 15.0007 8.72066 15.1588 8.43935 15.4401C8.15805 15.7214 8.00001 16.1029 8.00001 16.5007V23.0007H3.00001V12.707L12.5 3.20697L22 12.707V23.0007Z" fill="white" fill-opacity="0.95"/>
</g>
</svg>
