<svg width="13" height="13" viewBox="0 0 13 13" fill="none" xmlns="http://www.w3.org/2000/svg">
<path d="M6.5058 9.34618e-06C7.3603 0.00320802 8.05056 0.698871 8.04762 1.55343L8.03601 4.95239H11.4524C12.3071 4.95239 13 5.64528 13 6.50001C13 7.35474 12.3071 8.04763 11.4524 8.04763H8.03601L8.04762 11.4466C8.05056 12.3011 7.3603 12.9968 6.5058 13C5.65124 13.0029 4.95558 12.3127 4.95238 11.4582L4.94077 8.04763H1.54762C0.692893 8.04763 0 7.35474 0 6.50001C0 5.64528 0.692893 4.95239 1.54762 4.95239H4.94077L4.95238 1.54182C4.95558 0.687326 5.65124 -0.00292896 6.5058 9.34618e-06Z" fill="white"/>
</svg>
