<svg width="32" height="32" viewBox="0 0 32 32" fill="none" xmlns="http://www.w3.org/2000/svg">
<g transform="translate(4.1875, 5.9375)">
<path id="Vector" d="M15.3125 5.6875C15.3125 5.34138 15.4151 5.00304 15.6074 4.71525C15.7997 4.42747 16.073 4.20316 16.3928 4.07071C16.7126 3.93826 17.0644 3.9036 17.4039 3.97113C17.7434 4.03865 18.0552 4.20532 18.2999 4.45006C18.5447 4.69481 18.7114 5.00663 18.7789 5.34609C18.8464 5.68556 18.8117 6.03743 18.6793 6.3572C18.5468 6.67697 18.3225 6.95028 18.0347 7.14257C17.747 7.33486 17.4086 7.4375 17.0625 7.4375C16.5984 7.4375 16.1533 7.25313 15.8251 6.92494C15.4969 6.59675 15.3125 6.15163 15.3125 5.6875ZM23.625 2.1875V13.5625C23.625 14.1427 23.3945 14.6991 22.9843 15.1093C22.5741 15.5195 22.0177 15.75 21.4375 15.75H20.125V17.9375C20.125 18.5177 19.8945 19.0741 19.4843 19.4843C19.0741 19.8945 18.5177 20.125 17.9375 20.125H2.1875C1.60734 20.125 1.05094 19.8945 0.640704 19.4843C0.230468 19.0741 0 18.5177 0 17.9375V5.6875C0 5.10734 0.230468 4.55094 0.640704 4.1407C1.05094 3.73047 1.60734 3.5 2.1875 3.5H4.375V2.1875C4.375 1.60734 4.60547 1.05094 5.0157 0.640704C5.42594 0.230468 5.98234 0 6.5625 0H21.4375C22.0177 0 22.5741 0.230468 22.9843 0.640704C23.3945 1.05094 23.625 1.60734 23.625 2.1875ZM17.5 15.75H6.5625C5.98234 15.75 5.42594 15.5195 5.0157 15.1093C4.60547 14.6991 4.375 14.1427 4.375 13.5625V6.125H2.625V17.5H17.5V15.75ZM15.1309 13.125L11.375 9.36906L7.61906 13.125H15.1309ZM21 2.625H7V10.0319L9.82844 7.20344C10.2387 6.79334 10.795 6.56297 11.375 6.56297C11.955 6.56297 12.5113 6.79334 12.9216 7.20344L18.8431 13.125H21V2.625Z" fill="white" fill-opacity="0.95"/>
</g>
</svg>
