<svg width="32" height="32" viewBox="0 0 32 32" fill="none" xmlns="http://www.w3.org/2000/svg">
<g transform="translate(3.5000, 3.5000)">
<path id="Vector" d="M22.5 0H7.5C6.83696 0 6.20107 0.263392 5.73223 0.732233C5.26339 1.20107 5 1.83696 5 2.5V4H2.5C1.83696 4 1.20107 4.26339 0.732233 4.73223C0.263392 5.20107 0 5.83696 0 6.5V22.5C0 23.163 0.263392 23.7989 0.732233 24.2678C1.20107 24.7366 1.83696 25 2.5 25H18.5C19.163 25 19.7989 24.7366 20.2678 24.2678C20.7366 23.7989 21 23.163 21 22.5V20H22.5C23.163 20 23.7989 19.7366 24.2678 19.2678C24.7366 18.7989 25 18.163 25 17.5V2.5C25 1.83696 24.7366 1.20107 24.2678 0.732233C23.7989 0.263392 23.163 0 22.5 0ZM8 3H22V10.465L20.7675 9.2325C20.2987 8.76382 19.6629 8.50053 19 8.50053C18.3371 8.50053 17.7013 8.76382 17.2325 9.2325L9.465 17H8V3ZM18 22H3V7H5V17.5C5 18.163 5.26339 18.7989 5.73223 19.2678C6.20107 19.7366 6.83696 20 7.5 20H18V22ZM13.7075 17L19 11.7075L22 14.7075V17H13.7075ZM10 7.5C10 7.00555 10.1466 6.5222 10.4213 6.11107C10.696 5.69995 11.0865 5.37952 11.5433 5.1903C12.0001 5.00108 12.5028 4.95157 12.9877 5.04804C13.4727 5.1445 13.9181 5.3826 14.2678 5.73223C14.6174 6.08186 14.8555 6.52732 14.952 7.01227C15.0484 7.49723 14.9989 7.99989 14.8097 8.45671C14.6205 8.91352 14.3 9.30397 13.8889 9.57867C13.4778 9.85338 12.9945 10 12.5 10C11.837 10 11.2011 9.73661 10.7322 9.26777C10.2634 8.79893 10 8.16304 10 7.5Z" fill="white" fill-opacity="0.95"/>
</g>
</svg>
