<svg width="32" height="32" viewBox="0 0 32 32" fill="none" xmlns="http://www.w3.org/2000/svg">
<g transform="translate(2.5000, 4.5000)">
<path id="Vector" d="M15.5 7.5C15.5 7.10444 15.6173 6.71776 15.8371 6.38886C16.0568 6.05996 16.3692 5.80362 16.7346 5.65224C17.1001 5.50087 17.5022 5.46126 17.8902 5.53843C18.2781 5.6156 18.6345 5.80608 18.9142 6.08579C19.1939 6.36549 19.3844 6.72186 19.4616 7.10982C19.5387 7.49778 19.4991 7.89991 19.3478 8.26537C19.1964 8.63082 18.94 8.94318 18.6111 9.16294C18.2822 9.3827 17.8956 9.5 17.5 9.5C16.9696 9.5 16.4609 9.28929 16.0858 8.91421C15.7107 8.53914 15.5 8.03043 15.5 7.5ZM27 2.5V20.5C27 21.163 26.7366 21.7989 26.2678 22.2678C25.7989 22.7366 25.163 23 24.5 23H2.5C1.83696 23 1.20107 22.7366 0.732233 22.2678C0.263392 21.7989 0 21.163 0 20.5V2.5C0 1.83696 0.263392 1.20107 0.732233 0.732233C1.20107 0.263392 1.83696 0 2.5 0H24.5C25.163 0 25.7989 0.263392 26.2678 0.732233C26.7366 1.20107 27 1.83696 27 2.5ZM3 3V12.965L7.2325 8.7325C7.70132 8.26382 8.33709 8.00053 9 8.00053C9.66291 8.00053 10.2987 8.26382 10.7675 8.7325L15.9137 13.875L18.0613 11.7288C18.5301 11.2601 19.1658 10.9968 19.8288 10.9968C20.4917 10.9968 21.1274 11.2601 21.5963 11.7288L24 14.1362V3H3ZM3 20H17.7925L9 11.2075L3 17.2075V20ZM24 20V18.375L19.8288 14.2038L18.035 16L22.035 20H24Z" fill="white" fill-opacity="0.95"/>
</g>
</svg>
