<svg width="32" height="32" viewBox="0 0 32 32" fill="none" xmlns="http://www.w3.org/2000/svg">
<g transform="translate(2.5000, 2.5000)">
<path id="Vector" d="M11 8C11 7.60444 11.1173 7.21776 11.3371 6.88886C11.5568 6.55996 11.8692 6.30362 12.2346 6.15224C12.6001 6.00087 13.0022 5.96126 13.3902 6.03843C13.7781 6.1156 14.1345 6.30608 14.4142 6.58579C14.6939 6.86549 14.8844 7.22186 14.9616 7.60982C15.0387 7.99778 14.9991 8.39991 14.8478 8.76537C14.6964 9.13082 14.44 9.44318 14.1111 9.66294C13.7822 9.8827 13.3956 10 13 10C12.4696 10 11.9609 9.78929 11.5858 9.41421C11.2107 9.03914 11 8.53043 11 8ZM27 13.5C27 16.17 26.2082 18.7801 24.7248 21.0002C23.2414 23.2203 21.133 24.9506 18.6662 25.9724C16.1994 26.9942 13.485 27.2615 10.8663 26.7406C8.24754 26.2197 5.84207 24.934 3.95406 23.0459C2.06606 21.1579 0.780305 18.7525 0.259405 16.1337C-0.261496 13.515 0.00584937 10.8006 1.02763 8.33377C2.04942 5.86697 3.77974 3.75856 5.99981 2.27516C8.21987 0.791761 10.83 0 13.5 0C17.0792 0.00397028 20.5107 1.42756 23.0416 3.95844C25.5724 6.48932 26.996 9.9208 27 13.5ZM24 13.5C24 11.4233 23.3842 9.39323 22.2304 7.66651C21.0767 5.9398 19.4368 4.59399 17.5182 3.79926C15.5996 3.00454 13.4884 2.79661 11.4516 3.20175C9.41476 3.6069 7.54384 4.60693 6.07538 6.07538C4.60693 7.54383 3.60691 9.41475 3.20176 11.4516C2.79662 13.4884 3.00455 15.5996 3.79927 17.5182C4.59399 19.4368 5.9398 21.0767 7.66652 22.2304C9.39323 23.3842 11.4233 24 13.5 24C16.2839 23.997 18.9529 22.8898 20.9213 20.9213C22.8898 18.9528 23.997 16.2839 24 13.5ZM15 18.085V14C15 13.337 14.7366 12.7011 14.2678 12.2322C13.7989 11.7634 13.163 11.5 12.5 11.5C12.1458 11.4995 11.8028 11.6243 11.5318 11.8525C11.2608 12.0806 11.0792 12.3973 11.0194 12.7464C10.9595 13.0956 11.0251 13.4546 11.2046 13.76C11.3841 14.0654 11.6658 14.2974 12 14.415V18.5C12 19.163 12.2634 19.7989 12.7322 20.2678C13.2011 20.7366 13.837 21 14.5 21C14.8542 21.0005 15.1972 20.8757 15.4682 20.6475C15.7392 20.4194 15.9208 20.1027 15.9806 19.7536C16.0405 19.4044 15.9749 19.0454 15.7954 18.74C15.616 18.4346 15.3342 18.2026 15 18.085Z" fill="white" fill-opacity="0.95"/>
</g>
</svg>
