<svg width="32" height="32" viewBox="0 0 32 32" fill="none" xmlns="http://www.w3.org/2000/svg">
<g transform="translate(1.9976, 2.0121)">
<path id="Vector" d="M22 7.97577C22 8.37133 21.8827 8.75801 21.6629 9.08691C21.4432 9.41581 21.1308 9.67215 20.7654 9.82353C20.3999 9.9749 19.9978 10.0145 19.6098 9.93734C19.2219 9.86017 18.8655 9.66969 18.5858 9.38998C18.3061 9.11028 18.1156 8.75391 18.0384 8.36595C17.9613 7.97799 18.0009 7.57585 18.1523 7.2104C18.3036 6.84495 18.56 6.53259 18.8889 6.31283C19.2178 6.09307 19.6044 5.97577 20 5.97577C20.5304 5.97577 21.0391 6.18648 21.4142 6.56156C21.7893 6.93663 22 7.44534 22 7.97577ZM28 10.8183C27.9019 13.5378 26.7555 16.1139 24.8009 18.0072C22.8463 19.9005 20.235 20.9643 17.5138 20.9758H17.5C16.4994 20.9773 15.5038 20.835 14.5438 20.5533L13.5613 21.537C13.4219 21.6763 13.2564 21.7867 13.0743 21.862C12.8922 21.9373 12.6971 21.9759 12.5 21.9758H11V23.4758C11 23.8736 10.842 24.2551 10.5607 24.5364C10.2794 24.8177 9.89783 24.9758 9.50001 24.9758H8.00001V26.4758C8.00001 26.8736 7.84197 27.2551 7.56067 27.5364C7.27936 27.8177 6.89783 27.9758 6.50001 27.9758H2.50001C1.83697 27.9758 1.20108 27.7124 0.732242 27.2435C0.263401 26.7747 9.10243e-06 26.1388 9.10243e-06 25.4758V21.8895C-0.000880222 21.5611 0.0634055 21.2358 0.189142 20.9324C0.314879 20.629 0.499568 20.3535 0.732509 20.122L7.42251 13.432C6.99878 11.975 6.89591 10.4434 7.12096 8.94272C7.34601 7.44208 7.89365 6.00805 8.72615 4.73938C9.55866 3.47072 10.6562 2.39757 11.9433 1.59384C13.2304 0.790108 14.6764 0.2749 16.1818 0.0836933C17.6871 -0.107513 19.216 0.0298254 20.6631 0.486251C22.1103 0.942677 23.4413 1.70734 24.5646 2.72759C25.6878 3.74784 26.5766 4.99942 27.1696 6.39614C27.7627 7.79287 28.046 9.30154 28 10.8183ZM22.8038 5.17202C22.0802 4.4419 21.213 3.86977 20.2571 3.49175C19.3012 3.11373 18.2773 2.93804 17.25 2.97577C13.25 3.10077 10 6.46202 10 10.462C9.99691 11.4116 10.1751 12.353 10.525 13.2358C10.643 13.5113 10.6756 13.8159 10.6188 14.1103C10.562 14.4046 10.4183 14.6751 10.2063 14.887L3.00001 22.1008V24.9758H5.00001V23.4758C5.00001 23.0779 5.15804 22.6964 5.43935 22.4151C5.72065 22.1338 6.10218 21.9758 6.50001 21.9758H8.00001V20.4758C8.00001 20.0779 8.15804 19.6964 8.43935 19.4151C8.72065 19.1338 9.10218 18.9758 9.50001 18.9758H11.875L13.0813 17.7695C13.2932 17.5572 13.564 17.4134 13.8586 17.3566C14.1532 17.2997 14.458 17.3326 14.7338 17.4508C15.6141 17.8001 16.5529 17.9782 17.5 17.9758H17.51C21.51 17.9758 24.8688 14.717 24.9963 10.7258C25.0339 9.69885 24.8586 8.67525 24.4813 7.71943C24.1039 6.7636 23.5328 5.89626 22.8038 5.17202Z" fill="white" fill-opacity="0.95"/>
</g>
</svg>
