<svg width="32" height="32" viewBox="0 0 32 32" fill="none" xmlns="http://www.w3.org/2000/svg">
<g transform="translate(4.4940, 0.4970)">
<path id="Vector" d="M2.6221 3.49232C2.49037 3.34383 2.33048 3.22297 2.1517 3.13673C1.97291 3.05049 1.77879 3.00059 1.58058 2.98993C1.38237 2.97926 1.18402 3.00805 0.997013 3.07461C0.810009 3.14117 0.638075 3.24418 0.491178 3.37768C0.34428 3.51118 0.225339 3.6725 0.14125 3.85231C0.0571601 4.03211 0.00959363 4.22682 0.00130757 4.42514C-0.0069785 4.62347 0.0241805 4.82146 0.0929786 5.00765C0.161777 5.19385 0.266845 5.36453 0.402095 5.50982L4.9996 10.5661L0.415845 15.4773C0.249431 15.6555 0.128971 15.8716 0.0648986 16.1069C0.00082618 16.3422 -0.00492676 16.5895 0.0481377 16.8275C0.101202 17.0655 0.211484 17.287 0.369433 17.4727C0.527382 17.6585 0.728234 17.8029 0.954596 17.8936L7.3521 20.4523L6.02835 29.2786C5.97975 29.5955 6.034 29.9197 6.18313 30.2035C6.33227 30.4874 6.56843 30.716 6.857 30.8558C7.14556 30.9956 7.47133 31.0393 7.78652 30.9804C8.10171 30.9215 8.38973 30.7631 8.60835 30.5286L15.9708 22.6398L20.4021 27.5148C20.671 27.8037 21.043 27.975 21.4374 27.9915C21.8318 28.0079 22.2167 27.8683 22.5088 27.6028C22.8009 27.3374 22.9766 26.9675 22.9978 26.5733C23.019 26.1792 22.884 25.7926 22.6221 25.4973L2.6221 3.49232ZM9.7121 24.9448L10.4958 19.7236C10.5459 19.3894 10.4817 19.0481 10.3136 18.755C10.1455 18.4619 9.88333 18.2341 9.5696 18.1086L4.1046 15.9223L7.02334 12.7973L13.9458 20.4123L9.7121 24.9448ZM9.43835 8.00857C9.29356 7.87413 9.17677 7.71242 9.09466 7.53271C9.01256 7.353 8.96676 7.15885 8.95991 6.96139C8.95306 6.76394 8.98528 6.56708 9.05473 6.38211C9.12418 6.19714 9.22948 6.02772 9.3646 5.88357L14.4158 0.477319C14.6345 0.242751 14.9225 0.0844087 15.2377 0.0255177C15.5529 -0.0333732 15.8786 0.0102867 16.1672 0.150094C16.4558 0.2899 16.6919 0.518496 16.8411 0.80235C16.9902 1.0862 17.0444 1.41038 16.9958 1.72732L15.6721 10.5498L22.0696 13.1086C22.296 13.1992 22.4968 13.3437 22.6548 13.5294C22.8127 13.7152 22.923 13.9367 22.9761 14.1746C23.0291 14.4126 23.0234 14.66 22.9593 14.8952C22.8952 15.1305 22.7748 15.3466 22.6083 15.5248L20.5058 17.7748C20.2343 18.0657 19.8584 18.2369 19.4607 18.2506C19.063 18.2643 18.6761 18.1195 18.3852 17.8479C18.0943 17.5764 17.9232 17.2005 17.9095 16.8028C17.8958 16.4051 18.0406 16.0182 18.3121 15.7273L18.9196 15.0761L13.4546 12.8898C13.1409 12.7643 12.8787 12.5365 12.7106 12.2434C12.5425 11.9503 12.4783 11.609 12.5283 11.2748L13.3121 6.05357L11.5621 7.92857C11.4281 8.07359 11.2668 8.19074 11.0874 8.27328C10.908 8.35582 10.7141 8.40214 10.5168 8.40957C10.3195 8.417 10.1227 8.3854 9.93761 8.31659C9.75254 8.24778 9.58287 8.1431 9.43835 8.00857Z" fill="white" fill-opacity="0.95"/>
</g>
</svg>
