<svg width="32" height="32" viewBox="0 0 32 32" fill="none" xmlns="http://www.w3.org/2000/svg">
<g transform="translate(2.0024, 2.4845)">
<path id="Vector" d="M19.9706 12.3431C19.9231 12.1095 19.8207 11.8907 19.6718 11.7046C19.5229 11.5185 19.3318 11.3706 19.1144 11.2731L13.2506 8.63933L14.8631 1.84558C14.9394 1.52315 14.9069 1.18453 14.7705 0.882567C14.6341 0.580603 14.4016 0.332294 14.1092 0.176401C13.8168 0.0205084 13.4811 -0.0341942 13.1543 0.0208327C12.8276 0.0758597 12.5283 0.237519 12.3031 0.480576L0.39935 13.3368C0.237597 13.5115 0.119752 13.7222 0.0555564 13.9515C-0.00863877 14.1807 -0.0173392 14.422 0.0301741 14.6553C0.0776875 14.8886 0.18005 15.1072 0.328798 15.2931C0.477546 15.479 0.668407 15.6268 0.8856 15.7243L6.7606 18.3593L5.1406 25.1518C5.06336 25.4746 5.09536 25.8139 5.23159 26.1166C5.36782 26.4192 5.60059 26.6682 5.89343 26.8244C6.18628 26.9806 6.52267 27.0353 6.84991 26.9798C7.17716 26.9244 7.47678 26.762 7.70185 26.5181L19.6006 13.6606C19.7624 13.4861 19.8803 13.2756 19.9446 13.0465C20.0089 12.8174 20.0178 12.5763 19.9706 12.3431ZM9.3756 20.2881L9.9556 17.8456C10.0362 17.5061 9.99597 17.149 9.84173 16.836C9.6875 16.523 9.42895 16.2735 9.1106 16.1306L4.0156 13.8431L10.6256 6.71058L10.0456 9.15308C9.963 9.49291 10.0017 9.85092 10.1551 10.1652C10.3085 10.4795 10.5669 10.7303 10.8856 10.8743L15.9819 13.1618L9.3756 20.2881ZM27.8381 24.8281L23.3381 15.8281C23.2136 15.5788 23.0221 15.3691 22.785 15.2226C22.548 15.076 22.2749 14.9984 21.9962 14.9984C21.7176 14.9984 21.4444 15.076 21.2074 15.2226C20.9704 15.3691 20.7789 15.5788 20.6544 15.8281L16.1544 24.8281C16.0606 25.0048 16.0031 25.1984 15.9854 25.3977C15.9676 25.5969 15.9898 25.7977 16.0508 25.9882C16.1117 26.1787 16.2102 26.3551 16.3403 26.507C16.4705 26.6589 16.6297 26.7833 16.8086 26.8727C16.9875 26.9622 17.1825 27.0149 17.3821 27.0279C17.5817 27.0409 17.7819 27.0138 17.9709 26.9483C18.1599 26.8827 18.3338 26.7801 18.4826 26.6463C18.6313 26.5125 18.7517 26.3503 18.8369 26.1693L19.4219 24.9993H24.5681L25.1531 26.1693C25.331 26.5252 25.6429 26.7959 26.0203 26.9218C26.3977 27.0476 26.8097 27.0184 27.1656 26.8406C27.5215 26.6627 27.7921 26.3508 27.918 25.9733C28.0439 25.5959 28.0147 25.184 27.8369 24.8281H27.8381ZM20.9269 21.9993L22.0006 19.8531L23.0731 21.9993H20.9269Z" fill="white" fill-opacity="0.95"/>
</g>
</svg>
