<svg width="32" height="32" viewBox="0 0 32 32" fill="none" xmlns="http://www.w3.org/2000/svg">
<g transform="translate(4.4998, 0.4952)">
<path id="Vector" d="M22.9637 14.1773C22.9105 13.9395 22.8001 13.7183 22.6422 13.5328C22.4843 13.3472 22.2836 13.2029 22.0574 13.1123L15.6599 10.5536L16.9837 1.72732C17.0322 1.41038 16.978 1.0862 16.8289 0.80235C16.6797 0.518496 16.4436 0.289901 16.155 0.150094C15.8664 0.0102868 15.5407 -0.0333732 15.2255 0.0255177C14.9103 0.0844087 14.6223 0.242751 14.4037 0.477319L0.403659 15.4773C0.237245 15.6555 0.116785 15.8716 0.0527124 16.1069C-0.01136 16.3422 -0.017113 16.5895 0.0359515 16.8275C0.089016 17.0655 0.199298 17.287 0.357247 17.4727C0.515195 17.6585 0.716048 17.8029 0.942409 17.8936L7.33991 20.4523L6.01616 29.2823C5.96757 29.5993 6.02182 29.9234 6.17095 30.2073C6.32008 30.4911 6.55625 30.7197 6.84481 30.8595C7.13337 30.9994 7.45914 31.043 7.77433 30.9841C8.08952 30.9252 8.37755 30.7669 8.59616 30.5323L22.5962 15.5323C22.7633 15.3536 22.8842 15.1367 22.9482 14.9005C23.0123 14.6643 23.0176 14.416 22.9637 14.1773ZM9.69991 24.9486L10.4837 19.7273C10.5337 19.3931 10.4695 19.0519 10.3014 18.7587C10.1333 18.4656 9.87114 18.2378 9.55741 18.1123L4.09241 15.9261L13.2999 6.06107L12.5162 11.2823C12.4661 11.6165 12.5303 11.9578 12.6984 12.2509C12.8665 12.544 13.1287 12.7718 13.4424 12.8973L18.9074 15.0836L9.69991 24.9486Z" fill="white" fill-opacity="0.95"/>
</g>
</svg>
