<svg width="32" height="32" viewBox="0 0 32 32" fill="none" xmlns="http://www.w3.org/2000/svg">
<g transform="translate(2.4965, 2.4962)">
<path id="Vector" d="M8.44071 16.4436L16.4407 8.44364C16.5802 8.30411 16.7459 8.19343 16.9282 8.11792C17.1105 8.0424 17.3059 8.00354 17.5032 8.00354C17.7005 8.00354 17.8959 8.0424 18.0782 8.11792C18.2605 8.19343 18.4262 8.30411 18.5657 8.44364C18.7052 8.58317 18.8159 8.74881 18.8914 8.93112C18.9669 9.11342 19.0058 9.30881 19.0058 9.50614C19.0058 9.70346 18.9669 9.89886 18.8914 10.0812C18.8159 10.2635 18.7052 10.4291 18.5657 10.5686L10.5657 18.5686C10.2839 18.8504 9.90173 19.0087 9.50321 19.0087C9.1047 19.0087 8.7225 18.8504 8.44071 18.5686C8.15892 18.2868 8.00061 17.9047 8.00061 17.5061C8.00061 17.1076 8.15892 16.7254 8.44071 16.4436ZM24.8157 2.19364C23.4078 0.788905 21.5002 0 19.5113 0C17.5225 0 15.6149 0.788905 14.207 2.19364L10.442 5.95489C10.1602 6.23668 10.0019 6.61887 10.0019 7.01739C10.0019 7.21471 10.0407 7.41011 10.1162 7.59241C10.1918 7.77471 10.3024 7.94036 10.442 8.07989C10.5815 8.21942 10.7471 8.3301 10.9294 8.40561C11.1117 8.48112 11.3071 8.51999 11.5045 8.51999C11.903 8.51999 12.2852 8.36168 12.567 8.07989L16.3257 4.32239C17.1698 3.47817 18.3146 3.00383 19.5084 3.00371C20.7022 3.00359 21.8471 3.47771 22.6913 4.32176C23.5356 5.16581 24.0099 6.31066 24.01 7.50445C24.0101 8.69823 23.536 9.84317 22.692 10.6874L18.9282 14.4436C18.7887 14.5832 18.678 14.7488 18.6025 14.9311C18.527 15.1134 18.4881 15.3088 18.4881 15.5061C18.4881 15.7035 18.527 15.8989 18.6025 16.0812C18.678 16.2635 18.7887 16.4291 18.9282 16.5686C19.0677 16.7082 19.2334 16.8188 19.4157 16.8944C19.598 16.9699 19.7934 17.0087 19.9907 17.0087C20.188 17.0087 20.3834 16.9699 20.5657 16.8944C20.748 16.8188 20.9137 16.7082 21.0532 16.5686L24.8132 12.8111C26.2187 11.4024 27.0077 9.49345 27.007 7.50349C27.0063 5.51353 26.2159 3.60517 24.8095 2.19739L24.8157 2.19364ZM14.4432 18.9286L10.6845 22.6886C10.2664 23.1066 9.77021 23.4381 9.22408 23.6642C8.67795 23.8904 8.09262 24.0067 7.50152 24.0067C6.91042 24.0066 6.32511 23.8901 5.77903 23.6639C5.23294 23.4376 4.73677 23.106 4.31884 22.688C3.47478 21.8438 3.00067 20.6989 3.00078 19.5051C3.0009 18.3113 3.47524 17.1664 4.31946 16.3224L8.07696 12.5636C8.21649 12.4241 8.32717 12.2585 8.40268 12.0762C8.4782 11.8939 8.51706 11.6985 8.51706 11.5011C8.51706 11.3038 8.4782 11.1084 8.40268 10.9261C8.32717 10.7438 8.21649 10.5782 8.07696 10.4386C7.93743 10.2991 7.77179 10.1884 7.58948 10.1129C7.40718 10.0374 7.21179 9.99854 7.01446 9.99854C6.81714 9.99854 6.62174 10.0374 6.43944 10.1129C6.25714 10.1884 6.09149 10.2991 5.95196 10.4386L2.19696 14.2011C1.50038 14.8978 0.947839 15.7248 0.570884 16.635C0.193929 17.5452 -5.80236e-05 18.5208 1.30186e-08 19.506C0.000117223 21.4956 0.790613 23.4037 2.19759 24.8105C3.60456 26.2173 5.51276 27.0076 7.5024 27.0075C9.49205 27.0074 11.4002 26.2169 12.807 24.8099L16.5645 21.0511C16.8463 20.7693 17.0046 20.3872 17.0046 19.9886C17.0046 19.5901 16.8463 19.2079 16.5645 18.9261C16.2827 18.6443 15.9005 18.486 15.502 18.486C15.1034 18.486 14.7213 18.6443 14.4395 18.9261L14.4432 18.9286Z" fill="white" fill-opacity="0.95"/>
</g>
</svg>
