<svg width="32" height="32" viewBox="0 0 32 32" fill="none" xmlns="http://www.w3.org/2000/svg">
<g transform="translate(3.5003, 4.0004)">
<path id="Vector" d="M24.9994 12.4992C24.9994 12.897 24.8413 13.2786 24.56 13.5599C24.2787 13.8412 23.8972 13.9992 23.4994 13.9992H10.9994C10.6016 13.9992 10.22 13.8412 9.93872 13.5599C9.65741 13.2786 9.49938 12.897 9.49938 12.4992C9.49938 12.1014 9.65741 11.7198 9.93872 11.4385C10.22 11.1572 10.6016 10.9992 10.9994 10.9992H23.4994C23.8972 10.9992 24.2787 11.1572 24.56 11.4385C24.8413 11.7198 24.9994 12.1014 24.9994 12.4992ZM10.9994 5.9992H23.4994C23.8972 5.9992 24.2787 5.84116 24.56 5.55986C24.8413 5.27855 24.9994 4.89702 24.9994 4.4992C24.9994 4.10137 24.8413 3.71984 24.56 3.43854C24.2787 3.15723 23.8972 2.9992 23.4994 2.9992H10.9994C10.6016 2.9992 10.22 3.15723 9.93872 3.43854C9.65741 3.71984 9.49938 4.10137 9.49938 4.4992C9.49938 4.89702 9.65741 5.27855 9.93872 5.55986C10.22 5.84116 10.6016 5.9992 10.9994 5.9992ZM23.4994 18.9992H10.9994C10.6016 18.9992 10.22 19.1572 9.93872 19.4385C9.65741 19.7198 9.49938 20.1014 9.49938 20.4992C9.49938 20.897 9.65741 21.2786 9.93872 21.5599C10.22 21.8412 10.6016 21.9992 10.9994 21.9992H23.4994C23.8972 21.9992 24.2787 21.8412 24.56 21.5599C24.8413 21.2786 24.9994 20.897 24.9994 20.4992C24.9994 20.1014 24.8413 19.7198 24.56 19.4385C24.2787 19.1572 23.8972 18.9992 23.4994 18.9992ZM1.99938 3.91295V9.4992C1.99938 9.89702 2.15741 10.2786 2.43872 10.5599C2.72002 10.8412 3.10155 10.9992 3.49938 10.9992C3.8972 10.9992 4.27873 10.8412 4.56004 10.5599C4.84134 10.2786 4.99938 9.89702 4.99938 9.4992V1.4992C4.99924 1.24366 4.93382 0.992392 4.80933 0.769229C4.68484 0.546066 4.5054 0.358408 4.28803 0.224055C4.07066 0.0897011 3.82257 0.0131072 3.56729 0.00153824C3.31201 -0.0100308 3.05801 0.0438086 2.82938 0.15795L0.82938 1.15795C0.498311 1.3344 0.245379 1.6285 0.12047 1.98225C-0.004439 2.336 0.00774342 2.72371 0.154614 3.06892C0.301485 3.41413 0.572382 3.69177 0.913875 3.84709C1.25537 4.00241 1.64267 4.02412 1.99938 3.90795V3.91295ZM6.96563 16.0204C6.90136 15.5579 6.7442 15.1132 6.50361 14.713C6.26301 14.3128 5.94396 13.9654 5.56563 13.6917C4.8114 13.1443 3.87474 12.9096 2.95151 13.0368C2.02829 13.164 1.18998 13.6432 0.61188 14.3742C0.39005 14.6593 0.214174 14.9773 0.0906297 15.3167C-0.0396071 15.6891 -0.0178891 16.0978 0.151079 16.4543C0.320048 16.8108 0.622662 17.0864 0.993373 17.2214C1.36408 17.3563 1.77304 17.3398 2.13167 17.1754C2.49029 17.011 2.7697 16.7119 2.90938 16.3429C2.92737 16.298 2.95179 16.2559 2.98188 16.2179C3.07879 16.1006 3.21682 16.0247 3.36781 16.0056C3.5188 15.9866 3.67137 16.0258 3.79438 16.1154C3.8485 16.1528 3.89431 16.201 3.92895 16.2569C3.96358 16.3129 3.98628 16.3753 3.99563 16.4404C4.00401 16.5017 3.9998 16.564 3.98325 16.6235C3.96669 16.683 3.93816 16.7386 3.89938 16.7867L3.88313 16.8079L0.29813 21.6017C0.131643 21.8246 0.0304513 22.0895 0.00586695 22.3667C-0.0187175 22.6438 0.0342751 22.9224 0.15892 23.1711C0.283564 23.4199 0.474948 23.6291 0.711672 23.7753C0.948396 23.9216 1.22113 23.9991 1.49938 23.9992H5.49938C5.8972 23.9992 6.27873 23.8412 6.56004 23.5599C6.84134 23.2786 6.99938 22.897 6.99938 22.4992C6.99938 22.1014 6.84134 21.7198 6.56004 21.4385C6.27873 21.1572 5.8972 20.9992 5.49938 20.9992H4.49938L6.28438 18.6104C6.56558 18.2464 6.77079 17.8295 6.88781 17.3846C7.00484 16.9397 7.0313 16.4758 6.96563 16.0204Z" fill="white" fill-opacity="0.95"/>
</g>
</svg>
