<svg width="32" height="32" viewBox="0 0 32 32" fill="none" xmlns="http://www.w3.org/2000/svg">
<g transform="translate(3.5000, 6.5000)">
<path id="Vector" d="M7 1.5C7 1.10218 7.15804 0.720644 7.43934 0.43934C7.72064 0.158035 8.10218 0 8.5 0H23.5C23.8978 0 24.2794 0.158035 24.5607 0.43934C24.842 0.720644 25 1.10218 25 1.5C25 1.89782 24.842 2.27936 24.5607 2.56066C24.2794 2.84196 23.8978 3 23.5 3H8.5C8.10218 3 7.72064 2.84196 7.43934 2.56066C7.15804 2.27936 7 1.89782 7 1.5ZM23.5 8H8.5C8.10218 8 7.72064 8.15804 7.43934 8.43934C7.15804 8.72064 7 9.10218 7 9.5C7 9.89782 7.15804 10.2794 7.43934 10.5607C7.72064 10.842 8.10218 11 8.5 11H23.5C23.8978 11 24.2794 10.842 24.5607 10.5607C24.842 10.2794 25 9.89782 25 9.5C25 9.10218 24.842 8.72064 24.5607 8.43934C24.2794 8.15804 23.8978 8 23.5 8ZM23.5 16H8.5C8.10218 16 7.72064 16.158 7.43934 16.4393C7.15804 16.7206 7 17.1022 7 17.5C7 17.8978 7.15804 18.2794 7.43934 18.5607C7.72064 18.842 8.10218 19 8.5 19H23.5C23.8978 19 24.2794 18.842 24.5607 18.5607C24.842 18.2794 25 17.8978 25 17.5C25 17.1022 24.842 16.7206 24.5607 16.4393C24.2794 16.158 23.8978 16 23.5 16ZM3.5 0H1.5C1.10218 0 0.720644 0.158035 0.43934 0.43934C0.158035 0.720644 0 1.10218 0 1.5C0 1.89782 0.158035 2.27936 0.43934 2.56066C0.720644 2.84196 1.10218 3 1.5 3H3.5C3.89782 3 4.27936 2.84196 4.56066 2.56066C4.84196 2.27936 5 1.89782 5 1.5C5 1.10218 4.84196 0.720644 4.56066 0.43934C4.27936 0.158035 3.89782 0 3.5 0ZM3.5 8H1.5C1.10218 8 0.720644 8.15804 0.43934 8.43934C0.158035 8.72064 0 9.10218 0 9.5C0 9.89782 0.158035 10.2794 0.43934 10.5607C0.720644 10.842 1.10218 11 1.5 11H3.5C3.89782 11 4.27936 10.842 4.56066 10.5607C4.84196 10.2794 5 9.89782 5 9.5C5 9.10218 4.84196 8.72064 4.56066 8.43934C4.27936 8.15804 3.89782 8 3.5 8ZM3.5 16H1.5C1.10218 16 0.720644 16.158 0.43934 16.4393C0.158035 16.7206 0 17.1022 0 17.5C0 17.8978 0.158035 18.2794 0.43934 18.5607C0.720644 18.842 1.10218 19 1.5 19H3.5C3.89782 19 4.27936 18.842 4.56066 18.5607C4.84196 18.2794 5 17.8978 5 17.5C5 17.1022 4.84196 16.7206 4.56066 16.4393C4.27936 16.158 3.89782 16 3.5 16Z" fill="white" fill-opacity="0.95"/>
</g>
</svg>
