<svg width="32" height="32" viewBox="0 0 32 32" fill="none" xmlns="http://www.w3.org/2000/svg">
<g transform="translate(2.5000, 5.0000)">
<path id="Vector" d="M0 1.5C0 1.10218 0.158035 0.720644 0.43934 0.43934C0.720644 0.158035 1.10218 0 1.5 0H23.5C23.8978 0 24.2794 0.158035 24.5607 0.43934C24.842 0.720644 25 1.10218 25 1.5C25 1.89782 24.842 2.27936 24.5607 2.56066C24.2794 2.84196 23.8978 3 23.5 3H1.5C1.10218 3 0.720644 2.84196 0.43934 2.56066C0.158035 2.27936 0 1.89782 0 1.5ZM1.5 11H23.5C23.8978 11 24.2794 10.842 24.5607 10.5607C24.842 10.2794 25 9.89782 25 9.5C25 9.10218 24.842 8.72064 24.5607 8.43934C24.2794 8.15804 23.8978 8 23.5 8H1.5C1.10218 8 0.720644 8.15804 0.43934 8.43934C0.158035 8.72064 0 9.10218 0 9.5C0 9.89782 0.158035 10.2794 0.43934 10.5607C0.720644 10.842 1.10218 11 1.5 11ZM14.5 16H1.5C1.10218 16 0.720644 16.158 0.43934 16.4393C0.158035 16.7206 0 17.1022 0 17.5C0 17.8978 0.158035 18.2794 0.43934 18.5607C0.720644 18.842 1.10218 19 1.5 19H14.5C14.8978 19 15.2794 18.842 15.5607 18.5607C15.842 18.2794 16 17.8978 16 17.5C16 17.1022 15.842 16.7206 15.5607 16.4393C15.2794 16.158 14.8978 16 14.5 16ZM25.5 16H24V14.5C24 14.1022 23.842 13.7206 23.5607 13.4393C23.2794 13.158 22.8978 13 22.5 13C22.1022 13 21.7206 13.158 21.4393 13.4393C21.158 13.7206 21 14.1022 21 14.5V16H19.5C19.1022 16 18.7206 16.158 18.4393 16.4393C18.158 16.7206 18 17.1022 18 17.5C18 17.8978 18.158 18.2794 18.4393 18.5607C18.7206 18.842 19.1022 19 19.5 19H21V20.5C21 20.8978 21.158 21.2794 21.4393 21.5607C21.7206 21.842 22.1022 22 22.5 22C22.8978 22 23.2794 21.842 23.5607 21.5607C23.842 21.2794 24 20.8978 24 20.5V19H25.5C25.8978 19 26.2794 18.842 26.5607 18.5607C26.842 18.2794 27 17.8978 27 17.5C27 17.1022 26.842 16.7206 26.5607 16.4393C26.2794 16.158 25.8978 16 25.5 16Z" fill="white" fill-opacity="0.95"/>
</g>
</svg>
