<svg width="32" height="32" viewBox="0 0 32 32" fill="none" xmlns="http://www.w3.org/2000/svg">
<g transform="translate(3.5000, 6.0000)">
<path id="Vector" d="M6 2C6 1.60218 6.15804 1.22064 6.43934 0.93934C6.72065 0.658035 7.10218 0.5 7.5 0.5H23.5C23.8978 0.5 24.2794 0.658035 24.5607 0.93934C24.842 1.22064 25 1.60218 25 2C25 2.39782 24.842 2.77936 24.5607 3.06066C24.2794 3.34196 23.8978 3.5 23.5 3.5H7.5C7.10218 3.5 6.72065 3.34196 6.43934 3.06066C6.15804 2.77936 6 2.39782 6 2ZM23.5 8.5H7.5C7.10218 8.5 6.72065 8.65804 6.43934 8.93934C6.15804 9.22064 6 9.60218 6 10C6 10.3978 6.15804 10.7794 6.43934 11.0607C6.72065 11.342 7.10218 11.5 7.5 11.5H23.5C23.8978 11.5 24.2794 11.342 24.5607 11.0607C24.842 10.7794 25 10.3978 25 10C25 9.60218 24.842 9.22064 24.5607 8.93934C24.2794 8.65804 23.8978 8.5 23.5 8.5ZM23.5 16.5H7.5C7.10218 16.5 6.72065 16.658 6.43934 16.9393C6.15804 17.2206 6 17.6022 6 18C6 18.3978 6.15804 18.7794 6.43934 19.0607C6.72065 19.342 7.10218 19.5 7.5 19.5H23.5C23.8978 19.5 24.2794 19.342 24.5607 19.0607C24.842 18.7794 25 18.3978 25 18C25 17.6022 24.842 17.2206 24.5607 16.9393C24.2794 16.658 23.8978 16.5 23.5 16.5ZM2 8C1.60444 8 1.21776 8.1173 0.888861 8.33706C0.559962 8.55682 0.303617 8.86918 0.152242 9.23463C0.000866562 9.60009 -0.0387401 10.0022 0.0384303 10.3902C0.115601 10.7781 0.306082 11.1345 0.585787 11.4142C0.865492 11.6939 1.22186 11.8844 1.60982 11.9616C1.99778 12.0387 2.39992 11.9991 2.76537 11.8478C3.13082 11.6964 3.44318 11.44 3.66294 11.1111C3.8827 10.7822 4 10.3956 4 10C4 9.46957 3.78929 8.96086 3.41421 8.58579C3.03914 8.21071 2.53043 8 2 8ZM2 0C1.60444 0 1.21776 0.117298 0.888861 0.337061C0.559962 0.556824 0.303617 0.869181 0.152242 1.23463C0.000866562 1.60009 -0.0387401 2.00222 0.0384303 2.39018C0.115601 2.77814 0.306082 3.13451 0.585787 3.41421C0.865492 3.69392 1.22186 3.8844 1.60982 3.96157C1.99778 4.03874 2.39992 3.99913 2.76537 3.84776C3.13082 3.69638 3.44318 3.44004 3.66294 3.11114C3.8827 2.78224 4 2.39556 4 2C4 1.46957 3.78929 0.960859 3.41421 0.585786C3.03914 0.210714 2.53043 0 2 0ZM2 16C1.60444 16 1.21776 16.1173 0.888861 16.3371C0.559962 16.5568 0.303617 16.8692 0.152242 17.2346C0.000866562 17.6001 -0.0387401 18.0022 0.0384303 18.3902C0.115601 18.7781 0.306082 19.1345 0.585787 19.4142C0.865492 19.6939 1.22186 19.8844 1.60982 19.9616C1.99778 20.0387 2.39992 19.9991 2.76537 19.8478C3.13082 19.6964 3.44318 19.44 3.66294 19.1111C3.8827 18.7822 4 18.3956 4 18C4 17.4696 3.78929 16.9609 3.41421 16.5858C3.03914 16.2107 2.53043 16 2 16Z" fill="white" fill-opacity="0.95"/>
</g>
</svg>
