<svg width="32" height="32" viewBox="0 0 32 32" fill="none" xmlns="http://www.w3.org/2000/svg">
<g transform="translate(3.5000, 2.0000)">
<path id="Vector" d="M22.5 9H19V6.5C19 4.77609 18.3152 3.12279 17.0962 1.90381C15.8772 0.684819 14.2239 0 12.5 0C10.7761 0 9.12279 0.684819 7.90381 1.90381C6.68482 3.12279 6 4.77609 6 6.5V9H2.5C1.83696 9 1.20107 9.26339 0.732233 9.73223C0.263392 10.2011 0 10.837 0 11.5V25.5C0 26.163 0.263392 26.7989 0.732233 27.2678C1.20107 27.7366 1.83696 28 2.5 28H22.5C23.163 28 23.7989 27.7366 24.2678 27.2678C24.7366 26.7989 25 26.163 25 25.5V11.5C25 10.837 24.7366 10.2011 24.2678 9.73223C23.7989 9.26339 23.163 9 22.5 9ZM9 6.5C9 5.57174 9.36875 4.6815 10.0251 4.02513C10.6815 3.36875 11.5717 3 12.5 3C13.4283 3 14.3185 3.36875 14.9749 4.02513C15.6313 4.6815 16 5.57174 16 6.5V9H9V6.5ZM22 25H3V12H22V25Z" fill="white" fill-opacity="0.95"/>
</g>
</svg>
