<svg width="125" height="33" viewBox="0 0 125 33" fill="none" xmlns="http://www.w3.org/2000/svg">
<path d="M23.3732 0.871893V32.2205C23.3732 32.3702 23.2523 32.4912 23.1035 32.4912H17.2724C17.1233 32.4912 17.0026 32.3698 17.0026 32.2205V29.6552H16.9185C16.2434 30.6431 15.322 31.4396 14.1549 32.0469C12.9875 32.6533 11.7147 32.9571 10.3365 32.9571C8.42356 32.9571 6.68007 32.4558 5.10511 31.4543C3.52952 30.4527 2.29197 29.0626 1.39213 27.2849C0.464043 25.4782 0 23.4397 0 21.1678C0 18.8958 0.477692 16.8433 1.43434 15.0083C2.3345 13.259 3.57904 11.8905 5.16827 10.9026C6.75719 9.91476 8.49402 9.4205 10.3791 9.4205C11.6449 9.44884 12.8539 9.71667 14.0073 10.2249C15.1601 10.7332 16.1304 11.4676 16.9185 12.4262H17.0026V0.871893C17.0026 0.722214 17.1236 0.601196 17.2724 0.601196H23.1035C23.2526 0.601196 23.3732 0.722532 23.3732 0.871893ZM16.1377 17.9287C15.6737 16.9417 15.0335 16.1656 14.2181 15.6016C13.4023 15.0367 12.5022 14.7542 11.5179 14.7542C10.5337 14.7542 9.63287 15.0367 8.81746 15.6016C8.00173 16.1656 7.36216 16.9417 6.89812 17.9287C6.43376 18.9175 6.20206 20.0035 6.20206 21.1894C6.20206 22.3754 6.43376 23.4614 6.89812 24.4483C7.36216 25.4371 8.00141 26.212 8.81746 26.7773C9.63287 27.3422 10.533 27.6231 11.5179 27.6231C12.5028 27.6231 13.402 27.3422 14.2181 26.7773C15.0335 26.2123 15.674 25.4371 16.1377 24.4483C16.6018 23.4614 16.8338 22.3744 16.8338 21.1894C16.8338 20.0044 16.6014 18.9175 16.1377 17.9287Z" fill="#27C58B"/>
<path d="M99.7389 32.4915H93.9079C93.7587 32.4915 93.6381 32.3702 93.6381 32.2208V20.1732C93.6381 18.3956 93.3283 17.0695 92.7094 16.1943C92.0346 15.2348 90.9516 14.7542 89.4614 14.7542C87.9712 14.7542 86.8587 15.3329 86.1283 16.4905C85.4529 17.4784 85.1155 18.8605 85.1155 20.6382V32.2205C85.1155 32.3702 84.9946 32.4912 84.8457 32.4912H79.0147C78.8655 32.4912 78.7449 32.3699 78.7449 32.2205V10.1571C78.7449 10.0075 78.8658 9.88645 79.0147 9.88645H84.8457C84.9949 9.88645 85.1155 10.0078 85.1155 10.1571V12.4262H85.2418C85.8325 11.4953 86.719 10.7616 87.9001 10.225C89.0811 9.68932 90.4314 9.42053 91.9498 9.42053C93.3851 9.44888 94.6639 9.73136 95.7894 10.267C97.0829 10.9164 98.0821 11.8906 98.7851 13.1883C99.6005 14.7119 100.009 16.6316 100.009 18.9449V32.2205C100.009 32.3702 99.8881 32.4912 99.7392 32.4912L99.7389 32.4915Z" fill="#27C58B"/>
<path d="M68.4326 10.1572V32.2205C68.4326 32.3702 68.5535 32.4912 68.7024 32.4912H74.5334C74.6826 32.4912 74.8032 32.3699 74.8032 32.2205V10.1572C74.8032 10.0075 74.6823 9.88647 74.5334 9.88647H68.7024C68.5532 9.88647 68.4326 10.0078 68.4326 10.1572Z" fill="#27C58B"/>
<path d="M71.6182 7.3362C73.6373 7.3362 75.2741 5.69394 75.2741 3.6681C75.2741 1.64226 73.6373 0 71.6182 0C69.5991 0 67.9624 1.64226 67.9624 3.6681C67.9624 5.69394 69.5991 7.3362 71.6182 7.3362Z" fill="#27C58B"/>
<path d="M30.3946 7.3362C32.4136 7.3362 34.0504 5.69394 34.0504 3.6681C34.0504 1.64226 32.4136 0 30.3946 0C28.3755 0 26.7387 1.64226 26.7387 3.6681C26.7387 5.69394 28.3755 7.3362 30.3946 7.3362Z" fill="#27C58B"/>
<path d="M27.2089 10.1572V32.2205C27.2089 32.3702 27.3299 32.4912 27.4787 32.4912H33.3097C33.4589 32.4912 33.5795 32.3699 33.5795 32.2205V10.1572C33.5795 10.0075 33.4586 9.88647 33.3097 9.88647H27.4787C27.3296 9.88647 27.2089 10.0078 27.2089 10.1572Z" fill="#27C58B"/>
<path d="M50.9333 32.7667C43.1179 32.7667 36.2572 17.895 36.1848 0.872599C36.1842 0.722601 36.3054 0.600947 36.4549 0.600947H42.1552C42.304 0.600947 42.4243 0.721964 42.425 0.871325C42.4954 16.9475 48.833 26.3232 50.9415 26.5057C53.1853 26.5057 59.441 18.2402 59.441 9.88616C59.441 7.88715 57.8228 6.26106 55.8346 6.26106C54.1517 6.26106 52.3543 7.60435 52.2146 9.63139C52.2048 9.77438 52.088 9.88584 51.9455 9.88584H46.2395C46.0881 9.88584 45.9653 9.76101 45.9697 9.6091C46.1164 4.28529 50.4851 0 55.8349 0C61.1848 0 65.6817 4.43465 65.6817 9.88616C65.6817 19.6656 58.3904 32.7667 50.9333 32.7667Z" fill="#27C58B"/>
<path d="M125 21.8003C125 19.4576 124.529 16.7867 123.587 15.0083C122.645 13.2307 121.33 11.8552 119.642 10.8813C117.955 9.90715 116.028 9.42053 113.862 9.42053C111.697 9.42053 109.749 9.90715 108.019 10.8813C106.29 11.8555 104.932 13.2023 103.948 14.924C102.935 16.7593 102.429 18.8401 102.429 21.1678C102.429 23.4955 102.949 25.5773 103.99 27.4117C104.974 29.105 106.331 30.4381 108.061 31.4123C109.791 32.3855 111.725 32.9004 113.862 32.9575C116.281 32.9852 118.391 32.5476 120.191 31.6451C121.707 30.8982 122.997 29.8358 124.06 28.4572C124.158 28.3295 124.123 28.1438 123.985 28.0607L120.09 25.7085C119.978 25.6413 119.835 25.6636 119.748 25.7614C118.976 26.633 118.16 27.2604 117.301 27.6448C116.387 28.054 115.325 28.2158 114.115 28.2158C111.847 28.2158 108.92 26.3165 108.715 23.4939H124.67C124.81 23.4939 124.927 23.3859 124.939 23.2455C124.98 22.7637 125 22.2828 125 21.8006V21.8003ZM113.862 14.2045C115.128 14.2045 116.222 14.6201 117.094 15.5373C117.839 16.3217 118.606 17.5711 118.663 19.3175H108.71C108.785 17.7328 109.601 16.3969 110.48 15.595C111.48 14.6822 112.597 14.2042 113.862 14.2042V14.2045Z" fill="#27C58B"/>
</svg>
