<svg width="24" height="24" viewBox="0 0 24 24" fill="none" xmlns="http://www.w3.org/2000/svg">
<path d="M20.1919 1.36294C20.0572 1.25786 19.9003 1.18484 19.7331 1.14943C19.566 1.11402 19.393 1.11714 19.2272 1.15857L7.22719 4.15857C6.98381 4.2194 6.76774 4.35984 6.61334 4.55757C6.45893 4.75529 6.37504 4.99895 6.375 5.24982V14.9389C5.63486 14.6159 4.8102 14.5404 4.02372 14.7237C3.23724 14.907 2.53095 15.3394 2.00992 15.9564C1.48888 16.5734 1.18095 17.3421 1.13192 18.1481C1.08289 18.9542 1.29539 19.7546 1.7378 20.4302C2.18021 21.1058 2.8289 21.6205 3.58737 21.8978C4.34583 22.1751 5.17355 22.2001 5.94739 21.9692C6.72123 21.7383 7.39985 21.2637 7.88229 20.6161C8.36473 19.9684 8.62522 19.1824 8.625 18.3748V6.12826L18.375 3.69076V11.9408C17.6348 11.6177 16.81 11.5423 16.0235 11.7256C15.2369 11.909 14.5306 12.3415 14.0096 12.9586C13.4886 13.5757 13.1808 14.3446 13.1319 15.1507C13.083 15.9569 13.2957 16.7573 13.7383 17.4328C14.1809 18.1084 14.8298 18.623 15.5885 18.9001C16.3471 19.1772 17.1749 19.2019 17.9487 18.9707C18.7226 18.7394 19.4011 18.2645 19.8833 17.6166C20.3655 16.9687 20.6256 16.1825 20.625 15.3748V2.24982C20.625 2.07879 20.5859 1.91002 20.5109 1.75635C20.4358 1.60267 20.3267 1.46812 20.1919 1.36294ZM4.875 19.8748C4.57833 19.8748 4.28832 19.7868 4.04165 19.622C3.79497 19.4572 3.60271 19.2229 3.48918 18.9488C3.37565 18.6748 3.34595 18.3732 3.40382 18.0822C3.4617 17.7912 3.60456 17.5239 3.81434 17.3142C4.02412 17.1044 4.2914 16.9615 4.58237 16.9036C4.87334 16.8458 5.17494 16.8755 5.44903 16.989C5.72312 17.1025 5.95738 17.2948 6.12221 17.5415C6.28703 17.7881 6.375 18.0781 6.375 18.3748C6.375 18.7726 6.21697 19.1542 5.93566 19.4355C5.65436 19.7168 5.27283 19.8748 4.875 19.8748ZM16.875 16.8748C16.5783 16.8748 16.2883 16.7868 16.0416 16.622C15.795 16.4572 15.6027 16.2229 15.4892 15.9488C15.3757 15.6748 15.3459 15.3732 15.4038 15.0822C15.4617 14.7912 15.6046 14.5239 15.8143 14.3142C16.0241 14.1044 16.2914 13.9615 16.5824 13.9036C16.8733 13.8458 17.1749 13.8755 17.449 13.989C17.7231 14.1025 17.9574 14.2948 18.1222 14.5415C18.287 14.7881 18.375 15.0781 18.375 15.3748C18.375 15.7726 18.217 16.1542 17.9357 16.4355C17.6544 16.7168 17.2728 16.8748 16.875 16.8748Z" fill="#27C58B"/>
</svg>
