<svg width="32" height="32" viewBox="0 0 32 32" fill="none" xmlns="http://www.w3.org/2000/svg">
<g transform="translate(5.9375, 4.6231)">
<path id="Vector" d="M19.1899 2.68041L10.4399 0.0554131C10.2439 -0.00340803 10.0369 -0.0156037 9.83539 0.0197998C9.63388 0.0552033 9.44344 0.137226 9.27927 0.259319C9.1151 0.381412 8.98174 0.540194 8.88985 0.722991C8.79795 0.905788 8.75006 1.10754 8.75001 1.31213V12.2737C7.68561 11.5935 6.42508 11.2871 5.16723 11.4026C3.90937 11.5182 2.72578 12.0492 1.80311 12.9119C0.880451 13.7746 0.271228 14.9198 0.071533 16.1671C-0.128162 17.4144 0.0930339 18.6926 0.700235 19.8003C1.30744 20.9079 2.26609 21.7819 3.42499 22.2844C4.58389 22.7869 5.87709 22.8893 7.10064 22.5754C8.32418 22.2616 9.40842 21.5493 10.1824 20.5511C10.9563 19.5528 11.3759 18.3253 11.375 17.0621V8.32635L18.4352 10.4438C18.6311 10.5027 18.8381 10.5149 19.0396 10.4795C19.2411 10.4441 19.4316 10.362 19.5957 10.2399C19.7599 10.1179 19.8933 9.95907 19.9852 9.77627C20.0771 9.59348 20.125 9.39173 20.125 9.18713V3.93713C20.1249 3.65496 20.0339 3.38033 19.8655 3.15396C19.697 2.92759 19.4601 2.76154 19.1899 2.68041ZM5.68751 20.1246C5.0818 20.1246 4.4897 19.945 3.98607 19.6085C3.48245 19.272 3.08992 18.7937 2.85813 18.2341C2.62633 17.6745 2.56569 17.0587 2.68385 16.4647C2.80202 15.8706 3.09369 15.3249 3.52199 14.8966C3.95029 14.4683 4.49598 14.1766 5.09004 14.0585C5.68411 13.9403 6.29988 14.001 6.85947 14.2327C7.41907 14.4645 7.89737 14.8571 8.23388 15.3607C8.57039 15.8643 8.75001 16.4564 8.75001 17.0621C8.75001 17.8744 8.42735 18.6533 7.85302 19.2276C7.27869 19.802 6.49973 20.1246 5.68751 20.1246ZM17.5 7.42291L11.375 5.58541V3.07635L17.5 4.91385V7.42291Z" fill="white" fill-opacity="0.95"/>
</g>
</svg>
