<svg width="32" height="32" viewBox="0 0 32 32" fill="none" xmlns="http://www.w3.org/2000/svg">
<g transform="translate(4.6250, 3.7495)">
<path id="Vector" d="M22.2447 0.2776C22.0875 0.155001 21.9045 0.0698122 21.7095 0.0284987C21.5145 -0.0128148 21.3126 -0.00916792 21.1192 0.0391628L7.11922 3.53916C6.83528 3.61014 6.5832 3.77398 6.40306 4.00466C6.22292 4.23534 6.12505 4.51961 6.125 4.81229V16.1162C5.2615 15.7393 4.29941 15.6513 3.38184 15.8652C2.46428 16.079 1.64027 16.5834 1.0324 17.3032C0.42453 18.0231 0.0652733 18.9199 0.0080732 19.8603C-0.0491269 20.8008 0.198786 21.7345 0.714933 22.5227C1.23108 23.3109 1.98788 23.9114 2.87276 24.2349C3.75764 24.5585 4.72331 24.5877 5.62612 24.3182C6.52894 24.0488 7.32065 23.4951 7.8835 22.7396C8.44635 21.984 8.75025 21.0669 8.75 20.1248V5.83713L20.125 2.99338V12.6184C19.2614 12.2415 18.2992 12.1535 17.3816 12.3674C16.4639 12.5814 15.6399 13.0859 15.032 13.8059C14.4242 14.5258 14.0651 15.4228 14.008 16.3633C13.951 17.3039 14.1991 18.2377 14.7155 19.0258C15.2319 19.814 15.989 20.4143 16.874 20.7376C17.7591 21.0609 18.7249 21.0898 19.6277 20.82C20.5305 20.5502 21.3221 19.9961 21.8846 19.2402C22.4472 18.4844 22.7507 17.567 22.75 16.6248V1.31229C22.75 1.11276 22.7044 0.915862 22.6169 0.736571C22.5293 0.557279 22.402 0.400311 22.2447 0.2776ZM4.375 21.8748C4.02889 21.8748 3.69054 21.7722 3.40275 21.5799C3.11497 21.3876 2.89067 21.1143 2.75821 20.7945C2.62576 20.4747 2.5911 20.1228 2.65863 19.7834C2.72615 19.4439 2.89282 19.1321 3.13757 18.8874C3.38231 18.6426 3.69413 18.4759 4.03359 18.4084C4.37306 18.3409 4.72493 18.3755 5.0447 18.508C5.36447 18.6405 5.63778 18.8648 5.83007 19.1525C6.02237 19.4403 6.125 19.7787 6.125 20.1248C6.125 20.5889 5.94063 21.034 5.61244 21.3622C5.28425 21.6904 4.83913 21.8748 4.375 21.8748ZM18.375 18.3748C18.0289 18.3748 17.6905 18.2722 17.4028 18.0799C17.115 17.8876 16.8907 17.6143 16.7582 17.2945C16.6258 16.9747 16.5911 16.6228 16.6586 16.2834C16.7262 15.9439 16.8928 15.6321 17.1376 15.3874C17.3823 15.1426 17.6941 14.9759 18.0336 14.9084C18.3731 14.8409 18.7249 14.8755 19.0447 15.008C19.3645 15.1405 19.6378 15.3648 19.8301 15.6525C20.0224 15.9403 20.125 16.2787 20.125 16.6248C20.125 17.0889 19.9406 17.534 19.6124 17.8622C19.2843 18.1904 18.8391 18.3748 18.375 18.3748Z" fill="white" fill-opacity="0.95"/>
</g>
</svg>
