<svg width="32" height="32" viewBox="0 0 32 32" fill="none" xmlns="http://www.w3.org/2000/svg">
<g transform="translate(1.4993, 3.0000)">
<path id="Vector" d="M29.0014 1.5C29.0014 1.10218 28.8434 0.720644 28.5621 0.43934C28.2808 0.158035 27.8993 0 27.5014 0C21.9039 0 16.2514 6.0675 13.0139 10.25C11.8314 9.94468 10.5947 9.91415 9.39861 10.1607C8.20248 10.4073 7.07869 10.9245 6.11337 11.6726C5.14805 12.4208 4.36683 13.38 3.82958 14.4767C3.29233 15.5735 3.01333 16.7787 3.01394 18C3.01394 19.5 2.62644 20.8387 1.86019 21.97C1.53844 22.4605 1.13857 22.895 0.676442 23.2563C0.407016 23.4311 0.201563 23.6887 0.0909036 23.9902C-0.0197557 24.2918 -0.0296546 24.6211 0.0626919 24.9287C0.156996 25.24 0.349355 25.5125 0.611101 25.7055C0.872847 25.8986 1.18996 26.0018 1.51519 26H11.0152C12.2353 25.9985 13.4389 25.718 14.534 25.1798C15.629 24.6417 16.5864 23.8602 17.333 22.8951C18.0796 21.9301 18.5955 20.8071 18.8414 19.612C19.0872 18.4169 19.0565 17.1814 18.7514 16C22.9377 12.7562 29.0014 7.1 29.0014 1.5ZM25.7039 3.29875C25.2039 4.91375 24.0602 6.735 22.3389 8.6625C21.9639 9.08625 21.5689 9.5 21.1702 9.89875C20.5621 9.13584 19.8702 8.44359 19.1077 7.835C19.5064 7.43625 19.9189 7.045 20.3427 6.66625C22.2702 4.94375 24.0902 3.80375 25.7039 3.29875ZM11.0102 23H4.75144C5.60299 21.4725 6.03996 19.7487 6.01894 18C6.01894 17.0111 6.31219 16.0444 6.86159 15.2221C7.411 14.3999 8.19189 13.759 9.10553 13.3806C10.0192 13.0022 11.0245 12.9031 11.9944 13.0961C12.9643 13.289 13.8552 13.7652 14.5545 14.4645C15.2537 15.1637 15.7299 16.0546 15.9229 17.0245C16.1158 17.9945 16.0168 18.9998 15.6383 19.9134C15.2599 20.827 14.619 21.6079 13.7968 22.1573C12.9745 22.7068 12.0078 23 11.0189 23H11.0102ZM15.7827 11.585C16.1727 11.0938 16.6014 10.5738 17.0614 10.0413C17.7785 10.5881 18.4188 11.2288 18.9652 11.9462C18.4327 12.4062 17.9127 12.835 17.4214 13.225C16.9571 12.6022 16.4052 12.0498 15.7827 11.585Z" fill="white" fill-opacity="0.95"/>
</g>
</svg>
