<svg width="32" height="32" viewBox="0 0 32 32" fill="none" xmlns="http://www.w3.org/2000/svg">
<g transform="translate(0.2499, 1.4986)">
<path id="Vector" d="M28.974 17.3612C29.2167 17.2805 29.4347 17.1391 29.6073 16.9504C29.7799 16.7617 29.9014 16.532 29.9603 16.2831C30.0192 16.0343 30.0134 15.7745 29.9436 15.5284C29.8738 15.2824 29.7423 15.0583 29.5615 14.8774L15.1253 0.441183C14.9859 0.301343 14.8203 0.190388 14.638 0.11468C14.4557 0.0389714 14.2602 0 14.0628 0C13.8653 0 13.6699 0.0389714 13.4875 0.11468C13.3052 0.190388 13.1396 0.301343 13.0003 0.441183L8.2815 5.16243L5.56025 2.44118C5.27846 2.15939 4.89627 2.00108 4.49775 2.00108C4.09924 2.00108 3.71704 2.15939 3.43525 2.44118C3.15346 2.72298 2.99515 3.10517 2.99515 3.50368C2.99515 3.9022 3.15346 4.28439 3.43525 4.56618L6.16025 7.28368L1.02525 12.4199C0.70021 12.7449 0.44237 13.1308 0.266456 13.5555C0.090542 13.9801 0 14.4353 0 14.8949C0 15.3546 0.090542 15.8097 0.266456 16.2344C0.44237 16.6591 0.70021 17.0449 1.02525 17.3699L11.6328 27.9774C11.9578 28.3025 12.3436 28.5603 12.7683 28.7362C13.1929 28.9121 13.6481 29.0027 14.1078 29.0027C14.5674 29.0027 15.0226 28.9121 15.4472 28.7362C15.8719 28.5603 16.2577 28.3025 16.5828 27.9774L26.3103 18.2512L28.974 17.3612ZM25.0265 15.5149C24.8051 15.5884 24.604 15.7126 24.439 15.8774L14.4615 25.8562C14.4151 25.9027 14.3599 25.9395 14.2992 25.9647C14.2385 25.9899 14.1735 26.0028 14.1078 26.0028C14.042 26.0028 13.977 25.9899 13.9163 25.9647C13.8556 25.9395 13.8004 25.9027 13.754 25.8562L3.1465 15.2512C3.10001 15.2047 3.06313 15.1496 3.03797 15.0889C3.01281 15.0282 2.99986 14.9631 2.99986 14.8974C2.99986 14.8317 3.01281 14.7667 3.03797 14.706C3.06313 14.6453 3.10001 14.5901 3.1465 14.5437L8.2815 9.40618L11.3178 12.4424C10.9559 13.297 10.9024 14.2509 11.1665 15.1406C11.4306 16.0302 11.9959 16.8004 12.7654 17.3191C13.535 17.8378 14.461 18.0728 15.3848 17.9838C16.3086 17.8948 17.1726 17.4873 17.829 16.8312C18.4847 16.1746 18.8918 15.3105 18.9805 14.3869C19.0692 13.4632 18.834 12.5375 18.3152 11.7681C17.7964 10.9988 17.0263 10.4338 16.1367 10.1698C15.2471 9.90582 14.2935 9.95934 13.439 10.3212L10.404 7.28368L14.0653 3.62618L25.724 15.2862L25.0265 15.5149ZM14.2928 13.2962C14.481 13.11 14.7353 13.006 15.0001 13.007C15.2648 13.0081 15.5184 13.1141 15.7051 13.3018C15.8918 13.4895 15.9964 13.7436 15.9961 14.0084C15.9957 14.2731 15.8904 14.5269 15.7032 14.7141C15.516 14.9013 15.2622 15.0067 14.9974 15.007C14.7327 15.0074 14.4786 14.9027 14.2909 14.716C14.1032 14.5293 13.9972 14.2758 13.9961 14.011C13.9951 13.7463 14.099 13.4919 14.2853 13.3037L14.2928 13.2962ZM31.5003 25.5012C31.5003 26.2968 31.1842 27.0599 30.6216 27.6225C30.059 28.1851 29.2959 28.5012 28.5003 28.5012C27.7046 28.5012 26.9415 28.1851 26.3789 27.6225C25.8163 27.0599 25.5003 26.2968 25.5003 25.5012C25.5003 23.0712 27.1165 20.8474 27.3003 20.6012C27.44 20.4149 27.6211 20.2637 27.8294 20.1595C28.0377 20.0554 28.2674 20.0012 28.5003 20.0012C28.7331 20.0012 28.9628 20.0554 29.1711 20.1595C29.3794 20.2637 29.5605 20.4149 29.7003 20.6012C29.884 20.8487 31.5003 23.0724 31.5003 25.5012Z" fill="white" fill-opacity="0.95"/>
</g>
</svg>
