<svg width="32" height="32" viewBox="0 0 32 32" fill="none" xmlns="http://www.w3.org/2000/svg">
<g transform="translate(1.5007, 1.4981)">
<path id="Vector" d="M28.2661 0.732503C27.9519 0.418225 27.5596 0.193373 27.1297 0.0811012C26.6997 -0.0311704 26.2476 -0.0268033 25.8198 0.0937527L25.7923 0.102503L1.80359 7.375C1.31707 7.51611 0.884902 7.8017 0.564319 8.19392C0.243736 8.58614 0.0498683 9.0665 0.00839456 9.57137C-0.0330792 10.0762 0.0797978 10.5818 0.332075 11.0211C0.584352 11.4604 0.964125 11.8126 1.42109 12.0313L11.8736 17.125L16.9623 27.5813C17.163 28.008 17.4814 28.3686 17.8799 28.6206C18.2785 28.8725 18.7408 29.0055 19.2123 29.0038C19.2836 29.0038 19.3561 29.0038 19.4286 28.995C19.9348 28.956 20.4168 28.7625 20.8094 28.4405C21.202 28.1186 21.4862 27.6838 21.6236 27.195L28.8961 3.20625C28.8997 3.19734 28.9027 3.18814 28.9048 3.17875C29.0254 2.75103 29.0298 2.2989 28.9175 1.86893C28.8052 1.43896 28.5804 1.04668 28.2661 0.732503ZM19.1123 25.1338L14.8161 16.3038L20.5661 10.56C20.7056 10.4205 20.8163 10.2548 20.8918 10.0725C20.9673 9.89022 21.0062 9.69483 21.0062 9.4975C21.0062 9.30018 20.9673 9.10479 20.8918 8.92248C20.8163 8.74018 20.7056 8.57453 20.5661 8.435C20.4266 8.29547 20.2609 8.18479 20.0786 8.10928C19.8963 8.03377 19.7009 7.9949 19.5036 7.9949C19.3063 7.9949 19.1109 8.03377 18.9286 8.10928C18.7463 8.18479 18.5806 8.29547 18.4411 8.435L12.6911 14.185L3.86484 9.88625L25.7486 3.25L19.1123 25.1338Z" fill="white" fill-opacity="0.95"/>
</g>
</svg>
