<svg width="32" height="32" viewBox="0 0 32 32" fill="none" xmlns="http://www.w3.org/2000/svg">
<g transform="translate(1.5027, 3.0008)">
<path id="Vector" d="M28.6739 22.2733L28.6664 22.2621L16.6589 1.26958C16.441 0.884239 16.1248 0.563655 15.7424 0.340596C15.36 0.117536 14.9253 0 14.4826 0C14.04 0 13.6052 0.117536 13.2229 0.340596C12.8405 0.563655 12.5243 0.884239 12.3064 1.26958L0.318891 22.2733C0.0707785 22.7163 -0.0366028 23.2242 0.0110297 23.7297C0.0586623 24.2351 0.259051 24.7141 0.585542 25.1029C0.912033 25.4916 1.34915 25.7718 1.83876 25.9061C2.32836 26.0404 2.84724 26.0224 3.32639 25.8546L14.4964 22.0821L25.6664 25.8546C25.9349 25.9498 26.2177 25.9984 26.5026 25.9983C26.9384 25.9969 27.3661 25.8817 27.7436 25.664C28.121 25.4463 28.435 25.1337 28.6545 24.7573C28.8739 24.3809 28.9911 23.9536 28.9945 23.5179C28.9979 23.0822 28.8874 22.6532 28.6739 22.2733ZM15.9964 19.4221V12.4983C15.9964 12.1005 15.8384 11.719 15.5571 11.4377C15.2757 11.1564 14.8942 10.9983 14.4964 10.9983C14.0986 10.9983 13.717 11.1564 13.4357 11.4377C13.1544 11.719 12.9964 12.1005 12.9964 12.4983V19.4221L3.58639 22.6008L14.4826 3.50583L25.4039 22.5996L15.9964 19.4221Z" fill="white" fill-opacity="0.95"/>
</g>
</svg>
