<svg width="32" height="32" viewBox="0 0 32 32" fill="none" xmlns="http://www.w3.org/2000/svg">
<g transform="translate(2.9980, 1.5018)">
<path id="Vector" d="M24.7306 12.3064L3.72305 0.318891C3.28013 0.0707785 2.77216 -0.0366028 2.26671 0.0110297C1.76127 0.0586623 1.2823 0.259051 0.893523 0.585542C0.504746 0.912033 0.224585 1.34915 0.0903029 1.83876C-0.0439788 2.32836 -0.0260159 2.84724 0.141802 3.32639L3.9143 14.4964L0.141802 25.6664C0.00917211 26.0432 -0.0312218 26.4463 0.0240044 26.842C0.0792307 27.2377 0.228469 27.6143 0.459217 27.9404C0.689965 28.2665 0.995503 28.5326 1.35023 28.7163C1.70497 28.9 2.09856 28.9961 2.49805 28.9964C2.92765 28.9955 3.34985 28.8845 3.7243 28.6739L3.73555 28.6664L24.7356 16.6576C25.1206 16.4397 25.4409 16.1234 25.6638 15.7412C25.8866 15.359 26.004 14.9245 26.004 14.482C26.004 14.0396 25.8866 13.605 25.6638 13.2228C25.4409 12.8406 25.1206 12.5243 24.7356 12.3064H24.7306ZM3.3968 25.4039L6.5743 15.9964H13.4981C13.8959 15.9964 14.2774 15.8384 14.5587 15.5571C14.84 15.2757 14.9981 14.8942 14.9981 14.4964C14.9981 14.0986 14.84 13.717 14.5587 13.4357C14.2774 13.1544 13.8959 12.9964 13.4981 12.9964H6.5743L3.39555 3.58639L22.4906 14.4826L3.3968 25.4039Z" fill="white" fill-opacity="0.95"/>
</g>
</svg>
