<svg width="32" height="32" viewBox="0 0 32 32" fill="none" xmlns="http://www.w3.org/2000/svg">
<g transform="translate(4.5000, 3.5000)">
<path id="Vector" d="M20.5 0H15.5C14.837 0 14.2011 0.263392 13.7322 0.732233C13.2634 1.20107 13 1.83696 13 2.5V22.5C13 23.163 13.2634 23.7989 13.7322 24.2678C14.2011 24.7366 14.837 25 15.5 25H20.5C21.163 25 21.7989 24.7366 22.2678 24.2678C22.7366 23.7989 23 23.163 23 22.5V2.5C23 1.83696 22.7366 1.20107 22.2678 0.732233C21.7989 0.263392 21.163 0 20.5 0ZM20 22H16V3H20V22ZM7.5 0H2.5C1.83696 0 1.20107 0.263392 0.732233 0.732233C0.263392 1.20107 0 1.83696 0 2.5V22.5C0 23.163 0.263392 23.7989 0.732233 24.2678C1.20107 24.7366 1.83696 25 2.5 25H7.5C8.16304 25 8.79893 24.7366 9.26777 24.2678C9.73661 23.7989 10 23.163 10 22.5V2.5C10 1.83696 9.73661 1.20107 9.26777 0.732233C8.79893 0.263392 8.16304 0 7.5 0ZM7 22H3V3H7V22Z" fill="white" fill-opacity="0.95"/>
</g>
</svg>
