<svg width="32" height="32" viewBox="0 0 32 32" fill="none" xmlns="http://www.w3.org/2000/svg">
<g transform="translate(2.5000, 2.5000)">
<path id="Vector" d="M13.5 0C10.83 0 8.21987 0.791761 5.99981 2.27516C3.77974 3.75856 2.04942 5.86697 1.02763 8.33377C0.00584937 10.8006 -0.261496 13.515 0.259405 16.1337C0.780305 18.7525 2.06606 21.1579 3.95406 23.0459C5.84207 24.9339 8.24754 26.2197 10.8663 26.7406C13.485 27.2615 16.1994 26.9942 18.6662 25.9724C21.133 24.9506 23.2414 23.2203 24.7248 21.0002C26.2082 18.7801 27 16.17 27 13.5C26.996 9.9208 25.5724 6.48932 23.0416 3.95844C20.5107 1.42756 17.0792 0.00397028 13.5 0ZM13.5 24C11.4233 24 9.39323 23.3842 7.66652 22.2304C5.9398 21.0767 4.59399 19.4368 3.79927 17.5182C3.00455 15.5996 2.79662 13.4884 3.20176 11.4516C3.60691 9.41475 4.60693 7.54383 6.07538 6.07538C7.54384 4.60693 9.41476 3.6069 11.4516 3.20175C13.4884 2.79661 15.5996 3.00454 17.5182 3.79926C19.4368 4.59398 21.0767 5.9398 22.2304 7.66651C23.3842 9.39323 24 11.4233 24 13.5C23.997 16.2839 22.8898 18.9528 20.9213 20.9213C18.9528 22.8898 16.2839 23.997 13.5 24ZM12 9.5V17.5C12 17.8978 11.842 18.2794 11.5607 18.5607C11.2794 18.842 10.8978 19 10.5 19C10.1022 19 9.72065 18.842 9.43934 18.5607C9.15804 18.2794 9.00001 17.8978 9.00001 17.5V9.5C9.00001 9.10217 9.15804 8.72064 9.43934 8.43934C9.72065 8.15803 10.1022 8 10.5 8C10.8978 8 11.2794 8.15803 11.5607 8.43934C11.842 8.72064 12 9.10217 12 9.5ZM18 9.5V17.5C18 17.8978 17.842 18.2794 17.5607 18.5607C17.2794 18.842 16.8978 19 16.5 19C16.1022 19 15.7206 18.842 15.4393 18.5607C15.158 18.2794 15 17.8978 15 17.5V9.5C15 9.10217 15.158 8.72064 15.4393 8.43934C15.7206 8.15803 16.1022 8 16.5 8C16.8978 8 17.2794 8.15803 17.5607 8.43934C17.842 8.72064 18 9.10217 18 9.5Z" fill="white" fill-opacity="0.95"/>
</g>
</svg>
