<svg width="32" height="32" viewBox="0 0 32 32" fill="none" xmlns="http://www.w3.org/2000/svg">
<g transform="translate(5.0000, 4.0000)">
<path id="Vector" d="M22 2V22C22 22.5304 21.7893 23.0391 21.4142 23.4142C21.0391 23.7893 20.5304 24 20 24H15C14.4696 24 13.9609 23.7893 13.5858 23.4142C13.2107 23.0391 13 22.5304 13 22V2C13 1.46957 13.2107 0.960859 13.5858 0.585786C13.9609 0.210714 14.4696 0 15 0H20C20.5304 0 21.0391 0.210714 21.4142 0.585786C21.7893 0.960859 22 1.46957 22 2ZM7 0H2C1.46957 0 0.960859 0.210714 0.585786 0.585786C0.210714 0.960859 0 1.46957 0 2V22C0 22.5304 0.210714 23.0391 0.585786 23.4142C0.960859 23.7893 1.46957 24 2 24H7C7.53043 24 8.03914 23.7893 8.41421 23.4142C8.78929 23.0391 9 22.5304 9 22V2C9 1.46957 8.78929 0.960859 8.41421 0.585786C8.03914 0.210714 7.53043 0 7 0Z" fill="white" fill-opacity="0.95"/>
</g>
</svg>
