<svg width="32" height="32" viewBox="0 0 32 32" fill="none" xmlns="http://www.w3.org/2000/svg">
<g transform="translate(2.9993, 3.0002)">
<path id="Vector" d="M25.2688 6.31697L19.6825 0.731966C19.2137 0.263289 18.5779 0 17.915 0C17.2521 0 16.6163 0.263289 16.1475 0.731966L0.732509 16.1457C0.499568 16.3772 0.314879 16.6527 0.189142 16.9561C0.0634055 17.2595 -0.000880222 17.5848 9.10243e-06 17.9132V23.4995C9.10243e-06 24.1625 0.263401 24.7984 0.732242 25.2672C1.20108 25.7361 1.83697 25.9995 2.50001 25.9995H23.5C23.8978 25.9995 24.2794 25.8414 24.5607 25.5601C24.842 25.2788 25 24.8973 25 24.4995C25 24.1016 24.842 23.7201 24.5607 23.4388C24.2794 23.1575 23.8978 22.9995 23.5 22.9995H12.125L25.2688 9.85322C25.501 9.62106 25.6853 9.34541 25.811 9.04203C25.9367 8.73865 26.0014 8.41348 26.0014 8.08509C26.0014 7.7567 25.9367 7.43153 25.811 7.12815C25.6853 6.82477 25.501 6.54913 25.2688 6.31697ZM7.87501 22.9995H3.00001V18.1245L13.5 7.62447L18.375 12.4995L7.87501 22.9995ZM20.5 10.3745L15.625 5.49947L17.9175 3.20697L22.7925 8.08197L20.5 10.3745Z" fill="white" fill-opacity="0.95"/>
</g>
</svg>
