<svg width="32" height="32" viewBox="0 0 32 32" fill="none" xmlns="http://www.w3.org/2000/svg">
<g transform="translate(3.0002, 2.9993)">
<path id="Vector" d="M25.2675 6.31884L19.6825 0.732591C19.4504 0.500337 19.1747 0.316098 18.8713 0.190398C18.5679 0.0646979 18.2428 0 17.9144 0C17.586 0 17.2608 0.0646979 16.9574 0.190398C16.6541 0.316098 16.3784 0.500337 16.1463 0.732591L0.732511 16.1476C0.499513 16.3791 0.314788 16.6545 0.189047 16.9579C0.0633062 17.2613 -0.000947884 17.5867 1.05665e-05 17.9151V23.5013C1.05665e-05 24.1644 0.263403 24.8003 0.732244 25.2691C1.20108 25.7379 1.83697 26.0013 2.50001 26.0013H8.08626C8.41468 26.0022 8.74001 25.9379 9.04341 25.8122C9.34681 25.6865 9.62225 25.5018 9.85376 25.2688L25.2675 9.85384C25.7362 9.38502 25.9995 8.74925 25.9995 8.08634C25.9995 7.42343 25.7362 6.78766 25.2675 6.31884ZM7.87501 23.0013H3.00001V18.1263L13.5 7.62634L18.375 12.5013L7.87501 23.0013ZM20.5 10.3763L15.625 5.50134L17.9175 3.20884L22.7925 8.08384L20.5 10.3763Z" fill="white" fill-opacity="0.95"/>
</g>
</svg>
