<svg width="32" height="32" viewBox="0 0 32 32" fill="none" xmlns="http://www.w3.org/2000/svg">
<g transform="translate(5.0000, 2.9994)">
<path id="Vector" d="M22 13.0006C22.0008 13.3402 21.9138 13.6741 21.7473 13.9701C21.5808 14.266 21.3406 14.5138 21.05 14.6894L3.04 25.7069C2.73636 25.8928 2.38858 25.9943 2.0326 26.0009C1.67661 26.0075 1.32532 25.9189 1.015 25.7444C0.707637 25.5725 0.451595 25.3219 0.273205 25.0183C0.0948143 24.7147 0.000513572 24.369 0 24.0169V1.98437C0.000513572 1.63223 0.0948143 1.28658 0.273205 0.982963C0.451595 0.679348 0.707637 0.428727 1.015 0.256874C1.32532 0.0823096 1.67661 -0.00624941 2.0326 0.000342933C2.38858 0.00693528 2.73636 0.10844 3.04 0.294374L21.05 11.3119C21.3406 11.4875 21.5808 11.7353 21.7473 12.0312C21.9138 12.3271 22.0008 12.6611 22 13.0006Z" fill="white" fill-opacity="0.95"/>
</g>
</svg>
