<svg width="32" height="32" viewBox="0 0 32 32" fill="none" xmlns="http://www.w3.org/2000/svg">
<g transform="translate(3.7502, 6.3750)">
<path id="Vector" d="M0 1.3125C0 0.964403 0.138281 0.630564 0.384422 0.384422C0.630564 0.138281 0.964403 0 1.3125 0H20.5625C20.9106 0 21.2444 0.138281 21.4906 0.384422C21.7367 0.630564 21.875 0.964403 21.875 1.3125C21.875 1.6606 21.7367 1.99444 21.4906 2.24058C21.2444 2.48672 20.9106 2.625 20.5625 2.625H1.3125C0.964403 2.625 0.630564 2.48672 0.384422 2.24058C0.138281 1.99444 0 1.6606 0 1.3125ZM1.3125 9.625H14C14.3481 9.625 14.6819 9.48672 14.9281 9.24058C15.1742 8.99444 15.3125 8.6606 15.3125 8.3125C15.3125 7.9644 15.1742 7.63056 14.9281 7.38442C14.6819 7.13828 14.3481 7 14 7H1.3125C0.964403 7 0.630564 7.13828 0.384422 7.38442C0.138281 7.63056 0 7.9644 0 8.3125C0 8.6606 0.138281 8.99444 0.384422 9.24058C0.630564 9.48672 0.964403 9.625 1.3125 9.625ZM8.75 14H1.3125C0.964403 14 0.630564 14.1383 0.384422 14.3844C0.138281 14.6306 0 14.9644 0 15.3125C0 15.6606 0.138281 15.9944 0.384422 16.2406C0.630564 16.4867 0.964403 16.625 1.3125 16.625H8.75C9.0981 16.625 9.43194 16.4867 9.67808 16.2406C9.92422 15.9944 10.0625 15.6606 10.0625 15.3125C10.0625 14.9644 9.92422 14.6306 9.67808 14.3844C9.43194 14.1383 9.0981 14 8.75 14ZM24.4442 8.25234C24.3431 8.58479 24.1144 8.86358 23.8081 9.02761C23.5017 9.19163 23.1429 9.2275 22.8102 9.12734L20.125 8.32672V15.3125C20.125 16.1483 19.8591 16.9625 19.3656 17.6372C18.8722 18.3118 18.1768 18.8119 17.3803 19.0651C16.5837 19.3183 15.7272 19.3115 14.9348 19.0455C14.1424 18.7796 13.4552 18.2684 12.9726 17.586C12.49 16.9035 12.2371 16.0852 12.2505 15.2495C12.2639 14.4137 12.5429 13.604 13.0471 12.9373C13.5514 12.2707 14.2546 11.7818 15.0552 11.5415C15.8557 11.3011 16.712 11.3217 17.5 11.6003V6.5625C17.5001 6.3579 17.5479 6.15616 17.6398 5.97336C17.7317 5.79056 17.8651 5.63178 18.0293 5.50969C18.1934 5.38759 18.3839 5.30557 18.5854 5.27017C18.7869 5.23476 18.9939 5.24696 19.1898 5.30578L23.5648 6.61828C23.8981 6.71844 24.1779 6.94684 24.3428 7.25326C24.5077 7.55968 24.5442 7.91904 24.4442 8.25234ZM17.5 15.3125C17.5 15.0529 17.423 14.7992 17.2788 14.5833C17.1346 14.3675 16.9296 14.1992 16.6898 14.0999C16.4499 14.0006 16.186 13.9746 15.9314 14.0252C15.6768 14.0759 15.443 14.2009 15.2594 14.3844C15.0759 14.568 14.9509 14.8018 14.9002 15.0564C14.8496 15.311 14.8756 15.5749 14.9749 15.8148C15.0742 16.0546 15.2425 16.2596 15.4583 16.4038C15.6742 16.548 15.9279 16.625 16.1875 16.625C16.5356 16.625 16.8694 16.4867 17.1156 16.2406C17.3617 15.9944 17.5 15.6606 17.5 15.3125Z" fill="white" fill-opacity="0.95"/>
</g>
</svg>
