<svg width="32" height="32" viewBox="0 0 32 32" fill="none" xmlns="http://www.w3.org/2000/svg">
<g transform="translate(2.5000, 2.5000)">
<path id="Vector" d="M19.5 13.5C19.5001 13.7426 19.4413 13.9815 19.3288 14.1964C19.2162 14.4113 19.0532 14.5957 18.8538 14.7337L12.3538 19.2337C12.1287 19.3896 11.8652 19.4808 11.592 19.4976C11.3187 19.5144 11.0461 19.4561 10.8036 19.329C10.5612 19.2019 10.3581 19.0108 10.2164 18.7766C10.0748 18.5423 9.99993 18.2738 10 18V9C9.99993 8.72624 10.0748 8.45768 10.2164 8.22341C10.3581 7.98915 10.5612 7.79812 10.8036 7.67103C11.0461 7.54393 11.3187 7.48562 11.592 7.5024C11.8652 7.51919 12.1287 7.61043 12.3538 7.76625L18.8538 12.2662C19.0532 12.4043 19.2162 12.5887 19.3288 12.8036C19.4413 13.0185 19.5001 13.2574 19.5 13.5ZM27 13.5C27 16.17 26.2082 18.7801 24.7248 21.0002C23.2414 23.2203 21.133 24.9506 18.6662 25.9724C16.1994 26.9942 13.485 27.2615 10.8663 26.7406C8.24754 26.2197 5.84207 24.9339 3.95406 23.0459C2.06606 21.1579 0.780305 18.7525 0.259405 16.1337C-0.261496 13.515 0.00584937 10.8006 1.02763 8.33377C2.04942 5.86697 3.77974 3.75856 5.99981 2.27516C8.21987 0.791761 10.83 0 13.5 0C17.0792 0.00397028 20.5107 1.42756 23.0416 3.95844C25.5724 6.48932 26.996 9.9208 27 13.5ZM24 13.5C24 11.4233 23.3842 9.39323 22.2304 7.66651C21.0767 5.9398 19.4368 4.59398 17.5182 3.79926C15.5996 3.00454 13.4884 2.79661 11.4516 3.20175C9.41476 3.6069 7.54384 4.60693 6.07538 6.07538C4.60693 7.54383 3.60691 9.41475 3.20176 11.4516C2.79662 13.4884 3.00455 15.5996 3.79927 17.5182C4.59399 19.4368 5.9398 21.0767 7.66652 22.2304C9.39323 23.3842 11.4233 24 13.5 24C16.2839 23.997 18.9528 22.8898 20.9213 20.9213C22.8898 18.9528 23.997 16.2839 24 13.5Z" fill="white" fill-opacity="0.95"/>
</g>
</svg>
