<svg width="32" height="32" viewBox="0 0 32 32" fill="none" xmlns="http://www.w3.org/2000/svg">
<g transform="translate(3.0000, 3.0000)">
<path id="Vector" d="M13 0C10.4288 0 7.91543 0.762437 5.77759 2.19089C3.63975 3.61935 1.97351 5.64968 0.989572 8.02511C0.00563269 10.4006 -0.251811 13.0144 0.249797 15.5362C0.751405 18.0579 1.98953 20.3743 3.80762 22.1924C5.6257 24.0105 7.94208 25.2486 10.4638 25.7502C12.9856 26.2518 15.5994 25.9944 17.9749 25.0104C20.3503 24.0265 22.3807 22.3602 23.8091 20.2224C25.2376 18.0846 26 15.5712 26 13C25.9964 9.5533 24.6256 6.24882 22.1884 3.81163C19.7512 1.37445 16.4467 0.00363977 13 0ZM18.0688 13.8225L11.5688 18.3225C11.4187 18.4263 11.2431 18.487 11.061 18.4981C10.8789 18.5093 10.6972 18.4704 10.5357 18.3856C10.3741 18.3009 10.2388 18.1736 10.1443 18.0175C10.0499 17.8614 10 17.6824 10 17.5V8.5C10 8.31756 10.0499 8.1386 10.1443 7.98249C10.2388 7.82638 10.3741 7.69907 10.5357 7.61436C10.6972 7.52964 10.8789 7.49074 11.061 7.50187C11.2431 7.513 11.4187 7.57374 11.5688 7.6775L18.0688 12.1775C18.2018 12.2695 18.3105 12.3924 18.3856 12.5357C18.4608 12.6789 18.5 12.8382 18.5 13C18.5 13.1618 18.4608 13.3211 18.3856 13.4643C18.3105 13.6076 18.2018 13.7305 18.0688 13.8225Z" fill="white" fill-opacity="0.95"/>
</g>
</svg>
