<svg width="32" height="32" viewBox="0 0 32 32" fill="none" xmlns="http://www.w3.org/2000/svg">
<g transform="translate(4.4998, 2.5021)">
<path id="Vector" d="M21.8113 11.3816L3.80125 0.365387C3.42356 0.135135 2.99153 0.00921763 2.54928 0.000487098C2.10702 -0.00824344 1.67036 0.100526 1.28387 0.315692C0.897388 0.530859 0.57491 0.844718 0.349357 1.22524C0.123803 1.60575 0.00324912 2.0393 0 2.48164V24.5141C0.00324912 24.9565 0.123803 25.39 0.349357 25.7705C0.57491 26.1511 0.897388 26.4649 1.28387 26.6801C1.67036 26.8952 2.10702 27.004 2.54928 26.9953C2.99153 26.9866 3.42356 26.8606 3.80125 26.6304L21.8113 15.6141C22.1744 15.3931 22.4746 15.0823 22.6828 14.7117C22.8911 14.341 23.0005 13.923 23.0005 13.4979C23.0005 13.0727 22.8911 12.6547 22.6828 12.2841C22.4746 11.9135 22.1744 11.6027 21.8113 11.3816ZM3 23.6041V3.39164L19.52 13.4979L3 23.6041Z" fill="white" fill-opacity="0.95"/>
</g>
</svg>
