<svg width="32" height="32" viewBox="0 0 32 32" fill="none" xmlns="http://www.w3.org/2000/svg">
<g transform="translate(3.5000, 3.5000)">
<path id="Vector" d="M25 12.5C25 12.8978 24.842 13.2794 24.5607 13.5607C24.2794 13.842 23.8978 14 23.5 14H14V23.5C14 23.8978 13.842 24.2794 13.5607 24.5607C13.2794 24.842 12.8978 25 12.5 25C12.1022 25 11.7206 24.842 11.4393 24.5607C11.158 24.2794 11 23.8978 11 23.5V14H1.5C1.10218 14 0.720644 13.842 0.43934 13.5607C0.158035 13.2794 0 12.8978 0 12.5C0 12.1022 0.158035 11.7206 0.43934 11.4393C0.720644 11.158 1.10218 11 1.5 11H11V1.5C11 1.10218 11.158 0.720644 11.4393 0.43934C11.7206 0.158035 12.1022 0 12.5 0C12.8978 0 13.2794 0.158035 13.5607 0.43934C13.842 0.720644 14 1.10218 14 1.5V11H23.5C23.8978 11 24.2794 11.158 24.5607 11.4393C24.842 11.7206 25 12.1022 25 12.5Z" fill="white" fill-opacity="0.95"/>
</g>
</svg>
