<svg width="32" height="32" viewBox="0 0 32 32" fill="none" xmlns="http://www.w3.org/2000/svg">
<g transform="translate(2.5000, 2.5000)">
<path id="Vector" d="M13.5 0C10.83 0 8.21987 0.791761 5.99981 2.27516C3.77974 3.75856 2.04942 5.86697 1.02763 8.33377C0.00584937 10.8006 -0.261496 13.515 0.259405 16.1337C0.780305 18.7525 2.06606 21.1579 3.95406 23.0459C5.84207 24.934 8.24754 26.2197 10.8663 26.7406C13.485 27.2615 16.1994 26.9942 18.6662 25.9724C21.133 24.9506 23.2414 23.2203 24.7248 21.0002C26.2082 18.7801 27 16.17 27 13.5C26.996 9.9208 25.5724 6.48932 23.0416 3.95844C20.5107 1.42756 17.0792 0.00397028 13.5 0ZM24 13.5C24.0022 15.7666 23.2673 17.9725 21.9063 19.785L7.21501 5.09375C8.77546 3.92776 10.6295 3.21883 12.5698 3.04626C14.5101 2.87369 16.4602 3.24428 18.2019 4.11657C19.9436 4.98887 21.4084 6.32848 22.4323 7.98561C23.4563 9.64274 23.9991 11.552 24 13.5ZM3.00001 13.5C2.99784 11.2334 3.73269 9.02749 5.09376 7.215L19.785 21.9062C18.2246 23.0722 16.3705 23.7812 14.4302 23.9537C12.4899 24.1263 10.5398 23.7557 8.79811 22.8834C7.05637 22.0111 5.59163 20.6715 4.56767 19.0144C3.54372 17.3573 3.00093 15.448 3.00001 13.5Z" fill="white" fill-opacity="0.95"/>
</g>
</svg>
