<svg width="32" height="32" viewBox="0 0 32 32" fill="none" xmlns="http://www.w3.org/2000/svg">
<g transform="translate(2.5000, 2.5000)">
<path id="Vector" d="M18.5613 16.4387C18.843 16.7205 19.0014 17.1027 19.0014 17.5012C19.0014 17.8998 18.843 18.282 18.5613 18.5637C18.2795 18.8455 17.8973 19.0039 17.4988 19.0039C17.1002 19.0039 16.718 18.8455 16.4363 18.5637L8.43626 10.5638C8.15446 10.282 7.99615 9.89977 7.99615 9.50125C7.99615 9.10274 8.15446 8.72054 8.43626 8.43875C8.71805 8.15696 9.10024 7.99865 9.49876 7.99865C9.89727 7.99865 10.2795 8.15696 10.5613 8.43875L18.5613 16.4387ZM27 13.5C27 16.17 26.2082 18.7801 24.7248 21.0002C23.2414 23.2203 21.133 24.9506 18.6662 25.9724C16.1994 26.9942 13.485 27.2615 10.8663 26.7406C8.24754 26.2197 5.84207 24.934 3.95406 23.0459C2.06606 21.1579 0.780305 18.7525 0.259405 16.1337C-0.261496 13.515 0.00584937 10.8006 1.02763 8.33377C2.04942 5.86697 3.77974 3.75856 5.99981 2.27516C8.21987 0.791761 10.83 0 13.5 0C17.0792 0.00397028 20.5107 1.42756 23.0416 3.95844C25.5724 6.48932 26.996 9.9208 27 13.5ZM24 13.5C24 11.4233 23.3842 9.39323 22.2304 7.66651C21.0767 5.9398 19.4368 4.59399 17.5182 3.79926C15.5996 3.00454 13.4884 2.79661 11.4516 3.20175C9.41476 3.6069 7.54384 4.60693 6.07538 6.07538C4.60693 7.54383 3.60691 9.41475 3.20176 11.4516C2.79662 13.4884 3.00455 15.5996 3.79927 17.5182C4.59399 19.4368 5.9398 21.0767 7.66652 22.2304C9.39323 23.3842 11.4233 24 13.5 24C16.2839 23.997 18.9529 22.8898 20.9213 20.9213C22.8898 18.9528 23.997 16.2839 24 13.5Z" fill="white" fill-opacity="0.95"/>
</g>
</svg>
