<svg width="32" height="32" viewBox="0 0 32 32" fill="none" xmlns="http://www.w3.org/2000/svg">
<g transform="translate(2.5000, 2.5000)">
<path id="Vector" d="M15.5 20C15.5 20.3956 15.3827 20.7822 15.1629 21.1111C14.9432 21.44 14.6308 21.6964 14.2654 21.8478C13.8999 21.9991 13.4978 22.0387 13.1098 21.9616C12.7219 21.8844 12.3655 21.6939 12.0858 21.4142C11.8061 21.1345 11.6156 20.7781 11.5384 20.3902C11.4613 20.0022 11.5009 19.6001 11.6522 19.2346C11.8036 18.8692 12.06 18.5568 12.3889 18.3371C12.7178 18.1173 13.1044 18 13.5 18C14.0304 18 14.5391 18.2107 14.9142 18.5858C15.2893 18.9609 15.5 19.4696 15.5 20ZM27 13.5C27 16.17 26.2082 18.7801 24.7248 21.0002C23.2414 23.2203 21.133 24.9506 18.6662 25.9724C16.1994 26.9942 13.485 27.2615 10.8663 26.7406C8.24754 26.2197 5.84207 24.934 3.95406 23.0459C2.06606 21.1579 0.780305 18.7525 0.259405 16.1337C-0.261496 13.515 0.00584937 10.8006 1.02763 8.33377C2.04942 5.86697 3.77974 3.75856 5.99981 2.27516C8.21987 0.791761 10.83 0 13.5 0C17.0792 0.00397028 20.5107 1.42756 23.0416 3.95844C25.5724 6.48932 26.996 9.9208 27 13.5ZM24 13.5C24 11.4233 23.3842 9.39323 22.2304 7.66651C21.0767 5.9398 19.4368 4.59399 17.5182 3.79926C15.5996 3.00454 13.4884 2.79661 11.4516 3.20175C9.41476 3.6069 7.54384 4.60693 6.07538 6.07538C4.60693 7.54383 3.60691 9.41475 3.20176 11.4516C2.79662 13.4884 3.00455 15.5996 3.79927 17.5182C4.59399 19.4368 5.9398 21.0767 7.66652 22.2304C9.39323 23.3842 11.4233 24 13.5 24C16.2839 23.997 18.9529 22.8898 20.9213 20.9213C22.8898 18.9528 23.997 16.2839 24 13.5ZM13.5 5.5C10.4675 5.5 8.00001 7.7425 8.00001 10.5V11C8.00001 11.3978 8.15804 11.7794 8.43935 12.0607C8.72065 12.342 9.10218 12.5 9.50001 12.5C9.89783 12.5 10.2794 12.342 10.5607 12.0607C10.842 11.7794 11 11.3978 11 11V10.5C11 9.3975 12.125 8.5 13.5 8.5C14.875 8.5 16 9.3975 16 10.5C16 11.6025 14.875 12.5 13.5 12.5C13.1022 12.5 12.7206 12.658 12.4393 12.9393C12.158 13.2206 12 13.6022 12 14V15C11.9991 15.3706 12.1354 15.7284 12.3827 16.0044C12.63 16.2805 12.9707 16.4552 13.3391 16.495C13.7076 16.5347 14.0777 16.4367 14.3781 16.2197C14.6786 16.0028 14.8881 15.6823 14.9663 15.32C17.2888 14.735 19 12.7963 19 10.5C19 7.7425 16.5325 5.5 13.5 5.5Z" fill="white" fill-opacity="0.95"/>
</g>
</svg>
