<svg width="32" height="32" viewBox="0 0 32 32" fill="none" xmlns="http://www.w3.org/2000/svg">
<g transform="translate(2.0000, 5.9998)">
<path id="Vector" d="M0 1.5C0 1.10218 0.158035 0.720644 0.43934 0.43934C0.720644 0.158035 1.10218 0 1.5 0H23.5C23.8978 0 24.2794 0.158035 24.5607 0.43934C24.842 0.720644 25 1.10218 25 1.5C25 1.89782 24.842 2.27936 24.5607 2.56066C24.2794 2.84196 23.8978 3 23.5 3H1.5C1.10218 3 0.720644 2.84196 0.43934 2.56066C0.158035 2.27936 0 1.89782 0 1.5ZM13 8H1.5C1.10218 8 0.720644 8.15804 0.43934 8.43934C0.158035 8.72064 0 9.10218 0 9.5C0 9.89782 0.158035 10.2794 0.43934 10.5607C0.720644 10.842 1.10218 11 1.5 11H13C13.3978 11 13.7794 10.842 14.0607 10.5607C14.342 10.2794 14.5 9.89782 14.5 9.5C14.5 9.10218 14.342 8.72064 14.0607 8.43934C13.7794 8.15804 13.3978 8 13 8ZM13 16H1.5C1.10218 16 0.720644 16.158 0.43934 16.4393C0.158035 16.7206 0 17.1022 0 17.5C0 17.8978 0.158035 18.2794 0.43934 18.5607C0.720644 18.842 1.10218 19 1.5 19H13C13.3978 19 13.7794 18.842 14.0607 18.5607C14.342 18.2794 14.5 17.8978 14.5 17.5C14.5 17.1022 14.342 16.7206 14.0607 16.4393C13.7794 16.158 13.3978 16 13 16ZM28 13.5C28.0001 13.7545 27.9354 14.0048 27.8121 14.2274C27.6888 14.45 27.5108 14.6376 27.295 14.7725L19.295 19.7725C19.0679 19.9144 18.807 19.993 18.5392 20C18.2715 20.007 18.0068 19.9422 17.7726 19.8123C17.5384 19.6825 17.3432 19.4923 17.2074 19.2615C17.0715 19.0307 16.9999 18.7678 17 18.5V8.5C16.9999 8.2322 17.0715 7.96926 17.2074 7.73848C17.3432 7.50771 17.5384 7.31751 17.7726 7.18765C18.0068 7.05779 18.2715 6.993 18.5392 7.00001C18.807 7.00702 19.0679 7.08557 19.295 7.2275L27.295 12.2275C27.5108 12.3624 27.6888 12.55 27.8121 12.7726C27.9354 12.9952 28.0001 13.2455 28 13.5ZM23.67 13.5L20 11.2062V15.7938L23.67 13.5Z" fill="white" fill-opacity="0.95"/>
</g>
</svg>
