<svg width="32" height="32" viewBox="0 0 32 32" fill="none" xmlns="http://www.w3.org/2000/svg">
<path d="M11 13.5H5C4.60218 13.5 4.22064 13.3419 3.93934 13.0606C3.65804 12.7793 3.5 12.3978 3.5 12V5.99997C3.5 5.60214 3.65804 5.22061 3.93934 4.93931C4.22064 4.658 4.60218 4.49997 5 4.49997C5.39782 4.49997 5.77936 4.658 6.06066 4.93931C6.34196 5.22061 6.5 5.60214 6.5 5.99997V8.37497L7.475 7.39997C9.79965 5.06599 12.9559 3.75046 16.25 3.74247H16.32C19.5859 3.73455 22.7235 5.01304 25.0537 7.30122C25.1946 7.43894 25.3069 7.60306 25.3843 7.7842C25.4618 7.96533 25.5027 8.15995 25.5049 8.35692C25.5072 8.5539 25.4705 8.74938 25.3972 8.93221C25.3239 9.11504 25.2152 9.28162 25.0775 9.42247C24.9398 9.56331 24.7757 9.67565 24.5945 9.75306C24.4134 9.83048 24.2188 9.87146 24.0218 9.87367C23.8248 9.87587 23.6293 9.83926 23.4465 9.76592C23.2637 9.69258 23.0971 9.58394 22.9562 9.44622C21.1677 7.69942 18.7626 6.72808 16.2626 6.74282C13.7626 6.75756 11.3691 7.7572 9.60125 9.52497L8.625 10.5H11C11.3978 10.5 11.7794 10.658 12.0607 10.9393C12.342 11.2206 12.5 11.6021 12.5 12C12.5 12.3978 12.342 12.7793 12.0607 13.0606C11.7794 13.3419 11.3978 13.5 11 13.5ZM27 18.5H21C20.6022 18.5 20.2206 18.658 19.9393 18.9393C19.658 19.2206 19.5 19.6021 19.5 20C19.5 20.3978 19.658 20.7793 19.9393 21.0606C20.2206 21.3419 20.6022 21.5 21 21.5H23.375L22.4 22.475C20.6348 24.2489 18.2376 25.2497 15.735 25.2575H15.6812C13.1997 25.2639 10.8155 24.2925 9.045 22.5537C8.76056 22.2756 8.37727 22.1218 7.97946 22.1263C7.58165 22.1307 7.2019 22.293 6.92375 22.5775C6.6456 22.8619 6.49185 23.2452 6.4963 23.643C6.50075 24.0408 6.66306 24.4206 6.9475 24.6987C9.27777 26.9869 12.4154 28.2654 15.6812 28.2575H15.75C19.0429 28.2472 22.1972 26.9303 24.52 24.5962L25.5 23.625V26C25.5 26.3978 25.658 26.7793 25.9393 27.0606C26.2206 27.3419 26.6022 27.5 27 27.5C27.3978 27.5 27.7794 27.3419 28.0607 27.0606C28.342 26.7793 28.5 26.3978 28.5 26V20C28.5 19.6021 28.342 19.2206 28.0607 18.9393C27.7794 18.658 27.3978 18.5 27 18.5Z" fill="white"/>
</svg>
