<svg width="32" height="32" viewBox="0 0 32 32" fill="none" xmlns="http://www.w3.org/2000/svg">
<g transform="translate(2.4988, 3.4974)">
<path id="Vector" d="M0.00118279 12.5039C0.00382993 9.98511 1.00557 7.57028 2.78659 5.78926C4.56761 4.00824 6.98244 3.0065 9.50118 3.00385H21.8762L21.4362 2.5651C21.2967 2.42557 21.186 2.25993 21.1105 2.07762C21.0349 1.89532 20.9961 1.69993 20.9961 1.5026C20.9961 1.30528 21.0349 1.10988 21.1105 0.927581C21.186 0.745277 21.2967 0.579631 21.4362 0.440102C21.5757 0.300572 21.7414 0.189892 21.9237 0.114379C22.106 0.0388659 22.3014 0 22.4987 0C22.696 0 22.8914 0.0388659 23.0737 0.114379C23.256 0.189892 23.4217 0.300572 23.5612 0.440102L26.5612 3.4401C26.701 3.57946 26.812 3.74505 26.8877 3.92737C26.9634 4.1097 27.0024 4.30518 27.0024 4.5026C27.0024 4.70002 26.9634 4.8955 26.8877 5.07783C26.812 5.26016 26.701 5.42575 26.5612 5.5651L23.5612 8.5651C23.2794 8.84689 22.8972 9.0052 22.4987 9.0052C22.1002 9.0052 21.718 8.84689 21.4362 8.5651C21.1544 8.28331 20.9961 7.90112 20.9961 7.5026C20.9961 7.10409 21.1544 6.72189 21.4362 6.4401L21.8762 6.00385H9.50118C7.77788 6.00584 6.12574 6.69129 4.90718 7.90985C3.68862 9.12841 3.00317 10.7806 3.00118 12.5039C3.00118 12.9017 2.84315 13.2832 2.56184 13.5645C2.28054 13.8458 1.89901 14.0039 1.50118 14.0039C1.10336 14.0039 0.721827 13.8458 0.440523 13.5645C0.159218 13.2832 0.00118279 12.9017 0.00118279 12.5039ZM25.5012 11.0039C25.1034 11.0039 24.7218 11.1619 24.4405 11.4432C24.1592 11.7245 24.0012 12.106 24.0012 12.5039C23.9992 14.2271 23.3137 15.8793 22.0952 17.0979C20.8766 18.3164 19.2245 19.0019 17.5012 19.0039H5.12618L5.56618 18.5651C5.70571 18.4256 5.81639 18.2599 5.89191 18.0776C5.96742 17.8953 6.00628 17.6999 6.00628 17.5026C6.00628 17.3053 5.96742 17.1099 5.89191 16.9276C5.81639 16.7453 5.70571 16.5796 5.56618 16.4401C5.42665 16.3006 5.26101 16.1899 5.0787 16.1144C4.8964 16.0389 4.70101 16 4.50368 16C4.30636 16 4.11097 16.0389 3.92866 16.1144C3.74636 16.1899 3.58071 16.3006 3.44118 16.4401L0.441183 19.4401C0.301343 19.5795 0.190387 19.745 0.114679 19.9274C0.0389713 20.1097 0 20.3052 0 20.5026C0 20.7 0.0389713 20.8955 0.114679 21.0778C0.190387 21.2602 0.301343 21.4257 0.441183 21.5651L3.44118 24.5651C3.58071 24.7046 3.74636 24.8153 3.92866 24.8908C4.11097 24.9663 4.30636 25.0052 4.50368 25.0052C4.70101 25.0052 4.8964 24.9663 5.0787 24.8908C5.26101 24.8153 5.42665 24.7046 5.56618 24.5651C5.70571 24.4256 5.81639 24.2599 5.89191 24.0776C5.96742 23.8953 6.00628 23.6999 6.00628 23.5026C6.00628 23.3053 5.96742 23.1099 5.89191 22.9276C5.81639 22.7453 5.70571 22.5796 5.56618 22.4401L5.12618 22.0039H17.5012C20.0199 22.0012 22.4348 20.9995 24.2158 19.2184C25.9968 17.4374 26.9985 15.0226 27.0012 12.5039C27.0012 12.106 26.8431 11.7245 26.5618 11.4432C26.2805 11.1619 25.899 11.0039 25.5012 11.0039Z" fill="white" fill-opacity="0.95"/>
</g>
</svg>
