<svg width="32" height="32" viewBox="0 0 32 32" fill="none" xmlns="http://www.w3.org/2000/svg">
<path d="M2.49996 16C2.50261 13.4813 3.50435 11.0664 5.28537 9.28542C7.06639 7.50439 9.48122 6.50265 12 6.50001H24.375L23.935 6.06126C23.7954 5.92173 23.6848 5.75608 23.6092 5.57378C23.5337 5.39147 23.4949 5.19608 23.4949 4.99876C23.4949 4.80143 23.5337 4.60604 23.6092 4.42374C23.6848 4.24143 23.7954 4.07579 23.935 3.93626C24.0745 3.79673 24.2401 3.68605 24.4224 3.61053C24.6047 3.53502 24.8001 3.49615 24.9975 3.49615C25.1948 3.49615 25.3902 3.53502 25.5725 3.61053C25.7548 3.68605 25.9204 3.79673 26.06 3.93626L29.06 6.93626C29.1998 7.07561 29.3108 7.2412 29.3865 7.42353C29.4622 7.60586 29.5011 7.80134 29.5011 7.99876C29.5011 8.19618 29.4622 8.39166 29.3865 8.57398C29.3108 8.75631 29.1998 8.9219 29.06 9.06126L26.06 12.0613C25.7782 12.343 25.396 12.5014 24.9975 12.5014C24.5989 12.5014 24.2168 12.343 23.935 12.0613C23.6532 11.7795 23.4949 11.3973 23.4949 10.9988C23.4949 10.6002 23.6532 10.218 23.935 9.93626L24.375 9.50001H12C10.2767 9.50199 8.62452 10.1874 7.40596 11.406C6.1874 12.6246 5.50195 14.2767 5.49996 16C5.49996 16.3978 5.34193 16.7794 5.06062 17.0607C4.77932 17.342 4.39779 17.5 3.99996 17.5C3.60214 17.5 3.22061 17.342 2.9393 17.0607C2.658 16.7794 2.49996 16.3978 2.49996 16ZM28 14.5C27.6021 14.5 27.2206 14.658 26.9393 14.9393C26.658 15.2207 26.5 15.6022 26.5 16C26.498 17.7233 25.8125 19.3755 24.594 20.594C23.3754 21.8126 21.7233 22.498 20 22.5H7.62496L8.06496 22.0613C8.20449 21.9217 8.31517 21.7561 8.39069 21.5738C8.4662 21.3915 8.50506 21.1961 8.50506 20.9988C8.50506 20.8014 8.4662 20.606 8.39069 20.4237C8.31517 20.2414 8.20449 20.0758 8.06496 19.9363C7.92543 19.7967 7.75979 19.686 7.57748 19.6105C7.39518 19.535 7.19979 19.4962 7.00246 19.4962C6.80514 19.4962 6.60975 19.535 6.42744 19.6105C6.24514 19.686 6.07949 19.7967 5.93996 19.9363L2.93996 22.9363C2.80012 23.0756 2.68917 23.2412 2.61346 23.4235C2.53775 23.6059 2.49878 23.8013 2.49878 23.9988C2.49878 24.1962 2.53775 24.3917 2.61346 24.574C2.68917 24.7563 2.80012 24.9219 2.93996 25.0613L5.93996 28.0613C6.07949 28.2008 6.24514 28.3115 6.42744 28.387C6.60975 28.4625 6.80514 28.5014 7.00246 28.5014C7.19979 28.5014 7.39518 28.4625 7.57748 28.387C7.75979 28.3115 7.92543 28.2008 8.06496 28.0613C8.20449 27.9217 8.31517 27.7561 8.39069 27.5738C8.4662 27.3915 8.50506 27.1961 8.50506 26.9988C8.50506 26.8014 8.4662 26.606 8.39069 26.4237C8.31517 26.2414 8.20449 26.0758 8.06496 25.9363L7.62496 25.5H20C22.5187 25.4974 24.9335 24.4956 26.7146 22.7146C28.4956 20.9336 29.4973 18.5188 29.5 16C29.5 15.6022 29.3419 15.2207 29.0606 14.9393C28.7793 14.658 28.3978 14.5 28 14.5Z" fill="white" fill-opacity="0.95"/>
</svg>
