<svg width="32" height="32" viewBox="0 0 32 32" fill="none" xmlns="http://www.w3.org/2000/svg">
<path d="M5.5 24.5H26.5V11.5H16C15.6755 11.5 15.3592 11.3949 15.0996 11.2002L11.499 8.5H5.5V24.5ZM29.5 25.1113C29.5 25.7448 29.2487 26.3528 28.8008 26.8008C28.3528 27.2487 27.7448 27.5 27.1113 27.5H5C4.33696 27.5 3.70126 27.2364 3.23242 26.7676C2.76358 26.2987 2.5 25.663 2.5 25V8C2.5 7.33696 2.76358 6.70126 3.23242 6.23242C3.70126 5.76358 4.33696 5.5 5 5.5H11.666C12.2069 5.5 12.7333 5.67552 13.166 6L16.501 8.5H27C27.5801 8.5 28.1391 8.70197 28.584 9.06641L28.7676 9.23242L28.9336 9.41602C29.298 9.86086 29.5 10.4199 29.5 11V25.1113Z" fill="white"/>
<path d="M15.9998 13.5C16.8282 13.5 17.4998 14.1716 17.4998 15V17.7432L18.0251 17.2949C18.6547 16.7569 19.6011 16.8317 20.1394 17.4609C20.6777 18.0907 20.6041 19.0379 19.9744 19.5762L16.9744 22.1406C16.9708 22.1437 16.9662 22.1454 16.9626 22.1484C16.954 22.1557 16.9451 22.1628 16.9363 22.1699C16.9195 22.1834 16.9018 22.1954 16.8845 22.208C16.8612 22.2251 16.8385 22.243 16.8142 22.2588C16.8012 22.2672 16.7874 22.2742 16.7742 22.2822C16.7456 22.2995 16.717 22.3166 16.6873 22.332C16.6679 22.342 16.6483 22.3513 16.6287 22.3604C16.614 22.3672 16.5996 22.3746 16.5847 22.3809C16.5751 22.3849 16.5651 22.3877 16.5554 22.3916C16.537 22.3989 16.5184 22.4055 16.4998 22.4121C16.4717 22.422 16.4436 22.4321 16.4148 22.4404C16.4019 22.4441 16.3887 22.4468 16.3757 22.4502C16.3425 22.4588 16.3092 22.4673 16.2751 22.4736C16.2551 22.4774 16.2348 22.4795 16.2146 22.4824C16.211 22.4829 16.2075 22.4839 16.2039 22.4844C16.1898 22.4863 16.1759 22.4887 16.1619 22.4902C16.1515 22.4913 16.1411 22.4923 16.1306 22.4932C16.114 22.4946 16.0974 22.4952 16.0808 22.4961C16.0574 22.4973 16.034 22.4989 16.0105 22.499C16.007 22.499 16.0032 22.5 15.9998 22.5C15.9958 22.5 15.9919 22.4991 15.988 22.499C15.9652 22.4989 15.9425 22.4973 15.9197 22.4961C15.9018 22.4951 15.8838 22.4948 15.866 22.4932C15.8558 22.4923 15.8458 22.4913 15.8357 22.4902C15.8239 22.4889 15.8123 22.4859 15.8005 22.4844C15.7947 22.4836 15.7888 22.4833 15.783 22.4824C15.7631 22.4795 15.7431 22.4773 15.7234 22.4736C15.6907 22.4675 15.6586 22.4594 15.6267 22.4512C15.6133 22.4477 15.6 22.4442 15.5867 22.4404C15.5539 22.4311 15.5218 22.4207 15.49 22.4092C15.4724 22.4028 15.4547 22.3967 15.4373 22.3896C15.4286 22.3861 15.4195 22.3836 15.4109 22.3799C15.3973 22.3741 15.3843 22.3666 15.3708 22.3604C15.3512 22.3513 15.3316 22.342 15.3123 22.332C15.2823 22.3165 15.2531 22.2997 15.2244 22.2822C15.2096 22.2733 15.1949 22.2644 15.1804 22.2549C15.1591 22.2409 15.1385 22.226 15.1179 22.2109C15.1003 22.1981 15.0823 22.1856 15.0652 22.1719C15.052 22.1613 15.039 22.1506 15.0261 22.1396L12.0251 19.5762C11.3956 19.0379 11.322 18.0906 11.8601 17.4609C12.3983 16.8315 13.3447 16.7572 13.9744 17.2949L14.4998 17.7432V15C14.4998 14.1717 15.1715 13.5002 15.9998 13.5Z" fill="white"/>
</svg>
