<svg width="32" height="32" viewBox="0 0 32 32" fill="none" xmlns="http://www.w3.org/2000/svg">
<g transform="translate(1.9997, 4.4982)">
<path id="Vector" d="M27.3477 18.4744L9.78525 6.45688C9.92805 5.98466 10.0005 5.49397 10.0002 5.00063C10.0004 3.86946 9.61696 2.77167 8.9126 1.88656C8.20823 1.00145 7.22455 0.381344 6.12223 0.127514C5.0199 -0.126315 3.86409 0.00113693 2.84356 0.489054C1.82303 0.976972 0.998097 1.79652 0.503511 2.81383C0.00892448 3.83115 -0.12609 4.98611 0.120519 6.09007C0.367128 7.19403 0.980787 8.18175 1.86126 8.89189C2.74174 9.60204 3.837 9.99264 4.96814 9.9999C6.09929 10.0072 7.19948 9.63066 8.089 8.93188L11.839 11.5019L8.089 14.0719C7.33139 13.4766 6.41794 13.113 5.45853 13.0246C4.49912 12.9363 3.53462 13.127 2.68104 13.5738C1.82746 14.0207 1.12116 14.7046 0.647107 15.5434C0.173052 16.3822 -0.0485675 17.3401 0.00890588 18.3018C0.0663792 19.2636 0.400498 20.1882 0.97107 20.9646C1.54164 21.7409 2.32437 22.3359 3.22509 22.6779C4.12581 23.0199 5.10616 23.0944 6.04822 22.8924C6.99028 22.6905 7.85392 22.2206 8.53525 21.5394C9.00153 21.0759 9.37113 20.5244 9.62261 19.9169C9.87409 19.3094 10.0025 18.6581 10.0002 18.0006C10.0006 17.5069 9.92817 17.0158 9.78525 16.5431L14.5002 13.3181L25.6527 20.9506C25.8153 21.0619 25.9983 21.1401 26.1911 21.1807C26.3839 21.2213 26.5828 21.2235 26.7765 21.1873C26.9701 21.151 27.1548 21.0769 27.3198 20.9693C27.4848 20.8617 27.6271 20.7226 27.7384 20.56C27.8497 20.3974 27.9278 20.2145 27.9685 20.0217C28.0091 19.8289 28.0113 19.63 27.975 19.4363C27.9387 19.2426 27.8647 19.058 27.757 18.893C27.6494 18.7279 27.5103 18.5857 27.3477 18.4744ZM6.414 19.4169C6.08677 19.7439 5.6563 19.9474 5.19591 19.9926C4.73551 20.0379 4.27366 19.9221 3.88903 19.6651C3.50439 19.4081 3.22075 19.0256 3.08642 18.5829C2.95209 18.1403 2.97538 17.6647 3.15231 17.2373C3.32925 16.8098 3.6489 16.4569 4.05681 16.2387C4.46472 16.0205 4.93566 15.9504 5.38943 16.0404C5.84321 16.1305 6.25174 16.375 6.54545 16.7324C6.83916 17.0898 6.99988 17.538 7.00025 18.0006C7.00046 18.2636 6.94878 18.5241 6.84818 18.7671C6.74759 19.0102 6.60004 19.231 6.414 19.4169ZM3.5865 6.41313C3.30666 6.13348 3.11605 5.77711 3.03877 5.38911C2.9615 5.00112 3.00103 4.59892 3.15236 4.23339C3.3037 3.86786 3.56005 3.55542 3.88897 3.3356C4.2179 3.11578 4.60463 2.99845 5.00025 2.99845C5.39587 2.99845 5.7826 3.11578 6.11153 3.3356C6.44045 3.55542 6.6968 3.86786 6.84813 4.23339C6.99947 4.59892 7.039 5.00112 6.96172 5.38911C6.88445 5.77711 6.69383 6.13348 6.414 6.41313C6.03896 6.78792 5.53045 6.99845 5.00025 6.99845C4.47004 6.99845 3.96153 6.78792 3.5865 6.41313ZM17.689 9.31813C17.5778 9.15554 17.4997 8.97263 17.4591 8.77985C17.4186 8.58708 17.4165 8.38821 17.4528 8.19459C17.4891 8.00098 17.5632 7.81642 17.6709 7.65145C17.7785 7.48648 17.9176 7.34434 18.0802 7.23313L25.6527 2.05063C25.9811 1.82586 26.3853 1.74074 26.7765 1.81399C27.1676 1.88725 27.5136 2.11288 27.7384 2.44125C27.9631 2.76962 28.0483 3.17384 27.975 3.56497C27.9018 3.9561 27.6761 4.30211 27.3477 4.52688L19.774 9.70938C19.6114 9.8206 19.4285 9.8987 19.2357 9.93923C19.0429 9.97976 18.8441 9.98192 18.6505 9.94559C18.4569 9.90926 18.2723 9.83515 18.1073 9.72749C17.9424 9.61983 17.8002 9.48073 17.689 9.31813Z" fill="white" fill-opacity="0.95"/>
</g>
</svg>
