<svg width="32" height="32" viewBox="0 0 32 32" fill="none" xmlns="http://www.w3.org/2000/svg">
<g transform="translate(3.4971, 3.4964)">
<path id="Vector" d="M22.5673 20.566C22.4441 20.6891 22.3463 20.8352 22.2796 20.9961C22.2129 21.157 22.1786 21.3294 22.1786 21.5035C22.1786 21.6777 22.2129 21.8501 22.2796 22.011C22.3463 22.1718 22.4441 22.318 22.5673 22.441C22.8491 22.7228 23.0074 23.105 23.0074 23.5035C23.0074 23.902 22.8491 24.2842 22.5673 24.566C22.2855 24.8478 21.9033 25.0061 21.5048 25.0061C21.1063 25.0061 20.7241 24.8478 20.4423 24.566C20.0397 24.1641 19.7203 23.6867 19.5024 23.1612C19.2845 22.6357 19.1723 22.0724 19.1723 21.5035C19.1723 20.9346 19.2845 20.3713 19.5024 19.8458C19.7203 19.3203 20.0397 18.843 20.4423 18.441L21.6135 17.2698C21.8356 17.0161 21.9529 16.6875 21.9417 16.3505C21.9306 16.0135 21.7917 15.6934 21.5533 15.455C21.3149 15.2166 20.9948 15.0778 20.6578 15.0666C20.3208 15.0554 19.9922 15.1727 19.7385 15.3948L11.3935 23.7385C10.5813 24.5508 9.47969 25.0071 8.33103 25.0071C7.18237 25.0071 6.08075 24.5508 5.26853 23.7385C4.4563 22.9263 4 21.8247 4 20.676C4 19.5274 4.4563 18.4258 5.26853 17.6135L17.6135 5.26978C17.8356 5.01609 17.9529 4.68747 17.9417 4.3505C17.9306 4.01354 17.7917 3.69342 17.5533 3.45502C17.3149 3.21661 16.9948 3.07775 16.6578 3.06657C16.3208 3.05538 15.9922 3.17271 15.7385 3.39478L7.39353 11.7373C6.5813 12.5495 5.47969 13.0058 4.33103 13.0058C3.18237 13.0058 2.08075 12.5495 1.26853 11.7373C0.456304 10.9251 8.55819e-09 9.82344 0 8.67478C-8.55819e-09 7.52612 0.456304 6.4245 1.26853 5.61228L6.44353 0.443529C6.72532 0.161737 7.10751 0.00342727 7.50603 0.00342727C7.90454 0.00342727 8.28674 0.161737 8.56853 0.443529C8.85032 0.725322 9.00863 1.10751 9.00863 1.50603C9.00863 1.90454 8.85032 2.28674 8.56853 2.56853L3.39228 7.73728C3.17021 7.99097 3.05288 8.31959 3.06407 8.65655C3.07525 8.99352 3.21411 9.31364 3.45252 9.55204C3.69092 9.79044 4.01104 9.92931 4.348 9.94049C4.68497 9.95168 5.01359 9.83435 5.26728 9.61228L13.6123 1.26853C14.4245 0.456304 15.5261 0 16.6748 0C17.8234 0 18.9251 0.456304 19.7373 1.26853C20.5495 2.08075 21.0058 3.18237 21.0058 4.33103C21.0058 5.47969 20.5495 6.5813 19.7373 7.39353L7.39353 19.7373C7.17146 19.991 7.05413 20.3196 7.06532 20.6566C7.0765 20.9935 7.21536 21.3136 7.45377 21.552C7.69217 21.7904 8.01229 21.9293 8.34925 21.9405C8.68622 21.9517 9.01484 21.8343 9.26853 21.6123L17.6123 13.2685C18.0145 12.8664 18.4919 12.5473 19.0174 12.3297C19.5428 12.112 20.106 12 20.6748 12C21.2435 12 21.8067 12.112 22.3322 12.3297C22.8577 12.5473 23.3351 12.8664 23.7373 13.2685C24.1395 13.6707 24.4585 14.1482 24.6761 14.6736C24.8938 15.1991 25.0058 15.7623 25.0058 16.331C25.0058 16.8998 24.8938 17.463 24.6761 17.9884C24.4585 18.5139 24.1395 18.9914 23.7373 19.3935L22.5673 20.566Z" fill="white" fill-opacity="0.95"/>
</g>
</svg>
