<svg width="32" height="32" viewBox="0 0 32 32" fill="none" xmlns="http://www.w3.org/2000/svg">
<g transform="translate(1.5000, 1.5000)">
<path id="Vector" d="M27.0938 11.0063C26.6538 10.5475 26.2 10.0738 26.0513 9.715C25.9188 9.395 25.9087 8.73625 25.9 8.15625C25.8812 6.90625 25.8575 5.35125 24.7525 4.2475C23.6475 3.14375 22.0938 3.1225 20.8438 3.1C20.2638 3.09125 19.605 3.08125 19.285 2.94875C18.9262 2.8 18.4525 2.34625 17.9937 1.90625C17.1087 1.0575 16.0063 0 14.5 0C12.9937 0 11.8913 1.0575 11.0063 1.90625C10.5475 2.34625 10.0738 2.8 9.715 2.94875C9.395 3.08125 8.73625 3.09125 8.15625 3.1C6.90625 3.125 5.35125 3.1425 4.25 4.25C3.14875 5.3575 3.125 6.90625 3.1 8.15625C3.09125 8.73625 3.08125 9.395 2.94875 9.715C2.8 10.0738 2.34625 10.5475 1.90625 11.0063C1.0575 11.8913 0 13 0 14.5C0 16 1.0575 17.1087 1.90625 18C2.34625 18.4588 2.8 18.9325 2.94875 19.2913C3.08125 19.6113 3.09125 20.27 3.1 20.85C3.11875 22.1 3.1425 23.655 4.2475 24.7588C5.3525 25.8625 6.90625 25.8837 8.15625 25.9062C8.73625 25.915 9.395 25.925 9.715 26.0575C10.0738 26.2063 10.5475 26.66 11.0063 27.1C11.8913 27.9425 13 29 14.5 29C16 29 17.1087 27.9425 17.9937 27.0938C18.4525 26.6538 18.9262 26.2 19.285 26.0513C19.605 25.9188 20.2638 25.9087 20.8438 25.9C22.0938 25.8812 23.6488 25.8575 24.7525 24.7525C25.8563 23.6475 25.8775 22.0938 25.9 20.8438C25.9087 20.2638 25.9188 19.605 26.0513 19.285C26.2 18.9262 26.6538 18.4525 27.0938 17.9937C27.9425 17.1087 29 16.0063 29 14.5C29 12.9937 27.9425 11.8913 27.0938 11.0063ZM24.9287 15.9175C24.3262 16.5425 23.6438 17.2575 23.28 18.1375C22.9275 18.9875 22.9138 19.9075 22.905 20.7987C22.895 21.4687 22.8812 22.3875 22.6362 22.6313C22.3912 22.875 21.4737 22.89 20.8037 22.9C19.9125 22.9137 18.9925 22.9275 18.1425 23.275C17.2675 23.6387 16.5513 24.3212 15.9225 24.9237C15.4725 25.355 14.8 26 14.5 26C14.2 26 13.5275 25.355 13.0825 24.9287C12.4575 24.3262 11.7425 23.6438 10.8625 23.28C10.0125 22.9275 9.0925 22.9138 8.20125 22.905C7.53125 22.895 6.6125 22.8812 6.36875 22.6362C6.125 22.3912 6.11 21.4737 6.1 20.8037C6.08625 19.9125 6.0725 18.9925 5.725 18.1425C5.36125 17.2675 4.67875 16.5513 4.07625 15.9225C3.645 15.4725 3 14.8 3 14.5C3 14.2 3.645 13.5275 4.07125 13.0825C4.67375 12.4575 5.35625 11.7425 5.72 10.8625C6.0725 10.0125 6.08625 9.0925 6.095 8.20125C6.11 7.53125 6.125 6.6125 6.375 6.375C6.625 6.1375 7.5375 6.11625 8.2075 6.10625C9.09875 6.0925 10.0187 6.07875 10.8687 5.73125C11.7437 5.3675 12.46 4.685 13.0887 4.0825C13.5275 3.645 14.2 3 14.5 3C14.8 3 15.4725 3.645 15.9175 4.07125C16.5425 4.67375 17.2575 5.35625 18.1375 5.72C18.9875 6.0725 19.9075 6.08625 20.7987 6.095C21.4687 6.105 22.3875 6.11875 22.6313 6.36375C22.875 6.60875 22.89 7.52625 22.9 8.19625C22.9137 9.0875 22.9275 10.0075 23.275 10.8575C23.6387 11.7325 24.3212 12.4488 24.9237 13.0775C25.35 13.5225 25.995 14.195 25.995 14.495C25.995 14.795 25.355 15.4725 24.9287 15.9175ZM20.5613 10.4388C20.7011 10.5781 20.812 10.7437 20.8878 10.926C20.9635 11.1084 21.0024 11.3038 21.0024 11.5013C21.0024 11.6987 20.9635 11.8942 20.8878 12.0765C20.812 12.2588 20.7011 12.4244 20.5613 12.5638L13.5612 19.5637C13.4219 19.7036 13.2563 19.8145 13.074 19.8903C12.8916 19.966 12.6962 20.0049 12.4987 20.0049C12.3013 20.0049 12.1058 19.966 11.9235 19.8903C11.7412 19.8145 11.5756 19.7036 11.4362 19.5637L8.43625 16.5637C8.29672 16.4242 8.18604 16.2586 8.11053 16.0763C8.03501 15.894 7.99615 15.6986 7.99615 15.5012C7.99615 15.3039 8.03501 15.1085 8.11053 14.9262C8.18604 14.7439 8.29672 14.5783 8.43625 14.4388C8.57578 14.2992 8.74142 14.1885 8.92373 14.113C9.10603 14.0375 9.30143 13.9986 9.49875 13.9986C9.69607 13.9986 9.89147 14.0375 10.0738 14.113C10.2561 14.1885 10.4217 14.2992 10.5612 14.4388L12.5 16.375L18.4387 10.435C18.5783 10.2958 18.7439 10.1854 18.9262 10.1103C19.1084 10.0351 19.3037 9.9966 19.5008 9.99694C19.6979 9.99729 19.893 10.0365 20.075 10.1123C20.2569 10.1881 20.4222 10.299 20.5613 10.4388Z" fill="white" fill-opacity="0.95"/>
</g>
</svg>
