<svg width="32" height="32" viewBox="0 0 32 32" fill="none" xmlns="http://www.w3.org/2000/svg">
<g transform="translate(2.4842, 2.4836)">
<path id="Vector" d="M26.5865 24.464L20.6502 18.5252C22.4301 16.2058 23.2611 13.2962 22.9746 10.3866C22.6881 7.47708 21.3056 4.78543 19.1075 2.85771C16.9095 0.929981 14.0604 -0.0894648 11.1383 0.00616771C8.21628 0.1018 5.43999 1.30535 3.37267 3.37267C1.30535 5.43999 0.1018 8.21628 0.00616771 11.1383C-0.0894648 14.0604 0.929981 16.9095 2.85771 19.1075C4.78543 21.3056 7.47708 22.6881 10.3866 22.9746C13.2962 23.2611 16.2058 22.4301 18.5252 20.6502L24.4665 26.5927C24.606 26.7322 24.7716 26.8429 24.9539 26.9184C25.1363 26.994 25.3316 27.0328 25.529 27.0328C25.7263 27.0328 25.9217 26.994 26.104 26.9184C26.2863 26.8429 26.4519 26.7322 26.5915 26.5927C26.731 26.4532 26.8417 26.2875 26.9172 26.1052C26.9927 25.9229 27.0316 25.7275 27.0316 25.5302C27.0316 25.3329 26.9927 25.1375 26.9172 24.9552C26.8417 24.7729 26.731 24.6072 26.5915 24.4677L26.5865 24.464ZM3.02522 11.5252C3.02522 9.84408 3.52374 8.20069 4.45773 6.80287C5.39172 5.40505 6.71924 4.31559 8.27241 3.67224C9.82558 3.0289 11.5346 2.86057 13.1835 3.18854C14.8323 3.51652 16.3469 4.32607 17.5356 5.51481C18.7244 6.70356 19.5339 8.21811 19.8619 9.86695C20.1899 11.5158 20.0215 13.2249 19.3782 14.778C18.7348 16.3312 17.6454 17.6587 16.2476 18.5927C14.8497 19.5267 13.2064 20.0252 11.5252 20.0252C9.27159 20.0229 7.11093 19.1266 5.51737 17.5331C3.92381 15.9395 3.02754 13.7788 3.02522 11.5252Z" fill="white" fill-opacity="0.95"/>
</g>
</svg>
