<svg width="32" height="32" viewBox="0 0 32 32" fill="none" xmlns="http://www.w3.org/2000/svg">
<g transform="translate(3.5000, 3.5000)">
<path id="Vector" d="M16 1.5C16 1.89782 15.842 2.27936 15.5607 2.56066C15.2794 2.84196 14.8978 3 14.5 3H10.5C10.1022 3 9.72064 2.84196 9.43934 2.56066C9.15804 2.27936 9 1.89782 9 1.5C9 1.10218 9.15804 0.720644 9.43934 0.43934C9.72064 0.158035 10.1022 0 10.5 0H14.5C14.8978 0 15.2794 0.158035 15.5607 0.43934C15.842 0.720644 16 1.10218 16 1.5ZM14.5 22H10.5C10.1022 22 9.72064 22.158 9.43934 22.4393C9.15804 22.7206 9 23.1022 9 23.5C9 23.8978 9.15804 24.2794 9.43934 24.5607C9.72064 24.842 10.1022 25 10.5 25H14.5C14.8978 25 15.2794 24.842 15.5607 24.5607C15.842 24.2794 16 23.8978 16 23.5C16 23.1022 15.842 22.7206 15.5607 22.4393C15.2794 22.158 14.8978 22 14.5 22ZM22.5 0H19.5C19.1022 0 18.7206 0.158035 18.4393 0.43934C18.158 0.720644 18 1.10218 18 1.5C18 1.89782 18.158 2.27936 18.4393 2.56066C18.7206 2.84196 19.1022 3 19.5 3H22V5.5C22 5.89782 22.158 6.27936 22.4393 6.56066C22.7206 6.84196 23.1022 7 23.5 7C23.8978 7 24.2794 6.84196 24.5607 6.56066C24.842 6.27936 25 5.89782 25 5.5V2.5C25 1.83696 24.7366 1.20107 24.2678 0.732233C23.7989 0.263392 23.163 0 22.5 0ZM23.5 9C23.1022 9 22.7206 9.15804 22.4393 9.43934C22.158 9.72064 22 10.1022 22 10.5V14.5C22 14.8978 22.158 15.2794 22.4393 15.5607C22.7206 15.842 23.1022 16 23.5 16C23.8978 16 24.2794 15.842 24.5607 15.5607C24.842 15.2794 25 14.8978 25 14.5V10.5C25 10.1022 24.842 9.72064 24.5607 9.43934C24.2794 9.15804 23.8978 9 23.5 9ZM23.5 18C23.1022 18 22.7206 18.158 22.4393 18.4393C22.158 18.7206 22 19.1022 22 19.5V22H19.5C19.1022 22 18.7206 22.158 18.4393 22.4393C18.158 22.7206 18 23.1022 18 23.5C18 23.8978 18.158 24.2794 18.4393 24.5607C18.7206 24.842 19.1022 25 19.5 25H22.5C23.163 25 23.7989 24.7366 24.2678 24.2678C24.7366 23.7989 25 23.163 25 22.5V19.5C25 19.1022 24.842 18.7206 24.5607 18.4393C24.2794 18.158 23.8978 18 23.5 18ZM1.5 16C1.89782 16 2.27936 15.842 2.56066 15.5607C2.84196 15.2794 3 14.8978 3 14.5V10.5C3 10.1022 2.84196 9.72064 2.56066 9.43934C2.27936 9.15804 1.89782 9 1.5 9C1.10218 9 0.720644 9.15804 0.43934 9.43934C0.158035 9.72064 0 10.1022 0 10.5V14.5C0 14.8978 0.158035 15.2794 0.43934 15.5607C0.720644 15.842 1.10218 16 1.5 16ZM5.5 22H3V19.5C3 19.1022 2.84196 18.7206 2.56066 18.4393C2.27936 18.158 1.89782 18 1.5 18C1.10218 18 0.720644 18.158 0.43934 18.4393C0.158035 18.7206 0 19.1022 0 19.5V22.5C0 23.163 0.263392 23.7989 0.732233 24.2678C1.20107 24.7366 1.83696 25 2.5 25H5.5C5.89782 25 6.27936 24.842 6.56066 24.5607C6.84196 24.2794 7 23.8978 7 23.5C7 23.1022 6.84196 22.7206 6.56066 22.4393C6.27936 22.158 5.89782 22 5.5 22ZM5.5 0H2.5C1.83696 0 1.20107 0.263392 0.732233 0.732233C0.263392 1.20107 0 1.83696 0 2.5V5.5C0 5.89782 0.158035 6.27936 0.43934 6.56066C0.720644 6.84196 1.10218 7 1.5 7C1.89782 7 2.27936 6.84196 2.56066 6.56066C2.84196 6.27936 3 5.89782 3 5.5V3H5.5C5.89782 3 6.27936 2.84196 6.56066 2.56066C6.84196 2.27936 7 1.89782 7 1.5C7 1.10218 6.84196 0.720644 6.56066 0.43934C6.27936 0.158035 5.89782 0 5.5 0Z" fill="white" fill-opacity="0.95"/>
</g>
</svg>
