<svg width="32" height="32" viewBox="0 0 32 32" fill="none" xmlns="http://www.w3.org/2000/svg">
<g transform="translate(3.4972, 1.5154)">
<path id="Vector" d="M19.5059 17.9691C18.1664 17.967 16.8726 18.4562 15.8697 19.3441L10.7684 16.0691C11.085 15.0259 11.085 13.9123 10.7684 12.8691L15.8697 9.5941C16.8626 10.4667 18.1375 10.9509 19.4594 10.9574C20.7813 10.9639 22.0609 10.4923 23.0624 9.6295C24.0639 8.76669 24.7196 7.57089 24.9088 6.2626C25.0979 4.95431 24.8076 3.62176 24.0915 2.51066C23.3754 1.39956 22.2817 0.584834 21.0121 0.216722C19.7425 -0.151389 18.3826 -0.048066 17.1832 0.507639C15.9838 1.06334 15.0257 2.03396 14.4857 3.2405C13.9456 4.44704 13.86 5.80816 14.2447 7.07285L9.14215 10.3441C8.34867 9.64286 7.36962 9.18559 6.32259 9.02721C5.27555 8.86884 4.20506 9.01609 3.23967 9.45128C2.27429 9.88647 1.45506 10.5911 0.880379 11.4805C0.305698 12.37 0 13.4064 0 14.4654C0 15.5243 0.305698 16.5607 0.880379 17.4502C1.45506 18.3396 2.27429 19.0442 3.23967 19.4794C4.20506 19.9146 5.27555 20.0619 6.32259 19.9035C7.36962 19.7451 8.34867 19.2878 9.14215 18.5866L14.2434 21.8691C13.9068 22.9761 13.9279 24.161 14.3037 25.2553C14.6794 26.3496 15.3907 27.2975 16.3363 27.9642C17.2819 28.6309 18.4137 28.9824 19.5706 28.9687C20.7276 28.955 21.8507 28.5768 22.7803 27.8879C23.7099 27.199 24.3985 26.2345 24.7482 25.1316C25.098 24.0288 25.091 22.8437 24.7283 21.745C24.3656 20.6463 23.6657 19.6899 22.728 19.012C21.7904 18.3341 20.6629 17.9692 19.5059 17.9691ZM19.5059 2.9691C20.0004 2.9691 20.4837 3.11572 20.8948 3.39043C21.306 3.66513 21.6264 4.05558 21.8156 4.51239C22.0048 4.96921 22.0543 5.47188 21.9579 5.95683C21.8614 6.44178 21.6233 6.88724 21.2737 7.23687C20.924 7.5865 20.4786 7.8246 19.9936 7.92107C19.5087 8.01753 19.006 7.96802 18.5492 7.7788C18.0924 7.58958 17.7019 7.26915 17.4272 6.85803C17.1525 6.4469 17.0059 5.96356 17.0059 5.4691C17.0059 4.80606 17.2693 4.17018 17.7381 3.70133C18.207 3.23249 18.8429 2.9691 19.5059 2.9691ZM5.50591 16.9691C5.01145 16.9691 4.5281 16.8225 4.11698 16.5478C3.70586 16.2731 3.38543 15.8826 3.19621 15.4258C3.00699 14.969 2.95748 14.4663 3.05394 13.9814C3.15041 13.4964 3.38851 13.051 3.73814 12.7013C4.08777 12.3517 4.53323 12.1136 5.01818 12.0171C5.50313 11.9207 6.0058 11.9702 6.46261 12.1594C6.91943 12.3486 7.30988 12.6691 7.58458 13.0802C7.85928 13.4913 8.0059 13.9746 8.0059 14.4691C8.0059 15.1321 7.74251 15.768 7.27367 16.2369C6.80483 16.7057 6.16895 16.9691 5.50591 16.9691ZM19.5059 25.9691C19.0115 25.9691 18.5281 25.8225 18.117 25.5478C17.7059 25.2731 17.3854 24.8826 17.1962 24.4258C17.007 23.969 16.9575 23.4663 17.0539 22.9814C17.1504 22.4964 17.3885 22.051 17.7381 21.7013C18.0878 21.3517 18.5332 21.1136 19.0182 21.0171C19.5031 20.9207 20.0058 20.9702 20.4626 21.1594C20.9194 21.3486 21.3099 21.6691 21.5846 22.0802C21.8593 22.4913 22.0059 22.9746 22.0059 23.4691C22.0059 24.1321 21.7425 24.768 21.2737 25.2369C20.8048 25.7057 20.1689 25.9691 19.5059 25.9691Z" fill="white" fill-opacity="0.95"/>
</g>
</svg>
