<svg width="32" height="32" viewBox="0 0 32 32" fill="none" xmlns="http://www.w3.org/2000/svg">
<g transform="translate(1.5006, 3.9969)">
<path id="Vector" d="M28.5608 10.4399L18.5608 0.439931C18.3511 0.229989 18.0838 0.0869637 17.7928 0.0289484C17.5018 -0.029067 17.2001 0.000534765 16.9259 0.114008C16.6517 0.227482 16.4174 0.419729 16.2525 0.666428C16.0876 0.913127 15.9995 1.20319 15.9995 1.49993V6.09243C12.7795 6.48243 9.29202 8.07868 6.40577 10.5262C2.76077 13.6187 0.490772 17.6124 0.0132723 21.7762C-0.0351015 22.194 0.0494907 22.6165 0.255019 22.9834C0.460548 23.3504 0.77655 23.6433 1.15809 23.8204C1.53963 23.9974 1.96728 24.0497 2.38023 23.9697C2.79318 23.8897 3.17041 23.6816 3.45827 23.3749C4.76577 21.9824 9.33327 17.6574 15.9995 17.0724V21.4999C15.9998 21.7964 16.0879 22.0862 16.2527 22.3326C16.4176 22.579 16.6517 22.7711 16.9257 22.8845C17.1996 22.9979 17.501 23.0276 17.7918 22.9699C18.0826 22.9121 18.3497 22.7694 18.5595 22.5599L28.5595 12.5599C28.8406 12.2788 28.9986 11.8977 28.9988 11.5002C28.9991 11.1027 28.8415 10.7213 28.5608 10.4399ZM18.9995 17.8749V15.4999C18.9995 15.1021 18.8415 14.7206 18.5602 14.4393C18.2789 14.158 17.8973 13.9999 17.4995 13.9999C11.3745 13.9999 6.67827 16.6949 3.77577 19.0137C4.66702 16.7437 6.22952 14.6112 8.34702 12.8149C11.162 10.4262 14.5833 8.99993 17.4995 8.99993C17.8973 8.99993 18.2789 8.8419 18.5602 8.56059C18.8415 8.27929 18.9995 7.89776 18.9995 7.49993V5.12493L25.3745 11.4999L18.9995 17.8749Z" fill="white" fill-opacity="0.95"/>
</g>
</svg>
