<svg width="32" height="32" viewBox="0 0 32 32" fill="none" xmlns="http://www.w3.org/2000/svg">
<g transform="translate(2.4978, 4.4975)">
<path id="Vector" d="M26.5613 8.56635L20.5613 14.5664C20.2795 14.8481 19.8973 15.0065 19.4988 15.0065C19.1002 15.0065 18.718 14.8481 18.4363 14.5664C18.1545 14.2846 17.9961 13.9024 17.9961 13.5039C17.9961 13.1053 18.1545 12.7231 18.4363 12.4414L21.875 9.0051H18.125C15.7966 9.00434 13.534 9.77753 11.693 11.2031C9.85203 12.6286 8.5371 14.6256 7.955 16.8801C7.90575 17.0708 7.81942 17.25 7.70093 17.4074C7.58244 17.5648 7.43411 17.6973 7.26441 17.7973C7.09471 17.8974 6.90696 17.963 6.71189 17.9905C6.51682 18.018 6.31824 18.0068 6.1275 17.9576C5.93675 17.9084 5.75758 17.822 5.6002 17.7035C5.44282 17.585 5.31032 17.4367 5.21026 17.267C5.11021 17.0973 5.04456 16.9096 5.01706 16.7145C4.98956 16.5194 5.00075 16.3208 5.05 16.1301C5.79721 13.231 7.48743 10.6627 9.85453 8.82971C12.2216 6.99668 15.1311 6.003 18.125 6.0051H21.875L18.4387 2.5651C18.157 2.28331 17.9986 1.90112 17.9986 1.5026C17.9986 1.10409 18.157 0.721894 18.4387 0.440102C18.7205 0.158309 19.1027 4.19903e-09 19.5012 0C19.8998 -4.19904e-09 20.282 0.158309 20.5637 0.440102L26.5637 6.4401C26.7036 6.57964 26.8145 6.74544 26.8901 6.92797C26.9657 7.11051 27.0045 7.30618 27.0043 7.50375C27.0041 7.70132 26.9648 7.89689 26.8888 8.07925C26.8128 8.2616 26.7014 8.42714 26.5613 8.56635ZM21.5 20.0051H3V5.5051C3 5.10728 2.84196 4.72575 2.56066 4.44444C2.27936 4.16314 1.89782 4.0051 1.5 4.0051C1.10218 4.0051 0.720644 4.16314 0.43934 4.44444C0.158035 4.72575 0 5.10728 0 5.5051V21.5051C0 21.9029 0.158035 22.2845 0.43934 22.5658C0.720644 22.8471 1.10218 23.0051 1.5 23.0051H21.5C21.8978 23.0051 22.2794 22.8471 22.5607 22.5658C22.842 22.2845 23 21.9029 23 21.5051C23 21.1073 22.842 20.7257 22.5607 20.4444C22.2794 20.1631 21.8978 20.0051 21.5 20.0051Z" fill="white" fill-opacity="0.95"/>
</g>
</svg>
