<svg width="32" height="32" viewBox="0 0 32 32" fill="none" xmlns="http://www.w3.org/2000/svg">
<g transform="translate(3.5000, 3.0000)">
<path id="Vector" d="M22.5 0H2.5C1.83696 0 1.20107 0.263392 0.732233 0.732233C0.263392 1.20107 0 1.83696 0 2.5V9.5C0 16.2863 3.29 20.4025 6.05 22.6612C9.01375 25.085 11.98 25.9113 12.105 25.9475C12.3637 26.0175 12.6363 26.0175 12.895 25.9475C13.02 25.9125 15.9863 25.085 18.95 22.6612C21.71 20.4025 25 16.2863 25 9.5V2.5C25 1.83696 24.7366 1.20107 24.2678 0.732233C23.7989 0.263392 23.163 0 22.5 0ZM22 9.5C22 13.9637 20.3637 17.5862 17.1362 20.2687C15.7528 21.4103 14.185 22.3077 12.5 22.9225C10.8149 22.3081 9.24698 21.4106 7.86375 20.2687C4.63625 17.5862 3 13.9637 3 9.5V3H22V9.5ZM6.43875 13.5613C6.29922 13.4217 6.18854 13.2561 6.11303 13.0738C6.03751 12.8915 5.99865 12.6961 5.99865 12.4988C5.99865 12.3014 6.03751 12.106 6.11303 11.9237C6.18854 11.7414 6.29922 11.5758 6.43875 11.4362C6.57828 11.2967 6.74393 11.186 6.92623 11.1105C7.10853 11.035 7.30393 10.9961 7.50125 10.9961C7.69857 10.9961 7.89397 11.035 8.07627 11.1105C8.25858 11.186 8.42422 11.2967 8.56375 11.4362L10.5 13.375L16.4387 7.435C16.7205 7.15321 17.1027 6.9949 17.5012 6.9949C17.8998 6.9949 18.282 7.15321 18.5637 7.435C18.8455 7.71679 19.0039 8.09899 19.0039 8.4975C19.0039 8.89602 18.8455 9.27821 18.5637 9.56L11.5638 16.56C11.4244 16.6998 11.2588 16.8108 11.0765 16.8865C10.8942 16.9622 10.6987 17.0012 10.5013 17.0012C10.3038 17.0012 10.1084 16.9622 9.92602 16.8865C9.74369 16.8108 9.57811 16.6998 9.43875 16.56L6.43875 13.5613Z" fill="white" fill-opacity="0.95"/>
</g>
</svg>
