<svg width="32" height="32" viewBox="0 0 32 32" fill="none" xmlns="http://www.w3.org/2000/svg">
<g transform="translate(3.4991, 3.5000)">
<path id="Vector" d="M11 23.5C11 23.8978 10.842 24.2794 10.5607 24.5607C10.2794 24.842 9.89782 25 9.5 25H1.5C1.10218 25 0.720644 24.842 0.43934 24.5607C0.158035 24.2794 0 23.8978 0 23.5V1.5C0 1.10218 0.158035 0.720644 0.43934 0.43934C0.720644 0.158035 1.10218 0 1.5 0H9.5C9.89782 0 10.2794 0.158035 10.5607 0.43934C10.842 0.720644 11 1.10218 11 1.5C11 1.89782 10.842 2.27936 10.5607 2.56066C10.2794 2.84196 9.89782 3 9.5 3H3V22H9.5C9.89782 22 10.2794 22.158 10.5607 22.4393C10.842 22.7206 11 23.1022 11 23.5ZM24.5613 11.4388L19.5613 6.43875C19.2795 6.15696 18.8973 5.99865 18.4988 5.99865C18.1002 5.99865 17.718 6.15696 17.4363 6.43875C17.1545 6.72054 16.9961 7.10274 16.9961 7.50125C16.9961 7.89977 17.1545 8.28196 17.4363 8.56375L19.875 11H9.5C9.10218 11 8.72064 11.158 8.43934 11.4393C8.15804 11.7206 8 12.1022 8 12.5C8 12.8978 8.15804 13.2794 8.43934 13.5607C8.72064 13.842 9.10218 14 9.5 14H19.875L17.435 16.4387C17.1532 16.7205 16.9949 17.1027 16.9949 17.5012C16.9949 17.8998 17.1532 18.282 17.435 18.5637C17.7168 18.8455 18.099 19.0039 18.4975 19.0039C18.896 19.0039 19.2782 18.8455 19.56 18.5637L24.56 13.5637C24.6999 13.4245 24.811 13.259 24.8868 13.0767C24.9626 12.8944 25.0017 12.6989 25.0018 12.5015C25.0019 12.3041 24.9631 12.1086 24.8875 11.9262C24.8119 11.7438 24.701 11.5782 24.5613 11.4388Z" fill="white" fill-opacity="0.95"/>
</g>
</svg>
