<svg width="32" height="32" viewBox="0 0 32 32" fill="none" xmlns="http://www.w3.org/2000/svg">
<g transform="translate(3.5000, 3.5000)">
<path id="Vector" d="M16.5613 13.5613L11.5612 18.5613C11.2795 18.843 10.8973 19.0014 10.4987 19.0014C10.1002 19.0014 9.71804 18.843 9.43625 18.5613C9.15446 18.2795 8.99615 17.8973 8.99615 17.4988C8.99615 17.1002 9.15446 16.718 9.43625 16.4363L11.875 14H1.5C1.10218 14 0.720644 13.842 0.43934 13.5607C0.158035 13.2794 0 12.8978 0 12.5C0 12.1022 0.158035 11.7206 0.43934 11.4393C0.720644 11.158 1.10218 11 1.5 11H11.875L9.43875 8.56125C9.29922 8.42172 9.18854 8.25607 9.11303 8.07377C9.03751 7.89147 8.99865 7.69607 8.99865 7.49875C8.99865 7.10023 9.15696 6.71804 9.43875 6.43625C9.72054 6.15446 10.1027 5.99615 10.5013 5.99615C10.8998 5.99615 11.282 6.15446 11.5638 6.43625L16.5637 11.4362C16.7034 11.5758 16.8142 11.7415 16.8897 11.9239C16.9652 12.1063 17.0039 12.3018 17.0037 12.4993C17.0035 12.6967 16.9642 12.8921 16.8883 13.0744C16.8124 13.2566 16.7013 13.4221 16.5613 13.5613ZM23.5 0H15.5C15.1022 0 14.7206 0.158035 14.4393 0.43934C14.158 0.720644 14 1.10218 14 1.5C14 1.89782 14.158 2.27936 14.4393 2.56066C14.7206 2.84196 15.1022 3 15.5 3H22V22H15.5C15.1022 22 14.7206 22.158 14.4393 22.4393C14.158 22.7206 14 23.1022 14 23.5C14 23.8978 14.158 24.2794 14.4393 24.5607C14.7206 24.842 15.1022 25 15.5 25H23.5C23.8978 25 24.2794 24.842 24.5607 24.5607C24.842 24.2794 25 23.8978 25 23.5V1.5C25 1.10218 24.842 0.720644 24.5607 0.43934C24.2794 0.158035 23.8978 0 23.5 0Z" fill="white" fill-opacity="0.95"/>
</g>
</svg>
