<svg width="32" height="32" viewBox="0 0 32 32" fill="none" xmlns="http://www.w3.org/2000/svg">
<g transform="translate(2.5000, 2.0000)">
<path id="Vector" d="M12 15C12 15.5933 11.8241 16.1734 11.4944 16.6667C11.1648 17.1601 10.6962 17.5446 10.1481 17.7716C9.59987 17.9987 8.99667 18.0581 8.41473 17.9424C7.83279 17.8266 7.29824 17.5409 6.87868 17.1213C6.45912 16.7018 6.1734 16.1672 6.05764 15.5853C5.94189 15.0033 6.0013 14.4001 6.22836 13.8519C6.45542 13.3038 6.83994 12.8352 7.33329 12.5056C7.82664 12.1759 8.40666 12 9 12C9.79565 12 10.5587 12.3161 11.1213 12.8787C11.6839 13.4413 12 14.2044 12 15ZM18 12C17.4067 12 16.8266 12.1759 16.3333 12.5056C15.8399 12.8352 15.4554 13.3038 15.2284 13.8519C15.0013 14.4001 14.9419 15.0033 15.0576 15.5853C15.1734 16.1672 15.4591 16.7018 15.8787 17.1213C16.2982 17.5409 16.8328 17.8266 17.4147 17.9424C17.9967 18.0581 18.5999 17.9987 19.1481 17.7716C19.6962 17.5446 20.1648 17.1601 20.4944 16.6667C20.8241 16.1734 21 15.5933 21 15C21 14.2044 20.6839 13.4413 20.1213 12.8787C19.5587 12.3161 18.7956 12 18 12ZM27 13C27 16.7313 25.3688 20.2225 22.5 22.69V25.5C22.5 26.163 22.2366 26.7989 21.7678 27.2678C21.2989 27.7366 20.663 28 20 28H7C6.33696 28 5.70107 27.7366 5.23223 27.2678C4.76339 26.7989 4.5 26.163 4.5 25.5V22.69C1.625 20.2225 0 16.7313 0 13C0 5.83125 6.05625 0 13.5 0C20.9437 0 27 5.83125 27 13ZM24 13C24 7.48625 19.29 3 13.5 3C7.71 3 3 7.48625 3 13C3 16.0387 4.42625 18.875 6.91375 20.7875C7.09617 20.9276 7.24392 21.1078 7.34558 21.3142C7.44723 21.5205 7.50007 21.7475 7.5 21.9775V25H9.5V22.5C9.5 22.1022 9.65804 21.7206 9.93934 21.4393C10.2206 21.158 10.6022 21 11 21C11.3978 21 11.7794 21.158 12.0607 21.4393C12.342 21.7206 12.5 22.1022 12.5 22.5V25H14.5V22.5C14.5 22.1022 14.658 21.7206 14.9393 21.4393C15.2206 21.158 15.6022 21 16 21C16.3978 21 16.7794 21.158 17.0607 21.4393C17.342 21.7206 17.5 22.1022 17.5 22.5V25H19.5V21.9775C19.5001 21.7477 19.5531 21.521 19.6547 21.3149C19.7563 21.1087 19.904 20.9287 20.0863 20.7887C22.5738 18.875 24 16.0387 24 13Z" fill="white" fill-opacity="0.95"/>
</g>
</svg>
