<svg width="32" height="32" viewBox="0 0 32 32" fill="none" xmlns="http://www.w3.org/2000/svg">
<g transform="translate(5.0625, 6.8128)">
<path id="Vector" d="M1.3125 5.24965H4.60031C4.87178 6.01725 5.37453 6.68182 6.03933 7.15187C6.70414 7.62191 7.49831 7.8743 8.3125 7.8743C9.12669 7.8743 9.92086 7.62191 10.5857 7.15187C11.2505 6.68182 11.7532 6.01725 12.0247 5.24965H20.5625C20.9106 5.24965 21.2444 5.11137 21.4906 4.86523C21.7367 4.61909 21.875 4.28525 21.875 3.93715C21.875 3.58906 21.7367 3.25522 21.4906 3.00907C21.2444 2.76293 20.9106 2.62465 20.5625 2.62465H12.0247C11.7532 1.85705 11.2505 1.19248 10.5857 0.722438C9.92086 0.252396 9.12669 0 8.3125 0C7.49831 0 6.70414 0.252396 6.03933 0.722438C5.37453 1.19248 4.87178 1.85705 4.60031 2.62465H1.3125C0.964403 2.62465 0.630564 2.76293 0.384422 3.00907C0.138281 3.25522 0 3.58906 0 3.93715C0 4.28525 0.138281 4.61909 0.384422 4.86523C0.630564 5.11137 0.964403 5.24965 1.3125 5.24965ZM8.3125 2.62465C8.57209 2.62465 8.82585 2.70163 9.04169 2.84585C9.25753 2.99007 9.42575 3.19505 9.52509 3.43488C9.62443 3.67471 9.65042 3.93861 9.59978 4.19321C9.54914 4.44781 9.42413 4.68167 9.24058 4.86523C9.05702 5.04879 8.82316 5.17379 8.56856 5.22443C8.31396 5.27508 8.05006 5.24908 7.81023 5.14974C7.5704 5.0504 7.36542 4.88218 7.2212 4.66634C7.07698 4.4505 7 4.19674 7 3.93715C7 3.58906 7.13828 3.25522 7.38442 3.00907C7.63056 2.76293 7.9644 2.62465 8.3125 2.62465ZM20.5625 13.1247H19.0247C18.7532 12.3571 18.2505 11.6925 17.5857 11.2224C16.9209 10.7524 16.1267 10.5 15.3125 10.5C14.4983 10.5 13.7041 10.7524 13.0393 11.2224C12.3745 11.6925 11.8718 12.3571 11.6003 13.1247H1.3125C0.964403 13.1247 0.630564 13.2629 0.384422 13.5091C0.138281 13.7552 0 14.0891 0 14.4372C0 14.7852 0.138281 15.1191 0.384422 15.3652C0.630564 15.6114 0.964403 15.7497 1.3125 15.7497H11.6003C11.8718 16.5173 12.3745 17.1818 13.0393 17.6519C13.7041 18.1219 14.4983 18.3743 15.3125 18.3743C16.1267 18.3743 16.9209 18.1219 17.5857 17.6519C18.2505 17.1818 18.7532 16.5173 19.0247 15.7497H20.5625C20.9106 15.7497 21.2444 15.6114 21.4906 15.3652C21.7367 15.1191 21.875 14.7852 21.875 14.4372C21.875 14.0891 21.7367 13.7552 21.4906 13.5091C21.2444 13.2629 20.9106 13.1247 20.5625 13.1247ZM15.3125 15.7497C15.0529 15.7497 14.7992 15.6727 14.5833 15.5285C14.3675 15.3842 14.1992 15.1793 14.0999 14.9394C14.0006 14.6996 13.9746 14.4357 14.0252 14.1811C14.0759 13.9265 14.2009 13.6926 14.3844 13.5091C14.568 13.3255 14.8018 13.2005 15.0564 13.1499C15.311 13.0992 15.5749 13.1252 15.8148 13.2246C16.0546 13.3239 16.2596 13.4921 16.4038 13.708C16.548 13.9238 16.625 14.1776 16.625 14.4372C16.625 14.7852 16.4867 15.1191 16.2406 15.3652C15.9944 15.6114 15.6606 15.7497 15.3125 15.7497Z" fill="white" fill-opacity="0.95"/>
</g>
</svg>
