<svg width="32" height="32" viewBox="0 0 32 32" fill="none" xmlns="http://www.w3.org/2000/svg">
<g transform="translate(4.1876, 5.0625)">
<path id="Vector" d="M5.24965 8.10031V1.3125C5.24965 0.964403 5.11137 0.630564 4.86523 0.384422C4.61909 0.138281 4.28525 0 3.93715 0C3.58906 0 3.25522 0.138281 3.00907 0.384422C2.76293 0.630564 2.62465 0.964403 2.62465 1.3125V8.10031C1.85705 8.37178 1.19248 8.87453 0.722438 9.53933C0.252396 10.2041 0 10.9983 0 11.8125C0 12.6267 0.252396 13.4209 0.722438 14.0857C1.19248 14.7505 1.85705 15.2532 2.62465 15.5247V20.5625C2.62465 20.9106 2.76293 21.2444 3.00907 21.4906C3.25522 21.7367 3.58906 21.875 3.93715 21.875C4.28525 21.875 4.61909 21.7367 4.86523 21.4906C5.11137 21.2444 5.24965 20.9106 5.24965 20.5625V15.5247C6.01725 15.2532 6.68182 14.7505 7.15187 14.0857C7.62191 13.4209 7.8743 12.6267 7.8743 11.8125C7.8743 10.9983 7.62191 10.2041 7.15187 9.53933C6.68182 8.87453 6.01725 8.37178 5.24965 8.10031ZM3.93715 13.125C3.67756 13.125 3.42381 13.048 3.20797 12.9038C2.99213 12.7596 2.8239 12.5546 2.72456 12.3148C2.62522 12.0749 2.59923 11.811 2.64987 11.5564C2.70051 11.3018 2.82552 11.068 3.00907 10.8844C3.19263 10.7009 3.4265 10.5759 3.6811 10.5252C3.9357 10.4746 4.1996 10.5006 4.43942 10.5999C4.67925 10.6992 4.88424 10.8675 5.02846 11.0833C5.17268 11.2992 5.24965 11.5529 5.24965 11.8125C5.24965 12.1606 5.11137 12.4944 4.86523 12.7406C4.61909 12.9867 4.28525 13.125 3.93715 13.125ZM15.7497 6.5625C15.7485 5.74853 15.4956 4.95484 15.0257 4.29025C14.5557 3.62565 13.8917 3.12269 13.1247 2.85031V1.3125C13.1247 0.964403 12.9864 0.630564 12.7402 0.384422C12.4941 0.138281 12.1602 0 11.8122 0C11.4641 0 11.1302 0.138281 10.8841 0.384422C10.6379 0.630564 10.4997 0.964403 10.4997 1.3125V2.85031C9.73205 3.12178 9.06748 3.62453 8.59744 4.28933C8.1274 4.95414 7.875 5.74831 7.875 6.5625C7.875 7.37669 8.1274 8.17086 8.59744 8.83567C9.06748 9.50047 9.73205 10.0032 10.4997 10.2747V20.5625C10.4997 20.9106 10.6379 21.2444 10.8841 21.4906C11.1302 21.7367 11.4641 21.875 11.8122 21.875C12.1602 21.875 12.4941 21.7367 12.7402 21.4906C12.9864 21.2444 13.1247 20.9106 13.1247 20.5625V10.2747C13.8917 10.0023 14.5557 9.49935 15.0257 8.83475C15.4956 8.17016 15.7485 7.37647 15.7497 6.5625ZM11.8122 7.875C11.5526 7.875 11.2988 7.79802 11.083 7.6538C10.8671 7.50958 10.6989 7.3046 10.5996 7.06477C10.5002 6.82494 10.4742 6.56104 10.5249 6.30644C10.5755 6.05184 10.7005 5.81798 10.8841 5.63442C11.0676 5.45087 11.3015 5.32586 11.5561 5.27522C11.8107 5.22458 12.0746 5.25057 12.3144 5.34991C12.5543 5.44925 12.7592 5.61747 12.9035 5.83331C13.0477 6.04915 13.1247 6.30291 13.1247 6.5625C13.1247 6.9106 12.9864 7.24444 12.7402 7.49058C12.4941 7.73672 12.1602 7.875 11.8122 7.875ZM23.6247 15.3125C23.6235 14.4985 23.3706 13.7048 22.9007 13.0402C22.4307 12.3757 21.7667 11.8727 20.9997 11.6003V1.3125C20.9997 0.964403 20.8614 0.630564 20.6152 0.384422C20.3691 0.138281 20.0352 0 19.6872 0C19.3391 0 19.0052 0.138281 18.7591 0.384422C18.5129 0.630564 18.3747 0.964403 18.3747 1.3125V11.6003C17.6071 11.8718 16.9425 12.3745 16.4724 13.0393C16.0024 13.7041 15.75 14.4983 15.75 15.3125C15.75 16.1267 16.0024 16.9209 16.4724 17.5857C16.9425 18.2505 17.6071 18.7532 18.3747 19.0247V20.5625C18.3747 20.9106 18.5129 21.2444 18.7591 21.4906C19.0052 21.7367 19.3391 21.875 19.6872 21.875C20.0352 21.875 20.3691 21.7367 20.6152 21.4906C20.8614 21.2444 20.9997 20.9106 20.9997 20.5625V19.0247C21.7667 18.7523 22.4307 18.2493 22.9007 17.5848C23.3706 16.9202 23.6235 16.1265 23.6247 15.3125ZM19.6872 16.625C19.4276 16.625 19.1738 16.548 18.958 16.4038C18.7421 16.2596 18.5739 16.0546 18.4746 15.8148C18.3752 15.5749 18.3492 15.311 18.3999 15.0564C18.4505 14.8018 18.5755 14.568 18.7591 14.3844C18.9426 14.2009 19.1765 14.0759 19.4311 14.0252C19.6857 13.9746 19.9496 14.0006 20.1894 14.0999C20.4293 14.1992 20.6342 14.3675 20.7785 14.5833C20.9227 14.7992 20.9997 15.0529 20.9997 15.3125C20.9997 15.6606 20.8614 15.9944 20.6152 16.2406C20.3691 16.4867 20.0352 16.625 19.6872 16.625Z" fill="white" fill-opacity="0.95"/>
</g>
</svg>
