<svg width="32" height="32" viewBox="0 0 32 32" fill="none" xmlns="http://www.w3.org/2000/svg">
<g transform="translate(0.9982, 0.9982)">
<path id="Vector" d="M23.3786 15.1637L17.1436 12.865L14.8398 6.625C14.6637 6.14722 14.3453 5.73494 13.9275 5.44374C13.5098 5.15254 13.0128 4.99642 12.5036 4.99642C11.9944 4.99642 11.4974 5.15254 11.0797 5.44374C10.6619 5.73494 10.3435 6.14722 10.1673 6.625L7.86858 12.865L1.62858 15.1637C1.15081 15.3399 0.73853 15.6583 0.447327 16.0761C0.156125 16.4938 0 16.9908 0 17.5C0 18.0092 0.156125 18.5062 0.447327 18.9239C0.73853 19.3417 1.15081 19.6601 1.62858 19.8363L7.86358 22.135L10.1673 28.375C10.3435 28.8528 10.6619 29.2651 11.0797 29.5563C11.4974 29.8475 11.9944 30.0036 12.5036 30.0036C13.0128 30.0036 13.5098 29.8475 13.9275 29.5563C14.3453 29.2651 14.6637 28.8528 14.8398 28.375L17.1386 22.14L23.3786 19.8363C23.8564 19.6601 24.2686 19.3417 24.5598 18.9239C24.851 18.5062 25.0072 18.0092 25.0072 17.5C25.0072 16.9908 24.851 16.4938 24.5598 16.0761C24.2686 15.6583 23.8564 15.3399 23.3786 15.1637ZM15.4561 19.5588C15.2525 19.6338 15.0676 19.7521 14.9141 19.9055C14.7607 20.059 14.6424 20.2439 14.5673 20.4475L12.5036 26.035L10.4448 20.4475C10.3698 20.2439 10.2515 20.059 10.098 19.9055C9.9446 19.7521 9.75969 19.6338 9.55608 19.5588L3.96859 17.5L9.55608 15.4412C9.75969 15.3662 9.9446 15.2479 10.098 15.0945C10.2515 14.941 10.3698 14.7561 10.4448 14.5525L12.5036 8.965L14.5623 14.5525C14.6374 14.7561 14.7557 14.941 14.9091 15.0945C15.0626 15.2479 15.2475 15.3662 15.4511 15.4412L21.0386 17.5L15.4561 19.5588ZM16.0036 4.5C16.0036 4.10218 16.1616 3.72064 16.4429 3.43934C16.7242 3.15804 17.1058 3 17.5036 3H19.0036V1.5C19.0036 1.10218 19.1616 0.720644 19.4429 0.43934C19.7242 0.158035 20.1058 0 20.5036 0C20.9014 0 21.2829 0.158035 21.5642 0.43934C21.8455 0.720644 22.0036 1.10218 22.0036 1.5V3H23.5036C23.9014 3 24.2829 3.15804 24.5642 3.43934C24.8455 3.72064 25.0036 4.10218 25.0036 4.5C25.0036 4.89782 24.8455 5.27936 24.5642 5.56066C24.2829 5.84196 23.9014 6 23.5036 6H22.0036V7.5C22.0036 7.89782 21.8455 8.27936 21.5642 8.56066C21.2829 8.84196 20.9014 9 20.5036 9C20.1058 9 19.7242 8.84196 19.4429 8.56066C19.1616 8.27936 19.0036 7.89782 19.0036 7.5V6H17.5036C17.1058 6 16.7242 5.84196 16.4429 5.56066C16.1616 5.27936 16.0036 4.89782 16.0036 4.5ZM30.0036 10.5C30.0036 10.8978 29.8455 11.2794 29.5642 11.5607C29.2829 11.842 28.9014 12 28.5036 12H28.0036V12.5C28.0036 12.8978 27.8455 13.2794 27.5642 13.5607C27.2829 13.842 26.9014 14 26.5036 14C26.1058 14 25.7242 13.842 25.4429 13.5607C25.1616 13.2794 25.0036 12.8978 25.0036 12.5V12H24.5036C24.1058 12 23.7242 11.842 23.4429 11.5607C23.1616 11.2794 23.0036 10.8978 23.0036 10.5C23.0036 10.1022 23.1616 9.72064 23.4429 9.43934C23.7242 9.15804 24.1058 9 24.5036 9H25.0036V8.5C25.0036 8.10218 25.1616 7.72064 25.4429 7.43934C25.7242 7.15804 26.1058 7 26.5036 7C26.9014 7 27.2829 7.15804 27.5642 7.43934C27.8455 7.72064 28.0036 8.10218 28.0036 8.5V9H28.5036C28.9014 9 29.2829 9.15804 29.5642 9.43934C29.8455 9.72064 30.0036 10.1022 30.0036 10.5Z" fill="white" fill-opacity="0.95"/>
</g>
</svg>
