<svg width="32" height="32" viewBox="0 0 32 32" fill="none" xmlns="http://www.w3.org/2000/svg">
<g transform="translate(0.9980, 2.5000)">
<path id="Vector" d="M18.1588 0.152428C17.9065 0.0290868 17.6246 -0.0209568 17.3453 0.00799231C17.066 0.0369415 16.8004 0.143721 16.5788 0.316179L7.985 6.99993H2.5C1.83696 6.99993 1.20107 7.26332 0.732233 7.73216C0.263392 8.201 0 8.83689 0 9.49993V17.4999C0 18.163 0.263392 18.7989 0.732233 19.2677C1.20107 19.7365 1.83696 19.9999 2.5 19.9999H7.985L16.5788 26.6837C16.8004 26.8562 17.066 26.963 17.3453 26.9919C17.6247 27.0209 17.9065 26.9708 18.1588 26.8475C18.4111 26.7241 18.6237 26.5324 18.7724 26.2942C18.9212 26.056 19 25.7808 19 25.4999V1.49993C19 1.21909 18.9211 0.943899 18.7724 0.705675C18.6237 0.467451 18.4111 0.275763 18.1588 0.152428ZM16 22.4337L9.42125 17.3162C9.1579 17.1112 8.83371 16.9999 8.5 16.9999H3V9.99993H8.5C8.83371 9.99992 9.1579 9.88864 9.42125 9.68368L16 4.56743V22.4337ZM29.5612 15.4399C29.7008 15.5795 29.8115 15.7451 29.887 15.9274C29.9625 16.1097 30.0014 16.3051 30.0014 16.5024C30.0014 16.6998 29.9625 16.8951 29.887 17.0774C29.8115 17.2598 29.7008 17.4254 29.5612 17.5649C29.4217 17.7045 29.2561 17.8151 29.0738 17.8907C28.8915 17.9662 28.6961 18.005 28.4988 18.005C28.3014 18.005 28.106 17.9662 27.9237 17.8907C27.7414 17.8151 27.5758 17.7045 27.4363 17.5649L25.5 15.6249L23.5613 17.5649C23.2795 17.8467 22.8973 18.005 22.4988 18.005C22.1002 18.005 21.718 17.8467 21.4363 17.5649C21.1545 17.2831 20.9961 16.9009 20.9961 16.5024C20.9961 16.1039 21.1545 15.7217 21.4363 15.4399L23.375 13.4999L21.435 11.5612C21.2955 11.4216 21.1848 11.256 21.1093 11.0737C21.0338 10.8914 20.9949 10.696 20.9949 10.4987C20.9949 10.3014 21.0338 10.106 21.1093 9.92366C21.1848 9.74135 21.2955 9.57571 21.435 9.43618C21.7168 9.15439 22.099 8.99608 22.4975 8.99608C22.6948 8.99608 22.8902 9.03494 23.0725 9.11046C23.2548 9.18597 23.4205 9.29665 23.56 9.43618L25.5 11.3749L27.4387 9.43618C27.5783 9.29665 27.7439 9.18597 27.9262 9.11046C28.1085 9.03494 28.3039 8.99608 28.5012 8.99608C28.6986 8.99608 28.894 9.03494 29.0763 9.11046C29.2586 9.18597 29.4242 9.29665 29.5638 9.43618C29.7033 9.57571 29.814 9.74135 29.8895 9.92366C29.965 10.106 30.0039 10.3014 30.0039 10.4987C30.0039 10.696 29.965 10.8914 29.8895 11.0737C29.814 11.256 29.7033 11.4216 29.5638 11.5612L27.625 13.4999L29.5612 15.4399Z" fill="white" fill-opacity="0.95"/>
</g>
</svg>
