<svg width="32" height="32" viewBox="0 0 32 32" fill="none" xmlns="http://www.w3.org/2000/svg">
<g transform="translate(1.0000, 2.5000)">
<path id="Vector" d="M18.1588 0.152428C17.9065 0.0290868 17.6246 -0.0209568 17.3453 0.00799231C17.066 0.0369415 16.8004 0.143721 16.5788 0.316179L7.985 6.99993H2.5C1.83696 6.99993 1.20107 7.26332 0.732233 7.73216C0.263392 8.201 0 8.83689 0 9.49993V17.4999C0 18.163 0.263392 18.7989 0.732233 19.2677C1.20107 19.7365 1.83696 19.9999 2.5 19.9999H7.985L16.5788 26.6837C16.8004 26.8562 17.066 26.963 17.3453 26.9919C17.6247 27.0209 17.9065 26.9708 18.1588 26.8475C18.4111 26.7241 18.6237 26.5324 18.7724 26.2942C18.9212 26.056 19 25.7808 19 25.4999V1.49993C19 1.21909 18.9211 0.943899 18.7724 0.705675C18.6237 0.467451 18.4111 0.275763 18.1588 0.152428ZM3 9.99993H7V16.9999H3V9.99993ZM16 22.4324L10 17.7662V9.23368L16 4.56743V22.4324ZM25 13.4999C25.0002 14.8398 24.5113 16.1337 23.625 17.1387C23.4947 17.2864 23.3365 17.407 23.1596 17.4936C22.9826 17.5803 22.7903 17.6312 22.5937 17.6435C22.3971 17.6558 22.1999 17.6292 22.0136 17.5654C21.8272 17.5015 21.6552 17.4015 21.5075 17.2712C21.3598 17.1408 21.2391 16.9827 21.1525 16.8057C21.0659 16.6288 21.015 16.4365 21.0027 16.2399C20.9904 16.0432 21.0169 15.8461 21.0808 15.6597C21.1447 15.4734 21.2447 15.3014 21.375 15.1537C21.7768 14.6972 21.9985 14.1099 21.9985 13.5018C21.9985 12.8937 21.7768 12.3064 21.375 11.8499C21.1252 11.5498 21.0024 11.164 21.0325 10.7747C21.0626 10.3854 21.2434 10.0232 21.5364 9.76505C21.8294 9.5069 22.2115 9.37318 22.6015 9.3923C22.9915 9.41141 23.3587 9.58187 23.625 9.86743C24.5104 10.8704 24.9994 12.162 25 13.4999ZM30 13.4999C30.0015 16.083 29.0494 18.5757 27.3263 20.4999C27.061 20.7965 26.6889 20.9755 26.2917 20.9977C25.8944 21.0198 25.5047 20.8833 25.2081 20.6181C24.9116 20.3528 24.7325 19.9807 24.7104 19.5835C24.6882 19.1862 24.8248 18.7965 25.09 18.4999C26.3199 17.1249 26.9998 15.3448 26.9998 13.4999C26.9998 11.6551 26.3199 9.87498 25.09 8.49993C24.9533 8.35408 24.8471 8.18238 24.7778 7.99492C24.7084 7.80747 24.6771 7.60803 24.6859 7.40833C24.6947 7.20863 24.7433 7.0127 24.8289 6.83205C24.9144 6.6514 25.0352 6.48968 25.1842 6.35639C25.3332 6.22309 25.5072 6.12091 25.6963 6.05585C25.8853 5.99079 26.0854 5.96417 26.2848 5.97754C26.4843 5.99091 26.679 6.04402 26.8576 6.13372C27.0363 6.22343 27.1952 6.34794 27.325 6.49993C29.0486 8.42401 30.0012 10.9167 30 13.4999Z" fill="white" fill-opacity="0.95"/>
</g>
</svg>
