<svg width="32" height="32" viewBox="0 0 32 32" fill="none" xmlns="http://www.w3.org/2000/svg">
<g transform="translate(2.5000, 2.5000)">
<path id="Vector" d="M15 1.5V5.5C15 5.89782 14.842 6.27936 14.5607 6.56066C14.2794 6.84196 13.8978 7 13.5 7C13.1022 7 12.7206 6.84196 12.4393 6.56066C12.158 6.27936 12 5.89782 12 5.5V1.5C12 1.10218 12.158 0.720644 12.4393 0.43934C12.7206 0.158035 13.1022 0 13.5 0C13.8978 0 14.2794 0.158035 14.5607 0.43934C14.842 0.720644 15 1.10218 15 1.5ZM19.1562 9.34375C19.3534 9.34374 19.5486 9.30488 19.7307 9.22938C19.9128 9.15388 20.0782 9.04323 20.2175 8.90375L23.0462 6.075C23.328 5.79321 23.4864 5.41101 23.4864 5.0125C23.4864 4.61399 23.328 4.23179 23.0462 3.95C22.7645 3.66821 22.3823 3.5099 21.9837 3.5099C21.5852 3.5099 21.203 3.66821 20.9212 3.95L18.0963 6.7825C17.8863 6.99221 17.7433 7.25947 17.6853 7.55048C17.6273 7.84149 17.6569 8.14317 17.7703 8.41736C17.8838 8.69154 18.076 8.92591 18.3227 9.09081C18.5694 9.25571 18.8595 9.34374 19.1562 9.34375ZM25.5 12H21.5C21.1022 12 20.7206 12.158 20.4393 12.4393C20.158 12.7206 20 13.1022 20 13.5C20 13.8978 20.158 14.2794 20.4393 14.5607C20.7206 14.842 21.1022 15 21.5 15H25.5C25.8978 15 26.2794 14.842 26.5607 14.5607C26.842 14.2794 27 13.8978 27 13.5C27 13.1022 26.842 12.7206 26.5607 12.4393C26.2794 12.158 25.8978 12 25.5 12ZM20.2175 18.0963C20.078 17.9567 19.9123 17.846 19.73 17.7705C19.5477 17.695 19.3523 17.6561 19.155 17.6561C18.9577 17.6561 18.7623 17.695 18.58 17.7705C18.3977 17.846 18.232 17.9567 18.0925 18.0963C17.953 18.2358 17.8423 18.4014 17.7668 18.5837C17.6913 18.766 17.6524 18.9614 17.6524 19.1588C17.6524 19.3561 17.6913 19.5515 17.7668 19.7338C17.8423 19.9161 17.953 20.0817 18.0925 20.2213L20.9212 23.05C21.203 23.3318 21.5852 23.4901 21.9837 23.4901C22.3823 23.4901 22.7645 23.3318 23.0462 23.05C23.328 22.7682 23.4864 22.386 23.4864 21.9875C23.4864 21.589 23.328 21.2068 23.0462 20.925L20.2175 18.0963ZM13.5 20C13.1022 20 12.7206 20.158 12.4393 20.4393C12.158 20.7206 12 21.1022 12 21.5V25.5C12 25.8978 12.158 26.2794 12.4393 26.5607C12.7206 26.842 13.1022 27 13.5 27C13.8978 27 14.2794 26.842 14.5607 26.5607C14.842 26.2794 15 25.8978 15 25.5V21.5C15 21.1022 14.842 20.7206 14.5607 20.4393C14.2794 20.158 13.8978 20 13.5 20ZM6.7825 18.0963L3.95375 20.925C3.67196 21.2068 3.51365 21.589 3.51365 21.9875C3.51365 22.386 3.67196 22.7682 3.95375 23.05C4.23554 23.3318 4.61774 23.4901 5.01625 23.4901C5.41476 23.4901 5.79696 23.3318 6.07875 23.05L8.9075 20.2213C9.18929 19.9395 9.3476 19.5573 9.3476 19.1588C9.3476 18.7602 9.18929 18.378 8.9075 18.0963C8.62571 17.8145 8.24352 17.6561 7.845 17.6561C7.44649 17.6561 7.06429 17.8145 6.7825 18.0963ZM7 13.5C7 13.1022 6.84196 12.7206 6.56066 12.4393C6.27936 12.158 5.89782 12 5.5 12H1.5C1.10218 12 0.720644 12.158 0.43934 12.4393C0.158035 12.7206 0 13.1022 0 13.5C0 13.8978 0.158035 14.2794 0.43934 14.5607C0.720644 14.842 1.10218 15 1.5 15H5.5C5.89782 15 6.27936 14.842 6.56066 14.5607C6.84196 14.2794 7 13.8978 7 13.5ZM6.075 3.95375C5.79321 3.67196 5.41101 3.51365 5.0125 3.51365C4.61399 3.51365 4.23179 3.67196 3.95 3.95375C3.66821 4.23554 3.5099 4.61774 3.5099 5.01625C3.5099 5.41476 3.66821 5.79696 3.95 6.07875L6.7825 8.90375C7.06429 9.18554 7.44649 9.34385 7.845 9.34385C8.24352 9.34385 8.62571 9.18554 8.9075 8.90375C9.18929 8.62196 9.3476 8.23977 9.3476 7.84125C9.3476 7.44274 9.18929 7.06054 8.9075 6.77875L6.075 3.95375Z" fill="white" fill-opacity="0.95"/>
</g>
</svg>
