<svg width="26" height="24" viewBox="0 0 26 24" fill="none" xmlns="http://www.w3.org/2000/svg">
<g filter="url(#filter0_dd_5762_5808)">
<path d="M0.942185 10.3518L11.4422 16.3518C11.6121 16.4488 11.8043 16.4998 12 16.4998C12.1956 16.4998 12.3879 16.4488 12.5578 16.3518L23.0578 10.3518C23.2301 10.2534 23.3732 10.1112 23.4728 9.93966C23.5724 9.7681 23.6248 9.57327 23.6248 9.3749C23.6248 9.17654 23.5724 8.98171 23.4728 8.81015C23.3732 8.63859 23.2301 8.49641 23.0578 8.39803L12.5578 2.39803C12.3879 2.30102 12.1956 2.25 12 2.25C11.8043 2.25 11.6121 2.30102 11.4422 2.39803L0.942185 8.39803C0.76994 8.49641 0.62677 8.63859 0.527191 8.81015C0.427612 8.98171 0.375163 9.17654 0.375163 9.3749C0.375163 9.57327 0.427612 9.7681 0.527191 9.93966C0.62677 10.1112 0.76994 10.2534 0.942185 10.3518ZM12.0047 4.67053L20.2322 9.3749L12 14.0793L3.76781 9.3749L12.0047 4.67053ZM23.4816 13.3171C23.6295 13.5762 23.6684 13.8834 23.5898 14.1712C23.5112 14.459 23.3216 14.7038 23.0625 14.8518L12.5625 20.8518C12.3926 20.9488 12.2003 20.9998 12.0047 20.9998C11.809 20.9998 11.6168 20.9488 11.4469 20.8518L0.946872 14.8518C0.816698 14.7795 0.702162 14.6821 0.609901 14.5653C0.517641 14.4484 0.449492 14.3144 0.409405 14.1711C0.369318 14.0277 0.358091 13.8778 0.376374 13.73C0.394656 13.5822 0.442086 13.4396 0.515912 13.3103C0.589739 13.181 0.688494 13.0677 0.806453 12.9768C0.924413 12.886 1.05923 12.8195 1.20309 12.7811C1.34695 12.7428 1.49699 12.7334 1.64451 12.7534C1.79204 12.7735 1.93411 12.8226 2.0625 12.898L12 18.5793L21.9375 12.898C22.066 12.8241 22.2078 12.7762 22.3549 12.7572C22.5019 12.7383 22.6513 12.7486 22.7943 12.7875C22.9374 12.8264 23.0713 12.8933 23.1885 12.9842C23.3056 13.0751 23.4036 13.1882 23.4769 13.3171H23.4816Z" fill="white" fill-opacity="0.95"/>
</g>
<defs>
<filter id="filter0_dd_5762_5808" x="-0.2" y="-0.2" width="26.2" height="26.2" filterUnits="userSpaceOnUse" color-interpolation-filters="sRGB">
<feFlood flood-opacity="0" result="BackgroundImageFix"/>
<feColorMatrix in="SourceAlpha" type="matrix" values="0 0 0 0 0 0 0 0 0 0 0 0 0 0 0 0 0 0 127 0" result="hardAlpha"/>
<feOffset dx="1" dy="1"/>
<feGaussianBlur stdDeviation="0.5"/>
<feColorMatrix type="matrix" values="0 0 0 0 0 0 0 0 0 0 0 0 0 0 0 0 0 0 0.1 0"/>
<feBlend mode="normal" in2="BackgroundImageFix" result="effect1_dropShadow_5762_5808"/>
<feColorMatrix in="SourceAlpha" type="matrix" values="0 0 0 0 0 0 0 0 0 0 0 0 0 0 0 0 0 0 127 0" result="hardAlpha"/>
<feOffset dx="0.4" dy="0.4"/>
<feGaussianBlur stdDeviation="0.3"/>
<feComposite in2="hardAlpha" operator="out"/>
<feColorMatrix type="matrix" values="0 0 0 0 0 0 0 0 0 0 0 0 0 0 0 0 0 0 0.1 0"/>
<feBlend mode="normal" in2="effect1_dropShadow_5762_5808" result="effect2_dropShadow_5762_5808"/>
<feBlend mode="normal" in="SourceGraphic" in2="effect2_dropShadow_5762_5808" result="shape"/>
</filter>
</defs>
</svg>
