<svg width="32" height="32" viewBox="0 0 32 32" fill="none" xmlns="http://www.w3.org/2000/svg">
<g transform="translate(5.0625, 5.0625)">
<path id="Vector" d="M15.3125 0H6.5625C4.82264 0.00202629 3.15462 0.694081 1.92435 1.92435C0.694081 3.15462 0.00202629 4.82264 0 6.5625V15.3125C0.00202629 17.0524 0.694081 18.7204 1.92435 19.9507C3.15462 21.1809 4.82264 21.873 6.5625 21.875H11.8125C11.9534 21.875 12.0934 21.8521 12.227 21.8072C15.2491 20.7998 20.7998 15.2447 21.8072 12.227C21.8521 12.0934 21.875 11.9534 21.875 11.8125V6.5625C21.873 4.82264 21.1809 3.15462 19.9507 1.92435C18.7204 0.694081 17.0524 0.00202629 15.3125 0ZM2.625 15.3125V6.5625C2.625 5.51821 3.03984 4.51669 3.77827 3.77827C4.51669 3.03984 5.51821 2.625 6.5625 2.625H15.3125C16.3568 2.625 17.3583 3.03984 18.0967 3.77827C18.8352 4.51669 19.25 5.51821 19.25 6.5625V10.5H17.0625C15.3226 10.502 13.6546 11.1941 12.4243 12.4243C11.1941 13.6546 10.502 15.3226 10.5 17.0625V19.25H6.5625C5.51821 19.25 4.51669 18.8352 3.77827 18.0967C3.03984 17.3583 2.625 16.3568 2.625 15.3125ZM13.125 18.3345V17.0625C13.125 16.0182 13.5398 15.0167 14.2783 14.2783C15.0167 13.5398 16.0182 13.125 17.0625 13.125H18.3345C17.0625 14.887 14.887 17.0625 13.125 18.3345Z" fill="white" fill-opacity="0.95"/>
</g>
</svg>
