<svg width="32" height="32" viewBox="0 0 32 32" fill="none" xmlns="http://www.w3.org/2000/svg">
<g transform="translate(1.0000, 1.0000)">
<path id="Vector" d="M13.5 3.5V1.5C13.5 1.10218 13.658 0.720644 13.9393 0.43934C14.2206 0.158035 14.6022 0 15 0C15.3978 0 15.7794 0.158035 16.0607 0.43934C16.342 0.720644 16.5 1.10218 16.5 1.5V3.5C16.5 3.89782 16.342 4.27936 16.0607 4.56066C15.7794 4.84196 15.3978 5 15 5C14.6022 5 14.2206 4.84196 13.9393 4.56066C13.658 4.27936 13.5 3.89782 13.5 3.5ZM23.5 15C23.5 16.6811 23.0015 18.3245 22.0675 19.7223C21.1335 21.1202 19.806 22.2096 18.2528 22.853C16.6996 23.4963 14.9906 23.6647 13.3417 23.3367C11.6929 23.0087 10.1783 22.1992 8.98959 21.0104C7.80085 19.8217 6.9913 18.3071 6.66333 16.6583C6.33535 15.0094 6.50368 13.3004 7.14702 11.7472C7.79037 10.194 8.87983 8.8665 10.2777 7.93251C11.6755 6.99852 13.3189 6.5 15 6.5C17.2536 6.50232 19.4143 7.39859 21.0078 8.99215C22.6014 10.5857 23.4977 12.7464 23.5 15ZM20.5 15C20.5 13.9122 20.1774 12.8488 19.5731 11.9444C18.9687 11.0399 18.1098 10.3349 17.1048 9.91866C16.0998 9.50238 14.9939 9.39346 13.927 9.60568C12.8601 9.8179 11.8801 10.3417 11.1109 11.1109C10.3417 11.8801 9.8179 12.8601 9.60568 13.927C9.39346 14.9939 9.50238 16.0998 9.91866 17.1048C10.3349 18.1098 11.0399 18.9687 11.9444 19.5731C12.8488 20.1774 13.9122 20.5 15 20.5C16.4582 20.4983 17.8562 19.9184 18.8873 18.8873C19.9184 17.8562 20.4983 16.4582 20.5 15ZM5.43875 7.56125C5.57828 7.70078 5.74392 7.81146 5.92623 7.88697C6.10853 7.96249 6.30393 8.00135 6.50125 8.00135C6.69857 8.00135 6.89397 7.96249 7.07627 7.88697C7.25858 7.81146 7.42422 7.70078 7.56375 7.56125C7.70328 7.42172 7.81396 7.25607 7.88947 7.07377C7.96499 6.89147 8.00385 6.69607 8.00385 6.49875C8.00385 6.30143 7.96499 6.10603 7.88947 5.92373C7.81396 5.74142 7.70328 5.57578 7.56375 5.43625L6.06375 3.93625C5.78196 3.65446 5.39976 3.49615 5.00125 3.49615C4.60273 3.49615 4.22054 3.65446 3.93875 3.93625C3.65696 4.21804 3.49865 4.60024 3.49865 4.99875C3.49865 5.39727 3.65696 5.77946 3.93875 6.06125L5.43875 7.56125ZM5.43875 22.4363L3.93875 23.9363C3.79922 24.0758 3.68854 24.2414 3.61303 24.4237C3.53751 24.606 3.49865 24.8014 3.49865 24.9988C3.49865 25.1961 3.53751 25.3915 3.61303 25.5738C3.68854 25.7561 3.79922 25.9217 3.93875 26.0613C4.22054 26.343 4.60273 26.5014 5.00125 26.5014C5.19857 26.5014 5.39397 26.4625 5.57627 26.387C5.75858 26.3115 5.92422 26.2008 6.06375 26.0613L7.56375 24.5613C7.84554 24.2795 8.00385 23.8973 8.00385 23.4988C8.00385 23.1002 7.84554 22.718 7.56375 22.4363C7.28196 22.1545 6.89976 21.9961 6.50125 21.9961C6.10273 21.9961 5.72054 22.1545 5.43875 22.4363ZM23.5 8C23.697 8.00015 23.8922 7.96149 24.0743 7.8862C24.2564 7.81092 24.4218 7.7005 24.5613 7.56125L26.0613 6.06125C26.2008 5.92172 26.3115 5.75608 26.387 5.57377C26.4625 5.39147 26.5014 5.19607 26.5014 4.99875C26.5014 4.80143 26.4625 4.60603 26.387 4.42373C26.3115 4.24142 26.2008 4.07578 26.0613 3.93625C25.9217 3.79672 25.7561 3.68604 25.5738 3.61053C25.3915 3.53501 25.1961 3.49615 24.9988 3.49615C24.8014 3.49615 24.606 3.53501 24.4237 3.61053C24.2414 3.68604 24.0758 3.79672 23.9363 3.93625L22.4363 5.43625C22.2252 5.64605 22.0814 5.91388 22.023 6.20567C21.9646 6.49745 21.9943 6.80002 22.1083 7.07487C22.2224 7.34973 22.4156 7.58445 22.6634 7.74919C22.9112 7.91392 23.2024 8.00123 23.5 8ZM24.5613 22.4387C24.2795 22.157 23.8973 21.9986 23.4988 21.9986C23.1002 21.9986 22.718 22.157 22.4363 22.4387C22.1545 22.7205 21.9961 23.1027 21.9961 23.5012C21.9961 23.8998 22.1545 24.282 22.4363 24.5637L23.9363 26.0637C24.218 26.3455 24.6002 26.5039 24.9988 26.5039C25.3973 26.5039 25.7795 26.3455 26.0613 26.0637C26.343 25.782 26.5014 25.3998 26.5014 25.0012C26.5014 24.6027 26.343 24.2205 26.0613 23.9387L24.5613 22.4387ZM5 15C5 14.6022 4.84196 14.2206 4.56066 13.9393C4.27936 13.658 3.89782 13.5 3.5 13.5H1.5C1.10218 13.5 0.720644 13.658 0.43934 13.9393C0.158035 14.2206 0 14.6022 0 15C0 15.3978 0.158035 15.7794 0.43934 16.0607C0.720644 16.342 1.10218 16.5 1.5 16.5H3.5C3.89782 16.5 4.27936 16.342 4.56066 16.0607C4.84196 15.7794 5 15.3978 5 15ZM15 25C14.6022 25 14.2206 25.158 13.9393 25.4393C13.658 25.7206 13.5 26.1022 13.5 26.5V28.5C13.5 28.8978 13.658 29.2794 13.9393 29.5607C14.2206 29.842 14.6022 30 15 30C15.3978 30 15.7794 29.842 16.0607 29.5607C16.342 29.2794 16.5 28.8978 16.5 28.5V26.5C16.5 26.1022 16.342 25.7206 16.0607 25.4393C15.7794 25.158 15.3978 25 15 25ZM28.5 13.5H26.5C26.1022 13.5 25.7206 13.658 25.4393 13.9393C25.158 14.2206 25 14.6022 25 15C25 15.3978 25.158 15.7794 25.4393 16.0607C25.7206 16.342 26.1022 16.5 26.5 16.5H28.5C28.8978 16.5 29.2794 16.342 29.5607 16.0607C29.842 15.7794 30 15.3978 30 15C30 14.6022 29.842 14.2206 29.5607 13.9393C29.2794 13.658 28.8978 13.5 28.5 13.5Z" fill="white" fill-opacity="0.95"/>
</g>
</svg>
