<svg width="32" height="32" viewBox="0 0 32 32" fill="none" xmlns="http://www.w3.org/2000/svg">
<g transform="translate(2.5000, 2.5000)">
<path id="Vector" d="M12 2V1.5C12 1.10218 12.158 0.720644 12.4393 0.43934C12.7206 0.158035 13.1022 0 13.5 0C13.8978 0 14.2794 0.158035 14.5607 0.43934C14.842 0.720644 15 1.10218 15 1.5V2C15 2.39782 14.842 2.77936 14.5607 3.06066C14.2794 3.34196 13.8978 3.5 13.5 3.5C13.1022 3.5 12.7206 3.34196 12.4393 3.06066C12.158 2.77936 12 2.39782 12 2ZM22 13.5C22 15.1811 21.5015 16.8245 20.5675 18.2223C19.6335 19.6202 18.306 20.7096 16.7528 21.353C15.1996 21.9963 13.4906 22.1647 11.8417 21.8367C10.1929 21.5087 8.67834 20.6992 7.48959 19.5104C6.30085 18.3217 5.4913 16.8071 5.16333 15.1583C4.83535 13.5094 5.00368 11.8004 5.64702 10.2472C6.29037 8.69402 7.37983 7.3665 8.77765 6.43251C10.1755 5.49852 11.8189 5 13.5 5C15.7536 5.00232 17.9143 5.89859 19.5078 7.49215C21.1014 9.08571 21.9977 11.2464 22 13.5ZM19 13.5C19 12.4122 18.6774 11.3488 18.0731 10.4444C17.4687 9.53989 16.6098 8.83494 15.6048 8.41866C14.5998 8.00238 13.4939 7.89346 12.427 8.10568C11.3601 8.3179 10.3801 8.84172 9.61091 9.61091C8.84172 10.3801 8.3179 11.3601 8.10568 12.427C7.89346 13.4939 8.00238 14.5998 8.41866 15.6048C8.83494 16.6098 9.53989 17.4687 10.4444 18.0731C11.3488 18.6774 12.4122 19 13.5 19C14.9582 18.9983 16.3562 18.4184 17.3873 17.3873C18.4184 16.3562 18.9983 14.9582 19 13.5ZM3.93875 6.06125C4.07828 6.20078 4.24392 6.31146 4.42623 6.38697C4.60853 6.46249 4.80393 6.50135 5.00125 6.50135C5.19857 6.50135 5.39397 6.46249 5.57627 6.38697C5.75858 6.31146 5.92422 6.20078 6.06375 6.06125C6.20328 5.92172 6.31396 5.75607 6.38947 5.57377C6.46499 5.39147 6.50385 5.19607 6.50385 4.99875C6.50385 4.80143 6.46499 4.60603 6.38947 4.42373C6.31396 4.24142 6.20328 4.07578 6.06375 3.93625L5.56375 3.43625C5.28196 3.15446 4.89976 2.99615 4.50125 2.99615C4.10273 2.99615 3.72054 3.15446 3.43875 3.43625C3.15696 3.71804 2.99865 4.10024 2.99865 4.49875C2.99865 4.89727 3.15696 5.27946 3.43875 5.56125L3.93875 6.06125ZM3.93875 20.9363L3.43875 21.4363C3.29922 21.5758 3.18854 21.7414 3.11303 21.9237C3.03751 22.106 2.99865 22.3014 2.99865 22.4988C2.99865 22.6961 3.03751 22.8915 3.11303 23.0738C3.18854 23.2561 3.29922 23.4217 3.43875 23.5613C3.72054 23.843 4.10273 24.0014 4.50125 24.0014C4.69857 24.0014 4.89397 23.9625 5.07627 23.887C5.25858 23.8115 5.42422 23.7008 5.56375 23.5613L6.06375 23.0613C6.34554 22.7795 6.50385 22.3973 6.50385 21.9988C6.50385 21.6002 6.34554 21.218 6.06375 20.9363C5.78196 20.6545 5.39976 20.4961 5.00125 20.4961C4.60273 20.4961 4.22054 20.6545 3.93875 20.9363ZM22 6.5C22.197 6.50015 22.3922 6.46149 22.5743 6.3862C22.7564 6.31092 22.9218 6.2005 23.0613 6.06125L23.5613 5.56125C23.843 5.27946 24.0014 4.89727 24.0014 4.49875C24.0014 4.10024 23.843 3.71804 23.5613 3.43625C23.2795 3.15446 22.8973 2.99615 22.4988 2.99615C22.1002 2.99615 21.718 3.15446 21.4363 3.43625L20.9363 3.93625C20.7252 4.14605 20.5814 4.41388 20.523 4.70567C20.4646 4.99745 20.4943 5.30002 20.6083 5.57487C20.7224 5.84973 20.9156 6.08445 21.1634 6.24919C21.4112 6.41392 21.7024 6.50123 22 6.5ZM23.0613 20.9387C22.7795 20.657 22.3973 20.4986 21.9988 20.4986C21.6002 20.4986 21.218 20.657 20.9363 20.9387C20.6545 21.2205 20.4961 21.6027 20.4961 22.0012C20.4961 22.3998 20.6545 22.782 20.9363 23.0637L21.4363 23.5637C21.718 23.8455 22.1002 24.0039 22.4988 24.0039C22.8973 24.0039 23.2795 23.8455 23.5613 23.5637C23.843 23.282 24.0014 22.8998 24.0014 22.5012C24.0014 22.1027 23.843 21.7205 23.5613 21.4387L23.0613 20.9387ZM3.5 13.5C3.5 13.1022 3.34196 12.7206 3.06066 12.4393C2.77936 12.158 2.39782 12 2 12H1.5C1.10218 12 0.720644 12.158 0.43934 12.4393C0.158035 12.7206 0 13.1022 0 13.5C0 13.8978 0.158035 14.2794 0.43934 14.5607C0.720644 14.842 1.10218 15 1.5 15H2C2.39782 15 2.77936 14.842 3.06066 14.5607C3.34196 14.2794 3.5 13.8978 3.5 13.5ZM13.5 23.5C13.1022 23.5 12.7206 23.658 12.4393 23.9393C12.158 24.2206 12 24.6022 12 25V25.5C12 25.8978 12.158 26.2794 12.4393 26.5607C12.7206 26.842 13.1022 27 13.5 27C13.8978 27 14.2794 26.842 14.5607 26.5607C14.842 26.2794 15 25.8978 15 25.5V25C15 24.6022 14.842 24.2206 14.5607 23.9393C14.2794 23.658 13.8978 23.5 13.5 23.5ZM25.5 12H25C24.6022 12 24.2206 12.158 23.9393 12.4393C23.658 12.7206 23.5 13.1022 23.5 13.5C23.5 13.8978 23.658 14.2794 23.9393 14.5607C24.2206 14.842 24.6022 15 25 15H25.5C25.8978 15 26.2794 14.842 26.5607 14.5607C26.842 14.2794 27 13.8978 27 13.5C27 13.1022 26.842 12.7206 26.5607 12.4393C26.2794 12.158 25.8978 12 25.5 12Z" fill="white" fill-opacity="0.95"/>
</g>
</svg>
