<svg width="32" height="32" viewBox="0 0 32 32" fill="none" xmlns="http://www.w3.org/2000/svg">
<g transform="translate(3.5000, 7.0000)">
<path id="Vector" d="M0 1.5C0 1.10218 0.158035 0.720644 0.43934 0.43934C0.720644 0.158035 1.10218 0 1.5 0H23.5C23.8978 0 24.2794 0.158035 24.5607 0.43934C24.842 0.720644 25 1.10218 25 1.5C25 1.89782 24.842 2.27936 24.5607 2.56066C24.2794 2.84196 23.8978 3 23.5 3H1.5C1.10218 3 0.720644 2.84196 0.43934 2.56066C0.158035 2.27936 0 1.89782 0 1.5ZM23.5 5H7.5C7.10218 5 6.72064 5.15804 6.43934 5.43934C6.15804 5.72064 6 6.10218 6 6.5C6 6.89782 6.15804 7.27936 6.43934 7.56066C6.72064 7.84196 7.10218 8 7.5 8H23.5C23.8978 8 24.2794 7.84196 24.5607 7.56066C24.842 7.27936 25 6.89782 25 6.5C25 6.10218 24.842 5.72064 24.5607 5.43934C24.2794 5.15804 23.8978 5 23.5 5ZM23.5 10H1.5C1.10218 10 0.720644 10.158 0.43934 10.4393C0.158035 10.7206 0 11.1022 0 11.5C0 11.8978 0.158035 12.2794 0.43934 12.5607C0.720644 12.842 1.10218 13 1.5 13H23.5C23.8978 13 24.2794 12.842 24.5607 12.5607C24.842 12.2794 25 11.8978 25 11.5C25 11.1022 24.842 10.7206 24.5607 10.4393C24.2794 10.158 23.8978 10 23.5 10ZM23.5 15H7.5C7.10218 15 6.72064 15.158 6.43934 15.4393C6.15804 15.7206 6 16.1022 6 16.5C6 16.8978 6.15804 17.2794 6.43934 17.5607C6.72064 17.842 7.10218 18 7.5 18H23.5C23.8978 18 24.2794 17.842 24.5607 17.5607C24.842 17.2794 25 16.8978 25 16.5C25 16.1022 24.842 15.7206 24.5607 15.4393C24.2794 15.158 23.8978 15 23.5 15Z" fill="white" fill-opacity="0.95"/>
</g>
</svg>
