<svg width="32" height="32" viewBox="0 0 32 32" fill="none" xmlns="http://www.w3.org/2000/svg">
<g transform="translate(1.0061, 5.9995)">
<path id="Vector" d="M10.8454 0.861883C10.7243 0.604188 10.5323 0.386295 10.2919 0.233672C10.0515 0.0810484 9.77267 0 9.48793 0C9.20318 0 8.92432 0.0810484 8.68393 0.233672C8.44354 0.386295 8.25156 0.604188 8.13043 0.861883L0.130428 17.8619C-0.0297197 18.2204 -0.0428997 18.6274 0.0937183 18.9956C0.230336 19.3637 0.505859 19.6636 0.861124 19.8308C1.21639 19.998 1.62307 20.0193 1.99384 19.89C2.36461 19.7608 2.66991 19.4913 2.84418 19.1394L4.79293 15.0006H14.1829L16.1304 19.1394C16.2998 19.4994 16.6053 19.7774 16.9797 19.9122C17.3541 20.047 17.7666 20.0275 18.1267 19.8581C18.4867 19.6887 18.7647 19.3832 18.8995 19.0089C19.0343 18.6345 19.0148 18.2219 18.8454 17.8619L10.8454 0.861883ZM6.20543 12.0006L9.48793 5.02313L12.7717 12.0006H6.20543ZM24.4879 5.00063C22.7567 5.00063 21.3917 5.48313 20.4317 6.43563C20.2807 6.57163 20.159 6.73688 20.0738 6.92136C19.9886 7.10584 19.9418 7.3057 19.9362 7.50881C19.9306 7.71192 19.9664 7.91404 20.0413 8.10293C20.1162 8.29181 20.2286 8.46351 20.3719 8.60761C20.5151 8.75171 20.6862 8.8652 20.8746 8.9412C21.063 9.0172 21.265 9.05413 21.4681 9.04973C21.6712 9.04534 21.8714 8.99972 22.0563 8.91565C22.2413 8.83157 22.4073 8.71079 22.5442 8.56063C22.9192 8.18563 23.5767 7.99563 24.4879 7.99563C25.8629 7.99563 26.9879 8.89313 26.9879 9.99563V10.5444C26.2043 10.1828 25.351 9.99717 24.4879 10.0006C21.4554 10.0006 18.9879 12.2431 18.9879 15.0006C18.9879 17.7581 21.4554 20.0006 24.4879 20.0006C25.4456 20.0031 26.3895 19.7723 27.2379 19.3281C27.416 19.5965 27.6757 19.8005 27.9786 19.9099C28.2816 20.0192 28.6117 20.0282 28.9201 19.9354C29.2286 19.8425 29.4989 19.6529 29.6912 19.3945C29.8835 19.1362 29.9876 18.8227 29.9879 18.5006V10.0006C29.9879 7.24313 27.5204 5.00063 24.4879 5.00063ZM24.4879 17.0006C23.1129 17.0006 21.9879 16.1031 21.9879 15.0006C21.9879 13.8981 23.1129 13.0006 24.4879 13.0006C25.8629 13.0006 26.9879 13.8981 26.9879 15.0006C26.9879 16.1031 25.8629 17.0006 24.4879 17.0006Z" fill="white" fill-opacity="0.95"/>
</g>
</svg>
