<svg width="24" height="24" viewBox="0 0 24 24" fill="none" xmlns="http://www.w3.org/2000/svg">
<path d="M8.51835 4.77141C8.4275 4.57814 8.28351 4.41472 8.10322 4.30025C7.92293 4.18579 7.71378 4.125 7.50022 4.125C7.28666 4.125 7.07752 4.18579 6.89723 4.30025C6.71693 4.41472 6.57295 4.57814 6.4821 4.77141L0.482099 17.5214C0.361988 17.7903 0.352103 18.0956 0.454566 18.3717C0.55703 18.6478 0.763671 18.8727 1.03012 18.9981C1.29657 19.1235 1.60158 19.1395 1.87966 19.0425C2.15774 18.9456 2.38671 18.7434 2.51741 18.4795L3.97897 15.3755H11.0215L12.4821 18.4795C12.6092 18.7496 12.8383 18.9581 13.119 19.0591C13.3998 19.1602 13.7093 19.1457 13.9793 19.0186C14.2493 18.8915 14.4578 18.6624 14.5589 18.3816C14.66 18.1009 14.6454 17.7914 14.5183 17.5214L8.51835 4.77141ZM5.03835 13.1255L7.50022 7.89235L9.96304 13.1255H5.03835ZM18.7502 7.87547C17.4518 7.87547 16.428 8.23735 15.708 8.95172C15.5948 9.05372 15.5035 9.17766 15.4396 9.31602C15.3757 9.45438 15.3407 9.60427 15.3365 9.7566C15.3323 9.90894 15.3591 10.0605 15.4152 10.2022C15.4714 10.3439 15.5558 10.4726 15.6632 10.5807C15.7706 10.6888 15.8989 10.7739 16.0402 10.8309C16.1816 10.8879 16.333 10.9156 16.4854 10.9123C16.6377 10.909 16.7878 10.8748 16.9265 10.8117C17.0653 10.7487 17.1897 10.6581 17.2924 10.5455C17.5737 10.2642 18.0668 10.1217 18.7502 10.1217C19.7815 10.1217 20.6252 10.7948 20.6252 11.6217V12.0333C20.0375 11.7621 19.3975 11.6229 18.7502 11.6255C16.4758 11.6255 14.6252 13.3073 14.6252 15.3755C14.6252 17.4436 16.4758 19.1255 18.7502 19.1255C19.4685 19.1273 20.1764 18.9542 20.8127 18.6211C20.9463 18.8224 21.141 18.9754 21.3683 19.0574C21.5955 19.1394 21.8431 19.1461 22.0744 19.0765C22.3057 19.0069 22.5085 18.8647 22.6527 18.6709C22.7969 18.4771 22.875 18.242 22.8752 18.0005V11.6255C22.8752 9.55735 21.0246 7.87547 18.7502 7.87547ZM18.7502 16.8755C17.719 16.8755 16.8752 16.2023 16.8752 15.3755C16.8752 14.5486 17.719 13.8755 18.7502 13.8755C19.7815 13.8755 20.6252 14.5486 20.6252 15.3755C20.6252 16.2023 19.7815 16.8755 18.7502 16.8755Z" fill="#27C58B"/>
</svg>
