<svg width="32" height="32" viewBox="0 0 32 32" fill="none" xmlns="http://www.w3.org/2000/svg">
<g filter="url(#filter0_dd_141_1712)">
<path d="M29.4999 17.1248C29.2792 19.6899 28.3305 22.1386 26.7654 24.1828C25.2004 26.2271 23.084 27.7818 20.6654 28.6641C18.2467 29.5464 15.6264 29.7196 13.1127 29.1633C10.5989 28.6069 8.29639 27.3443 6.47591 25.5238C4.65543 23.7033 3.39275 21.4007 2.83642 18.887C2.2801 16.3733 2.45327 13.753 3.33558 11.3343C4.21788 8.91565 5.77261 6.7993 7.81684 5.23424C9.86107 3.66917 12.3098 2.7205 14.8749 2.49983C15.2727 2.46668 15.6674 2.59292 15.9721 2.85078C16.2769 3.10865 16.4667 3.47701 16.4999 3.87483C16.533 4.27266 16.4068 4.66736 16.1489 4.9721C15.891 5.27685 15.5227 5.46668 15.1249 5.49983C13.1291 5.67099 11.2237 6.40866 9.63293 7.62603C8.04218 8.8434 6.83225 10.4898 6.14553 12.3716C5.45881 14.2533 5.32386 16.292 5.75658 18.2478C6.18929 20.2037 7.17166 21.9952 8.58808 23.4116C10.0045 24.828 11.796 25.8104 13.7519 26.2431C15.7077 26.6758 17.7464 26.5409 19.6281 25.8542C21.5099 25.1674 23.1563 23.9575 24.3737 22.3668C25.591 20.776 26.3287 18.8706 26.4999 16.8748C26.5163 16.6778 26.5713 16.486 26.6619 16.3103C26.7524 16.1346 26.8767 15.9785 27.0276 15.8508C27.1785 15.7231 27.353 15.6264 27.5413 15.5662C27.7296 15.506 27.9279 15.4834 28.1249 15.4998C28.3218 15.5162 28.5137 15.5713 28.6894 15.6618C28.8651 15.7524 29.0212 15.8767 29.1489 16.0276C29.2766 16.1785 29.3733 16.353 29.4335 16.5413C29.4937 16.7296 29.5163 16.9278 29.4999 17.1248ZM25.9999 11.9998C26.3954 11.9998 26.7821 11.8825 27.111 11.6628C27.4399 11.443 27.6962 11.1307 27.8476 10.7652C27.999 10.3997 28.0386 9.99761 27.9614 9.60965C27.8843 9.22169 27.6938 8.86532 27.4141 8.58562C27.1344 8.30591 26.778 8.11543 26.39 8.03826C26.0021 7.96109 25.5999 8.0007 25.2345 8.15207C24.869 8.30345 24.5567 8.55979 24.3369 8.88869C24.1172 9.21759 23.9999 9.60427 23.9999 9.99983C23.9999 10.5303 24.2106 11.039 24.5856 11.414C24.9607 11.7891 25.4694 11.9998 25.9999 11.9998ZM21.9999 7.99983C22.3954 7.99983 22.7821 7.88253 23.111 7.66277C23.4399 7.44301 23.6962 7.13065 23.8476 6.7652C23.999 6.39975 24.0386 5.99761 23.9614 5.60965C23.8843 5.22169 23.6938 4.86532 23.4141 4.58562C23.1344 4.30591 22.778 4.11543 22.39 4.03826C22.0021 3.96109 21.5999 4.0007 21.2345 4.15207C20.869 4.30345 20.5567 4.55979 20.3369 4.88869C20.1172 5.21759 19.9999 5.60427 19.9999 5.99983C19.9999 6.53026 20.2106 7.03897 20.5856 7.41405C20.9607 7.78912 21.4694 7.99983 21.9999 7.99983Z" fill="white"/>
<path d="M10.9645 19.9992V14.4129V14.4079C10.6078 14.5241 10.2205 14.5024 9.87899 14.3471C9.5375 14.1918 9.2666 13.9141 9.11973 13.5689C8.97286 13.2237 8.96068 12.836 9.08559 12.4822C9.21049 12.1285 9.46343 11.8344 9.7945 11.6579L11.7945 10.6579C12.0231 10.5438 12.2771 10.49 12.5324 10.5015C12.7877 10.5131 13.0358 10.5897 13.2531 10.7241C13.4705 10.8584 13.65 11.0461 13.7744 11.2692C13.8989 11.4924 13.9644 11.7437 13.9645 11.9992V19.9992C13.9645 20.397 13.8065 20.7786 13.5252 21.0599C13.2439 21.3412 12.8623 21.4992 12.4645 21.4992C12.0667 21.4992 11.6851 21.3412 11.4038 21.0599C11.1225 20.7786 10.9645 20.397 10.9645 19.9992Z" fill="white" fill-opacity="0.95"/>
<path d="M19.5 14C19.5 13.7239 19.2761 13.5 19 13.5C18.7239 13.5 18.5 13.7239 18.5 14V18C18.5 18.2761 18.7239 18.5 19 18.5C19.2761 18.5 19.5 18.2761 19.5 18V14ZM22.5 18C22.5 19.933 20.933 21.5 19 21.5C17.067 21.5 15.5 19.933 15.5 18V14C15.5 12.067 17.067 10.5 19 10.5C20.933 10.5 22.5 12.067 22.5 14V18Z" fill="white" fill-opacity="0.95"/>
</g>
<defs>
<filter id="filter0_dd_141_1712" x="-0.2" y="-0.2" width="34.2" height="34.2" filterUnits="userSpaceOnUse" color-interpolation-filters="sRGB">
<feFlood flood-opacity="0" result="BackgroundImageFix"/>
<feColorMatrix in="SourceAlpha" type="matrix" values="0 0 0 0 0 0 0 0 0 0 0 0 0 0 0 0 0 0 127 0" result="hardAlpha"/>
<feOffset dx="1" dy="1"/>
<feGaussianBlur stdDeviation="0.5"/>
<feColorMatrix type="matrix" values="0 0 0 0 0 0 0 0 0 0 0 0 0 0 0 0 0 0 0.1 0"/>
<feBlend mode="normal" in2="BackgroundImageFix" result="effect1_dropShadow_141_1712"/>
<feColorMatrix in="SourceAlpha" type="matrix" values="0 0 0 0 0 0 0 0 0 0 0 0 0 0 0 0 0 0 127 0" result="hardAlpha"/>
<feOffset dx="0.4" dy="0.4"/>
<feGaussianBlur stdDeviation="0.3"/>
<feComposite in2="hardAlpha" operator="out"/>
<feColorMatrix type="matrix" values="0 0 0 0 0 0 0 0 0 0 0 0 0 0 0 0 0 0 0.1 0"/>
<feBlend mode="normal" in2="effect1_dropShadow_141_1712" result="effect2_dropShadow_141_1712"/>
<feBlend mode="normal" in="SourceGraphic" in2="effect2_dropShadow_141_1712" result="shape"/>
</filter>
</defs>
</svg>
