<svg width="32" height="32" viewBox="0 0 32 32" fill="none" xmlns="http://www.w3.org/2000/svg">
<g transform="translate(3.5000, 2.2500)">
<path id="Vector" d="M23.5 5H1.5C1.10218 5 0.720644 5.15804 0.43934 5.43934C0.158035 5.72064 0 6.10218 0 6.5C0 6.89782 0.158035 7.27936 0.43934 7.56066C0.720644 7.84196 1.10218 8 1.5 8H2V25C2 25.663 2.26339 26.2989 2.73223 26.7678C3.20107 27.2366 3.83696 27.5 4.5 27.5H20.5C21.163 27.5 21.7989 27.2366 22.2678 26.7678C22.7366 26.2989 23 25.663 23 25V8H23.5C23.8978 8 24.2794 7.84196 24.5607 7.56066C24.842 7.27936 25 6.89782 25 6.5C25 6.10218 24.842 5.72064 24.5607 5.43934C24.2794 5.15804 23.8978 5 23.5 5ZM20 24.5H5V8H20V24.5ZM6 1.5C6 1.10218 6.15804 0.720644 6.43934 0.43934C6.72064 0.158035 7.10218 0 7.5 0H17.5C17.8978 0 18.2794 0.158035 18.5607 0.43934C18.842 0.720644 19 1.10218 19 1.5C19 1.89782 18.842 2.27936 18.5607 2.56066C18.2794 2.84196 17.8978 3 17.5 3H7.5C7.10218 3 6.72064 2.84196 6.43934 2.56066C6.15804 2.27936 6 1.89782 6 1.5Z" fill="white" fill-opacity="0.95"/>
</g>
</svg>
