<svg width="32" height="32" viewBox="0 0 32 32" fill="none" xmlns="http://www.w3.org/2000/svg">
<g transform="translate(3.5000, 2.2500)">
<path id="Vector" d="M23.5 5H19V3.5C19 2.57174 18.6313 1.6815 17.9749 1.02513C17.3185 0.368749 16.4283 0 15.5 0H9.5C8.57174 0 7.6815 0.368749 7.02513 1.02513C6.36875 1.6815 6 2.57174 6 3.5V5H1.5C1.10218 5 0.720644 5.15804 0.43934 5.43934C0.158035 5.72064 0 6.10218 0 6.5C0 6.89782 0.158035 7.27936 0.43934 7.56066C0.720644 7.84196 1.10218 8 1.5 8H2V25C2 25.663 2.26339 26.2989 2.73223 26.7678C3.20107 27.2366 3.83696 27.5 4.5 27.5H20.5C21.163 27.5 21.7989 27.2366 22.2678 26.7678C22.7366 26.2989 23 25.663 23 25V8H23.5C23.8978 8 24.2794 7.84196 24.5607 7.56066C24.842 7.27936 25 6.89782 25 6.5C25 6.10218 24.842 5.72064 24.5607 5.43934C24.2794 5.15804 23.8978 5 23.5 5ZM9 3.5C9 3.36739 9.05268 3.24021 9.14645 3.14645C9.24021 3.05268 9.36739 3 9.5 3H15.5C15.6326 3 15.7598 3.05268 15.8536 3.14645C15.9473 3.24021 16 3.36739 16 3.5V5H9V3.5ZM20 24.5H5V8H20V24.5ZM11 12V20C11 20.3978 10.842 20.7794 10.5607 21.0607C10.2794 21.342 9.89782 21.5 9.5 21.5C9.10218 21.5 8.72064 21.342 8.43934 21.0607C8.15804 20.7794 8 20.3978 8 20V12C8 11.6022 8.15804 11.2206 8.43934 10.9393C8.72064 10.658 9.10218 10.5 9.5 10.5C9.89782 10.5 10.2794 10.658 10.5607 10.9393C10.842 11.2206 11 11.6022 11 12ZM17 12V20C17 20.3978 16.842 20.7794 16.5607 21.0607C16.2794 21.342 15.8978 21.5 15.5 21.5C15.1022 21.5 14.7206 21.342 14.4393 21.0607C14.158 20.7794 14 20.3978 14 20V12C14 11.6022 14.158 11.2206 14.4393 10.9393C14.7206 10.658 15.1022 10.5 15.5 10.5C15.8978 10.5 16.2794 10.658 16.5607 10.9393C16.842 11.2206 17 11.6022 17 12Z" fill="white" fill-opacity="0.95"/>
</g>
</svg>
