<svg width="33" height="32" viewBox="0 0 33 32" fill="none" xmlns="http://www.w3.org/2000/svg">
<g filter="url(#filter0_dd_109_759)">
<path d="M29.8475 22.9736L12.285 10.9561C12.4278 10.4839 12.5002 9.99324 12.5 9.4999C12.5001 8.36873 12.1167 7.27093 11.4124 6.38583C10.708 5.50072 9.72431 4.88061 8.62198 4.62678C7.51966 4.37295 6.36384 4.5004 5.34331 4.98832C4.32278 5.47624 3.49785 6.29579 3.00327 7.3131C2.50868 8.33042 2.37367 9.48538 2.62027 10.5893C2.86688 11.6933 3.48054 12.681 4.36102 13.3912C5.2415 14.1013 6.33675 14.4919 7.4679 14.4992C8.59905 14.5064 9.69923 14.1299 10.5888 13.4311L14.3388 16.0011L10.5888 18.5711C9.83114 17.9759 8.91769 17.6123 7.95829 17.5239C6.99888 17.4355 6.03437 17.6263 5.18079 18.0731C4.32721 18.52 3.62092 19.2039 3.14686 20.0427C2.67281 20.8815 2.45119 21.8393 2.50866 22.8011C2.56614 23.7628 2.90025 24.6875 3.47083 25.4639C4.0414 26.2402 4.82412 26.8352 5.72484 27.1772C6.62556 27.5192 7.60592 27.5937 8.54798 27.3917C9.49003 27.1897 10.3537 26.7199 11.035 26.0386C11.5013 25.5751 11.8709 25.0236 12.1224 24.4162C12.3738 23.8087 12.5022 23.1574 12.5 22.4999C12.5004 22.0061 12.4279 21.515 12.285 21.0424L17 17.8174L28.1525 25.4499C28.3151 25.5612 28.498 25.6394 28.6908 25.68C28.8836 25.7206 29.0825 25.7228 29.2762 25.6865C29.4699 25.6503 29.6545 25.5762 29.8196 25.4686C29.9846 25.3609 30.1268 25.2219 30.2381 25.0593C30.3494 24.8967 30.4276 24.7138 30.4682 24.521C30.5088 24.3281 30.511 24.1292 30.4748 23.9356C30.4385 23.7419 30.3644 23.5573 30.2568 23.3922C30.1492 23.2272 30.0101 23.0849 29.8475 22.9736ZM8.91375 23.9161C8.58653 24.2432 8.15606 24.4466 7.69566 24.4919C7.23527 24.5371 6.77342 24.4214 6.38878 24.1644C6.00414 23.9073 5.72051 23.5249 5.58618 23.0822C5.45185 22.6395 5.47513 22.164 5.65207 21.7365C5.82901 21.3091 6.14865 20.9562 6.55656 20.738C6.96447 20.5197 7.43542 20.4497 7.88919 20.5397C8.34296 20.6297 8.75149 20.8743 9.0452 21.2317C9.33892 21.5891 9.49964 22.0373 9.5 22.4999C9.50021 22.7629 9.44854 23.0234 9.34794 23.2664C9.24734 23.5094 9.0998 23.7302 8.91375 23.9161ZM6.08625 10.9124C5.80642 10.6327 5.61581 10.2764 5.53853 9.88838C5.46125 9.50038 5.50078 9.09818 5.65212 8.73265C5.80346 8.36713 6.0598 8.05469 6.38873 7.83487C6.71765 7.61505 7.10439 7.49772 7.5 7.49772C7.89562 7.49772 8.28235 7.61505 8.61128 7.83487C8.94021 8.05469 9.19655 8.36713 9.34789 8.73265C9.49923 9.09818 9.53876 9.50038 9.46148 9.88838C9.3842 10.2764 9.19359 10.6327 8.91375 10.9124C8.53872 11.2872 8.03021 11.4977 7.5 11.4977C6.9698 11.4977 6.46129 11.2872 6.08625 10.9124ZM20.1888 13.8174C20.0775 13.6548 19.9994 13.4719 19.9589 13.2791C19.9184 13.0863 19.9162 12.8875 19.9525 12.6939C19.9889 12.5002 20.063 12.3157 20.1706 12.1507C20.2783 11.9858 20.4174 11.8436 20.58 11.7324L28.1525 6.5499C28.4809 6.32512 28.8851 6.24 29.2762 6.31326C29.6673 6.38652 30.0134 6.61215 30.2381 6.94052C30.4629 7.26889 30.548 7.6731 30.4748 8.06423C30.4015 8.45536 30.1759 8.80137 29.8475 9.02615L22.2738 14.2086C22.1112 14.3199 21.9283 14.398 21.7355 14.4385C21.5427 14.479 21.3438 14.4812 21.1502 14.4449C20.9566 14.4085 20.772 14.3344 20.6071 14.2268C20.4421 14.1191 20.3 13.98 20.1888 13.8174Z" fill="white"/>
</g>
<defs>
<filter id="filter0_dd_109_759" x="-0.2" y="-0.2" width="34.2" height="34.2" filterUnits="userSpaceOnUse" color-interpolation-filters="sRGB">
<feFlood flood-opacity="0" result="BackgroundImageFix"/>
<feColorMatrix in="SourceAlpha" type="matrix" values="0 0 0 0 0 0 0 0 0 0 0 0 0 0 0 0 0 0 127 0" result="hardAlpha"/>
<feOffset dx="1" dy="1"/>
<feGaussianBlur stdDeviation="0.5"/>
<feColorMatrix type="matrix" values="0 0 0 0 0 0 0 0 0 0 0 0 0 0 0 0 0 0 0.1 0"/>
<feBlend mode="normal" in2="BackgroundImageFix" result="effect1_dropShadow_109_759"/>
<feColorMatrix in="SourceAlpha" type="matrix" values="0 0 0 0 0 0 0 0 0 0 0 0 0 0 0 0 0 0 127 0" result="hardAlpha"/>
<feOffset dx="0.4" dy="0.4"/>
<feGaussianBlur stdDeviation="0.3"/>
<feComposite in2="hardAlpha" operator="out"/>
<feColorMatrix type="matrix" values="0 0 0 0 0 0 0 0 0 0 0 0 0 0 0 0 0 0 0.1 0"/>
<feBlend mode="normal" in2="effect1_dropShadow_109_759" result="effect2_dropShadow_109_759"/>
<feBlend mode="normal" in="SourceGraphic" in2="effect2_dropShadow_109_759" result="shape"/>
</filter>
</defs>
</svg>
