<svg width="24" height="24" viewBox="0 0 24 24" fill="none" xmlns="http://www.w3.org/2000/svg">
<path d="M3.75 8.6247H6.56812C6.80081 9.28265 7.23174 9.85228 7.80157 10.2552C8.37141 10.6581 9.05212 10.8744 9.75 10.8744C10.4479 10.8744 11.1286 10.6581 11.6984 10.2552C12.2683 9.85228 12.6992 9.28265 12.9319 8.6247H20.25C20.5484 8.6247 20.8345 8.50618 21.0455 8.2952C21.2565 8.08422 21.375 7.79807 21.375 7.4997C21.375 7.20133 21.2565 6.91518 21.0455 6.70421C20.8345 6.49323 20.5484 6.3747 20.25 6.3747H12.9319C12.6992 5.71676 12.2683 5.14713 11.6984 4.74423C11.1286 4.34134 10.4479 4.125 9.75 4.125C9.05212 4.125 8.37141 4.34134 7.80157 4.74423C7.23174 5.14713 6.80081 5.71676 6.56812 6.3747H3.75C3.45163 6.3747 3.16548 6.49323 2.9545 6.70421C2.74353 6.91518 2.625 7.20133 2.625 7.4997C2.625 7.79807 2.74353 8.08422 2.9545 8.2952C3.16548 8.50618 3.45163 8.6247 3.75 8.6247ZM9.75 6.3747C9.9725 6.3747 10.19 6.44068 10.375 6.5643C10.56 6.68791 10.7042 6.86362 10.7894 7.06918C10.8745 7.27475 10.8968 7.50095 10.8534 7.71918C10.81 7.93741 10.7028 8.13786 10.5455 8.2952C10.3882 8.45253 10.1877 8.55968 9.96948 8.60309C9.75125 8.64649 9.52505 8.62421 9.31948 8.53907C9.11391 8.45392 8.93821 8.30972 8.8146 8.12472C8.69098 7.93971 8.625 7.72221 8.625 7.4997C8.625 7.20133 8.74353 6.91518 8.9545 6.70421C9.16548 6.49323 9.45163 6.3747 9.75 6.3747ZM20.25 15.3747H18.9319C18.6992 14.7168 18.2683 14.1471 17.6984 13.7442C17.1286 13.3413 16.4479 13.125 15.75 13.125C15.0521 13.125 14.3714 13.3413 13.8016 13.7442C13.2317 14.1471 12.8008 14.7168 12.5681 15.3747H3.75C3.45163 15.3747 3.16548 15.4932 2.9545 15.7042C2.74353 15.9152 2.625 16.2013 2.625 16.4997C2.625 16.7981 2.74353 17.0842 2.9545 17.2952C3.16548 17.5062 3.45163 17.6247 3.75 17.6247H12.5681C12.8008 18.2826 13.2317 18.8523 13.8016 19.2552C14.3714 19.6581 15.0521 19.8744 15.75 19.8744C16.4479 19.8744 17.1286 19.6581 17.6984 19.2552C18.2683 18.8523 18.6992 18.2826 18.9319 17.6247H20.25C20.5484 17.6247 20.8345 17.5062 21.0455 17.2952C21.2565 17.0842 21.375 16.7981 21.375 16.4997C21.375 16.2013 21.2565 15.9152 21.0455 15.7042C20.8345 15.4932 20.5484 15.3747 20.25 15.3747ZM15.75 17.6247C15.5275 17.6247 15.31 17.5587 15.125 17.4351C14.94 17.3115 14.7958 17.1358 14.7106 16.9302C14.6255 16.7247 14.6032 16.4985 14.6466 16.2802C14.69 16.062 14.7972 15.8615 14.9545 15.7042C15.1118 15.5469 15.3123 15.4397 15.5305 15.3963C15.7488 15.3529 15.975 15.3752 16.1805 15.4603C16.3861 15.5455 16.5618 15.6897 16.6854 15.8747C16.809 16.0597 16.875 16.2772 16.875 16.4997C16.875 16.7981 16.7565 17.0842 16.5455 17.2952C16.3345 17.5062 16.0484 17.6247 15.75 17.6247Z" fill="#27C58B"/>
</svg>
