<svg width="32" height="32" viewBox="0 0 32 32" fill="none" xmlns="http://www.w3.org/2000/svg">
<path d="M12.5 17C13.8807 17 15 18.1193 15 19.5V25C15 26.3807 13.8807 27.5 12.5 27.5H7C5.61929 27.5 4.5 26.3807 4.5 25V19.5C4.5 18.1193 5.61929 17 7 17H12.5ZM25 17C26.3807 17 27.5 18.1193 27.5 19.5V25C27.5 26.3807 26.3807 27.5 25 27.5H19.5C18.1193 27.5 17 26.3807 17 25V19.5C17 18.1193 18.1193 17 19.5 17H25ZM20 24.5H24.5V20H20V24.5ZM8 4.5C8.82843 4.5 9.5 5.17157 9.5 6V8.14258C9.76346 7.87904 10.0404 7.61468 10.3359 7.36133C11.843 6.06958 13.8018 5 16.5 5C19.049 5 20.9905 5.71506 22.4521 6.79199C23.8938 7.85426 24.7775 9.20059 25.3418 10.3291C25.7123 11.0701 25.4119 11.9713 24.6709 12.3418C23.9299 12.7123 23.0287 12.4119 22.6582 11.6709C22.2225 10.7995 21.606 9.89571 20.6729 9.20801C19.7596 8.53507 18.4508 8 16.5 8C14.6984 8 13.4069 8.68057 12.2891 9.63867C11.9763 9.90676 11.68 10.1965 11.3887 10.5H14C14.8284 10.5 15.5 11.1716 15.5 12C15.5 12.8284 14.8284 13.5 14 13.5H8C7.95012 13.5 7.90027 13.4971 7.85059 13.4922C7.82687 13.4898 7.80365 13.4849 7.78027 13.4814C7.7565 13.4779 7.7326 13.4754 7.70898 13.4707C7.68064 13.4651 7.65275 13.4583 7.625 13.4512C7.60474 13.446 7.58452 13.4406 7.56445 13.4346C7.53525 13.4257 7.50693 13.4149 7.47852 13.4043C7.46191 13.3981 7.44514 13.3925 7.42871 13.3857C7.39504 13.3718 7.36246 13.3561 7.33008 13.3398C7.3198 13.3347 7.30901 13.3306 7.29883 13.3252C7.26548 13.3075 7.23297 13.2886 7.20117 13.2686C7.19118 13.2622 7.18077 13.2566 7.1709 13.25C7.00374 13.1389 6.85997 12.9954 6.74902 12.8281C6.74247 12.8182 6.73677 12.8078 6.73047 12.7979C6.68514 12.7259 6.64602 12.6498 6.61328 12.5703C6.61245 12.5683 6.61117 12.5665 6.61035 12.5645L6.56738 12.4463C6.56619 12.4425 6.56562 12.4384 6.56445 12.4346C6.55812 12.4136 6.55324 12.3923 6.54785 12.3711C6.51759 12.2523 6.5 12.1282 6.5 12V6C6.5 5.17157 7.17157 4.5 8 4.5Z" fill="#F44336"/>
</svg>
