<svg width="32" height="32" viewBox="0 0 32 32" fill="none" xmlns="http://www.w3.org/2000/svg">
<g transform="translate(0.7499, 4.4954)">
<path id="Vector" d="M30.5003 13.509C30.5003 13.9068 30.3423 14.2883 30.0609 14.5696C29.7796 14.8509 29.3981 15.009 29.0003 15.009H24.0003C23.6025 15.009 23.2209 14.8509 22.9396 14.5696C22.6583 14.2883 22.5003 13.9068 22.5003 13.509C22.5003 13.1111 22.6583 12.7296 22.9396 12.4483C23.2209 12.167 23.6025 12.009 24.0003 12.009H29.0003C29.3981 12.009 29.7796 12.167 30.0609 12.4483C30.3423 12.7296 30.5003 13.1111 30.5003 13.509ZM23.649 20.544C23.905 20.8486 24.0294 21.2425 23.9949 21.6389C23.9605 22.0353 23.77 22.4018 23.4653 22.6577C23.1606 22.9136 22.7668 23.0381 22.3704 23.0036C21.974 22.9691 21.6075 22.7786 21.3515 22.474C19.6403 20.4365 16.6253 18.009 12.0003 18.009C8.38904 18.009 5.06779 19.594 2.64904 22.474C2.3931 22.7786 2.02662 22.9691 1.63022 23.0036C1.23381 23.0381 0.839955 22.9136 0.535288 22.6577C0.23062 22.4018 0.0401007 22.0353 0.00564086 21.6389C-0.028819 21.2425 0.0956039 20.8486 0.351538 20.544C1.98119 18.5758 4.07189 17.0407 6.43779 16.0752C4.96658 14.9186 3.89253 13.332 3.3651 11.5364C2.83768 9.74085 2.88311 7.82551 3.49509 6.05695C4.10706 4.28839 5.25513 2.75459 6.77953 1.66899C8.30394 0.583391 10.1288 0 12.0003 0C13.8717 0 15.6966 0.583391 17.221 1.66899C18.7454 2.75459 19.8935 4.28839 20.5055 6.05695C21.1175 7.82551 21.1629 9.74085 20.6355 11.5364C20.108 13.332 19.034 14.9186 17.5628 16.0752C19.9289 17.0403 22.0197 18.5755 23.649 20.544ZM12.0003 15.009C13.187 15.009 14.347 14.6571 15.3337 13.9978C16.3204 13.3385 17.0894 12.4014 17.5436 11.3051C17.9977 10.2087 18.1165 9.0023 17.885 7.83842C17.6535 6.67453 17.082 5.60543 16.2429 4.76632C15.4038 3.9272 14.3347 3.35576 13.1708 3.12425C12.0069 2.89274 10.8005 3.01156 9.70419 3.46568C8.60783 3.91981 7.67076 4.68884 7.01147 5.67554C6.35218 6.66223 6.00029 7.82227 6.00029 9.00896C6.00194 10.5998 6.63461 12.1249 7.75947 13.2498C8.88433 14.3746 10.4095 15.0073 12.0003 15.009Z" fill="white" fill-opacity="0.95"/>
</g>
</svg>
