<svg width="32" height="32" viewBox="0 0 32 32" fill="none" xmlns="http://www.w3.org/2000/svg">
<g transform="translate(2.5006, 2.9771)">
<path id="Vector" d="M26.8212 23.7537C25.1074 20.7459 22.4313 18.4022 19.2237 17.1C20.8188 15.9037 21.9971 14.2358 22.5916 12.3326C23.1861 10.4294 23.1668 8.3874 22.5362 6.49584C21.9057 4.60427 20.696 2.95904 19.0785 1.7932C17.461 0.627355 15.5176 0 13.5237 0C11.5299 0 9.58651 0.627355 7.96899 1.7932C6.35147 2.95904 5.14177 4.60427 4.51125 6.49584C3.88072 8.3874 3.86135 10.4294 4.45586 12.3326C5.05037 14.2358 6.22863 15.9037 7.82374 17.1C4.61614 18.4022 1.94004 20.7459 0.226237 23.7537C0.120043 23.9245 0.0492659 24.1149 0.0181121 24.3135C-0.0130417 24.5122 -0.00393587 24.7151 0.0448884 24.9101C0.0937127 25.1052 0.181259 25.2884 0.302322 25.449C0.423385 25.6096 0.575493 25.7441 0.749605 25.8447C0.923716 25.9453 1.11628 26.0099 1.31584 26.0346C1.5154 26.0593 1.71788 26.0436 1.91126 25.9884C2.10464 25.9333 2.28495 25.8399 2.44149 25.7136C2.59803 25.5874 2.7276 25.431 2.82249 25.2537C5.08749 21.3387 9.08749 19.0037 13.5237 19.0037C17.96 19.0037 21.96 21.34 24.225 25.2537C24.4306 25.5844 24.7568 25.8221 25.1345 25.9167C25.5123 26.0112 25.912 25.9552 26.2491 25.7604C26.5863 25.5656 26.8345 25.2473 26.9413 24.8728C27.048 24.4984 27.005 24.0971 26.8212 23.7537ZM7.02374 9.50375C7.02374 8.21817 7.40496 6.96146 8.11919 5.89254C8.83341 4.82362 9.84858 3.9905 11.0363 3.49853C12.224 3.00656 13.5309 2.87784 14.7918 3.12865C16.0527 3.37945 17.2109 3.99851 18.1199 4.90756C19.029 5.8166 19.648 6.97479 19.8988 8.23566C20.1496 9.49654 20.0209 10.8035 19.529 11.9912C19.037 13.1789 18.2039 14.1941 17.1349 14.9083C16.066 15.6225 14.8093 16.0037 13.5237 16.0037C11.8004 16.0018 10.1483 15.3163 8.92974 14.0978C7.71118 12.8792 7.02572 11.227 7.02374 9.50375Z" fill="white" fill-opacity="0.95"/>
</g>
</svg>
