<svg width="32" height="32" viewBox="0 0 32 32" fill="none" xmlns="http://www.w3.org/2000/svg">
<g transform="translate(3.5000, 3.5000)">
<path id="Vector" d="M25 1.5V6C25 6.39782 24.842 6.77936 24.5607 7.06066C24.2794 7.34196 23.8978 7.5 23.5 7.5C23.1022 7.5 22.7206 7.34196 22.4393 7.06066C22.158 6.77936 22 6.39782 22 6V3H19C18.6022 3 18.2206 2.84196 17.9393 2.56066C17.658 2.27936 17.5 1.89782 17.5 1.5C17.5 1.10218 17.658 0.720644 17.9393 0.43934C18.2206 0.158035 18.6022 0 19 0H23.5C23.8978 0 24.2794 0.158035 24.5607 0.43934C24.842 0.720644 25 1.10218 25 1.5ZM23.5 17.5C23.1022 17.5 22.7206 17.658 22.4393 17.9393C22.158 18.2206 22 18.6022 22 19V22H19C18.6022 22 18.2206 22.158 17.9393 22.4393C17.658 22.7206 17.5 23.1022 17.5 23.5C17.5 23.8978 17.658 24.2794 17.9393 24.5607C18.2206 24.842 18.6022 25 19 25H23.5C23.8978 25 24.2794 24.842 24.5607 24.5607C24.842 24.2794 25 23.8978 25 23.5V19C25 18.6022 24.842 18.2206 24.5607 17.9393C24.2794 17.658 23.8978 17.5 23.5 17.5ZM6 22H3V19C3 18.6022 2.84196 18.2206 2.56066 17.9393C2.27936 17.658 1.89782 17.5 1.5 17.5C1.10218 17.5 0.720644 17.658 0.43934 17.9393C0.158035 18.2206 0 18.6022 0 19V23.5C0 23.8978 0.158035 24.2794 0.43934 24.5607C0.720644 24.842 1.10218 25 1.5 25H6C6.39782 25 6.77936 24.842 7.06066 24.5607C7.34196 24.2794 7.5 23.8978 7.5 23.5C7.5 23.1022 7.34196 22.7206 7.06066 22.4393C6.77936 22.158 6.39782 22 6 22ZM1.5 7.5C1.89782 7.5 2.27936 7.34196 2.56066 7.06066C2.84196 6.77936 3 6.39782 3 6V3H6C6.39782 3 6.77936 2.84196 7.06066 2.56066C7.34196 2.27936 7.5 1.89782 7.5 1.5C7.5 1.10218 7.34196 0.720644 7.06066 0.43934C6.77936 0.158035 6.39782 0 6 0H1.5C1.10218 0 0.720644 0.158035 0.43934 0.43934C0.158035 0.720644 0 1.10218 0 1.5V6C0 6.39782 0.158035 6.77936 0.43934 7.06066C0.720644 7.34196 1.10218 7.5 1.5 7.5ZM18.5 19C18.2672 19.0001 18.0376 18.9461 17.8294 18.8422C17.6211 18.7383 17.4399 18.5873 17.3 18.4013C16.7412 17.6556 16.0163 17.0504 15.183 16.6335C14.3496 16.2166 13.4306 15.9996 12.4987 15.9996C11.5669 15.9996 10.6479 16.2166 9.81454 16.6335C8.98116 17.0504 8.25633 17.6556 7.6975 18.4013C7.45559 18.7111 7.10172 18.9136 6.71203 18.9652C6.32234 19.0168 5.92797 18.9133 5.61377 18.6771C5.29958 18.4409 5.09066 18.0908 5.03198 17.7021C4.9733 17.3134 5.06954 16.9172 5.3 16.5987C6.0956 15.5346 7.11663 14.6596 8.29 14.0362C7.61563 13.2346 7.18421 12.2571 7.04649 11.2187C6.90877 10.1802 7.07047 9.12402 7.51258 8.17433C7.95469 7.22465 8.65882 6.42098 9.54213 5.85785C10.4254 5.29473 11.4512 4.99557 12.4987 4.99557C13.5463 4.99557 14.5721 5.29473 15.4554 5.85785C16.3387 6.42098 17.0428 7.22465 17.4849 8.17433C17.927 9.12402 18.0887 10.1802 17.951 11.2187C17.8133 12.2571 17.3819 13.2346 16.7075 14.0362C17.8809 14.6596 18.9019 15.5346 19.6975 16.5987C19.8649 16.8214 19.9669 17.0863 19.9922 17.3637C20.0175 17.6412 19.9651 17.9201 19.8408 18.1694C19.7165 18.4187 19.5252 18.6285 19.2884 18.7752C19.0516 18.9219 18.7786 18.9997 18.5 19ZM12.5 13C12.9945 13 13.4778 12.8534 13.8889 12.5787C14.3 12.304 14.6205 11.9135 14.8097 11.4567C14.9989 10.9999 15.0484 10.4972 14.952 10.0123C14.8555 9.52732 14.6174 9.08186 14.2678 8.73223C13.9181 8.3826 13.4727 8.1445 12.9877 8.04804C12.5028 7.95157 12.0001 8.00108 11.5433 8.1903C11.0865 8.37952 10.696 8.69995 10.4213 9.11107C10.1466 9.5222 10 10.0055 10 10.5C10 11.163 10.2634 11.7989 10.7322 12.2678C11.2011 12.7366 11.837 13 12.5 13Z" fill="white" fill-opacity="0.95"/>
</g>
</svg>
