<svg width="32" height="32" viewBox="0 0 32 32" fill="none" xmlns="http://www.w3.org/2000/svg">
<g transform="translate(0.7479, 4.4960)">
<path id="Vector" d="M17.5628 16.0752C19.034 14.9185 20.108 13.332 20.6355 11.5364C21.1629 9.74085 21.1175 7.82551 20.5055 6.05695C19.8935 4.28839 18.7454 2.75459 17.221 1.66899C15.6966 0.583391 13.8717 0 12.0003 0C10.1288 0 8.30394 0.583391 6.77953 1.66899C5.25513 2.75459 4.10706 4.28839 3.49509 6.05695C2.88311 7.82551 2.83768 9.74085 3.3651 11.5364C3.89253 13.332 4.96658 14.9185 6.43779 16.0752C4.07182 17.04 1.98105 18.5747 0.351538 20.5427C0.0956039 20.8474 -0.028819 21.2412 0.00564086 21.6376C0.0401007 22.034 0.23062 22.4005 0.535288 22.6565C0.839955 22.9124 1.23381 23.0368 1.63022 23.0024C2.02662 22.9679 2.3931 22.7774 2.64904 22.4727C4.36029 20.4352 7.37529 18.0077 12.0003 18.0077C16.6253 18.0077 19.6403 20.4352 21.3515 22.4727C21.6075 22.7774 21.974 22.9679 22.3704 23.0024C22.7668 23.0368 23.1606 22.9124 23.4653 22.6565C23.77 22.4005 23.9605 22.034 23.9949 21.6376C24.0294 21.2412 23.905 20.8474 23.649 20.5427C22.0199 18.5742 19.929 17.0395 17.5628 16.0752ZM6.00029 9.00771C6.00029 7.82102 6.35218 6.66098 7.01147 5.67429C7.67076 4.68759 8.60783 3.91856 9.70419 3.46443C10.8005 3.01031 12.0069 2.89149 13.1708 3.123C14.3347 3.35451 15.4038 3.92595 16.2429 4.76507C17.082 5.60418 17.6535 6.67328 17.885 7.83717C18.1165 9.00105 17.9977 10.2075 17.5436 11.3038C17.0894 12.4002 16.3204 13.3372 15.3337 13.9965C14.347 14.6558 13.187 15.0077 12.0003 15.0077C10.4095 15.0061 8.88433 14.3734 7.75947 13.2485C6.63461 12.1237 6.00194 10.5985 6.00029 9.00771ZM30.0615 13.569L26.0615 17.569C25.9222 17.7088 25.7566 17.8198 25.5743 17.8955C25.3919 17.9712 25.1965 18.0101 24.999 18.0101C24.8016 18.0101 24.6061 17.9712 24.4238 17.8955C24.2415 17.8198 24.0759 17.7088 23.9365 17.569L21.9365 15.569C21.6547 15.2872 21.4964 14.905 21.4964 14.5065C21.4964 14.1079 21.6547 13.7258 21.9365 13.444C22.2183 13.1622 22.6005 13.0039 22.999 13.0039C23.3976 13.0039 23.7797 13.1622 24.0615 13.444L25.0003 14.3827L27.939 11.4427C28.0786 11.3032 28.2442 11.1925 28.4265 11.117C28.6088 11.0415 28.8042 11.0026 29.0015 11.0026C29.1989 11.0026 29.3943 11.0415 29.5766 11.117C29.7589 11.1925 29.9245 11.3032 30.064 11.4427C30.2036 11.5822 30.3142 11.7479 30.3898 11.9302C30.4653 12.1125 30.5041 12.3079 30.5041 12.5052C30.5041 12.7025 30.4653 12.8979 30.3898 13.0802C30.3142 13.2625 30.2036 13.4282 30.064 13.5677L30.0615 13.569Z" fill="white" fill-opacity="0.95"/>
</g>
</svg>
