<svg width="32" height="32" viewBox="0 0 32 32" fill="none" xmlns="http://www.w3.org/2000/svg">
<g transform="translate(2.5000, 2.5000)">
<path id="Vector" d="M13.5 0C10.83 0 8.21987 0.791761 5.99981 2.27516C3.77974 3.75856 2.04942 5.86697 1.02763 8.33377C0.00584937 10.8006 -0.261496 13.515 0.259405 16.1337C0.780305 18.7525 2.06606 21.1579 3.95406 23.0459C5.84207 24.934 8.24754 26.2197 10.8663 26.7406C13.485 27.2615 16.1994 26.9942 18.6662 25.9724C21.133 24.9506 23.2414 23.2203 24.7248 21.0002C26.2082 18.7801 27 16.17 27 13.5C26.996 9.9208 25.5724 6.48932 23.0416 3.95844C20.5107 1.42756 17.0792 0.00397028 13.5 0ZM7.44626 22.0713C8.1426 21.1191 9.05371 20.3447 10.1056 19.8108C11.1574 19.2769 12.3204 18.9987 13.5 18.9987C14.6796 18.9987 15.8426 19.2769 16.8944 19.8108C17.9463 20.3447 18.8574 21.1191 19.5538 22.0713C17.7845 23.326 15.669 24 13.5 24C11.331 24 9.21553 23.326 7.44626 22.0713ZM10 12.5C10 11.8078 10.2053 11.1311 10.5899 10.5555C10.9744 9.97993 11.5211 9.53133 12.1606 9.26642C12.8002 9.00151 13.5039 8.9322 14.1828 9.06725C14.8618 9.2023 15.4854 9.53564 15.9749 10.0251C16.4644 10.5146 16.7977 11.1382 16.9328 11.8172C17.0678 12.4961 16.9985 13.1999 16.7336 13.8394C16.4687 14.4789 16.0201 15.0256 15.4445 15.4101C14.8689 15.7947 14.1922 16 13.5 16C12.5717 16 11.6815 15.6313 11.0251 14.9749C10.3688 14.3185 10 13.4283 10 12.5ZM21.75 19.9925C20.7778 18.7559 19.5385 17.7551 18.125 17.065C19.0259 16.1527 19.6368 14.9944 19.881 13.7358C20.1252 12.4772 19.9917 11.1744 19.4974 9.99149C19.003 8.80853 18.1699 7.79819 17.1027 7.08757C16.0356 6.37695 14.7821 5.99779 13.5 5.99779C12.2179 5.99779 10.9644 6.37695 9.8973 7.08757C8.83015 7.79819 7.997 8.80853 7.50264 9.99149C7.00828 11.1744 6.8748 12.4772 7.11899 13.7358C7.36319 14.9944 7.97414 16.1527 8.87501 17.065C7.46147 17.7551 6.22224 18.7559 5.25001 19.9925C4.02881 18.4444 3.26819 16.5838 3.0552 14.6236C2.84221 12.6634 3.18546 10.6828 4.04567 8.90859C4.90587 7.13437 6.24827 5.63822 7.91918 4.59139C9.5901 3.54457 11.522 2.98938 13.4938 2.98938C15.4655 2.98938 17.3974 3.54457 19.0683 4.59139C20.7392 5.63822 22.0816 7.13437 22.9418 8.90859C23.8021 10.6828 24.1453 12.6634 23.9323 14.6236C23.7193 16.5838 22.9587 18.4444 21.7375 19.9925H21.75Z" fill="white" fill-opacity="0.95"/>
</g>
</svg>
