<svg width="29" height="18" viewBox="0 0 29 18" fill="none" xmlns="http://www.w3.org/2000/svg">
<path d="M15.2969 0C16.7696 0 17.9639 1.19423 17.9639 2.66699V15.2969C17.9639 16.7696 16.7696 17.9639 15.2969 17.9639H2.66699C1.19423 17.9639 0 16.7696 0 15.2969V2.66699C0 1.19423 1.19423 0 2.66699 0H15.2969ZM8.98145 5.98828C7.32827 5.98851 5.98852 7.32827 5.98828 8.98145C5.98828 10.6348 7.32812 11.9754 8.98145 11.9756C10.635 11.9756 11.9756 10.635 11.9756 8.98145C11.9753 7.32813 10.6348 5.98828 8.98145 5.98828Z" fill="white"/>
<path d="M22.0785 8.98179L25.4506 12.3539V5.60968L22.0785 8.98179ZM28.4445 15.3654C28.4445 16.9213 26.5635 17.7004 25.4632 16.6002L19.0796 10.2166C18.3976 9.53457 18.3976 8.42901 19.0796 7.74697L25.4632 1.36336L25.5685 1.2659C26.6791 0.31265 28.4445 1.09082 28.4445 2.59818V15.3654Z" fill="white"/>
<path d="M26.5663 15.5884L20.1169 9.13902C20.0301 9.05224 20.0301 8.91153 20.1169 8.82475L26.5663 2.37533C26.7063 2.23534 26.9456 2.33449 26.9456 2.53246V15.4313C26.9456 15.6293 26.7063 15.7284 26.5663 15.5884Z" fill="white" stroke="white" stroke-width="2.66667"/>
</svg>
