<svg width="32" height="32" viewBox="0 0 32 32" fill="none" xmlns="http://www.w3.org/2000/svg">
<path d="M19.6588 2.65243C19.4065 2.52909 19.1246 2.47904 18.8453 2.50799C18.566 2.53694 18.3004 2.64372 18.0788 2.81618L9.485 9.49993H4C3.33696 9.49993 2.70107 9.76332 2.23223 10.2322C1.76339 10.701 1.5 11.3369 1.5 11.9999V19.9999C1.5 20.663 1.76339 21.2989 2.23223 21.7677C2.70107 22.2365 3.33696 22.4999 4 22.4999H9.485L18.0788 29.1837C18.3004 29.3562 18.566 29.463 18.8453 29.4919C19.1247 29.5209 19.4065 29.4708 19.6588 29.3475C19.9111 29.2241 20.1237 29.0324 20.2724 28.7942C20.4212 28.556 20.5 28.2808 20.5 27.9999V3.99993C20.5 3.71909 20.4211 3.4439 20.2724 3.20568C20.1237 2.96745 19.9111 2.77576 19.6588 2.65243ZM4.5 12.4999H8.5V19.4999H4.5V12.4999ZM17.5 24.9324L11.5 20.2662V11.7337L17.5 7.06743V24.9324ZM26.5 15.9999C26.5002 17.3398 26.0113 18.6337 25.125 19.6387C24.9947 19.7864 24.8365 19.907 24.6596 19.9936C24.4826 20.0803 24.2903 20.1312 24.0937 20.1435C23.8971 20.1558 23.6999 20.1292 23.5136 20.0654C23.3272 20.0015 23.1552 19.9015 23.0075 19.7712C22.8598 19.6408 22.7391 19.4827 22.6525 19.3057C22.5659 19.1288 22.515 18.9365 22.5027 18.7399C22.4904 18.5432 22.5169 18.3461 22.5808 18.1597C22.6447 17.9734 22.7447 17.8014 22.875 17.6537C23.2768 17.1972 23.4985 16.6099 23.4985 16.0018C23.4985 15.3937 23.2768 14.8064 22.875 14.3499C22.6252 14.0498 22.5024 13.664 22.5325 13.2747C22.5626 12.8854 22.7434 12.5232 23.0364 12.265C23.3294 12.0069 23.7115 11.8732 24.1015 11.8923C24.4915 11.9114 24.8587 12.0819 25.125 12.3674C26.0104 13.3704 26.4994 14.662 26.5 15.9999ZM31.5 15.9999C31.5015 18.583 30.5494 21.0757 28.8263 22.9999C28.561 23.2965 28.1889 23.4755 27.7917 23.4977C27.3944 23.5198 27.0047 23.3833 26.7081 23.1181C26.4116 22.8528 26.2325 22.4807 26.2104 22.0835C26.1882 21.6862 26.3248 21.2965 26.59 20.9999C27.8199 19.6249 28.4998 17.8448 28.4998 15.9999C28.4998 14.1551 27.8199 12.375 26.59 10.9999C26.4533 10.8541 26.3471 10.6824 26.2778 10.4949C26.2084 10.3075 26.1771 10.108 26.1859 9.90833C26.1947 9.70863 26.2433 9.5127 26.3289 9.33205C26.4144 9.1514 26.5352 8.98968 26.6842 8.85639C26.8332 8.72309 27.0072 8.62091 27.1963 8.55585C27.3853 8.49079 27.5854 8.46417 27.7848 8.47754C27.9843 8.49091 28.179 8.54402 28.3576 8.63372C28.5363 8.72343 28.6952 8.84794 28.825 8.99993C30.5486 10.924 31.5012 13.4167 31.5 15.9999Z" fill="white" fill-opacity="0.95"/>
</svg>
