<svg width="34" height="32" viewBox="0 0 34 32" fill="none" xmlns="http://www.w3.org/2000/svg">
<g clip-path="url(#clip0_109_535)" filter="url(#filter0_dd_109_535)">
<path d="M20.6588 2.65255C20.4065 2.52921 20.1246 2.47917 19.8453 2.50811C19.566 2.53706 19.3004 2.64384 19.0788 2.8163L10.485 9.50005H5C4.33696 9.50005 3.70107 9.76344 3.23223 10.2323C2.76339 10.7011 2.5 11.337 2.5 12.0001V20.0001C2.5 20.6631 2.76339 21.299 3.23223 21.7678C3.70107 22.2367 4.33696 22.5001 5 22.5001H10.485L19.0788 29.1838C19.3004 29.3563 19.566 29.4631 19.8453 29.492C20.1247 29.521 20.4065 29.471 20.6588 29.3476C20.9111 29.2243 21.1237 29.0326 21.2724 28.7943C21.4212 28.5561 21.5 28.2809 21.5 28.0001V4.00005C21.5 3.71921 21.4211 3.44402 21.2724 3.2058C21.1237 2.96757 20.9111 2.77588 20.6588 2.65255ZM18.5 24.9338L11.9213 19.8163C11.6579 19.6113 11.3337 19.5001 11 19.5001H5.5V12.5001H11C11.3337 12.5 11.6579 12.3888 11.9213 12.1838L18.5 7.06755V24.9338ZM32.0612 17.9401C32.2008 18.0796 32.3115 18.2452 32.387 18.4275C32.4625 18.6098 32.5014 18.8052 32.5014 19.0026C32.5014 19.1999 32.4625 19.3953 32.387 19.5776C32.3115 19.7599 32.2008 19.9255 32.0612 20.0651C31.9217 20.2046 31.7561 20.3153 31.5738 20.3908C31.3915 20.4663 31.1961 20.5052 30.9988 20.5052C30.8014 20.5052 30.606 20.4663 30.4237 20.3908C30.2414 20.3153 30.0758 20.2046 29.9363 20.0651L28 18.1251L26.0613 20.0651C25.7795 20.3468 25.3973 20.5052 24.9988 20.5052C24.6002 20.5052 24.218 20.3468 23.9363 20.0651C23.6545 19.7833 23.4961 19.4011 23.4961 19.0026C23.4961 18.604 23.6545 18.2218 23.9363 17.9401L25.875 16.0001L23.935 14.0613C23.7955 13.9218 23.6848 13.7561 23.6093 13.5738C23.5338 13.3915 23.4949 13.1961 23.4949 12.9988C23.4949 12.8015 23.5338 12.6061 23.6093 12.4238C23.6848 12.2415 23.7955 12.0758 23.935 11.9363C24.2168 11.6545 24.599 11.4962 24.9975 11.4962C25.1948 11.4962 25.3902 11.5351 25.5725 11.6106C25.7548 11.6861 25.9205 11.7968 26.06 11.9363L28 13.8751L29.9387 11.9363C30.0783 11.7968 30.2439 11.6861 30.4262 11.6106C30.6085 11.5351 30.8039 11.4962 31.0012 11.4962C31.1986 11.4962 31.394 11.5351 31.5763 11.6106C31.7586 11.6861 31.9242 11.7968 32.0638 11.9363C32.2033 12.0758 32.314 12.2415 32.3895 12.4238C32.465 12.6061 32.5039 12.8015 32.5039 12.9988C32.5039 13.1961 32.465 13.3915 32.3895 13.5738C32.314 13.7561 32.2033 13.9218 32.0638 14.0613L30.125 16.0001L32.0612 17.9401Z" fill="white"/>
</g>
<defs>
<filter id="filter0_dd_109_535" x="-0.2" y="-0.2" width="34.2" height="34.2" filterUnits="userSpaceOnUse" color-interpolation-filters="sRGB">
<feFlood flood-opacity="0" result="BackgroundImageFix"/>
<feColorMatrix in="SourceAlpha" type="matrix" values="0 0 0 0 0 0 0 0 0 0 0 0 0 0 0 0 0 0 127 0" result="hardAlpha"/>
<feOffset dx="1" dy="1"/>
<feGaussianBlur stdDeviation="0.5"/>
<feColorMatrix type="matrix" values="0 0 0 0 0 0 0 0 0 0 0 0 0 0 0 0 0 0 0.1 0"/>
<feBlend mode="normal" in2="BackgroundImageFix" result="effect1_dropShadow_109_535"/>
<feColorMatrix in="SourceAlpha" type="matrix" values="0 0 0 0 0 0 0 0 0 0 0 0 0 0 0 0 0 0 127 0" result="hardAlpha"/>
<feOffset dx="0.4" dy="0.4"/>
<feGaussianBlur stdDeviation="0.3"/>
<feComposite in2="hardAlpha" operator="out"/>
<feColorMatrix type="matrix" values="0 0 0 0 0 0 0 0 0 0 0 0 0 0 0 0 0 0 0.1 0"/>
<feBlend mode="normal" in2="effect1_dropShadow_109_535" result="effect2_dropShadow_109_535"/>
<feBlend mode="normal" in="SourceGraphic" in2="effect2_dropShadow_109_535" result="shape"/>
</filter>
<clipPath id="clip0_109_535">
<rect width="32" height="32" fill="white"/>
</clipPath>
</defs>
</svg>
