<svg width="32" height="32" viewBox="0 0 32 32" fill="none" xmlns="http://www.w3.org/2000/svg">
<g transform="translate(2.5000, 2.5000)">
<path id="Vector" d="M13.5 0C10.83 0 8.21987 0.791761 5.99981 2.27516C3.77974 3.75856 2.04942 5.86697 1.02763 8.33377C0.00584937 10.8006 -0.261496 13.515 0.259405 16.1337C0.780305 18.7525 2.06606 21.1579 3.95406 23.0459C5.84207 24.934 8.24754 26.2197 10.8663 26.7406C13.485 27.2615 16.1994 26.9942 18.6662 25.9724C21.133 24.9506 23.2414 23.2203 24.7248 21.0002C26.2082 18.7801 27 16.17 27 13.5C26.996 9.9208 25.5724 6.48932 23.0416 3.95844C20.5107 1.42756 17.0792 0.00397028 13.5 0ZM13.5 24C11.4233 24 9.39323 23.3842 7.66652 22.2304C5.9398 21.0767 4.59399 19.4368 3.79927 17.5182C3.00455 15.5996 2.79662 13.4884 3.20176 11.4516C3.60691 9.41475 4.60693 7.54383 6.07538 6.07538C7.54384 4.60693 9.41476 3.6069 11.4516 3.20175C13.4884 2.79661 15.5996 3.00454 17.5182 3.79926C19.4368 4.59399 21.0767 5.9398 22.2304 7.66651C23.3842 9.39323 24 11.4233 24 13.5C23.997 16.2839 22.8898 18.9528 20.9213 20.9213C18.9529 22.8898 16.2839 23.997 13.5 24ZM12 14V7.5C12 7.10218 12.158 6.72064 12.4393 6.43934C12.7206 6.15804 13.1022 6 13.5 6C13.8978 6 14.2794 6.15804 14.5607 6.43934C14.842 6.72064 15 7.10218 15 7.5V14C15 14.3978 14.842 14.7794 14.5607 15.0607C14.2794 15.342 13.8978 15.5 13.5 15.5C13.1022 15.5 12.7206 15.342 12.4393 15.0607C12.158 14.7794 12 14.3978 12 14ZM15.5 19C15.5 19.3956 15.3827 19.7822 15.1629 20.1111C14.9432 20.44 14.6308 20.6964 14.2654 20.8478C13.8999 20.9991 13.4978 21.0387 13.1098 20.9616C12.7219 20.8844 12.3655 20.6939 12.0858 20.4142C11.8061 20.1345 11.6156 19.7781 11.5384 19.3902C11.4613 19.0022 11.5009 18.6001 11.6522 18.2346C11.8036 17.8692 12.06 17.5568 12.3889 17.3371C12.7178 17.1173 13.1044 17 13.5 17C14.0304 17 14.5391 17.2107 14.9142 17.5858C15.2893 17.9609 15.5 18.4696 15.5 19Z" fill="white" fill-opacity="0.95"/>
</g>
</svg>
