<svg width="32" height="32" viewBox="0 0 32 32" fill="none" xmlns="http://www.w3.org/2000/svg">
<g transform="translate(4.5000, 2.5000)">
<path id="Vector" d="M3 9.5V17.5C3 17.8978 2.84196 18.2794 2.56066 18.5607C2.27936 18.842 1.89782 19 1.5 19C1.10218 19 0.720644 18.842 0.43934 18.5607C0.158035 18.2794 0 17.8978 0 17.5V9.5C0 9.10218 0.158035 8.72064 0.43934 8.43934C0.720644 8.15804 1.10218 8 1.5 8C1.89782 8 2.27936 8.15804 2.56066 8.43934C2.84196 8.72064 3 9.10218 3 9.5ZM6.5 0C6.10218 0 5.72064 0.158035 5.43934 0.43934C5.15804 0.720644 5 1.10218 5 1.5V25.5C5 25.8978 5.15804 26.2794 5.43934 26.5607C5.72064 26.842 6.10218 27 6.5 27C6.89782 27 7.27936 26.842 7.56066 26.5607C7.84196 26.2794 8 25.8978 8 25.5V1.5C8 1.10218 7.84196 0.720644 7.56066 0.43934C7.27936 0.158035 6.89782 0 6.5 0ZM11.5 4C11.1022 4 10.7206 4.15804 10.4393 4.43934C10.158 4.72064 10 5.10218 10 5.5V21.5C10 21.8978 10.158 22.2794 10.4393 22.5607C10.7206 22.842 11.1022 23 11.5 23C11.8978 23 12.2794 22.842 12.5607 22.5607C12.842 22.2794 13 21.8978 13 21.5V5.5C13 5.10218 12.842 4.72064 12.5607 4.43934C12.2794 4.15804 11.8978 4 11.5 4ZM16.5 8C16.1022 8 15.7206 8.15804 15.4393 8.43934C15.158 8.72064 15 9.10218 15 9.5V17.5C15 17.8978 15.158 18.2794 15.4393 18.5607C15.7206 18.842 16.1022 19 16.5 19C16.8978 19 17.2794 18.842 17.5607 18.5607C17.842 18.2794 18 17.8978 18 17.5V9.5C18 9.10218 17.842 8.72064 17.5607 8.43934C17.2794 8.15804 16.8978 8 16.5 8ZM21.5 6C21.1022 6 20.7206 6.15804 20.4393 6.43934C20.158 6.72064 20 7.10218 20 7.5V19.5C20 19.8978 20.158 20.2794 20.4393 20.5607C20.7206 20.842 21.1022 21 21.5 21C21.8978 21 22.2794 20.842 22.5607 20.5607C22.842 20.2794 23 19.8978 23 19.5V7.5C23 7.10218 22.842 6.72064 22.5607 6.43934C22.2794 6.15804 21.8978 6 21.5 6Z" fill="white" fill-opacity="0.95"/>
</g>
</svg>
